# j.c. convert leaf file to obj
# Verts
v -0.001671 0.500000 -0.448172
v -0.068749 0.500000 -0.337500
v -0.068750 -0.000000 -0.337500
v -0.001672 -0.000000 -0.448172
v 0.082563 0.500000 -0.546188
v 0.082562 -0.000000 -0.546188
v 0.183953 -0.000000 -0.631547
v 0.183954 0.500000 -0.631547
v 0.302500 -0.000000 -0.704250
v 0.302501 0.500000 -0.704250
v 0.394047 -0.000000 -0.767391
v 0.394048 0.500000 -0.767391
v 0.459438 0.500000 -0.846563
v 0.459437 -0.000000 -0.846562
v 0.498673 0.500000 -0.941766
v 0.498672 -0.000000 -0.941766
v 0.511751 0.500000 -1.053000
v 0.511750 -0.000000 -1.053000
v 0.498954 0.500000 -1.168170
v 0.498953 -0.000000 -1.168170
v 0.460563 0.500000 -1.275190
v 0.460562 -0.000000 -1.275190
v 0.396579 0.500000 -1.374050
v 0.396578 -0.000000 -1.374050
v 0.307001 0.500000 -1.464750
v 0.307000 -0.000000 -1.464750
v 0.254829 0.500000 -1.502160
v 0.254828 -0.000000 -1.502160
v 0.199563 0.500000 -1.528870
v 0.199562 -0.000000 -1.528870
v 0.141204 0.500000 -1.544910
v 0.141203 -0.000000 -1.544910
v 0.079751 0.500000 -1.550250
v 0.079750 -0.000000 -1.550250
v -0.019742 0.500000 -1.538440
v -0.019742 -0.000000 -1.538440
v -0.117968 0.500000 -1.503000
v -0.117969 -0.000000 -1.503000
v -0.214929 0.500000 -1.443940
v -0.214930 -0.000000 -1.443940
v -0.310624 0.500000 -1.361250
v -0.310625 -0.000000 -1.361250
v -0.396617 0.500000 -1.264500
v -0.396617 -0.000000 -1.264500
v -0.464468 0.500000 -1.163250
v -0.464469 -0.000000 -1.163250
v -0.514179 0.500000 -1.057500
v -0.514180 -0.000000 -1.057500
v -0.545749 0.500000 -0.947250
v -0.545750 -0.000000 -0.947250
v -0.178578 0.500000 -1.018270
v -0.232999 0.500000 -0.830250
v -0.233000 -0.000000 -0.830250
v -0.178578 -0.000000 -1.018270
v -0.116562 0.500000 -1.152560
v -0.116563 -0.000000 -1.152560
v -0.082706 0.500000 -1.199570
v -0.082707 -0.000000 -1.199570
v -0.046953 -0.000000 -1.233140
v -0.046953 0.500000 -1.233140
v -0.009301 -0.000000 -1.253290
v -0.009300 0.500000 -1.253290
v 0.030250 -0.000000 -1.260000
v 0.030251 0.500000 -1.260000
v 0.084250 -0.000000 -1.247060
v 0.084251 0.500000 -1.247060
v 0.138250 -0.000000 -1.208250
v 0.138251 0.500000 -1.208250
v 0.197313 0.500000 -1.135690
v 0.197312 -0.000000 -1.135690
v 0.217001 0.500000 -1.066500
v 0.217000 -0.000000 -1.066500
v 0.206313 0.500000 -1.020090
v 0.206312 -0.000000 -1.020090
v 0.174251 0.500000 -0.966375
v 0.174250 -0.000000 -0.966375
v 0.120813 0.500000 -0.905344
v 0.120812 -0.000000 -0.905344
v 0.046001 0.500000 -0.837000
v 0.046000 -0.000000 -0.837000
v -0.167187 0.500000 -0.649125
v -0.167188 -0.000000 -0.649125
v -0.293749 0.500000 -0.522000
v -0.293750 -0.000000 -0.522000
v -0.383749 0.500000 -0.401625
v -0.383750 -0.000000 -0.401625
v -0.455749 0.500000 -0.274500
v -0.455750 -0.000000 -0.274500
v -0.509749 0.500000 -0.140625
v -0.509750 -0.000000 -0.140625
v -0.545750 0.500000 -0.000000
v -0.545750 0.000000 0.000000
# UVs
# Normals
vn 0.825423 -0.000002 0.564515
vn 0.855184 -0.000002 0.518324
vn 0.855184 -0.000002 0.518324
vn 0.793068 -0.000002 0.609132
vn 0.703506 -0.000001 0.710690
vn 0.703506 -0.000001 0.710690
vn 0.605127 -0.000001 0.796129
vn 0.564614 -0.000001 0.825355
vn 0.537959 -0.000001 0.842971
vn 0.552953 -0.000001 0.833213
vn 0.675849 -0.000001 0.737040
vn 0.675850 -0.000001 0.737039
vn 0.830455 -0.000001 0.557086
vn 0.882149 -0.000001 0.470970
vn 0.955374 -0.000002 0.295398
vn 0.978431 -0.000002 0.206572
vn 0.999148 -0.000002 0.041271
vn 0.999391 -0.000002 -0.034901
vn 0.982301 -0.000002 -0.187311
vn 0.964655 -0.000002 -0.263515
vn 0.912705 -0.000002 -0.408619
vn 0.878585 -0.000002 -0.477586
vn 0.800562 -0.000002 -0.599249
vn 0.757691 -0.000001 -0.652613
vn 0.670711 -0.000001 -0.741719
vn 0.627651 -0.000001 -0.778495
vn 0.535287 -0.000001 -0.844671
vn 0.485931 -0.000001 -0.873997
vn 0.379833 -0.000001 -0.925055
vn 0.322916 -0.000001 -0.946428
vn 0.206293 -0.000000 -0.978490
vn 0.146591 -0.000000 -0.989197
vn 0.018509 -0.000000 -0.999829
vn -0.049959 0.000000 -0.998751
vn -0.192826 0.000000 -0.981233
vn -0.267090 0.000000 -0.963672
vn -0.401455 0.000001 -0.915879
vn -0.461999 0.000001 -0.886880
vn -0.566467 0.000001 -0.824084
vn -0.611141 0.000001 -0.791521
vn -0.686345 0.000001 -0.727276
vn -0.717612 0.000001 -0.696443
vn -0.776799 0.000000 -0.629749
vn -0.804615 0.000001 -0.593796
vn -0.857647 0.000001 -0.514238
vn -0.882469 0.000002 -0.470370
vn -0.926436 0.000002 -0.376453
vn -0.945279 0.000002 -0.326264
vn -0.961362 0.000002 -0.275286
vn -0.961362 0.000002 -0.275286
vn 0.945393 -0.000001 0.325932
vn 0.960572 -0.000002 0.278031
vn 0.960572 -0.000001 0.278033
vn 0.927781 -0.000001 0.373126
vn 0.879313 -0.000001 0.476245
vn 0.847047 -0.000002 0.531519
vn 0.751466 -0.000001 0.659772
vn 0.751463 -0.000002 0.659775
vn 0.618339 -0.000000 0.785912
vn 0.546908 -0.000000 0.837193
vn 0.374654 -0.000000 0.927165
vn 0.271936 -0.000001 0.962315
vn 0.034450 -0.000000 0.999406
vn -0.101425 0.000000 0.994843
vn -0.355818 0.000001 0.934555
vn -0.474656 0.000001 0.880171
vn -0.685565 0.000001 0.728011
vn -0.685565 0.000001 0.728011
vn -0.853196 0.000002 0.521591
vn -0.916437 0.000002 0.400179
vn -0.993849 0.000002 0.110748
vn -0.998194 0.000002 -0.060066
vn -0.946075 0.000002 -0.323947
vn -0.907047 0.000002 -0.421030
vn -0.826237 0.000002 -0.563322
vn -0.790671 0.000002 -0.612241
vn -0.727398 0.000001 -0.686216
vn -0.701399 0.000001 -0.712768
vn -0.670058 0.000001 -0.742308
vn -0.665622 0.000001 -0.746289
vn -0.677320 0.000001 -0.735689
vn -0.693165 0.000001 -0.720779
vn -0.741055 0.000001 -0.671444
vn -0.771865 0.000002 -0.635787
vn -0.825447 0.000002 -0.564480
vn -0.848566 0.000002 -0.529089
vn -0.890943 0.000002 -0.454115
vn -0.910068 0.000002 -0.414458
vn -0.943031 0.000002 -0.332705
vn -0.956845 0.000001 -0.290598
vn -0.968759 0.000001 -0.248006
vn -0.968759 -0.000000 -0.248002
# Material
mtllib 21.mtl
usemtl 21
# Faces
f 1//1 2//2 3//3 
f 1//1 3//3 4//4 
f 5//5 1//1 4//4 
f 5//5 4//4 6//6 
f 7//7 8//8 5//5 
f 7//7 5//5 6//6 
f 9//9 10//10 8//8 
f 9//9 8//8 7//7 
f 11//11 12//12 10//10 
f 11//11 10//10 9//9 
f 13//13 12//12 11//11 
f 13//13 11//11 14//14 
f 15//15 13//13 14//14 
f 15//15 14//14 16//16 
f 17//17 15//15 16//16 
f 17//17 16//16 18//18 
f 19//19 17//17 18//18 
f 19//19 18//18 20//20 
f 21//21 19//19 20//20 
f 21//21 20//20 22//22 
f 23//23 21//21 22//22 
f 23//23 22//22 24//24 
f 25//25 23//23 24//24 
f 25//25 24//24 26//26 
f 25//25 26//26 27//27 
f 27//27 26//26 28//28 
f 27//27 28//28 29//29 
f 29//29 28//28 30//30 
f 29//29 30//30 31//31 
f 31//31 30//30 32//32 
f 31//31 32//32 33//33 
f 33//33 32//32 34//34 
f 33//33 34//34 35//35 
f 35//35 34//34 36//36 
f 35//35 36//36 37//37 
f 37//37 36//36 38//38 
f 37//37 38//38 39//39 
f 39//39 38//38 40//40 
f 39//39 40//40 41//41 
f 41//41 40//40 42//42 
f 43//43 41//41 42//42 
f 43//43 42//42 44//44 
f 45//45 43//43 44//44 
f 45//45 44//44 46//46 
f 47//47 45//45 46//46 
f 47//47 46//46 48//48 
f 49//49 47//47 48//48 
f 49//49 48//48 50//50 
f 51//51 52//52 53//53 
f 51//51 53//53 54//54 
f 55//55 51//51 54//54 
f 55//55 54//54 56//56 
f 57//57 55//55 56//56 
f 57//57 56//56 58//58 
f 59//59 60//60 57//57 
f 59//59 57//57 58//58 
f 61//61 62//62 60//60 
f 61//61 60//60 59//59 
f 63//63 64//64 62//62 
f 63//63 62//62 61//61 
f 65//65 66//66 64//64 
f 65//65 64//64 63//63 
f 67//67 68//68 66//66 
f 67//67 66//66 65//65 
f 69//69 68//68 67//67 
f 69//69 67//67 70//70 
f 71//71 69//69 70//70 
f 71//71 70//70 72//72 
f 73//73 71//71 72//72 
f 73//73 72//72 74//74 
f 75//75 73//73 74//74 
f 75//75 74//74 76//76 
f 77//77 75//75 76//76 
f 77//77 76//76 78//78 
f 77//77 78//78 79//79 
f 79//79 78//78 80//80 
f 79//79 80//80 81//81 
f 81//81 80//80 82//82 
f 83//83 81//81 82//82 
f 83//83 82//82 84//84 
f 85//85 83//83 84//84 
f 85//85 84//84 86//86 
f 87//87 85//85 86//86 
f 87//87 86//86 88//88 
f 89//89 87//87 88//88 
f 89//89 88//88 90//90 
f 91//91 89//89 90//90 
f 91//91 90//90 92//92 
# eof
