# j.c. convert leaf file to obj
# Verts
v -0.066750 0.500000 -1.593000
v -0.411000 0.500000 -1.568250
v -0.417750 0.500000 -1.352250
v -0.064500 0.500000 -1.190810
v -0.402000 0.500000 -1.029940
v -0.048750 0.500000 -0.911250
v -0.382312 0.500000 -0.891984
v -0.038625 0.500000 -0.850219
v -0.021750 0.500000 -0.806625
v 0.001875 0.500000 -0.780469
v -0.354750 0.500000 -0.769500
v 0.032250 0.500000 -0.771750
v 0.423750 0.500000 -1.453500
v 0.108750 0.500000 -1.449000
v 0.135750 0.500000 -1.105880
v 0.140250 0.500000 -0.913500
v 0.129844 0.500000 -0.862031
v -0.303422 0.500000 -0.621844
v 0.067969 0.500000 -0.782719
v 0.176250 0.500000 -0.519750
v 0.103125 0.500000 -0.815625
v 0.493500 0.500000 0.022500
v 0.140250 0.500000 0.087750
v -0.237187 0.500000 -0.516375
v -0.198480 0.500000 -0.479461
v 0.050813 0.500000 -0.453937
v -0.156047 0.500000 -0.453094
v -0.006422 0.500000 -0.437484
v -0.109887 0.500000 -0.437273
v -0.060000 0.500000 -0.432000
v 0.176250 -0.000000 -0.519750
v 0.140250 0.000000 0.087750
v 0.493500 0.000000 0.022500
v 0.423750 -0.000000 -1.453500
v 0.108750 -0.000000 -1.449000
v -0.066750 -0.000000 -1.593000
v -0.411000 -0.000000 -1.568250
v -0.417750 -0.000000 -1.352250
v -0.064500 -0.000000 -1.190810
v -0.402000 -0.000000 -1.029940
v -0.048750 -0.000000 -0.911250
v -0.382313 -0.000000 -0.891984
v -0.038625 -0.000000 -0.850219
v -0.021750 -0.000000 -0.806625
v 0.001875 -0.000000 -0.780469
v -0.354750 -0.000000 -0.769500
v 0.032250 -0.000000 -0.771750
v 0.135750 -0.000000 -1.105880
v 0.140250 -0.000000 -0.913500
v 0.129844 -0.000000 -0.862031
v -0.303422 -0.000000 -0.621844
v 0.067969 -0.000000 -0.782719
v 0.103125 -0.000000 -0.815625
v -0.237188 -0.000000 -0.516375
v -0.198481 -0.000000 -0.479461
v 0.050812 -0.000000 -0.453937
v -0.156047 -0.000000 -0.453094
v -0.006422 -0.000000 -0.437484
v -0.109887 -0.000000 -0.437273
v -0.060000 -0.000000 -0.432000
# UVs
# Normals
vn 0.000000 1.000000 0.000000
vn 0.000000 1.000000 -0.000000
vn -0.998249 0.000000 -0.059155
vn 0.181641 -0.000000 0.983365
vn 0.998885 0.000000 -0.047203
vn 0.998885 0.000000 -0.047203
vn -0.014284 -0.000000 -0.999898
vn -0.071711 -0.000000 -0.997425
vn 0.000000 -1.000000 0.000000
vn -0.000000 -1.000000 0.000000
vn -0.000000 -1.000000 0.000000
vn -0.000000 -1.000000 0.000000
vn 0.000000 -1.000000 0.000000
vn 0.000000 -1.000000 0.000000
vn -0.000000 -1.000000 0.000000
vn 0.000000 -1.000000 0.000000
vn -0.000000 -1.000000 0.000000
vn -0.000000 -1.000000 0.000000
vn 0.000000 -1.000000 0.000000
vn -0.000000 -1.000000 0.000000
vn 0.000000 -1.000000 0.000000
vn -0.000000 -1.000000 0.000000
vn 0.000000 -1.000000 0.000000
vn 0.000000 -1.000000 0.000000
vn -0.000000 -1.000000 0.000000
vn -0.000000 -1.000000 0.000000
vn 0.000000 -1.000000 0.000000
vn 0.000000 -1.000000 0.000000
vn 0.000000 -1.000000 0.000000
vn 0.000000 -1.000000 0.000000
vn 0.000000 -1.000000 0.000000
vn 0.000000 -1.000000 0.000000
vn 0.000000 -1.000000 0.000000
vn 0.000000 -1.000000 0.000000
vn 0.000000 -1.000000 0.000000
vn 0.000000 -1.000000 0.000000
# Material
mtllib 42.mtl
usemtl 42
# Faces
f 1//1 2//1 3//1 
f 1//1 3//1 4//1 
f 4//1 3//1 5//1 
f 4//1 5//1 6//1 
f 6//1 5//1 7//1 
f 6//1 7//1 8//1 
f 8//2 7//2 9//2 
f 9//1 7//1 10//1 
f 10//1 7//1 11//1 
f 12//1 10//1 11//1 
f 13//1 14//1 15//1 
f 13//1 15//1 16//1 
f 13//1 16//1 17//1 
f 12//1 11//1 18//1 
f 19//1 12//1 18//1 
f 19//1 18//1 20//1 
f 21//1 19//1 20//1 
f 17//1 21//1 20//1 
f 13//1 17//1 20//1 
f 13//1 20//1 22//1 
f 22//1 20//1 23//1 
f 20//1 18//1 24//1 
f 20//1 24//1 25//1 
f 20//1 25//1 26//1 
f 26//1 25//1 27//1 
f 26//1 27//1 28//1 
f 28//1 27//1 29//1 
f 28//1 29//1 30//1 
f 23//3 20//3 31//3 
f 23//3 31//3 32//3 
f 33//4 22//4 23//4 
f 33//4 23//4 32//4 
f 13//5 22//5 33//5 
f 13//6 33//6 34//6 
f 13//7 34//7 14//7 
f 14//7 34//7 35//7 
f 1//8 36//8 2//8 
f 2//8 36//8 37//8 
f 37//9 36//9 38//9 
f 38//10 36//10 39//10 
f 38//11 39//11 40//11 
f 40//12 39//12 41//12 
f 40//13 41//13 42//13 
f 42//14 41//14 43//14 
f 42//15 43//15 44//15 
f 42//16 44//16 45//16 
f 42//17 45//17 46//17 
f 45//18 47//18 46//18 
f 35//19 34//19 48//19 
f 48//20 34//20 49//20 
f 49//21 34//21 50//21 
f 46//22 47//22 51//22 
f 47//23 52//23 51//23 
f 51//24 52//24 31//24 
f 52//25 53//25 31//25 
f 53//26 50//26 31//26 
f 50//27 34//27 31//27 
f 31//28 34//28 33//28 
f 31//29 33//29 32//29 
f 51//30 31//30 54//30 
f 54//31 31//31 55//31 
f 55//32 31//32 56//32 
f 55//33 56//33 57//33 
f 57//34 56//34 58//34 
f 57//35 58//35 59//35 
f 59//36 58//36 60//36 
# eof
