# j.c. convert leaf file to obj
# Verts
v -0.459500 0.500000 -1.073250
v -0.432500 0.500000 -1.478250
v -0.432500 -0.000000 -1.478250
v -0.459500 -0.000000 -1.073250
v -0.457953 0.500000 -0.989156
v -0.457953 -0.000000 -0.989156
v -0.446563 0.500000 -0.910125
v -0.446562 -0.000000 -0.910125
v -0.425328 0.500000 -0.836156
v -0.425328 -0.000000 -0.836156
v -0.394250 0.500000 -0.767250
v -0.394250 -0.000000 -0.767250
v -0.339828 0.500000 -0.687656
v -0.339828 -0.000000 -0.687656
v -0.271063 -0.000000 -0.622125
v -0.271063 0.500000 -0.622125
v -0.187953 -0.000000 -0.570656
v -0.187953 0.500000 -0.570656
v -0.090500 -0.000000 -0.533250
v -0.090500 0.500000 -0.533250
v 0.021437 -0.000000 -0.486000
v 0.021437 0.500000 -0.486000
v 0.105250 -0.000000 -0.416250
v 0.105250 0.500000 -0.416250
v 0.149125 0.500000 -0.342000
v 0.149125 -0.000000 -0.342000
v 0.163750 0.500000 -0.263250
v 0.163750 -0.000000 -0.263250
v 0.156719 0.500000 -0.207563
v 0.156719 -0.000000 -0.207563
v 0.135625 0.500000 -0.166500
v 0.135625 -0.000000 -0.166500
v 0.100469 -0.000000 -0.140063
v 0.100469 0.500000 -0.140063
v 0.051250 -0.000000 -0.128250
v 0.051250 0.500000 -0.128250
v -0.018359 0.500000 -0.149344
v -0.018359 -0.000000 -0.149344
v -0.065188 0.500000 -0.203625
v -0.065188 -0.000000 -0.203625
v -0.089234 0.500000 -0.291094
v -0.089234 -0.000000 -0.291094
v -0.090500 0.500000 -0.411750
v -0.090500 -0.000000 -0.411750
v -0.423359 0.500000 -0.185484
v -0.470750 0.500000 -0.344250
v -0.470750 -0.000000 -0.344250
v -0.423359 -0.000000 -0.185484
v -0.350937 0.500000 -0.055687
v -0.350938 -0.000000 -0.055688
v -0.253484 0.500000 0.045141
v -0.253484 0.000000 0.045141
v -0.131000 0.000000 0.117000
v -0.131000 0.500000 0.117000
v -0.010625 0.000000 0.153562
v -0.010625 0.500000 0.153562
v 0.125500 0.000000 0.164250
v 0.125500 0.500000 0.164250
v 0.200172 0.000000 0.149484
v 0.200172 0.500000 0.149484
v 0.266688 0.000000 0.116437
v 0.266688 0.500000 0.116437
v 0.325047 0.000000 0.065109
v 0.325047 0.500000 0.065109
v 0.375250 0.500000 -0.004500
v 0.375250 -0.000000 -0.004500
v 0.412656 0.500000 -0.077625
v 0.412656 -0.000000 -0.077625
v 0.439375 0.500000 -0.157500
v 0.439375 -0.000000 -0.157500
v 0.455406 0.500000 -0.244125
v 0.455406 -0.000000 -0.244125
v 0.460750 0.500000 -0.337500
v 0.460750 -0.000000 -0.337500
v 0.444438 0.500000 -0.490500
v 0.444438 -0.000000 -0.490500
v 0.395500 0.500000 -0.621000
v 0.395500 -0.000000 -0.621000
v 0.356969 0.500000 -0.679922
v 0.356969 -0.000000 -0.679922
v 0.311125 0.500000 -0.726188
v 0.311125 -0.000000 -0.726188
v 0.257969 -0.000000 -0.759797
v 0.257969 0.500000 -0.759797
v 0.197500 -0.000000 -0.780750
v 0.197500 0.500000 -0.780750
v 0.118750 -0.000000 -0.798750
v 0.118750 0.500000 -0.798750
v -0.003313 -0.000000 -0.837563
v -0.003313 0.500000 -0.837563
v -0.090500 -0.000000 -0.891000
v -0.090500 0.500000 -0.891000
v -0.142812 0.500000 -0.959062
v -0.142812 -0.000000 -0.959062
v -0.160250 0.500000 -1.041750
v -0.160250 -0.000000 -1.041750
v -0.154625 0.500000 -1.090120
v -0.154625 -0.000000 -1.090120
v -0.137750 0.500000 -1.136250
v -0.137750 -0.000000 -1.136250
# UVs
# Normals
vn -0.999268 0.000000 -0.038246
vn -0.997785 0.000000 -0.066519
vn -0.997785 0.000000 -0.066519
vn -0.999951 0.000000 -0.009919
vn -0.998204 0.000000 0.059915
vn -0.994845 -0.000001 0.101408
vn -0.982271 -0.000001 0.187468
vn -0.972719 -0.000001 0.231985
vn -0.946828 -0.000001 0.321741
vn -0.930255 0.000000 0.366913
vn -0.885925 0.000000 0.463828
vn -0.857131 0.000000 0.515099
vn -0.761868 0.000000 0.647732
vn -0.761868 0.000000 0.647732
vn -0.638451 0.000000 0.769662
vn -0.583733 0.000000 0.811946
vn -0.444386 0.000000 0.895836
vn -0.444386 0.000000 0.895836
vn -0.378751 0.000000 0.925498
vn -0.368570 0.000000 0.929600
vn -0.519912 0.000000 0.854219
vn -0.519912 0.000000 0.854219
vn -0.761472 0.000000 0.648197
vn -0.761472 0.000000 0.648197
vn -0.914086 0.000000 0.405520
vn -0.955401 0.000000 0.295312
vn -0.996728 0.000000 0.080830
vn -0.999738 0.000000 -0.022888
vn -0.971009 0.000000 -0.239045
vn -0.936333 0.000000 -0.351112
vn -0.764659 0.000000 -0.644435
vn -0.764659 0.000000 -0.644435
vn -0.487501 0.000000 -0.873123
vn -0.362643 0.000000 -0.931928
vn 0.029339 0.000000 -0.999570
vn 0.029339 0.000000 -0.999570
vn 0.461955 0.000000 -0.886904
vn 0.623341 0.000000 -0.781950
vn 0.844548 0.000000 -0.535479
vn 0.915102 0.000000 -0.403222
vn 0.983381 0.000000 -0.181552
vn 0.995375 0.000000 -0.096061
vn 0.999945 0.000000 -0.010492
vn 0.999945 0.000000 -0.010492
vn -0.934871 0.000000 0.354987
vn -0.958222 0.000000 0.286025
vn -0.958222 0.000000 0.286025
vn -0.906401 0.000000 0.422419
vn -0.828037 0.000000 0.560674
vn -0.776242 0.000000 0.630435
vn -0.618233 0.000000 0.785995
vn -0.618233 0.000000 0.785995
vn -0.436916 0.000000 0.899502
vn -0.364671 0.000000 0.931136
vn -0.220991 0.000000 0.975276
vn -0.149838 0.000000 0.988711
vn 0.012584 0.000000 0.999921
vn 0.104098 0.000000 0.994567
vn 0.279832 0.000000 0.960049
vn 0.364144 0.000000 0.931343
vn 0.520680 0.000000 0.853752
vn 0.593052 0.000000 0.805164
vn 0.740410 0.000000 0.672156
vn 0.740410 0.000000 0.672156
vn 0.839626 0.000000 0.543166
vn 0.866098 0.000000 0.499874
vn 0.911916 0.000000 0.410376
vn 0.931320 0.000000 0.364202
vn 0.962088 0.000000 0.272738
vn 0.973766 0.000000 0.227553
vn 0.990065 0.000000 0.140608
vn 0.995095 0.000000 0.098923
vn 0.999996 0.000000 0.002762
vn 0.998658 0.000000 -0.051783
vn 0.981966 0.000000 -0.189056
vn 0.962483 0.000000 -0.271342
vn 0.908090 0.000000 -0.418774
vn 0.874780 0.000000 -0.484520
vn 0.798341 0.000000 -0.602205
vn 0.755951 0.000000 -0.654628
vn 0.626376 0.000000 -0.779521
vn 0.626376 0.000000 -0.779521
vn 0.468164 0.000000 -0.883642
vn 0.398755 0.000000 -0.917057
vn 0.292933 0.000000 -0.956133
vn 0.258026 0.000000 -0.966138
vn 0.249750 0.000000 -0.968310
vn 0.276504 0.000000 -0.961013
vn 0.378663 0.000000 -0.925535
vn 0.452320 0.000000 -0.891856
vn 0.668862 0.000000 -0.743387
vn 0.668862 0.000000 -0.743387
vn 0.874074 0.000000 -0.485792
vn 0.937344 0.000000 -0.348405
vn 0.994965 0.000000 -0.100226
vn 0.999965 0.000000 0.008321
vn 0.981257 0.000000 0.192704
vn 0.963089 0.000000 0.269184
vn 0.939135 0.000000 0.343548
vn 0.939135 0.000000 0.343548
# Material
mtllib 51.mtl
usemtl 51
# Faces
f 1//1 2//2 3//3 
f 1//1 3//3 4//4 
f 5//5 1//1 4//4 
f 5//5 4//4 6//6 
f 7//7 5//5 6//6 
f 7//7 6//6 8//8 
f 9//9 7//7 8//8 
f 9//9 8//8 10//10 
f 11//11 9//9 10//10 
f 11//11 10//10 12//12 
f 13//13 11//11 12//12 
f 13//13 12//12 14//14 
f 15//15 16//16 13//13 
f 15//15 13//13 14//14 
f 17//17 18//18 16//16 
f 17//17 16//16 15//15 
f 19//19 20//20 17//17 
f 17//17 20//20 18//18 
f 21//21 22//22 19//19 
f 19//19 22//22 20//20 
f 23//23 24//24 22//22 
f 23//23 22//22 21//21 
f 25//25 24//24 23//23 
f 25//25 23//23 26//26 
f 27//27 25//25 26//26 
f 27//27 26//26 28//28 
f 29//29 27//27 28//28 
f 29//29 28//28 30//30 
f 31//31 29//29 30//30 
f 31//31 30//30 32//32 
f 31//31 32//32 33//33 
f 31//31 33//33 34//34 
f 34//34 33//33 35//35 
f 34//34 35//35 36//36 
f 36//36 35//35 37//37 
f 37//37 35//35 38//38 
f 39//39 37//37 38//38 
f 39//39 38//38 40//40 
f 41//41 39//39 40//40 
f 41//41 40//40 42//42 
f 43//43 41//41 42//42 
f 43//43 42//42 44//44 
f 45//45 46//46 47//47 
f 45//45 47//47 48//48 
f 49//49 45//45 48//48 
f 49//49 48//48 50//50 
f 51//51 49//49 50//50 
f 51//51 50//50 52//52 
f 53//53 54//54 51//51 
f 53//53 51//51 52//52 
f 55//55 56//56 54//54 
f 55//55 54//54 53//53 
f 57//57 58//58 56//56 
f 57//57 56//56 55//55 
f 59//59 60//60 58//58 
f 59//59 58//58 57//57 
f 61//61 62//62 60//60 
f 61//61 60//60 59//59 
f 63//63 64//64 62//62 
f 63//63 62//62 61//61 
f 65//65 64//64 63//63 
f 65//65 63//63 66//66 
f 67//67 65//65 66//66 
f 67//67 66//66 68//68 
f 69//69 67//67 68//68 
f 69//69 68//68 70//70 
f 71//71 69//69 70//70 
f 71//71 70//70 72//72 
f 73//73 71//71 72//72 
f 73//73 72//72 74//74 
f 75//75 73//73 74//74 
f 75//75 74//74 76//76 
f 77//77 75//75 76//76 
f 77//77 76//76 78//78 
f 79//79 77//77 78//78 
f 79//79 78//78 80//80 
f 81//81 79//79 80//80 
f 81//81 80//80 82//82 
f 81//81 82//82 83//83 
f 81//81 83//83 84//84 
f 84//84 83//83 85//85 
f 84//84 85//85 86//86 
f 86//86 85//85 87//87 
f 86//86 87//87 88//88 
f 88//88 87//87 89//89 
f 88//88 89//89 90//90 
f 90//90 89//89 91//91 
f 90//90 91//91 92//92 
f 93//93 92//92 91//91 
f 93//93 91//91 94//94 
f 95//95 93//93 94//94 
f 95//95 94//94 96//96 
f 97//97 95//95 96//96 
f 97//97 96//96 98//98 
f 99//99 97//97 98//98 
f 99//99 98//98 100//100 
# eof
