# j.c. convert leaf file to obj
# Verts
v 0.520752 0.500000 -0.663329
v 0.572501 0.500000 -0.585000
v 0.572500 -0.000000 -0.585000
v 0.520750 -0.000000 -0.663328
v 0.334564 0.500000 -0.439313
v 0.316001 0.500000 -0.477000
v 0.316000 -0.000000 -0.477000
v 0.334562 -0.000000 -0.439313
v 0.181002 0.500000 -1.098000
v 0.172037 0.500000 -1.131750
v 0.172035 -0.000000 -1.131750
v 0.181000 -0.000000 -1.098000
v 0.451002 0.500000 -0.727313
v 0.451000 -0.000000 -0.727313
v 0.363252 0.500000 -0.776954
v 0.363250 -0.000000 -0.776953
v 0.257502 0.500000 -0.812250
v 0.257500 -0.000000 -0.812250
v 0.350031 -0.000000 -0.895078
v 0.350033 0.500000 -0.895079
v 0.416127 0.500000 -0.977063
v 0.416125 -0.000000 -0.977063
v 0.455783 0.500000 -1.058200
v 0.455781 -0.000000 -1.058200
v 0.469002 0.500000 -1.138500
v 0.469000 -0.000000 -1.138500
v 0.463377 0.500000 -1.188000
v 0.463375 -0.000000 -1.188000
v 0.446502 0.500000 -1.237500
v 0.446500 -0.000000 -1.237500
v 0.375064 0.500000 -1.342830
v 0.375062 -0.000000 -1.342830
v 0.329642 0.500000 -1.383360
v 0.329641 -0.000000 -1.383360
v 0.277752 0.500000 -1.415810
v 0.277750 -0.000000 -1.415810
v 0.154564 0.500000 -1.456450
v 0.154562 -0.000000 -1.456450
v 0.005502 0.500000 -1.464750
v 0.005500 -0.000000 -1.464750
v -0.148061 0.500000 -1.457440
v -0.148063 -0.000000 -1.457440
v -0.275748 0.500000 -1.431000
v -0.275750 -0.000000 -1.431000
v -0.396264 0.500000 -1.378690
v -0.396266 -0.000000 -1.378690
v -0.442283 0.500000 -1.344520
v -0.442285 -0.000000 -1.344520
v -0.478811 0.500000 -1.305000
v -0.478813 -0.000000 -1.305000
v -0.505846 0.500000 -1.260140
v -0.505848 -0.000000 -1.260140
v -0.523389 0.500000 -1.209940
v -0.523391 -0.000000 -1.209940
v -0.529998 0.500000 -1.093500
v -0.530000 -0.000000 -1.093500
v -0.507076 0.500000 -0.978188
v -0.507078 -0.000000 -0.978187
v -0.463061 0.500000 -0.891001
v -0.463063 -0.000000 -0.891000
v -0.397953 -0.000000 -0.831937
v -0.397951 0.500000 -0.831938
v -0.311750 -0.000000 -0.801000
v -0.311748 0.500000 -0.801001
v -0.410186 0.500000 -0.706782
v -0.410188 -0.000000 -0.706781
v -0.480498 0.500000 -0.608626
v -0.480500 -0.000000 -0.608625
v -0.522686 0.500000 -0.506532
v -0.522688 -0.000000 -0.506531
v -0.536748 0.500000 -0.400501
v -0.536750 -0.000000 -0.400500
v -0.518748 0.500000 -0.283501
v -0.518750 -0.000000 -0.283500
v -0.482186 0.500000 -0.191391
v -0.482187 -0.000000 -0.191391
v -0.430998 0.500000 -0.110813
v -0.431000 -0.000000 -0.110813
v -0.365186 0.500000 -0.041766
v -0.365188 -0.000000 -0.041766
v -0.284750 0.000000 0.015750
v -0.284748 0.500000 0.015749
v -0.207125 0.000000 0.054141
v -0.207124 0.500000 0.054140
v -0.125000 0.000000 0.081562
v -0.124998 0.500000 0.081562
v -0.038375 0.000000 0.098016
v -0.038374 0.500000 0.098015
v 0.052750 0.000000 0.103500
v 0.052751 0.500000 0.103499
v 0.160187 0.000000 0.095062
v 0.160189 0.500000 0.095062
v 0.253000 0.000000 0.069750
v 0.253001 0.500000 0.069749
v 0.318883 0.000000 0.037898
v 0.318884 0.500000 0.037898
v 0.381531 -0.000000 -0.005906
v 0.381533 0.500000 -0.005907
v 0.440945 -0.000000 -0.061664
v 0.440947 0.500000 -0.061665
v 0.497126 0.500000 -0.129376
v 0.497125 -0.000000 -0.129375
v 0.544869 0.500000 -0.203555
v 0.544867 -0.000000 -0.203555
v 0.578970 0.500000 -0.278719
v 0.578969 -0.000000 -0.278719
v 0.599431 0.500000 -0.354868
v 0.599430 -0.000000 -0.354867
v 0.606251 0.500000 -0.432000
v 0.606250 -0.000000 -0.432000
v 0.597814 0.500000 -0.510750
v 0.597812 -0.000000 -0.510750
v 0.340751 0.500000 -0.393750
v 0.340750 -0.000000 -0.393750
v 0.330345 0.500000 -0.325829
v 0.330344 -0.000000 -0.325828
v 0.299126 0.500000 -0.270563
v 0.299125 -0.000000 -0.270563
v 0.247095 0.500000 -0.227954
v 0.247094 -0.000000 -0.227953
v 0.174251 0.500000 -0.198001
v 0.174250 -0.000000 -0.198000
v 0.052751 0.500000 -0.177751
v 0.052750 -0.000000 -0.177750
v -0.007295 0.500000 -0.188157
v -0.007297 -0.000000 -0.188156
v -0.059186 0.500000 -0.219376
v -0.059188 -0.000000 -0.219375
v -0.102920 0.500000 -0.271407
v -0.102922 -0.000000 -0.271406
v -0.138498 0.500000 -0.344251
v -0.138500 -0.000000 -0.344250
v -0.151998 0.500000 -0.411751
v -0.152000 -0.000000 -0.411750
v -0.135686 0.500000 -0.473063
v -0.135688 -0.000000 -0.473063
v -0.086750 -0.000000 -0.522000
v -0.086748 0.500000 -0.522001
v 0.032500 -0.000000 -0.576000
v 0.032502 0.500000 -0.576001
v 0.088750 -0.000000 -0.587250
v 0.088752 0.500000 -0.587251
v 0.151187 -0.000000 -0.578813
v 0.151189 0.500000 -0.578813
v 0.217000 -0.000000 -0.553500
v 0.217002 0.500000 -0.553500
v 0.275500 -0.000000 -0.517500
v 0.275501 0.500000 -0.517500
v 0.170938 0.500000 -1.046250
v 0.170936 -0.000000 -1.046250
v 0.140748 0.500000 -0.994501
v 0.140746 -0.000000 -0.994500
v 0.084260 0.500000 -0.945563
v 0.084259 -0.000000 -0.945563
v 0.013236 0.500000 -0.920250
v 0.013234 -0.000000 -0.920250
v -0.033768 0.500000 -0.915751
v -0.033770 -0.000000 -0.915750
v -0.094023 0.500000 -0.927563
v -0.094025 -0.000000 -0.927563
v -0.142814 0.500000 -0.963000
v -0.142815 -0.000000 -0.963000
v -0.180139 0.500000 -1.022060
v -0.180140 -0.000000 -1.022060
v -0.205998 0.500000 -1.104750
v -0.206000 -0.000000 -1.104750
v -0.208248 0.500000 -1.127250
v -0.208250 -0.000000 -1.127250
v -0.194267 0.500000 -1.172530
v -0.194269 -0.000000 -1.172530
v -0.152325 -0.000000 -1.204870
v -0.152323 0.500000 -1.204870
v -0.082419 -0.000000 -1.224280
v -0.082417 0.500000 -1.224280
v 0.015449 -0.000000 -1.230750
v 0.015451 0.500000 -1.230750
v 0.055725 -0.000000 -1.222870
v 0.055727 0.500000 -1.222870
v 0.100475 -0.000000 -1.199250
v 0.100476 0.500000 -1.199250
# UVs
# Normals
vn 0.786788 -0.000003 -0.617223
vn 0.915744 -0.000003 -0.401762
vn 0.878086 -0.000003 -0.478504
vn 0.733649 -0.000004 -0.679529
vn -0.939196 0.000003 0.343383
vn -0.779709 0.000002 0.626142
vn -0.843800 0.000002 0.536658
vn -0.970833 0.000003 0.239758
vn -0.993932 0.000004 0.109999
vn -0.859189 0.000003 0.511658
vn -0.859190 0.000003 0.511657
vn -0.999090 0.000004 -0.042650
vn 0.618341 -0.000003 -0.785910
vn 0.556782 -0.000003 -0.830659
vn 0.435580 -0.000003 -0.900150
vn 0.376746 -0.000003 -0.926317
vn 0.979266 -0.000004 -0.202578
vn 0.979267 -0.000004 -0.202574
vn 0.725123 -0.000002 0.688620
vn 0.725123 -0.000001 0.688619
vn 0.823067 -0.000003 0.567945
vn 0.863262 -0.000003 0.504755
vn 0.936681 -0.000004 0.350183
vn 0.966390 -0.000004 0.257081
vn 0.997458 -0.000004 0.071256
vn 0.999773 -0.000004 -0.021309
vn 0.982968 -0.000004 -0.183777
vn 0.967188 -0.000004 -0.254061
vn 0.914124 -0.000004 -0.405434
vn 0.874173 -0.000003 -0.485614
vn 0.778907 -0.000003 -0.627140
vn 0.724603 -0.000002 -0.689166
vn 0.622589 -0.000002 -0.782549
vn 0.577253 -0.000002 -0.816565
vn 0.460857 -0.000001 -0.887474
vn 0.388083 -0.000002 -0.921624
vn 0.229153 -0.000001 -0.973391
vn 0.142589 -0.000001 -0.989782
vn 0.021239 -0.000000 -0.999774
vn -0.013183 0.000000 -0.999913
vn -0.099560 0.000000 -0.995032
vn -0.151441 0.000001 -0.988466
vn -0.269158 0.000001 -0.963096
vn -0.334595 0.000001 -0.942362
vn -0.466878 0.000002 -0.884322
vn -0.533261 0.000002 -0.845951
vn -0.644696 0.000003 -0.764439
vn -0.690943 0.000003 -0.722909
vn -0.778655 0.000003 -0.627452
vn -0.819553 0.000003 -0.573003
vn -0.889863 0.000004 -0.456228
vn -0.919177 0.000004 -0.393845
vn -0.970548 0.000004 -0.240908
vn -0.988832 0.000004 -0.149035
vn -0.999624 0.000004 0.027405
vn -0.993721 0.000004 0.111883
vn -0.959266 0.000004 0.282504
vn -0.929653 0.000004 0.368437
vn -0.795610 0.000004 0.605810
vn -0.795610 0.000004 0.605809
vn -0.570216 0.000004 0.821495
vn -0.456927 0.000004 0.889504
vn -0.978142 0.000004 0.207939
vn -0.978142 0.000004 0.207939
vn -0.734766 0.000002 -0.678321
vn -0.775418 0.000002 -0.631448
vn -0.855039 0.000002 -0.518564
vn -0.892342 0.000003 -0.451359
vn -0.953725 0.000003 -0.300681
vn -0.976267 0.000003 -0.216572
vn -0.999304 0.000004 -0.037296
vn -0.998313 0.000004 0.058069
vn -0.974215 0.000004 0.225620
vn -0.954464 0.000004 0.298326
vn -0.904547 0.000003 0.426373
vn -0.875979 0.000002 0.482349
vn -0.807435 0.000003 0.589957
vn -0.767190 0.000003 0.641420
vn -0.655664 0.000003 0.755053
vn -0.655665 0.000003 0.755051
vn -0.537085 0.000003 0.843528
vn -0.490844 0.000003 0.871247
vn -0.401952 0.000003 0.915661
vn -0.359663 0.000002 0.933082
vn -0.273893 0.000002 0.961760
vn -0.230437 0.000001 0.973087
vn -0.144689 0.000002 0.989477
vn -0.102433 0.000002 0.994740
vn -0.013979 0.000002 0.999902
vn 0.032240 0.000001 0.999480
vn 0.140449 0.000000 0.990088
vn 0.202300 0.000000 0.979324
vn 0.321709 0.000000 0.946838
vn 0.379306 0.000000 0.925271
vn 0.482550 -0.000000 0.875868
vn 0.528603 -0.000001 0.848869
vn 0.611522 -0.000001 0.791228
vn 0.648703 -0.000001 0.761042
vn 0.728368 -0.000001 0.685186
vn 0.728369 -0.000002 0.685185
vn 0.794646 -0.000001 0.607073
vn 0.818450 -0.000001 0.574577
vn 0.866197 -0.000003 0.499703
vn 0.889508 -0.000003 0.456920
vn 0.931784 -0.000003 0.363014
vn 0.950199 -0.000002 0.311642
vn 0.979170 -0.000002 0.203040
vn 0.989328 -0.000002 0.145707
vn 0.999728 -0.000002 0.023306
vn 0.999124 -0.000003 -0.041840
vn 0.983747 -0.000003 -0.179562
vn 0.967726 -0.000003 -0.252005
vn -0.999216 0.000003 0.039592
vn -0.998396 0.000002 -0.056618
vn -0.963193 0.000001 -0.268809
vn -0.923354 0.000001 -0.383950
vn -0.803858 0.000001 -0.594822
vn -0.723605 0.000001 -0.690214
vn -0.554542 -0.000000 -0.832156
vn -0.469287 -0.000001 -0.883046
vn -0.310073 -0.000001 -0.950713
vn -0.237700 -0.000001 -0.971339
vn -0.053351 -0.000002 -0.998576
vn 0.059787 -0.000002 -0.998211
vn 0.290072 -0.000003 -0.957005
vn 0.406762 -0.000003 -0.913534
vn 0.606169 -0.000004 -0.795336
vn 0.690515 -0.000004 -0.723318
vn 0.815265 -0.000004 -0.579088
vn 0.859911 -0.000004 -0.510443
vn 0.932725 -0.000004 -0.360589
vn 0.960269 -0.000004 -0.279076
vn 0.998936 -0.000004 -0.046108
vn 0.994092 -0.000004 0.108539
vn 0.866468 -0.000003 0.499233
vn 0.866467 -0.000003 0.499234
vn 0.617778 -0.000001 0.786353
vn 0.518150 -0.000000 0.855290
vn 0.342348 0.000001 0.939573
vn 0.269800 0.000001 0.962916
vn 0.087170 0.000002 0.996193
vn -0.024202 0.000001 0.999707
vn -0.210205 0.000002 0.977657
vn -0.285683 0.000001 0.958324
vn -0.415591 0.000002 0.909552
vn -0.470840 0.000002 0.882218
vn -0.619832 0.000002 0.784735
vn -0.619833 0.000001 0.784733
vn -0.954261 0.000004 -0.298974
vn -0.914480 0.000003 -0.404630
vn -0.803727 0.000002 -0.594999
vn -0.733227 0.000002 -0.679984
vn -0.556942 0.000001 -0.830551
vn -0.448932 0.000001 -0.893566
vn -0.257310 0.000001 -0.966329
vn -0.176625 0.000000 -0.984278
vn 0.000603 -0.000001 -1.000000
vn 0.097388 -0.000002 -0.995246
vn 0.331049 -0.000002 -0.943613
vn 0.465623 -0.000001 -0.884983
vn 0.684434 -0.000002 -0.729075
vn 0.771713 -0.000002 -0.635970
vn 0.888383 -0.000002 -0.459104
vn 0.925019 -0.000002 -0.379921
vn 0.972424 -0.000003 -0.233221
vn 0.986026 -0.000004 -0.166594
vn 0.999469 -0.000004 0.032579
vn 0.986050 -0.000004 0.166448
vn 0.821519 -0.000003 0.570182
vn 0.821519 -0.000003 0.570182
vn 0.504566 -0.000002 0.863373
vn 0.388294 -0.000002 0.921536
vn 0.201284 -0.000001 0.979533
vn 0.133779 -0.000001 0.991011
vn -0.020177 0.000000 0.999796
vn -0.106814 0.000000 0.994279
vn -0.286317 0.000001 0.958135
vn -0.378790 0.000001 0.925483
vn -0.544337 0.000001 0.838867
vn -0.618060 0.000002 0.786131
# Material
mtllib 81.mtl
usemtl 81
# Faces
f 1//1 2//2 3//3 
f 1//1 3//3 4//4 
f 5//5 6//6 7//7 
f 5//5 7//7 8//8 
f 9//9 10//10 11//11 
f 9//9 11//11 12//12 
f 1//1 4//4 13//13 
f 13//13 4//4 14//14 
f 13//13 14//14 15//15 
f 15//15 14//14 16//16 
f 15//15 16//16 17//17 
f 17//17 16//16 18//18 
f 19//19 20//20 17//17 
f 19//19 17//17 18//18 
f 21//21 20//20 19//19 
f 21//21 19//19 22//22 
f 23//23 21//21 22//22 
f 23//23 22//22 24//24 
f 25//25 23//23 24//24 
f 25//25 24//24 26//26 
f 27//27 25//25 26//26 
f 27//27 26//26 28//28 
f 29//29 27//27 28//28 
f 29//29 28//28 30//30 
f 31//31 29//29 30//30 
f 31//31 30//30 32//32 
f 31//31 32//32 33//33 
f 33//33 32//32 34//34 
f 33//33 34//34 35//35 
f 35//35 34//34 36//36 
f 35//35 36//36 37//37 
f 37//37 36//36 38//38 
f 37//37 38//38 39//39 
f 39//39 38//38 40//40 
f 39//39 40//40 41//41 
f 41//41 40//40 42//42 
f 41//41 42//42 43//43 
f 43//43 42//42 44//44 
f 43//43 44//44 45//45 
f 45//45 44//44 46//46 
f 45//45 46//46 47//47 
f 47//47 46//46 48//48 
f 49//49 47//47 48//48 
f 49//49 48//48 50//50 
f 51//51 49//49 50//50 
f 51//51 50//50 52//52 
f 53//53 51//51 52//52 
f 53//53 52//52 54//54 
f 55//55 53//53 54//54 
f 55//55 54//54 56//56 
f 57//57 55//55 56//56 
f 57//57 56//56 58//58 
f 59//59 57//57 58//58 
f 59//59 58//58 60//60 
f 61//61 62//62 59//59 
f 61//61 59//59 60//60 
f 63//63 64//64 62//62 
f 63//63 62//62 61//61 
f 64//64 63//63 65//65 
f 65//65 63//63 66//66 
f 67//67 65//65 66//66 
f 67//67 66//66 68//68 
f 69//69 67//67 68//68 
f 69//69 68//68 70//70 
f 71//71 69//69 70//70 
f 71//71 70//70 72//72 
f 73//73 71//71 72//72 
f 73//73 72//72 74//74 
f 75//75 73//73 74//74 
f 75//75 74//74 76//76 
f 77//77 75//75 76//76 
f 77//77 76//76 78//78 
f 79//79 77//77 78//78 
f 79//79 78//78 80//80 
f 81//81 82//82 79//79 
f 81//81 79//79 80//80 
f 83//83 84//84 82//82 
f 83//83 82//82 81//81 
f 85//85 86//86 84//84 
f 85//85 84//84 83//83 
f 87//87 88//88 86//86 
f 87//87 86//86 85//85 
f 89//89 90//90 88//88 
f 89//89 88//88 87//87 
f 91//91 92//92 90//90 
f 91//91 90//90 89//89 
f 93//93 94//94 92//92 
f 93//93 92//92 91//91 
f 95//95 96//96 94//94 
f 95//95 94//94 93//93 
f 97//97 98//98 96//96 
f 97//97 96//96 95//95 
f 99//99 100//100 98//98 
f 99//99 98//98 97//97 
f 101//101 100//100 99//99 
f 101//101 99//99 102//102 
f 103//103 101//101 102//102 
f 103//103 102//102 104//104 
f 105//105 103//103 104//104 
f 105//105 104//104 106//106 
f 107//107 105//105 106//106 
f 107//107 106//106 108//108 
f 109//109 107//107 108//108 
f 109//109 108//108 110//110 
f 111//111 109//109 110//110 
f 111//111 110//110 112//112 
f 2//2 111//111 112//112 
f 2//2 112//112 3//3 
f 113//113 5//5 8//8 
f 113//113 8//8 114//114 
f 115//115 113//113 114//114 
f 115//115 114//114 116//116 
f 117//117 115//115 116//116 
f 117//117 116//116 118//118 
f 117//117 118//118 119//119 
f 119//119 118//118 120//120 
f 119//119 120//120 121//121 
f 121//121 120//120 122//122 
f 121//121 122//122 123//123 
f 123//123 122//122 124//124 
f 123//123 124//124 125//125 
f 125//125 124//124 126//126 
f 125//125 126//126 127//127 
f 127//127 126//126 128//128 
f 129//129 127//127 128//128 
f 129//129 128//128 130//130 
f 131//131 129//129 130//130 
f 131//131 130//130 132//132 
f 133//133 131//131 132//132 
f 133//133 132//132 134//134 
f 135//135 133//133 134//134 
f 135//135 134//134 136//136 
f 137//137 138//138 135//135 
f 137//137 135//135 136//136 
f 139//139 140//140 138//138 
f 139//139 138//138 137//137 
f 141//141 142//142 140//140 
f 141//141 140//140 139//139 
f 143//143 144//144 142//142 
f 143//143 142//142 141//141 
f 145//145 146//146 144//144 
f 145//145 144//144 143//143 
f 147//147 148//148 146//146 
f 147//147 146//146 145//145 
f 6//6 148//148 147//147 
f 6//6 147//147 7//7 
f 149//149 9//9 12//12 
f 149//149 12//12 150//150 
f 151//151 149//149 150//150 
f 151//151 150//150 152//152 
f 151//151 152//152 153//153 
f 153//153 152//152 154//154 
f 153//153 154//154 155//155 
f 155//155 154//154 156//156 
f 155//155 156//156 157//157 
f 157//157 156//156 158//158 
f 157//157 158//158 159//159 
f 159//159 158//158 160//160 
f 159//159 160//160 161//161 
f 161//161 160//160 162//162 
f 163//163 161//161 162//162 
f 163//163 162//162 164//164 
f 165//165 163//163 164//164 
f 165//165 164//164 166//166 
f 167//167 165//165 166//166 
f 167//167 166//166 168//168 
f 169//169 167//167 168//168 
f 169//169 168//168 170//170 
f 171//171 172//172 169//169 
f 171//171 169//169 170//170 
f 173//173 174//174 172//172 
f 173//173 172//172 171//171 
f 175//175 176//176 174//174 
f 175//175 174//174 173//173 
f 177//177 178//178 176//176 
f 177//177 176//176 175//175 
f 179//179 180//180 178//178 
f 179//179 178//178 177//177 
f 11//11 10//10 180//180 
f 11//11 180//180 179//179 
# eof
