# j.c. convert leaf file to obj
# Verts
v 0.088752 0.500000 -0.587251
v -0.480498 0.500000 -0.608626
v 0.032502 0.500000 -0.576001
v -0.086748 0.500000 -0.522001
v -0.522686 0.500000 -0.506532
v -0.135686 0.500000 -0.473063
v -0.151998 0.500000 -0.411751
v -0.536748 0.500000 -0.400501
v -0.138498 0.500000 -0.344251
v -0.518748 0.500000 -0.283501
v -0.102920 0.500000 -0.271407
v -0.059186 0.500000 -0.219376
v -0.482186 0.500000 -0.191391
v -0.007295 0.500000 -0.188157
v 0.052751 0.500000 -0.177751
v 0.497126 0.500000 -0.129376
v -0.430998 0.500000 -0.110813
v 0.440947 0.500000 -0.061665
v -0.365186 0.500000 -0.041766
v 0.381533 0.500000 -0.005907
v -0.284748 0.500000 0.015749
v 0.318884 0.500000 0.037898
v -0.207124 0.500000 0.054140
v 0.253001 0.500000 0.069749
v -0.124998 0.500000 0.081562
v 0.160189 0.500000 0.095062
v -0.038374 0.500000 0.098015
v 0.052751 0.500000 0.103499
v 0.446502 0.500000 -1.237500
v 0.015451 0.500000 -1.230750
v 0.055727 0.500000 -1.222870
v 0.100476 0.500000 -1.199250
v 0.463377 0.500000 -1.188000
v 0.469002 0.500000 -1.138500
v 0.172037 0.500000 -1.131750
v 0.181002 0.500000 -1.098000
v 0.455783 0.500000 -1.058200
v 0.170938 0.500000 -1.046250
v 0.140748 0.500000 -0.994501
v 0.416127 0.500000 -0.977063
v 0.084260 0.500000 -0.945563
v 0.013236 0.500000 -0.920250
v 0.350033 0.500000 -0.895079
v -0.033768 0.500000 -0.915751
v 0.005502 0.500000 -1.464750
v -0.148061 0.500000 -1.457440
v 0.154564 0.500000 -1.456450
v -0.275748 0.500000 -1.431000
v 0.277752 0.500000 -1.415810
v 0.329642 0.500000 -1.383360
v -0.396264 0.500000 -1.378690
v -0.442283 0.500000 -1.344520
v 0.375064 0.500000 -1.342830
v -0.478811 0.500000 -1.305000
v -0.505846 0.500000 -1.260140
v -0.082417 0.500000 -1.224280
v -0.523389 0.500000 -1.209940
v -0.152323 0.500000 -1.204870
v -0.194267 0.500000 -1.172530
v -0.208248 0.500000 -1.127250
v -0.205998 0.500000 -1.104750
v -0.529998 0.500000 -1.093500
v -0.180139 0.500000 -1.022060
v -0.507076 0.500000 -0.978188
v -0.142814 0.500000 -0.963000
v -0.094023 0.500000 -0.927563
v -0.463061 0.500000 -0.891001
v -0.397951 0.500000 -0.831938
v 0.257502 0.500000 -0.812250
v -0.311748 0.500000 -0.801001
v 0.363252 0.500000 -0.776954
v 0.451002 0.500000 -0.727313
v -0.410186 0.500000 -0.706782
v 0.520752 0.500000 -0.663329
v 0.572501 0.500000 -0.585000
v 0.151189 0.500000 -0.578813
v 0.217002 0.500000 -0.553500
v 0.275501 0.500000 -0.517500
v 0.597814 0.500000 -0.510750
v 0.316001 0.500000 -0.477000
v 0.334564 0.500000 -0.439313
v 0.606251 0.500000 -0.432000
v 0.340751 0.500000 -0.393750
v 0.599431 0.500000 -0.354868
v 0.330345 0.500000 -0.325829
v 0.578970 0.500000 -0.278719
v 0.299126 0.500000 -0.270563
v 0.247095 0.500000 -0.227954
v 0.544869 0.500000 -0.203555
v 0.174251 0.500000 -0.198001
v -0.480500 -0.000000 -0.608625
v 0.088750 -0.000000 -0.587250
v 0.032500 -0.000000 -0.576000
v -0.086750 -0.000000 -0.522000
v -0.522688 -0.000000 -0.506531
v -0.135688 -0.000000 -0.473063
v -0.152000 -0.000000 -0.411750
v -0.536750 -0.000000 -0.400500
v -0.138500 -0.000000 -0.344250
v -0.518750 -0.000000 -0.283500
v -0.102922 -0.000000 -0.271406
v -0.059188 -0.000000 -0.219375
v -0.482187 -0.000000 -0.191391
v -0.007297 -0.000000 -0.188156
v 0.052750 -0.000000 -0.177750
v 0.497125 -0.000000 -0.129375
v -0.431000 -0.000000 -0.110813
v 0.440945 -0.000000 -0.061664
v -0.365188 -0.000000 -0.041766
v 0.381531 -0.000000 -0.005906
v -0.284750 0.000000 0.015750
v 0.318883 0.000000 0.037898
v -0.207125 0.000000 0.054141
v 0.253000 0.000000 0.069750
v -0.125000 0.000000 0.081562
v 0.160187 0.000000 0.095062
v -0.038375 0.000000 0.098016
v 0.052750 0.000000 0.103500
v 0.015449 -0.000000 -1.230750
v 0.446500 -0.000000 -1.237500
v 0.055725 -0.000000 -1.222870
v 0.100475 -0.000000 -1.199250
v 0.463375 -0.000000 -1.188000
v 0.469000 -0.000000 -1.138500
v 0.172035 -0.000000 -1.131750
v 0.181000 -0.000000 -1.098000
v 0.455781 -0.000000 -1.058200
v 0.170936 -0.000000 -1.046250
v 0.140746 -0.000000 -0.994500
v 0.416125 -0.000000 -0.977063
v 0.084259 -0.000000 -0.945563
v 0.013234 -0.000000 -0.920250
v 0.350031 -0.000000 -0.895078
v -0.033770 -0.000000 -0.915750
v -0.148063 -0.000000 -1.457440
v 0.005500 -0.000000 -1.464750
v 0.154562 -0.000000 -1.456450
v -0.275750 -0.000000 -1.431000
v 0.277750 -0.000000 -1.415810
v 0.329641 -0.000000 -1.383360
v -0.396266 -0.000000 -1.378690
v -0.442285 -0.000000 -1.344520
v 0.375062 -0.000000 -1.342830
v -0.478813 -0.000000 -1.305000
v -0.505848 -0.000000 -1.260140
v -0.082419 -0.000000 -1.224280
v -0.523391 -0.000000 -1.209940
v -0.152325 -0.000000 -1.204870
v -0.194269 -0.000000 -1.172530
v -0.208250 -0.000000 -1.127250
v -0.206000 -0.000000 -1.104750
v -0.530000 -0.000000 -1.093500
v -0.180140 -0.000000 -1.022060
v -0.507078 -0.000000 -0.978187
v -0.142815 -0.000000 -0.963000
v -0.094025 -0.000000 -0.927563
v -0.463063 -0.000000 -0.891000
v -0.397953 -0.000000 -0.831937
v 0.257500 -0.000000 -0.812250
v -0.311750 -0.000000 -0.801000
v 0.363250 -0.000000 -0.776953
v 0.451000 -0.000000 -0.727313
v -0.410188 -0.000000 -0.706781
v 0.520750 -0.000000 -0.663328
v 0.572500 -0.000000 -0.585000
v 0.151187 -0.000000 -0.578813
v 0.217000 -0.000000 -0.553500
v 0.275500 -0.000000 -0.517500
v 0.597812 -0.000000 -0.510750
v 0.316000 -0.000000 -0.477000
v 0.334562 -0.000000 -0.439313
v 0.606250 -0.000000 -0.432000
v 0.340750 -0.000000 -0.393750
v 0.599430 -0.000000 -0.354867
v 0.330344 -0.000000 -0.325828
v 0.578969 -0.000000 -0.278719
v 0.299125 -0.000000 -0.270563
v 0.247094 -0.000000 -0.227953
v 0.544867 -0.000000 -0.203555
v 0.174250 -0.000000 -0.198000
# UVs
# Normals
vn 0.000000 1.000000 0.000000
vn 0.000000 1.000000 0.000000
vn 0.000000 1.000000 0.000000
vn 0.000000 1.000000 0.000000
vn 0.000000 1.000000 0.000000
vn 0.000000 1.000000 0.000000
vn 0.000000 1.000000 0.000000
vn 0.000000 1.000000 0.000000
vn 0.000000 1.000000 0.000000
vn 0.000000 1.000000 0.000000
vn 0.000000 1.000000 0.000000
vn 0.000000 1.000000 0.000000
vn 0.000000 1.000000 0.000000
vn 0.000000 1.000000 0.000000
vn 0.000000 1.000000 0.000000
vn 0.000000 1.000000 0.000000
vn 0.000000 1.000000 0.000000
vn 0.000000 1.000000 0.000000
vn 0.000000 1.000000 0.000000
vn 0.000000 1.000000 0.000000
vn 0.000000 1.000000 0.000000
vn 0.000000 1.000000 0.000000
vn 0.000000 1.000000 0.000000
vn 0.000000 1.000000 0.000000
vn 0.000000 1.000000 0.000000
vn 0.000000 1.000000 0.000000
vn 0.000000 1.000000 0.000000
vn 0.000000 1.000000 0.000000
vn 0.000000 1.000000 0.000000
vn 0.000000 1.000000 0.000000
vn 0.000000 1.000000 0.000000
vn 0.000000 1.000000 0.000000
vn 0.000000 1.000000 0.000000
vn 0.000000 1.000000 0.000000
vn 0.000000 1.000000 0.000000
vn 0.000000 1.000000 0.000000
vn 0.000000 1.000000 0.000000
vn 0.000000 1.000000 0.000000
vn 0.000000 1.000000 0.000000
vn 0.000000 1.000000 0.000000
vn 0.000000 1.000000 0.000000
vn 0.000000 1.000000 0.000000
vn 0.000000 1.000000 0.000000
vn 0.000000 1.000000 0.000000
vn 0.000000 1.000000 0.000000
vn 0.000000 1.000000 0.000000
vn 0.000000 1.000000 0.000000
vn 0.000000 1.000000 0.000000
vn 0.000000 1.000000 0.000000
vn 0.000000 1.000000 0.000000
vn 0.000000 1.000000 0.000000
vn 0.000000 1.000000 0.000000
vn 0.000000 1.000000 0.000000
vn 0.000000 1.000000 0.000000
vn 0.000000 1.000000 0.000000
vn 0.000000 1.000000 0.000000
vn 0.000000 1.000000 0.000000
vn 0.000000 1.000000 0.000000
vn 0.000000 1.000000 0.000000
vn 0.000000 1.000000 0.000000
vn 0.000000 1.000000 0.000000
vn 0.000000 1.000000 0.000000
vn 0.000000 1.000000 0.000000
vn 0.000000 1.000000 0.000000
vn 0.000000 1.000000 0.000000
vn 0.000000 1.000000 0.000000
vn 0.000000 1.000000 0.000000
vn 0.000000 1.000000 0.000000
vn 0.000000 1.000000 0.000000
vn 0.000000 1.000000 0.000000
vn 0.000000 1.000000 0.000000
vn 0.000000 1.000000 0.000000
vn 0.000000 1.000000 0.000000
vn 0.000000 1.000000 0.000000
vn 0.000000 1.000000 0.000000
vn 0.000000 1.000000 0.000000
vn 0.000000 1.000000 0.000000
vn 0.000000 1.000000 0.000000
vn 0.000000 1.000000 0.000000
vn 0.000000 1.000000 0.000000
vn 0.000000 1.000000 0.000000
vn 0.000000 1.000000 0.000000
vn 0.000000 1.000000 0.000000
vn 0.000000 1.000000 0.000000
vn 0.000000 1.000000 0.000000
vn 0.000000 1.000000 0.000000
vn 0.000000 1.000000 0.000000
vn 0.000000 1.000000 0.000000
vn 0.000000 1.000000 0.000000
vn 0.000000 1.000000 0.000000
vn -0.000000 -1.000000 0.000000
vn -0.000000 -1.000000 0.000000
vn -0.000000 -1.000000 0.000000
vn 0.000000 -1.000000 0.000000
vn 0.000000 -1.000000 0.000000
vn 0.000000 -1.000000 0.000000
vn 0.000000 -1.000000 0.000000
vn -0.000000 -1.000000 0.000000
vn 0.000000 -1.000000 0.000000
vn 0.000000 -1.000000 0.000000
vn 0.000000 -1.000000 0.000000
vn 0.000000 -1.000000 0.000000
vn 0.000000 -1.000000 0.000000
vn 0.000000 -1.000000 0.000000
vn 0.000000 -1.000000 0.000000
vn 0.000000 -1.000000 0.000000
vn 0.000000 -1.000000 0.000000
vn -0.000000 -1.000000 0.000000
vn -0.000000 -1.000000 0.000000
vn -0.000000 -1.000000 0.000000
vn -0.000000 -1.000000 0.000000
vn -0.000000 -1.000000 0.000000
vn -0.000000 -1.000000 0.000000
vn -0.000000 -1.000000 0.000000
vn -0.000000 -1.000000 0.000000
vn -0.000000 -1.000000 0.000000
vn -0.000000 -1.000000 0.000000
vn -0.000000 -1.000000 0.000000
vn -0.000000 -1.000000 0.000000
vn 0.000000 -1.000000 0.000000
vn 0.000000 -1.000000 0.000000
vn 0.000000 -1.000000 0.000000
vn 0.000000 -1.000000 0.000000
vn 0.000000 -1.000000 0.000000
vn 0.000000 -1.000000 0.000000
vn -0.000000 -1.000000 0.000000
vn -0.000000 -1.000000 0.000000
vn -0.000000 -1.000000 0.000000
vn -0.000000 -1.000000 0.000000
vn 0.000000 -1.000000 0.000000
vn 0.000000 -1.000000 0.000000
vn 0.000000 -1.000000 0.000000
vn -0.000000 -1.000000 0.000000
vn -0.000000 -1.000000 0.000000
vn -0.000000 -1.000000 0.000000
vn -0.000000 -1.000000 0.000000
vn -0.000000 -1.000000 0.000000
vn -0.000000 -1.000000 0.000000
vn -0.000000 -1.000000 0.000000
vn -0.000000 -1.000000 0.000000
vn -0.000000 -1.000000 0.000000
vn -0.000000 -1.000000 0.000000
vn 0.000000 -1.000000 0.000000
vn 0.000000 -1.000000 0.000000
vn 0.000000 -1.000000 0.000000
vn -0.000000 -1.000000 0.000000
vn -0.000000 -1.000000 0.000000
vn -0.000000 -1.000000 0.000000
vn -0.000000 -1.000000 0.000000
vn -0.000000 -1.000000 0.000000
vn -0.000000 -1.000000 0.000000
vn -0.000000 -1.000000 0.000000
vn -0.000000 -1.000000 0.000000
vn -0.000000 -1.000000 0.000000
vn -0.000000 -1.000000 0.000000
vn -0.000000 -1.000000 0.000000
vn -0.000000 -1.000000 0.000000
vn -0.000000 -1.000000 0.000000
vn -0.000000 -1.000000 0.000000
vn -0.000000 -1.000000 0.000000
vn -0.000000 -1.000000 0.000000
vn -0.000000 -1.000000 0.000000
vn -0.000000 -1.000000 0.000000
vn -0.000000 -1.000000 0.000000
vn -0.000000 -1.000000 0.000000
vn -0.000000 -1.000000 0.000000
vn 0.000000 -1.000000 0.000000
vn -0.000000 -1.000000 0.000000
vn -0.000000 -1.000000 0.000000
vn -0.000000 -1.000000 0.000000
vn 0.000000 -1.000000 0.000000
vn 0.000000 -1.000000 0.000000
vn 0.000000 -1.000000 0.000000
vn 0.000000 -1.000000 0.000000
vn 0.000000 -1.000000 0.000000
vn 0.000000 -1.000000 0.000000
vn 0.000000 -1.000000 0.000000
vn 0.000000 -1.000000 0.000000
vn -0.000000 -1.000000 0.000000
vn -0.000000 -1.000000 0.000000
# Material
mtllib 82.mtl
usemtl 82
# Faces
f 1//1 2//2 3//3 
f 3//3 2//2 4//4 
f 4//4 2//2 5//5 
f 4//4 5//5 6//6 
f 6//6 5//5 7//7 
f 7//7 5//5 8//8 
f 7//7 8//8 9//9 
f 9//9 8//8 10//10 
f 9//9 10//10 11//11 
f 11//11 10//10 12//12 
f 12//12 10//10 13//13 
f 12//12 13//13 14//14 
f 14//14 13//13 15//15 
f 15//15 13//13 16//16 
f 16//16 13//13 17//17 
f 16//16 17//17 18//18 
f 18//18 17//17 19//19 
f 18//18 19//19 20//20 
f 20//20 19//19 21//21 
f 20//20 21//21 22//22 
f 22//22 21//21 23//23 
f 22//22 23//23 24//24 
f 24//24 23//23 25//25 
f 24//24 25//25 26//26 
f 26//26 25//25 27//27 
f 26//26 27//27 28//28 
f 29//29 30//30 31//31 
f 29//29 31//31 32//32 
f 29//29 32//32 33//33 
f 33//33 32//32 34//34 
f 34//34 32//32 35//35 
f 34//34 35//35 36//36 
f 34//34 36//36 37//37 
f 37//37 36//36 38//38 
f 37//37 38//38 39//39 
f 37//37 39//39 40//40 
f 40//40 39//39 41//41 
f 40//40 41//41 42//42 
f 40//40 42//42 43//43 
f 42//42 44//44 43//43 
f 45//45 46//46 47//47 
f 47//47 46//46 48//48 
f 47//47 48//48 49//49 
f 49//49 48//48 50//50 
f 50//50 48//48 51//51 
f 50//50 51//51 52//52 
f 50//50 52//52 53//53 
f 53//53 52//52 54//54 
f 53//53 54//54 55//55 
f 53//53 55//55 29//29 
f 29//29 55//55 30//30 
f 30//30 55//55 56//56 
f 56//56 55//55 57//57 
f 56//56 57//57 58//58 
f 58//58 57//57 59//59 
f 59//59 57//57 60//60 
f 60//60 57//57 61//61 
f 61//61 57//57 62//62 
f 61//61 62//62 63//63 
f 63//63 62//62 64//64 
f 63//63 64//64 65//65 
f 65//65 64//64 66//66 
f 66//66 64//64 44//44 
f 44//44 64//64 67//67 
f 43//43 44//44 67//67 
f 43//43 67//67 68//68 
f 43//43 68//68 69//69 
f 69//69 68//68 70//70 
f 69//69 70//70 71//71 
f 71//71 70//70 72//72 
f 72//72 70//70 73//73 
f 72//72 73//73 74//74 
f 74//74 73//73 2//2 
f 74//74 2//2 1//1 
f 74//74 1//1 75//75 
f 75//75 1//1 76//76 
f 75//75 76//76 77//77 
f 75//75 77//77 78//78 
f 75//75 78//78 79//79 
f 79//79 78//78 80//80 
f 79//79 80//80 81//81 
f 79//79 81//81 82//82 
f 82//82 81//81 83//83 
f 82//82 83//83 84//84 
f 84//84 83//83 85//85 
f 84//84 85//85 86//86 
f 86//86 85//85 87//87 
f 86//86 87//87 88//88 
f 86//86 88//88 89//89 
f 89//89 88//88 90//90 
f 89//89 90//90 15//15 
f 89//89 15//15 16//16 
f 91//91 92//92 93//93 
f 91//91 93//93 94//94 
f 91//91 94//94 95//95 
f 95//95 94//94 96//96 
f 95//95 96//96 97//97 
f 95//95 97//97 98//98 
f 98//98 97//97 99//99 
f 98//98 99//99 100//100 
f 100//100 99//99 101//101 
f 100//100 101//101 102//102 
f 100//100 102//102 103//103 
f 103//103 102//102 104//104 
f 103//103 104//104 105//105 
f 103//103 105//105 106//106 
f 103//103 106//106 107//107 
f 107//107 106//106 108//108 
f 107//107 108//108 109//109 
f 109//109 108//108 110//110 
f 109//109 110//110 111//111 
f 111//111 110//110 112//112 
f 111//111 112//112 113//113 
f 113//113 112//112 114//114 
f 113//113 114//114 115//115 
f 115//115 114//114 116//116 
f 115//115 116//116 117//117 
f 117//117 116//116 118//118 
f 119//119 120//120 121//121 
f 121//121 120//120 122//122 
f 122//122 120//120 123//123 
f 122//122 123//123 124//124 
f 122//122 124//124 125//125 
f 125//125 124//124 126//126 
f 126//126 124//124 127//127 
f 126//126 127//127 128//128 
f 128//128 127//127 129//129 
f 129//129 127//127 130//130 
f 129//129 130//130 131//131 
f 131//131 130//130 132//132 
f 132//132 130//130 133//133 
f 134//134 132//132 133//133 
f 135//135 136//136 137//137 
f 135//135 137//137 138//138 
f 138//138 137//137 139//139 
f 138//138 139//139 140//140 
f 138//138 140//140 141//141 
f 141//141 140//140 142//142 
f 142//142 140//140 143//143 
f 142//142 143//143 144//144 
f 144//144 143//143 145//145 
f 145//145 143//143 120//120 
f 145//145 120//120 119//119 
f 145//145 119//119 146//146 
f 145//145 146//146 147//147 
f 147//147 146//146 148//148 
f 147//147 148//148 149//149 
f 147//147 149//149 150//150 
f 147//147 150//150 151//151 
f 147//147 151//151 152//152 
f 152//152 151//151 153//153 
f 152//152 153//153 154//154 
f 154//154 153//153 155//155 
f 154//154 155//155 156//156 
f 154//154 156//156 134//134 
f 154//154 134//134 157//157 
f 134//134 133//133 157//157 
f 157//157 133//133 158//158 
f 158//158 133//133 159//159 
f 158//158 159//159 160//160 
f 160//160 159//159 161//161 
f 160//160 161//161 162//162 
f 160//160 162//162 163//163 
f 163//163 162//162 164//164 
f 163//163 164//164 91//91 
f 91//91 164//164 92//92 
f 92//92 164//164 165//165 
f 92//92 165//165 166//166 
f 166//166 165//165 167//167 
f 167//167 165//165 168//168 
f 168//168 165//165 169//169 
f 168//168 169//169 170//170 
f 170//170 169//169 171//171 
f 171//171 169//169 172//172 
f 171//171 172//172 173//173 
f 173//173 172//172 174//174 
f 173//173 174//174 175//175 
f 175//175 174//174 176//176 
f 175//175 176//176 177//177 
f 177//177 176//176 178//178 
f 178//178 176//176 179//179 
f 178//178 179//179 180//180 
f 180//180 179//179 105//105 
f 105//105 179//179 106//106 
# eof
