# j.c. convert leaf file to obj
# Verts
v 0.669740 0.250000 -0.403091
v 0.679865 0.250000 0.093034
v 0.679865 0.000000 0.093034
v 0.669740 0.000000 -0.403091
v 0.665800 0.250000 -0.459622
v 0.665800 0.000000 -0.459622
v 0.656240 0.250000 -0.512215
v 0.656240 0.000000 -0.512215
v 0.641050 0.250000 -0.560870
v 0.641050 0.000000 -0.560870
v 0.620240 0.250000 -0.605590
v 0.620240 0.000000 -0.605590
v 0.581425 0.250000 -0.659730
v 0.581425 0.000000 -0.659730
v 0.533615 0.000000 -0.698405
v 0.533615 0.250000 -0.698405
v 0.476802 0.000000 -0.721605
v 0.476802 0.250000 -0.721605
v 0.410989 0.000000 -0.729340
v 0.410989 0.250000 -0.729340
v 0.350380 0.000000 -0.722310
v 0.350380 0.250000 -0.722310
v 0.297927 0.000000 -0.701215
v 0.297927 0.250000 -0.701215
v 0.253630 0.000000 -0.666060
v 0.253630 0.250000 -0.666060
v 0.217489 0.250000 -0.616840
v 0.217489 0.000000 -0.616840
v 0.196677 0.250000 -0.575075
v 0.196677 0.000000 -0.575075
v 0.180365 0.250000 -0.527405
v 0.180365 0.000000 -0.527405
v 0.168552 0.250000 -0.473825
v 0.168552 0.000000 -0.473825
v 0.161240 0.250000 -0.414341
v 0.161240 0.000000 -0.414341
v 0.339341 0.250000 -0.460887
v 0.334489 0.250000 -0.399716
v 0.334489 0.000000 -0.399716
v 0.339341 0.000000 -0.460887
v 0.355020 0.250000 -0.504905
v 0.355020 0.000000 -0.504905
v 0.381528 0.250000 -0.531760
v 0.381528 0.000000 -0.531760
v 0.418864 0.000000 -0.541465
v 0.418864 0.250000 -0.541465
v 0.444388 0.000000 -0.537740
v 0.444388 0.250000 -0.537740
v 0.465833 0.000000 -0.525435
v 0.465833 0.250000 -0.525435
v 0.483200 0.250000 -0.504550
v 0.483200 0.000000 -0.504550
v 0.496489 0.250000 -0.475091
v 0.496489 0.000000 -0.475091
v 0.507740 0.250000 -0.418278
v 0.507740 0.000000 -0.418278
v 0.509990 0.250000 -0.346841
v 0.509990 0.000000 -0.346841
v 0.425333 0.000000 -0.360341
v 0.425333 0.250000 -0.360341
v 0.344615 0.000000 -0.364841
v 0.344615 0.250000 -0.364841
v 0.287942 0.000000 -0.362186
v 0.287942 0.250000 -0.362186
v 0.238302 0.000000 -0.354223
v 0.238302 0.250000 -0.354223
v 0.195692 0.000000 -0.340952
v 0.195692 0.250000 -0.340952
v 0.160114 0.000000 -0.322372
v 0.160114 0.250000 -0.322372
v 0.131567 0.000000 -0.298483
v 0.131567 0.250000 -0.298483
v 0.110052 0.250000 -0.269286
v 0.110052 0.000000 -0.269286
v 0.095568 0.250000 -0.234780
v 0.095568 0.000000 -0.234780
v 0.088115 0.250000 -0.194966
v 0.088115 0.000000 -0.194966
v 0.091982 0.250000 -0.138716
v 0.091982 0.000000 -0.138716
v 0.101034 0.250000 -0.113966
v 0.101034 0.000000 -0.113966
v 0.114833 0.250000 -0.091466
v 0.114833 0.000000 -0.091466
v 0.156669 0.000000 -0.053216
v 0.156669 0.250000 -0.053216
v 0.217489 0.000000 -0.023966
v 0.217489 0.250000 -0.023966
v 0.269450 0.000000 -0.009411
v 0.269450 0.250000 -0.009411
v 0.328583 0.000000 0.000503
v 0.328583 0.250000 0.000503
v 0.468365 0.000000 0.006409
v 0.468365 0.250000 0.006409
v 0.488614 0.250000 -0.129716
v 0.488614 0.000000 -0.129716
v 0.425615 0.000000 -0.119591
v 0.425615 0.250000 -0.119591
v 0.367115 0.000000 -0.116216
v 0.367115 0.250000 -0.116216
v 0.311708 0.000000 -0.120786
v 0.311708 0.250000 -0.120786
v 0.272615 0.000000 -0.134497
v 0.272615 0.250000 -0.134497
v 0.249833 0.250000 -0.157348
v 0.249833 0.000000 -0.157348
v 0.243364 0.250000 -0.189341
v 0.243364 0.000000 -0.189341
v 0.251310 0.250000 -0.213950
v 0.251310 0.000000 -0.213950
v 0.272895 0.000000 -0.231529
v 0.272895 0.250000 -0.231529
v 0.308122 0.000000 -0.242075
v 0.308122 0.250000 -0.242075
v 0.356990 0.000000 -0.245591
v 0.356990 0.250000 -0.245591
v 0.422520 0.000000 -0.241654
v 0.422520 0.250000 -0.241654
v 0.495364 0.000000 -0.229841
v 0.495364 0.250000 -0.229841
# UVs
# Normals
vn 0.999323 0.000000 -0.036789
vn 0.999792 0.000000 -0.020404
vn 0.999792 0.000000 -0.020404
vn 0.998586 0.000000 -0.053168
vn 0.994354 0.000000 -0.106110
vn 0.989781 0.000000 -0.142597
vn 0.975740 0.000000 -0.218932
vn 0.965952 0.000000 -0.258723
vn 0.940435 0.000000 -0.339975
vn 0.924430 0.000000 -0.381351
vn 0.878725 0.000000 -0.477329
vn 0.847294 0.000000 -0.531125
vn 0.727368 0.000000 -0.686248
vn 0.727368 0.000000 -0.686248
vn 0.550517 0.000000 -0.834824
vn 0.466093 0.000000 -0.884736
vn 0.293326 0.000000 -0.956013
vn 0.205504 0.000000 -0.978656
vn 0.039650 0.000000 -0.999214
vn -0.038131 0.000000 -0.999273
vn -0.202788 0.000000 -0.979223
vn -0.289442 0.000000 -0.957196
vn -0.460210 0.000000 -0.887810
vn -0.543821 0.000000 -0.839202
vn -0.720233 0.000000 -0.693733
vn -0.720233 0.000000 -0.693733
vn -0.838429 0.000000 -0.545010
vn -0.868189 0.000000 -0.496234
vn -0.913852 0.000000 -0.406048
vn -0.930922 0.000000 -0.365219
vn -0.957627 0.000000 -0.288012
vn -0.967777 0.000000 -0.251810
vn -0.982854 0.000000 -0.184388
vn -0.988186 0.000000 -0.153257
vn -0.992529 0.000000 -0.122005
vn -0.992529 0.000000 -0.122005
vn 0.986154 0.000000 0.165834
vn 0.996869 0.000000 0.079071
vn 0.996869 0.000000 0.079071
vn 0.967731 0.000000 0.251986
vn 0.883877 0.000000 0.467720
vn 0.805445 0.000000 0.592670
vn 0.499572 0.000000 0.866272
vn 0.499572 0.000000 0.866272
vn 0.121727 0.000000 0.992564
vn -0.012638 0.000000 0.999920
vn -0.266336 0.000000 0.963880
vn -0.385966 0.000000 0.922513
vn -0.643466 0.000000 0.765474
vn -0.643466 0.000000 0.765474
vn -0.823094 0.000000 0.567906
vn -0.871032 0.000000 0.491227
vn -0.940115 0.000000 0.340858
vn -0.963384 0.000000 0.268125
vn -0.990092 0.000000 0.140422
vn -0.996295 0.000000 0.085998
vn -0.660942 0.000000 -0.750437
vn -0.660942 0.000000 -0.750437
vn 0.123684 0.000000 -0.992322
vn 0.089706 0.000000 -0.995968
vn 0.021535 0.000000 -0.999768
vn -0.012658 0.000000 -0.999920
vn -0.084112 0.000000 -0.996456
vn -0.121362 0.000000 -0.992608
vn -0.205180 0.000000 -0.978724
vn -0.251610 0.000000 -0.967829
vn -0.353809 0.000000 -0.935318
vn -0.409189 0.000000 -0.912449
vn -0.525236 0.000000 -0.850957
vn -0.585163 0.000000 -0.810916
vn -0.728595 0.000000 -0.684945
vn -0.728595 0.000000 -0.684945
vn -0.849365 0.000000 -0.527806
vn -0.888618 0.000000 -0.458648
vn -0.947088 0.000000 -0.320973
vn -0.967480 0.000000 -0.252949
vn -0.994935 0.000000 -0.100522
vn -0.999876 0.000000 -0.015722
vn -0.986848 0.000000 0.161649
vn -0.967177 0.000000 0.254103
vn -0.914291 0.000000 0.405057
vn -0.885264 0.000000 0.465089
vn -0.771157 0.000000 0.636645
vn -0.771157 0.000000 0.636645
vn -0.600001 0.000000 0.799999
vn -0.518779 0.000000 0.854908
vn -0.380145 0.000000 0.924927
vn -0.325399 0.000000 0.945577
vn -0.235236 0.000000 0.971938
vn -0.200398 -0.000000 0.979715
vn -0.124516 -0.000000 0.992218
vn -0.083401 -0.000000 0.996516
vn -0.042214 -0.000000 0.999109
vn -0.042214 0.000000 0.999109
vn -0.158681 0.000000 -0.987330
vn -0.158681 0.000000 -0.987330
vn -0.125130 0.000000 -0.992140
vn -0.091396 0.000000 -0.995815
vn -0.011021 0.000000 -0.999939
vn 0.035680 0.000000 -0.999363
vn 0.166321 0.000000 -0.986072
vn 0.249844 0.000000 -0.968286
vn 0.532978 0.000000 -0.846129
vn 0.532978 0.000000 -0.846129
vn 0.830033 0.000000 -0.557714
vn 0.924236 0.000000 -0.381822
vn 0.999532 0.000000 -0.030587
vn 0.989735 0.000000 0.142912
vn 0.825433 0.000000 0.564499
vn 0.825433 0.000000 0.564499
vn 0.525549 0.000000 0.850763
vn 0.408660 0.000000 0.912687
vn 0.216270 0.000000 0.976333
vn 0.144209 0.000000 0.989547
vn 0.027906 0.000000 0.999611
vn -0.016091 0.000000 0.999871
vn -0.093445 0.000000 0.995624
vn -0.126852 0.000000 0.991922
vn -0.160077 0.000000 0.987104
vn -0.160077 0.000000 0.987104
# Material
mtllib a1_chrome.mtl
usemtl a1_chrome
# Faces
f 1//1 2//2 3//3 
f 1//1 3//3 4//4 
f 5//5 1//1 4//4 
f 5//5 4//4 6//6 
f 7//7 5//5 6//6 
f 7//7 6//6 8//8 
f 9//9 7//7 8//8 
f 9//9 8//8 10//10 
f 11//11 9//9 10//10 
f 11//11 10//10 12//12 
f 13//13 11//11 12//12 
f 13//13 12//12 14//14 
f 13//13 14//14 15//15 
f 13//13 15//15 16//16 
f 16//16 15//15 17//17 
f 16//16 17//17 18//18 
f 18//18 17//17 19//19 
f 18//18 19//19 20//20 
f 20//20 19//19 21//21 
f 20//20 21//21 22//22 
f 22//22 21//21 23//23 
f 22//22 23//23 24//24 
f 24//24 23//23 25//25 
f 24//24 25//25 26//26 
f 27//27 26//26 25//25 
f 27//27 25//25 28//28 
f 29//29 27//27 28//28 
f 29//29 28//28 30//30 
f 31//31 29//29 30//30 
f 31//31 30//30 32//32 
f 33//33 31//31 32//32 
f 33//33 32//32 34//34 
f 35//35 33//33 34//34 
f 35//35 34//34 36//36 
f 37//37 38//38 39//39 
f 37//37 39//39 40//40 
f 41//41 37//37 40//40 
f 41//41 40//40 42//42 
f 43//43 41//41 42//42 
f 43//43 42//42 44//44 
f 45//45 46//46 43//43 
f 45//45 43//43 44//44 
f 47//47 48//48 46//46 
f 47//47 46//46 45//45 
f 49//49 50//50 48//48 
f 49//49 48//48 47//47 
f 51//51 50//50 49//49 
f 51//51 49//49 52//52 
f 53//53 51//51 52//52 
f 53//53 52//52 54//54 
f 55//55 53//53 54//54 
f 55//55 54//54 56//56 
f 57//57 55//55 56//56 
f 57//57 56//56 58//58 
f 57//57 58//58 59//59 
f 57//57 59//59 60//60 
f 60//60 59//59 61//61 
f 60//60 61//61 62//62 
f 62//62 61//61 63//63 
f 62//62 63//63 64//64 
f 64//64 63//63 65//65 
f 64//64 65//65 66//66 
f 66//66 65//65 67//67 
f 66//66 67//67 68//68 
f 68//68 67//67 69//69 
f 68//68 69//69 70//70 
f 70//70 69//69 71//71 
f 70//70 71//71 72//72 
f 73//73 72//72 71//71 
f 73//73 71//71 74//74 
f 75//75 73//73 74//74 
f 75//75 74//74 76//76 
f 77//77 75//75 76//76 
f 77//77 76//76 78//78 
f 79//79 77//77 78//78 
f 79//79 78//78 80//80 
f 81//81 79//79 80//80 
f 81//81 80//80 82//82 
f 83//83 81//81 82//82 
f 83//83 82//82 84//84 
f 85//85 86//86 83//83 
f 85//85 83//83 84//84 
f 87//87 88//88 86//86 
f 87//87 86//86 85//85 
f 89//89 90//90 88//88 
f 89//89 88//88 87//87 
f 91//91 92//92 90//90 
f 91//91 90//90 89//89 
f 93//93 94//94 92//92 
f 93//93 92//92 91//91 
f 95//95 96//96 97//97 
f 95//95 97//97 98//98 
f 98//98 97//97 99//99 
f 98//98 99//99 100//100 
f 100//100 99//99 101//101 
f 100//100 101//101 102//102 
f 102//102 101//101 103//103 
f 102//102 103//103 104//104 
f 105//105 104//104 103//103 
f 105//105 103//103 106//106 
f 107//107 105//105 106//106 
f 107//107 106//106 108//108 
f 109//109 107//107 108//108 
f 109//109 108//108 110//110 
f 111//111 112//112 109//109 
f 111//111 109//109 110//110 
f 113//113 114//114 112//112 
f 113//113 112//112 111//111 
f 115//115 116//116 114//114 
f 115//115 114//114 113//113 
f 117//117 118//118 116//116 
f 117//117 116//116 115//115 
f 119//119 120//120 118//118 
f 119//119 118//118 117//117 
# eof
