# j.c. convert leaf file to obj
# Verts
v 26.118700 6.599990 49.206501
v 26.118700 6.599990 50.373901
v 26.118700 5.399990 50.373901
v 26.118700 5.399990 49.206501
v 26.177500 6.599990 48.621300
v 26.177500 5.399990 48.621300
v 30.586000 5.399990 46.206501
v 30.586000 6.599990 46.206501
v 29.178699 6.599990 46.206501
v 29.178699 5.399990 46.206501
v 26.351700 6.599990 48.058498
v 26.351700 5.399990 48.058498
v 26.634399 6.599990 47.539799
v 26.634399 5.399990 47.539799
v 27.014999 6.599990 47.085201
v 27.014999 5.399990 47.085201
v 27.478701 5.399990 46.712101
v 27.478701 6.599990 46.712101
v 28.007700 5.399990 46.434898
v 28.007700 6.599990 46.434898
v 28.581800 5.399990 46.264198
v 28.581800 6.599990 46.264198
v 26.047701 6.599990 22.373899
v 26.047701 6.599990 23.636299
v 26.047701 5.399990 23.636299
v 26.047701 5.399990 22.373899
v 30.586000 6.599990 26.636299
v 30.586000 5.399990 26.636299
v 29.107700 5.399990 26.636299
v 29.107700 6.599990 26.636299
v 26.106400 6.599990 24.221600
v 26.106400 5.399990 24.221600
v 26.280600 6.599990 24.784300
v 26.280600 5.399990 24.784300
v 26.563400 6.599990 25.302999
v 26.563400 5.399990 25.302999
v 26.943899 6.599990 25.757601
v 26.943899 5.399990 25.757601
v 27.407600 6.599990 26.130699
v 27.407600 5.399990 26.130699
v 27.936701 6.599990 26.407900
v 27.936701 5.399990 26.407900
v 28.510700 6.599990 26.578699
v 28.510700 5.399990 26.578699
v -25.093800 5.399990 45.823898
v -25.093800 6.599990 45.823898
v -26.248699 6.599990 45.823898
v -26.248699 5.399990 45.823898
v -22.033800 6.599990 50.374599
v -22.033800 6.599990 48.823898
v -22.033800 5.399990 48.823898
v -22.033800 5.399990 50.374599
v -24.496799 5.399990 45.881599
v -24.496799 6.599990 45.881599
v -23.922800 5.399990 46.052299
v -23.922800 6.599990 46.052299
v -23.393801 5.399990 46.329498
v -23.393801 6.599990 46.329498
v -22.930099 5.399990 46.702599
v -22.930099 6.599990 46.702599
v -22.549500 6.599990 47.157200
v -22.549500 5.399990 47.157200
v -22.266701 6.599990 47.675900
v -22.266701 5.399990 47.675900
v -22.092600 6.599990 48.238701
v -22.092600 5.399990 48.238701
v -53.299900 5.399990 18.224100
v -53.299900 6.599990 18.224100
v -54.808701 6.599990 18.224100
v -54.808701 5.399990 18.224100
v -50.239899 6.599990 22.374599
v -50.239899 6.599990 21.224100
v -50.239899 5.399990 21.224100
v -50.239899 5.399990 22.374599
v -52.702900 5.399990 18.281799
v -52.702900 6.599990 18.281799
v -52.128799 5.399990 18.452499
v -52.128799 6.599990 18.452499
v -51.599800 5.399990 18.729700
v -51.599800 6.599990 18.729700
v -51.136101 5.399990 19.102800
v -51.136101 6.599990 19.102800
v -50.755600 6.599990 19.557400
v -50.755600 5.399990 19.557400
v -50.472801 6.599990 20.076099
v -50.472801 5.399990 20.076099
v -50.298599 6.599990 20.638800
v -50.298599 5.399990 20.638800
v -53.046700 6.600000 -1.346360
v -53.046700 5.400000 -1.346360
v -54.808701 5.400000 -1.346360
v -54.808701 6.600000 -1.346360
v -49.986698 6.600000 -4.346360
v -49.986698 6.600000 -5.625380
v -49.986698 5.400000 -5.625380
v -49.986698 5.400000 -4.346360
v -52.449799 6.600000 -1.404000
v -52.449799 5.400000 -1.404000
v -51.875702 6.600000 -1.574720
v -51.875702 5.400000 -1.574720
v -51.346699 6.600000 -1.851950
v -51.346699 5.400000 -1.851950
v -50.882999 6.600000 -2.225040
v -50.882999 5.400000 -2.225040
v -50.502399 6.600000 -2.679650
v -50.502399 5.400000 -2.679650
v -50.219700 6.600000 -3.198310
v -50.219700 5.400000 -3.198310
v -50.045502 6.600000 -3.761080
v -50.045502 5.400000 -3.761080
v -2.123370 6.600000 -5.625380
v -2.123370 6.600000 -4.426490
v -2.064540 6.600000 -3.841220
v -1.890430 6.600000 -3.278450
v -1.607640 6.600000 -2.759780
v -1.227100 6.600000 -2.305170
v -0.763412 6.600000 -1.932080
v -0.234360 6.600000 -1.654850
v 0.339661 6.600000 -1.484130
v 0.936630 6.600000 -1.426490
v 2.311770 6.600000 -1.426490
v 2.311520 6.599990 22.373899
v -26.248699 6.599990 22.374599
v 5.174000 6.599990 50.373901
v -2.064540 5.400000 -3.841220
v -2.123370 5.400000 -4.426490
v 2.311770 5.400000 -1.426490
v 0.936630 5.400000 -1.426490
v -2.123370 5.400000 -5.625380
v -1.890430 5.400000 -3.278450
v -1.607640 5.400000 -2.759780
v -1.227100 5.400000 -2.305170
v -0.763412 5.400000 -1.932080
v -0.234360 5.400000 -1.654850
v 0.339661 5.400000 -1.484130
# UVs
# Normals
vn 1.000000 0.000000 -0.000000
vn 0.994990 0.000000 0.099974
vn 0.000000 -0.000000 1.000000
vn 0.955286 0.000000 0.295683
vn 0.878057 0.000000 0.478555
vn 0.766752 0.000000 0.641943
vn 0.626884 -0.000000 0.779112
vn 0.464148 -0.000000 0.885757
vn 0.285003 -0.000000 0.958526
vn 0.096213 -0.000000 0.995361
vn 0.000000 -0.000000 -1.000000
vn 0.995009 0.000000 -0.099788
vn 0.955271 0.000000 -0.295732
vn 0.877986 0.000000 -0.478687
vn 0.766839 0.000000 -0.641840
vn 0.626882 0.000000 -0.779114
vn 0.464076 0.000000 -0.885795
vn 0.285202 0.000000 -0.958468
vn 0.096036 0.000000 -0.995378
vn -1.000000 0.000000 -0.000000
vn -0.096203 0.000000 0.995362
vn -0.285049 0.000000 0.958513
vn -0.464144 0.000000 0.885760
vn -0.626884 0.000000 0.779112
vn -0.766755 0.000000 0.641940
vn -0.877987 0.000000 0.478685
vn -0.955334 0.000000 0.295530
vn -0.994990 0.000000 0.099975
vn 0.000000 -0.000000 1.000000
vn -0.096200 0.000000 0.995362
vn -0.285003 0.000000 0.958526
vn -0.464146 0.000000 0.885759
vn -0.626886 0.000000 0.779111
vn -0.766836 0.000000 0.641843
vn -0.955270 0.000000 0.295735
vn -0.995008 0.000000 0.099791
vn -0.096118 -0.000000 -0.995370
vn -0.285036 -0.000000 -0.958517
vn -0.464182 -0.000000 -0.885740
vn -0.626875 -0.000000 -0.779120
vn -0.766761 0.000000 -0.641933
vn -0.878042 0.000000 -0.478584
vn -0.955282 0.000000 -0.295695
vn -0.994991 0.000000 -0.099967
vn 0.000000 1.000000 -0.000000
vn 0.000000 1.000000 0.000000
vn 0.000000 1.000000 -0.000000
vn 0.000000 1.000000 0.000001
vn 0.000000 1.000000 0.000001
vn 0.000000 1.000000 0.000001
vn -0.000000 1.000000 0.000000
vn -0.000000 1.000000 0.000000
vn -0.000000 1.000000 0.000000
vn -0.000000 1.000000 0.000000
vn -0.000000 1.000000 0.000000
vn -0.000000 1.000000 0.000000
vn -0.000000 1.000000 0.000000
vn -0.000000 1.000000 0.000000
vn -0.000000 1.000000 0.000000
vn 0.994986 0.000000 -0.100014
vn 0.000000 -0.000000 -1.000000
vn 0.955325 0.000000 -0.295559
vn 0.877982 0.000000 -0.478694
vn 0.766810 0.000000 -0.641874
vn 0.626885 0.000000 -0.779112
vn 0.464148 0.000000 -0.885758
vn 0.285070 0.000000 -0.958507
vn 0.096108 0.000000 -0.995371
# Material
mtllib baize-S.mtl
usemtl baize-S
# Faces
f 1//1 2//1 3//1 
f 1//1 3//1 4//1 
f 5//2 1//2 4//2 
f 5//2 4//2 6//2 
f 7//3 8//3 9//3 
f 7//3 9//3 10//3 
f 11//4 5//4 6//4 
f 11//4 6//4 12//4 
f 13//5 11//5 12//5 
f 13//5 12//5 14//5 
f 15//6 13//6 14//6 
f 15//6 14//6 16//6 
f 17//7 18//7 15//7 
f 17//7 15//7 16//7 
f 19//8 20//8 18//8 
f 19//8 18//8 17//8 
f 21//9 22//9 20//9 
f 21//9 20//9 19//9 
f 10//10 9//10 22//10 
f 10//10 22//10 21//10 
f 23//1 24//1 25//1 
f 23//1 25//1 26//1 
f 27//11 28//11 29//11 
f 27//11 29//11 30//11 
f 24//12 31//12 32//12 
f 24//12 32//12 25//12 
f 31//13 33//13 34//13 
f 31//13 34//13 32//13 
f 33//14 35//14 36//14 
f 33//14 36//14 34//14 
f 35//15 37//15 38//15 
f 35//15 38//15 36//15 
f 39//16 40//16 38//16 
f 39//16 38//16 37//16 
f 41//17 42//17 40//17 
f 41//17 40//17 39//17 
f 43//18 44//18 42//18 
f 43//18 42//18 41//18 
f 30//19 29//19 44//19 
f 30//19 44//19 43//19 
f 45//3 46//3 47//3 
f 45//3 47//3 48//3 
f 49//20 50//20 51//20 
f 49//20 51//20 52//20 
f 53//21 54//21 46//21 
f 53//21 46//21 45//21 
f 55//22 56//22 54//22 
f 55//22 54//22 53//22 
f 57//23 58//23 56//23 
f 57//23 56//23 55//23 
f 59//24 60//24 58//24 
f 59//24 58//24 57//24 
f 61//25 60//25 59//25 
f 61//25 59//25 62//25 
f 63//26 61//26 62//26 
f 63//26 62//26 64//26 
f 65//27 63//27 64//27 
f 65//27 64//27 66//27 
f 50//28 65//28 66//28 
f 50//28 66//28 51//28 
f 67//29 68//29 69//29 
f 67//29 69//29 70//29 
f 71//20 72//20 73//20 
f 71//20 73//20 74//20 
f 75//30 76//30 68//30 
f 75//30 68//30 67//30 
f 77//31 78//31 76//31 
f 77//31 76//31 75//31 
f 79//32 80//32 78//32 
f 79//32 78//32 77//32 
f 81//33 82//33 80//33 
f 81//33 80//33 79//33 
f 83//34 82//34 81//34 
f 83//34 81//34 84//34 
f 85//26 83//26 84//26 
f 85//26 84//26 86//26 
f 87//35 85//35 86//35 
f 87//35 86//35 88//35 
f 72//36 87//36 88//36 
f 72//36 88//36 73//36 
f 89//11 90//11 91//11 
f 89//11 91//11 92//11 
f 93//20 94//20 95//20 
f 93//20 95//20 96//20 
f 97//37 98//37 90//37 
f 97//37 90//37 89//37 
f 99//38 100//38 98//38 
f 99//38 98//38 97//38 
f 101//39 102//39 100//39 
f 101//39 100//39 99//39 
f 103//40 104//40 102//40 
f 103//40 102//40 101//40 
f 103//41 105//41 106//41 
f 103//41 106//41 104//41 
f 105//42 107//42 108//42 
f 105//42 108//42 106//42 
f 107//43 109//43 110//43 
f 107//43 110//43 108//43 
f 109//44 93//44 96//44 
f 109//44 96//44 110//44 
f 111//45 94//45 112//45 
f 112//45 93//45 113//45 
f 113//46 93//46 109//46 
f 113//47 109//47 114//47 
f 114//46 109//46 107//46 
f 114//46 107//46 115//46 
f 115//46 107//46 105//46 
f 115//45 105//45 116//45 
f 116//46 105//46 103//46 
f 116//46 103//46 117//46 
f 117//46 103//46 101//46 
f 117//46 101//46 118//46 
f 118//45 101//45 99//45 
f 118//46 99//46 119//46 
f 119//46 99//46 120//46 
f 120//46 99//46 97//46 
f 121//46 120//46 97//46 
f 121//45 97//45 89//45 
f 89//48 92//48 69//48 
f 121//49 89//49 69//49 
f 121//50 69//50 68//50 
f 121//51 68//51 76//51 
f 121//52 76//52 78//52 
f 121//53 78//53 80//53 
f 121//54 80//54 82//54 
f 121//55 82//55 83//55 
f 121//56 83//56 85//56 
f 121//57 85//57 87//57 
f 121//58 87//58 72//58 
f 121//59 72//59 122//59 
f 122//45 72//45 71//45 
f 23//46 123//46 24//46 
f 24//46 123//46 31//46 
f 31//46 123//46 33//46 
f 33//46 123//46 35//46 
f 35//47 123//47 37//47 
f 37//46 123//46 39//46 
f 39//46 123//46 41//46 
f 41//46 123//46 43//46 
f 43//46 123//46 30//46 
f 30//46 123//46 47//46 
f 27//45 30//45 47//45 
f 27//46 47//46 46//46 
f 27//46 46//46 54//46 
f 27//46 54//46 56//46 
f 27//46 56//46 8//46 
f 8//45 56//45 9//45 
f 9//46 56//46 22//46 
f 22//45 56//45 58//45 
f 22//46 58//46 20//46 
f 20//46 58//46 60//46 
f 20//46 60//46 18//46 
f 18//46 60//46 15//46 
f 15//46 60//46 61//46 
f 15//45 61//45 13//45 
f 13//46 61//46 63//46 
f 13//46 63//46 11//46 
f 11//46 63//46 65//46 
f 11//46 65//46 5//46 
f 5//46 65//46 50//46 
f 5//46 50//46 1//46 
f 1//45 50//45 2//45 
f 2//46 50//46 124//46 
f 124//46 50//46 49//46 
f 112//60 113//60 125//60 
f 112//60 125//60 126//60 
f 121//61 127//61 128//61 
f 121//61 128//61 120//61 
f 111//1 112//1 126//1 
f 111//1 126//1 129//1 
f 113//62 114//62 130//62 
f 113//62 130//62 125//62 
f 114//63 115//63 131//63 
f 114//63 131//63 130//63 
f 115//64 116//64 132//64 
f 115//64 132//64 131//64 
f 117//65 133//65 132//65 
f 117//65 132//65 116//65 
f 118//66 134//66 133//66 
f 118//66 133//66 117//66 
f 119//67 135//67 134//67 
f 119//67 134//67 118//67 
f 120//68 128//68 135//68 
f 120//68 135//68 119//68 
# eof
