# j.c. convert leaf file to obj
# Verts
v 8.305200 6.600010 118.843002
v 8.305200 6.600010 120.144997
v 8.305200 5.400010 120.144997
v 8.305200 5.400010 118.843002
v 12.515800 5.400000 115.843002
v 12.515800 6.600010 115.843002
v 11.437500 6.600010 115.843002
v 11.437500 5.400000 115.843002
v 8.365390 6.600010 118.257004
v 8.365390 5.400000 118.257004
v 8.543640 6.600010 117.695000
v 8.543640 5.400000 117.695000
v 8.833100 5.400000 117.176003
v 8.833100 6.600010 117.176003
v 9.222650 5.400000 116.721001
v 9.222650 6.600010 116.721001
v 9.697310 5.400000 116.348000
v 9.697310 6.600010 116.348000
v 10.238900 5.400000 116.070999
v 10.238900 6.600010 116.070999
v 10.826500 5.400000 115.900002
v 10.826500 6.600010 115.900002
v -15.537300 5.400000 115.594002
v -15.537300 6.600010 115.594002
v -16.719500 6.600010 115.594002
v -16.719500 5.400000 115.594002
v -12.405000 6.600010 120.144997
v -12.405000 6.600010 118.594002
v -12.405000 5.400000 118.594002
v -12.405000 5.400010 120.144997
v -14.926200 5.400000 115.652000
v -14.926200 6.600010 115.652000
v -14.338600 5.400000 115.822998
v -14.338600 6.600010 115.822998
v -13.797100 5.400000 116.099998
v -13.797100 6.600010 116.099998
v -13.322400 5.400000 116.473000
v -13.322400 6.600010 116.473000
v -12.932800 5.400000 116.928001
v -12.932800 6.600010 116.928001
v -12.643400 5.400000 117.445999
v -12.643400 6.600010 117.445999
v -12.465100 6.600010 118.009003
v -12.465100 5.400000 118.009003
v 37.178101 6.600000 90.977699
v 37.178101 6.600000 92.145103
v 37.178101 5.400000 92.145103
v 37.178101 5.400000 90.977699
v 37.238300 6.600000 90.392403
v 37.238300 5.400000 90.392403
v 41.750999 5.400000 87.977699
v 41.750999 6.600000 87.977699
v 40.310501 6.600000 87.977699
v 40.310501 5.400000 87.977699
v 37.416599 6.600000 89.829597
v 37.416599 5.400000 89.829597
v 37.706001 5.400000 89.310997
v 37.706001 6.600000 89.310997
v 38.095600 5.400000 88.856400
v 38.095600 6.600000 88.856400
v 38.570202 5.400000 88.483299
v 38.570202 6.600000 88.483299
v 39.111801 5.400000 88.206001
v 39.111801 6.600000 88.206001
v 39.699402 5.400000 88.035301
v 39.699402 6.600000 88.035301
v 37.105400 6.600000 64.145103
v 37.105400 6.600000 65.407402
v 37.105400 5.400000 65.407402
v 37.105400 5.400000 64.145103
v 41.750999 6.600000 68.407402
v 41.750999 5.400000 68.407402
v 40.237701 5.400000 68.407402
v 40.237701 6.600000 68.407402
v 37.165600 6.600000 65.992699
v 37.165600 5.400000 65.992699
v 37.343800 6.600000 66.555496
v 37.343800 5.400000 66.555496
v 37.633301 6.600000 67.074203
v 37.633301 5.400000 67.074203
v 38.022800 6.600000 67.528801
v 38.022800 5.400000 67.528801
v 38.497501 6.600000 67.901802
v 38.497501 5.400000 67.901802
v 39.039001 6.600000 68.179100
v 39.039001 5.400000 68.179100
v 39.626598 6.600000 68.349800
v 39.626598 5.400000 68.349800
v -44.410198 5.400000 87.994598
v -44.410198 6.600000 87.994598
v -45.954700 6.600000 87.994598
v -45.954700 5.400000 87.994598
v -41.277802 6.600000 92.145103
v -41.277802 6.600000 90.994598
v -41.277802 5.400000 90.994598
v -41.277802 5.400000 92.145103
v -43.799099 5.400000 88.052200
v -43.799099 6.600000 88.052200
v -43.211498 5.400000 88.222900
v -43.211498 6.600000 88.222900
v -42.669899 5.400000 88.500099
v -42.669899 6.600000 88.500099
v -42.195301 5.400000 88.873199
v -42.195301 6.600000 88.873199
v -41.805698 5.400000 89.327797
v -41.805698 6.600000 89.327797
v -41.516300 5.400000 89.846497
v -41.516300 6.600000 89.846497
v -41.338001 6.600000 90.409302
v -41.338001 5.400000 90.409302
v -44.151100 6.600000 68.424103
v -44.151100 5.400000 68.424103
v -45.954700 5.400000 68.424103
v -45.954700 6.600000 68.424103
v -41.018700 6.600000 65.424103
v -41.018700 6.600000 64.145103
v -41.018700 5.400000 64.145103
v -41.018700 5.400000 65.424103
v -43.540001 6.600000 68.366402
v -43.540001 5.400000 68.366402
v -42.952400 6.600000 68.195702
v -42.952400 5.400000 68.195702
v -42.410801 6.600000 67.918503
v -42.410801 5.400000 67.918503
v -41.936199 6.600000 67.545403
v -41.936199 5.400000 67.545403
v -41.546600 6.600000 67.090797
v -41.546600 5.400000 67.090797
v -41.257198 6.600000 66.572098
v -41.257198 5.400000 66.572098
v -41.078899 6.600000 66.009399
v -41.078899 5.400000 66.009399
v 8.398450 6.600000 36.145100
v 8.398450 6.600000 36.959900
v 8.398450 5.400000 36.959900
v 8.398450 5.400000 36.145100
v 12.515800 6.600000 39.959900
v 12.515800 5.400000 39.959900
v 11.530800 5.400000 39.959900
v 11.530800 6.600000 39.959900
v 8.458630 6.600000 37.545101
v 8.458630 5.400000 37.545101
v 8.636880 6.600000 38.107899
v 8.636880 5.400000 38.107899
v 8.926340 6.600000 38.626598
v 8.926340 5.400000 38.626598
v 9.315880 6.600000 39.081200
v 9.315880 5.400000 39.081200
v 9.790550 6.600000 39.454300
v 9.790550 5.400000 39.454300
v 10.332100 6.600000 39.731499
v 10.332100 5.400000 39.731499
v 10.919700 6.600000 39.902199
v 10.919700 5.400000 39.902199
v -12.588300 6.600000 36.145100
v -12.588300 6.600000 37.188499
v -12.648500 6.600000 37.773701
v -12.826700 6.600000 38.336498
v -13.116200 6.600000 38.855202
v -13.505700 6.600000 39.309799
v -13.980400 6.600000 39.682899
v -14.521900 6.600000 39.960098
v -15.109500 6.600000 40.130798
v -15.720600 6.600000 40.188499
v -16.719500 6.600000 40.188499
v -16.719500 6.600000 64.145103
v 12.515800 6.600000 64.145103
v 12.515800 6.600000 92.145103
v -16.719500 6.600000 92.145103
v -15.720600 5.400000 40.188499
v -16.719500 5.400000 40.188499
v -12.588300 5.400000 36.145100
v -12.588300 5.400000 37.188499
v -15.109500 5.400000 40.130798
v -14.521900 5.400000 39.960098
v -13.980400 5.400000 39.682899
v -13.505700 5.400000 39.309799
v -13.116200 5.400000 38.855202
v -12.826700 5.400000 38.336498
v -12.648500 5.400000 37.773701
# UVs
# Normals
vn 1.000000 0.000000 -0.000000
vn 0.000000 -0.000000 1.000000
vn 0.994766 0.000000 0.102176
vn 0.953204 0.000000 0.302327
vn 0.873350 -0.000000 0.487093
vn 0.759630 -0.000000 0.650356
vn 0.617876 -0.000000 0.786276
vn 0.455356 -0.000000 0.890309
vn 0.279419 -0.000000 0.960169
vn 0.092885 -0.000000 0.995677
vn -1.000000 0.000000 -0.000000
vn -1.000000 -0.000000 0.000000
vn -0.094484 0.000000 0.995526
vn -0.279419 0.000000 0.960169
vn -0.455416 0.000000 0.890279
vn -0.617845 0.000000 0.786300
vn -0.759588 0.000000 0.650405
vn -0.872993 0.000000 0.487732
vn -0.953335 0.000000 0.301915
vn -0.994764 0.000000 0.102198
vn 0.994752 0.000000 0.102314
vn 0.953305 0.000000 0.302011
vn 0.873233 -0.000000 0.487303
vn 0.759303 -0.000000 0.650737
vn 0.618025 -0.000000 0.786158
vn 0.455737 -0.000000 0.890114
vn 0.278970 -0.000000 0.960300
vn 0.093844 -0.000000 0.995587
vn 1.000000 0.000000 -0.000000
vn 0.000000 -0.000000 -1.000000
vn 0.994752 0.000000 -0.102314
vn 0.953352 0.000000 -0.301862
vn 0.873205 0.000000 -0.487354
vn 0.759385 0.000000 -0.650642
vn 0.617844 0.000000 -0.786301
vn 0.455803 0.000000 -0.890081
vn 0.278972 0.000000 -0.960299
vn 0.093843 0.000000 -0.995587
vn 0.000000 -0.000000 1.000000
vn -0.093844 0.000000 0.995587
vn -0.278970 0.000000 0.960300
vn -0.455608 0.000000 0.890181
vn -0.618028 0.000000 0.786156
vn -0.759300 0.000000 0.650741
vn -0.873276 0.000000 0.487227
vn -0.953305 0.000000 0.302011
vn -0.994752 0.000000 0.102314
vn -0.094004 -0.000000 -0.995572
vn -0.278970 -0.000000 -0.960300
vn -0.455608 -0.000000 -0.890181
vn -0.618025 -0.000000 -0.786158
vn -0.759308 -0.000000 -0.650731
vn -0.873273 -0.000000 -0.487232
vn -0.953288 0.000000 -0.302063
vn -0.994752 0.000000 -0.102314
vn 0.994754 0.000000 -0.102296
vn 0.953327 0.000000 -0.301940
vn 0.873231 0.000000 -0.487306
vn 0.759354 0.000000 -0.650677
vn 0.617970 0.000000 -0.786202
vn 0.455641 0.000000 -0.890164
vn 0.278971 0.000000 -0.960300
vn 0.094004 0.000000 -0.995572
vn 0.000000 1.000000 -0.000000
vn 0.000000 1.000000 0.000000
vn 0.000000 1.000000 -0.000000
vn 0.000000 1.000000 -0.000000
vn 0.000000 1.000000 -0.000000
vn 0.000000 1.000000 -0.000000
vn 0.000000 1.000000 -0.000000
vn 0.000000 1.000000 0.000000
vn -0.094004 -0.000000 -0.995572
vn -0.278971 -0.000000 -0.960300
vn -0.455674 -0.000000 -0.890147
vn -0.617946 -0.000000 -0.786220
vn -0.759385 -0.000000 -0.650642
vn -0.873204 -0.000000 -0.487355
vn -0.953352 0.000000 -0.301862
vn -0.994750 0.000000 -0.102332
# Material
mtllib baize-X.mtl
usemtl baize-X
# Faces
f 1//1 2//1 3//1 
f 1//1 3//1 4//1 
f 5//2 6//2 7//2 
f 5//2 7//2 8//2 
f 9//3 1//3 4//3 
f 9//3 4//3 10//3 
f 11//4 9//4 10//4 
f 11//4 10//4 12//4 
f 13//5 14//5 11//5 
f 13//5 11//5 12//5 
f 15//6 16//6 14//6 
f 15//6 14//6 13//6 
f 17//7 18//7 16//7 
f 17//7 16//7 15//7 
f 19//8 20//8 18//8 
f 19//8 18//8 17//8 
f 21//9 22//9 20//9 
f 21//9 20//9 19//9 
f 8//10 7//10 22//10 
f 8//10 22//10 21//10 
f 23//2 24//2 25//2 
f 23//2 25//2 26//2 
f 27//11 28//11 29//11 
f 27//12 29//12 30//12 
f 31//13 32//13 24//13 
f 31//13 24//13 23//13 
f 33//14 34//14 32//14 
f 33//14 32//14 31//14 
f 35//15 36//15 34//15 
f 35//15 34//15 33//15 
f 37//16 38//16 36//16 
f 37//16 36//16 35//16 
f 39//17 40//17 38//17 
f 39//17 38//17 37//17 
f 41//18 42//18 40//18 
f 41//18 40//18 39//18 
f 43//19 42//19 41//19 
f 43//19 41//19 44//19 
f 28//20 43//20 44//20 
f 28//20 44//20 29//20 
f 45//1 46//1 47//1 
f 45//1 47//1 48//1 
f 49//21 45//21 48//21 
f 49//21 48//21 50//21 
f 51//2 52//2 53//2 
f 51//2 53//2 54//2 
f 55//22 49//22 50//22 
f 55//22 50//22 56//22 
f 57//23 58//23 55//23 
f 57//23 55//23 56//23 
f 59//24 60//24 58//24 
f 59//24 58//24 57//24 
f 61//25 62//25 60//25 
f 61//25 60//25 59//25 
f 63//26 64//26 62//26 
f 63//26 62//26 61//26 
f 65//27 66//27 64//27 
f 65//27 64//27 63//27 
f 54//28 53//28 66//28 
f 54//28 66//28 65//28 
f 67//29 68//29 69//29 
f 67//29 69//29 70//29 
f 71//30 72//30 73//30 
f 71//30 73//30 74//30 
f 68//31 75//31 76//31 
f 68//31 76//31 69//31 
f 75//32 77//32 78//32 
f 75//32 78//32 76//32 
f 79//33 80//33 78//33 
f 79//33 78//33 77//33 
f 81//34 82//34 80//34 
f 81//34 80//34 79//34 
f 83//35 84//35 82//35 
f 83//35 82//35 81//35 
f 85//36 86//36 84//36 
f 85//36 84//36 83//36 
f 87//37 88//37 86//37 
f 87//37 86//37 85//37 
f 74//38 73//38 88//38 
f 74//38 88//38 87//38 
f 89//39 90//39 91//39 
f 89//39 91//39 92//39 
f 93//11 94//11 95//11 
f 93//11 95//11 96//11 
f 97//40 98//40 90//40 
f 97//40 90//40 89//40 
f 99//41 100//41 98//41 
f 99//41 98//41 97//41 
f 101//42 102//42 100//42 
f 101//42 100//42 99//42 
f 103//43 104//43 102//43 
f 103//43 102//43 101//43 
f 105//44 106//44 104//44 
f 105//44 104//44 103//44 
f 107//45 108//45 106//45 
f 107//45 106//45 105//45 
f 109//46 108//46 107//46 
f 109//46 107//46 110//46 
f 94//47 109//47 110//47 
f 94//47 110//47 95//47 
f 111//30 112//30 113//30 
f 111//30 113//30 114//30 
f 115//11 116//11 117//11 
f 115//11 117//11 118//11 
f 119//48 120//48 112//48 
f 119//48 112//48 111//48 
f 121//49 122//49 120//49 
f 121//49 120//49 119//49 
f 123//50 124//50 122//50 
f 123//50 122//50 121//50 
f 125//51 126//51 124//51 
f 125//51 124//51 123//51 
f 127//52 128//52 126//52 
f 127//52 126//52 125//52 
f 129//53 130//53 128//53 
f 129//53 128//53 127//53 
f 129//54 131//54 132//54 
f 129//54 132//54 130//54 
f 131//55 115//55 118//55 
f 131//55 118//55 132//55 
f 133//1 134//1 135//1 
f 133//1 135//1 136//1 
f 137//30 138//30 139//30 
f 137//30 139//30 140//30 
f 134//56 141//56 142//56 
f 134//56 142//56 135//56 
f 141//57 143//57 144//57 
f 141//57 144//57 142//57 
f 145//58 146//58 144//58 
f 145//58 144//58 143//58 
f 147//59 148//59 146//59 
f 147//59 146//59 145//59 
f 149//60 150//60 148//60 
f 149//60 148//60 147//60 
f 151//61 152//61 150//61 
f 151//61 150//61 149//61 
f 153//62 154//62 152//62 
f 153//62 152//62 151//62 
f 140//63 139//63 154//63 
f 140//63 154//63 153//63 
f 133//64 155//64 134//64 
f 134//64 155//64 156//64 
f 134//64 156//64 141//64 
f 141//65 156//65 157//65 
f 141//65 157//65 143//65 
f 143//64 157//64 158//64 
f 143//64 158//64 145//64 
f 145//64 158//64 159//64 
f 145//64 159//64 147//64 
f 147//65 159//65 160//65 
f 147//64 160//64 149//64 
f 149//64 160//64 161//64 
f 149//65 161//65 151//65 
f 151//64 161//64 153//64 
f 153//64 161//64 140//64 
f 140//64 161//64 162//64 
f 137//64 140//64 162//64 
f 137//64 162//64 163//64 
f 137//65 163//65 164//65 
f 164//64 165//64 166//64 
f 137//65 164//65 166//65 
f 137//64 166//64 167//64 
f 67//64 116//64 68//64 
f 68//64 116//64 115//64 
f 68//64 115//64 75//64 
f 75//64 115//64 131//64 
f 75//64 131//64 77//64 
f 77//64 131//64 129//64 
f 77//64 129//64 79//64 
f 79//64 129//64 127//64 
f 79//64 127//64 81//64 
f 81//65 127//65 125//65 
f 81//64 125//64 83//64 
f 83//64 125//64 123//64 
f 83//64 123//64 85//64 
f 85//65 123//65 121//65 
f 85//65 121//65 87//65 
f 87//64 121//64 119//64 
f 87//64 119//64 74//64 
f 74//64 119//64 111//64 
f 71//64 74//64 111//64 
f 71//64 111//64 52//64 
f 111//64 114//64 52//64 
f 52//64 114//64 53//64 
f 53//65 114//65 90//65 
f 90//64 114//64 91//64 
f 53//64 90//64 66//64 
f 66//64 90//64 98//64 
f 66//64 98//64 64//64 
f 64//64 98//64 100//64 
f 64//64 100//64 62//64 
f 62//64 100//64 102//64 
f 62//64 102//64 60//64 
f 60//64 102//64 104//64 
f 60//65 104//65 58//65 
f 58//64 104//64 106//64 
f 58//64 106//64 55//64 
f 55//64 106//64 108//64 
f 55//64 108//64 49//64 
f 49//64 108//64 109//64 
f 49//64 109//64 45//64 
f 45//64 109//64 94//64 
f 45//64 94//64 93//64 
f 45//64 93//64 46//64 
f 168//66 169//66 25//66 
f 168//67 25//67 24//67 
f 168//68 24//68 32//68 
f 168//69 32//69 34//69 
f 168//70 34//70 6//70 
f 6//64 34//64 7//64 
f 7//71 34//71 22//71 
f 22//64 34//64 20//64 
f 20//71 34//71 36//71 
f 20//64 36//64 18//64 
f 18//64 36//64 38//64 
f 18//65 38//65 16//65 
f 16//64 38//64 40//64 
f 16//64 40//64 14//64 
f 14//64 40//64 42//64 
f 14//64 42//64 11//64 
f 11//64 42//64 43//64 
f 11//64 43//64 9//64 
f 9//65 43//65 28//65 
f 9//64 28//64 1//64 
f 1//65 28//65 27//65 
f 1//65 27//65 2//65 
f 164//30 170//30 171//30 
f 164//30 171//30 165//30 
f 156//11 155//11 172//11 
f 156//11 172//11 173//11 
f 163//72 174//72 170//72 
f 163//72 170//72 164//72 
f 162//73 175//73 174//73 
f 162//73 174//73 163//73 
f 161//74 176//74 175//74 
f 161//74 175//74 162//74 
f 160//75 177//75 176//75 
f 160//75 176//75 161//75 
f 159//76 178//76 177//76 
f 159//76 177//76 160//76 
f 158//77 179//77 178//77 
f 158//77 178//77 159//77 
f 158//78 157//78 180//78 
f 158//78 180//78 179//78 
f 157//79 156//79 173//79 
f 157//79 173//79 180//79 
# eof
