# j.c. convert leaf file to obj
# Verts
v 32.000000 0.000000 -32.000000
v 64.000000 0.000000 -32.000000
v 64.000000 0.000000 32.000000
v 32.000000 0.000000 32.000000
v 64.000000 64.000000 -32.000000
v -64.000000 64.000000 -32.000000
v -64.000000 64.000000 32.000000
v 64.000000 64.000000 32.000000
v -64.000000 0.000000 -32.000000
v -32.000000 0.000000 -32.000000
v -32.000000 0.000000 32.000000
v -64.000000 0.000000 32.000000
# UVs
# Normals
vn 0.000000 -1.000000 0.000000
vn 0.000000 -1.000000 0.000000
vn 0.000000 -1.000000 0.000000
vn 0.000000 -1.000000 0.000000
vn 0.000000 1.000000 0.000000
vn 0.000000 1.000000 0.000000
vn 0.000000 1.000000 0.000000
vn 0.000000 1.000000 0.000000
vn 0.000000 -1.000000 0.000000
vn 0.000000 -1.000000 0.000000
vn 0.000000 -1.000000 0.000000
vn 0.000000 -1.000000 0.000000
# Material
mtllib brid128_64_64_1.mtl
usemtl brid128_64_64_1
# Faces
f 1//1 2//2 3//3 
f 1//1 3//3 4//4 
f 5//5 6//6 7//7 
f 5//5 7//7 8//8 
f 9//9 10//10 11//11 
f 9//9 11//11 12//12 
# eof
