# j.c. convert leaf file to obj
# Verts
v 64.000000 64.000000 -32.000000
v 64.000000 0.000000 -32.000000
v 32.000000 0.000000 -32.000000
v 32.000000 16.000000 -32.000000
v 29.564199 28.245800 -32.000000
v 22.627399 38.627499 -32.000000
v 12.245800 45.563999 -32.000000
v 0.000000 48.000000 -32.000000
v -12.245800 45.563999 -32.000000
v -32.000000 16.000000 -32.000000
v -32.000000 0.000000 -32.000000
v -64.000000 0.000000 -32.000000
v -29.564199 28.245800 -32.000000
v -22.627399 38.627499 -32.000000
v -64.000000 64.000000 -32.000000
v 64.000000 0.000000 32.000000
v 64.000000 64.000000 32.000000
v 32.000000 0.000000 32.000000
v 32.000000 16.000000 32.000000
v 29.564199 28.245800 32.000000
v 22.627399 38.627499 32.000000
v 12.245800 45.563999 32.000000
v 0.000000 48.000000 32.000000
v -12.245800 45.563999 32.000000
v -64.000000 64.000000 32.000000
v -22.627399 38.627499 32.000000
v -29.564199 28.245800 32.000000
v -32.000000 16.000000 32.000000
v -32.000000 0.000000 32.000000
v -64.000000 0.000000 32.000000
# UVs
# Normals
vn 0.000000 0.000000 -1.000000
vn 0.000000 0.000000 -1.000000
vn 0.000000 0.000000 -1.000000
vn 0.000000 0.000000 -1.000000
vn 0.000000 0.000000 -1.000000
vn 0.000000 0.000000 -1.000000
vn 0.000000 0.000000 -1.000000
vn 0.000000 0.000000 -1.000000
vn 0.000000 0.000000 -1.000000
vn 0.000000 0.000000 -1.000000
vn 0.000000 0.000000 -1.000000
vn 0.000000 0.000000 -1.000000
vn 0.000000 0.000000 -1.000000
vn 0.000000 0.000000 -1.000000
vn 0.000000 0.000000 -1.000000
vn 0.000000 0.000000 1.000000
vn 0.000000 0.000000 1.000000
vn 0.000000 0.000000 1.000000
vn 0.000000 0.000000 1.000000
vn 0.000000 0.000000 1.000000
vn 0.000000 0.000000 1.000000
vn 0.000000 0.000000 1.000000
vn 0.000000 0.000000 1.000000
vn 0.000000 0.000000 1.000000
vn 0.000000 0.000000 1.000000
vn 0.000000 0.000000 1.000000
vn 0.000000 0.000000 1.000000
vn 0.000000 0.000000 1.000000
vn 0.000000 0.000000 1.000000
vn 0.000000 0.000000 1.000000
# Material
mtllib brid128_64_64_3.mtl
usemtl brid128_64_64_3
# Faces
f 1//1 2//2 3//3 
f 1//1 3//3 4//4 
f 1//1 4//4 5//5 
f 1//1 5//5 6//6 
f 1//1 6//6 7//7 
f 1//1 7//7 8//8 
f 1//1 8//8 9//9 
f 10//10 11//11 12//12 
f 13//13 10//10 12//12 
f 14//14 13//13 12//12 
f 1//1 9//9 15//15 
f 9//9 14//14 15//15 
f 14//14 12//12 15//15 
f 16//16 17//17 18//18 
f 18//18 17//17 19//19 
f 19//19 17//17 20//20 
f 20//20 17//17 21//21 
f 21//21 17//17 22//22 
f 22//22 17//17 23//23 
f 23//23 17//17 24//24 
f 24//24 17//17 25//25 
f 26//26 24//24 25//25 
f 27//27 26//26 25//25 
f 28//28 27//27 25//25 
f 29//29 28//28 25//25 
f 29//29 25//25 30//30 
# eof
