# j.c. convert leaf file to obj
# Verts
v 0.337500 0.400000 -0.584567
v 0.675000 0.400000 -0.000000
v 0.675000 0.000000 0.000000
v 0.337500 -0.000000 -0.584567
v -0.337500 -0.000000 -0.584567
v -0.337500 0.400000 -0.584567
v -0.675000 0.400000 -0.000000
v -0.675000 0.000000 0.000000
v -0.337500 0.400000 0.584567
v -0.337500 0.000000 0.584567
v 0.337500 0.000000 0.584567
v 0.337500 0.400000 0.584567
# UVs
# Normals
vn 0.866025 -0.000000 -0.500000
vn 0.866025 0.000000 -0.500000
vn 0.000000 -0.000000 -1.000000
vn -0.866025 0.000000 -0.500000
vn -0.866025 -0.000000 -0.500000
vn -0.866025 0.000000 0.500000
vn -0.866025 0.000000 0.500000
vn 0.000000 -0.000000 1.000000
vn 0.866025 0.000000 0.500000
vn 0.866025 0.000000 0.500000
# Faces
f 1//1 2//1 3//1 
f 1//2 3//2 4//2 
f 1//3 4//3 5//3 
f 1//3 5//3 6//3 
f 7//4 6//4 5//4 
f 7//5 5//5 8//5 
f 9//6 7//6 8//6 
f 9//7 8//7 10//7 
f 11//8 12//8 9//8 
f 11//8 9//8 10//8 
f 2//9 12//9 11//9 
f 2//10 11//10 3//10 
# eof
