# j.c. convert leaf file to obj
# Verts
v 1.215000 0.500000 -0.821250
v 0.738000 0.500000 -0.819000
v 0.774563 0.500000 -0.808313
v 0.803250 0.500000 -0.776250
v 0.824063 0.500000 -0.722813
v 1.248470 0.500000 -0.669938
v 0.837000 0.500000 -0.648000
v 1.272380 0.500000 -0.499500
v 1.286720 0.500000 -0.309938
v 0.855563 0.500000 -0.301500
v 1.291500 0.500000 -0.101250
v 1.282500 0.500000 0.164250
v 0.857250 0.500000 0.193500
v 0.603000 0.500000 -1.878750
v 0.166500 0.500000 -1.800000
v 0.558000 0.500000 -1.129500
v 1.112060 0.500000 -1.074900
v 1.150870 0.500000 -1.003360
v 0.692157 0.500000 -0.805500
v 0.649125 0.500000 -0.765000
v 0.616781 0.500000 -0.707625
v 0.603000 0.500000 -0.643500
v 0.608063 0.500000 -0.406688
v 0.641250 0.500000 0.015750
v 0.254250 0.500000 0.022500
v 0.911813 0.500000 -1.231000
v 0.850500 0.500000 -1.237500
v 0.784125 0.500000 -1.230750
v 0.968625 0.500000 -1.211490
v 0.713250 0.500000 -1.210500
v 1.020940 0.500000 -1.178960
v 1.068750 0.500000 -1.133440
v 0.558000 -0.000000 -1.129500
v 0.603000 -0.000000 -1.878750
v 0.166500 -0.000000 -1.800000
v 0.254250 0.000000 0.022500
v 0.641250 0.000000 0.015750
v 1.282500 0.000000 0.164250
v 0.857250 0.000000 0.193500
v 0.738000 -0.000000 -0.819000
v 1.215000 -0.000000 -0.821250
v 0.774563 -0.000000 -0.808313
v 0.803250 -0.000000 -0.776250
v 0.824063 -0.000000 -0.722813
v 1.248470 -0.000000 -0.669938
v 0.837000 -0.000000 -0.648000
v 1.272370 -0.000000 -0.499500
v 1.286720 -0.000000 -0.309938
v 0.855563 -0.000000 -0.301500
v 1.291500 -0.000000 -0.101250
v 1.112060 -0.000000 -1.074900
v 1.150870 -0.000000 -1.003360
v 0.692156 -0.000000 -0.805500
v 0.649125 -0.000000 -0.765000
v 0.616781 -0.000000 -0.707625
v 0.603000 -0.000000 -0.643500
v 0.608063 -0.000000 -0.406687
v 0.850500 -0.000000 -1.237500
v 0.911813 -0.000000 -1.231000
v 0.784125 -0.000000 -1.230750
v 0.968625 -0.000000 -1.211480
v 0.713250 -0.000000 -1.210500
v 1.020940 -0.000000 -1.178960
v 1.068750 -0.000000 -1.133440
# UVs
# Normals
vn 0.000000 1.000000 0.000000
vn 0.000000 1.000000 -0.000000
vn 0.998201 0.000000 0.059952
vn -0.177546 -0.000000 -0.984113
vn -0.998843 0.000000 0.048092
vn -0.998843 0.000000 0.048092
vn 0.017439 -0.000000 0.999848
vn 0.068621 -0.000000 0.997643
vn -0.000000 -1.000000 0.000000
vn -0.000000 -1.000000 0.000000
vn 0.000000 -1.000000 0.000000
vn 0.000000 -1.000000 0.000000
vn 0.000000 -1.000000 0.000000
vn 0.000000 -1.000000 0.000000
vn 0.000000 -1.000000 0.000000
vn 0.000000 -1.000000 0.000000
vn 0.000000 -1.000000 0.000000
vn 0.000000 -1.000000 0.000000
vn 0.000000 -1.000000 0.000000
vn -0.000000 -1.000000 0.000000
vn -0.000000 -1.000000 0.000000
vn 0.000000 -1.000000 0.000000
vn -0.000000 -1.000000 0.000000
vn -0.000000 -1.000000 0.000000
vn 0.000000 -1.000000 0.000000
vn 0.000000 -1.000000 0.000000
vn 0.000000 -1.000000 0.000000
vn -0.000000 -1.000000 0.000000
vn 0.000000 -1.000000 0.000000
vn -0.000000 -1.000000 0.000000
vn 0.000000 -1.000000 0.000000
vn 0.000000 -1.000000 0.000000
vn 0.000000 -1.000000 0.000000
vn -0.000000 -1.000000 0.000000
vn -0.000000 -1.000000 0.000000
vn -0.000000 -1.000000 0.000000
vn 0.000000 -1.000000 0.000000
vn 0.000000 -1.000000 0.000000
# Material
mtllib h2.mtl
usemtl h2
# Faces
f 1//1 2//1 3//1 
f 1//1 3//1 4//1 
f 1//1 4//1 5//1 
f 1//1 5//1 6//1 
f 6//1 5//1 7//1 
f 6//1 7//1 8//1 
f 8//1 7//1 9//1 
f 9//1 7//1 10//1 
f 9//1 10//1 11//1 
f 11//1 10//1 12//1 
f 12//1 10//1 13//1 
f 14//1 15//1 16//1 
f 17//2 16//2 18//2 
f 18//1 16//1 1//1 
f 1//1 16//1 2//1 
f 16//1 15//1 2//1 
f 2//1 15//1 19//1 
f 19//1 15//1 20//1 
f 20//1 15//1 21//1 
f 21//2 15//2 22//2 
f 22//1 15//1 23//1 
f 23//2 15//2 24//2 
f 24//1 15//1 25//1 
f 26//2 27//2 28//2 
f 26//1 28//1 29//1 
f 29//1 28//1 30//1 
f 29//1 30//1 31//1 
f 31//1 30//1 32//1 
f 32//1 30//1 16//1 
f 32//1 16//1 17//1 
f 14//3 16//3 33//3 
f 14//3 33//3 34//3 
f 14//4 34//4 15//4 
f 15//4 34//4 35//4 
f 25//5 15//5 35//5 
f 25//6 35//6 36//6 
f 37//7 24//7 25//7 
f 37//7 25//7 36//7 
f 38//8 12//8 13//8 
f 38//8 13//8 39//8 
f 40//9 41//9 42//9 
f 42//10 41//10 43//10 
f 43//11 41//11 44//11 
f 44//12 41//12 45//12 
f 44//13 45//13 46//13 
f 46//14 45//14 47//14 
f 46//15 47//15 48//15 
f 46//16 48//16 49//16 
f 49//17 48//17 50//17 
f 49//18 50//18 38//18 
f 49//19 38//19 39//19 
f 35//20 34//20 33//20 
f 33//21 51//21 52//21 
f 33//22 52//22 41//22 
f 33//23 41//23 40//23 
f 35//24 33//24 40//24 
f 35//25 40//25 53//25 
f 35//26 53//26 54//26 
f 35//27 54//27 55//27 
f 35//28 55//28 56//28 
f 35//29 56//29 57//29 
f 35//30 57//30 37//30 
f 35//31 37//31 36//31 
f 58//32 59//32 60//32 
f 60//33 59//33 61//33 
f 60//34 61//34 62//34 
f 62//35 61//35 63//35 
f 62//36 63//36 64//36 
f 62//37 64//37 33//37 
f 33//38 64//38 51//38 
# eof
