# j.c. convert leaf file to obj
# Verts
v 20.000000 0.000001 8.000000
v 20.000000 40.000000 8.000000
v -20.000000 40.000000 8.000000
v -20.000000 0.000001 8.000000
v -20.000000 -0.000001 -32.000000
v 20.000000 -0.000001 -32.000000
v 20.000000 40.000000 -32.000000
v -20.000000 40.000000 -32.000000
# UVs
# Normals
vn 0.577350 -0.577350 0.577350
vn 0.577350 0.577350 0.577350
vn -0.577350 0.577350 0.577350
vn -0.577350 -0.577350 0.577350
vn -0.577350 -0.577350 -0.577350
vn 0.577350 -0.577350 -0.577350
vn 0.577350 0.577350 -0.577350
vn -0.577350 0.577350 -0.577350
# Material
mtllib headstr.mtl
usemtl headstr
# Faces
f 1//1 2//2 3//3 
f 1//1 3//3 4//4 
f 5//5 6//6 1//1 
f 5//5 1//1 4//4 
f 7//7 2//2 1//1 
f 7//7 1//1 6//6 
f 7//7 8//8 3//3 
f 7//7 3//3 2//2 
f 7//7 6//6 5//5 
f 7//7 5//5 8//8 
f 3//3 8//8 5//5 
f 3//3 5//5 4//4 
# eof
