# j.c. convert leaf file to obj
# Verts
v 0.704250 0.500000 -1.354500
v 0.290250 0.500000 -1.300500
v 0.245250 0.500000 -0.015750
v 0.778500 0.500000 0.002250
v 0.778500 0.000000 0.002250
v 0.704250 -0.000000 -1.354500
v 0.290250 -0.000000 -1.300500
v 0.245250 -0.000000 -0.015750
# UVs
# Normals
vn 0.000000 1.000000 0.000000
vn 0.000000 1.000000 -0.000000
vn 0.998506 0.000000 -0.054645
vn -0.129339 -0.000000 -0.991600
vn -0.999387 0.000000 -0.035005
vn -0.033736 0.000000 0.999431
vn -0.033736 0.000000 0.999431
vn 0.000000 -1.000000 0.000000
vn -0.000000 -1.000000 0.000000
# Material
mtllib i2.mtl
usemtl i2
# Faces
f 1//1 2//1 3//1 
f 1//2 3//2 4//2 
f 1//3 4//3 5//3 
f 1//3 5//3 6//3 
f 1//4 6//4 2//4 
f 2//4 6//4 7//4 
f 3//5 2//5 7//5 
f 3//5 7//5 8//5 
f 5//6 4//6 3//6 
f 5//7 3//7 8//7 
f 7//8 6//8 8//8 
f 8//9 6//9 5//9 
# eof
