# j.c. convert leaf file to obj
# Verts
v 1.322850 0.500000 -1.258260
v 0.924298 0.500000 -1.236890
v 1.307190 0.500000 -0.669134
v 0.950140 0.500000 -0.471102
v 0.940697 0.500000 -0.263879
v 1.273900 0.500000 -0.186106
v 1.252780 0.500000 -0.072431
v 0.912294 0.500000 -0.108847
v 1.219980 0.500000 0.034287
v 0.866839 0.500000 -0.001555
v 0.837718 0.500000 0.034190
v 0.804333 0.500000 0.058001
v 0.766686 0.500000 0.069877
v 1.175500 0.500000 0.134049
v 0.724776 0.500000 0.069819
v 0.589608 0.500000 -0.486259
v 0.201745 0.500000 -0.438802
v 0.571967 0.500000 -0.368236
v 0.564373 0.500000 -0.186557
v 0.206279 0.500000 -0.214743
v 0.587310 0.500000 -0.052988
v 0.610228 0.500000 -0.004245
v 0.236779 0.500000 -0.020625
v 0.640777 0.500000 0.032471
v 0.678960 0.500000 0.057158
v 0.265357 0.500000 0.079683
v 1.119350 0.500000 0.226852
v 0.301149 0.500000 0.167918
v 0.344153 0.500000 0.244078
v 1.026340 0.500000 0.334238
v 0.394372 0.500000 0.308164
v 0.920012 0.500000 0.406186
v 0.451804 0.500000 0.360176
v 0.516448 0.500000 0.400114
v 0.800357 0.500000 0.442696
v 0.588307 0.500000 0.427978
v 0.667379 0.500000 0.443767
v 1.267190 0.500000 -1.806630
v 1.235380 0.500000 -1.815830
v 1.200630 0.500000 -1.812470
v 1.295510 0.500000 -1.786510
v 1.167920 0.500000 -1.794460
v 1.323020 0.500000 -1.757700
v 1.137270 0.500000 -1.761790
v 1.341170 0.500000 -1.723710
v 1.108660 0.500000 -1.714450
v 1.349430 0.500000 -1.640160
v 0.983185 0.500000 -1.807630
v 0.931559 0.500000 -1.801420
v 1.048100 0.500000 -1.780610
v 0.884019 0.500000 -1.770860
v 0.863846 0.500000 -1.691180
v 1.327660 0.500000 -1.558820
v 0.870608 0.500000 -1.590320
v 1.280980 0.500000 -1.482500
v 0.914371 0.500000 -1.499000
v 1.209390 0.500000 -1.411220
v 0.995130 0.500000 -1.417220
v 1.112890 0.500000 -1.344970
v 1.322850 0.000000 -1.258260
v 0.924298 0.000000 -1.236890
v 0.589608 0.000000 -0.486259
v 0.201745 0.000000 -0.438802
v 1.307190 0.000000 -0.669134
v 0.950140 0.000000 -0.471102
v 0.940697 0.000000 -0.263878
v 1.273900 0.000000 -0.186107
v 1.252780 0.000000 -0.072431
v 0.912294 0.000000 -0.108847
v 1.219980 0.000000 0.034287
v 0.866839 0.000000 -0.001555
v 0.837718 0.000000 0.034190
v 0.804333 0.000000 0.058001
v 0.766686 0.000000 0.069877
v 1.175500 0.000000 0.134049
v 0.724776 0.000000 0.069819
v 0.571966 0.000000 -0.368235
v 0.564372 0.000000 -0.186556
v 0.206279 0.000000 -0.214743
v 0.587310 0.000000 -0.052988
v 0.610227 0.000000 -0.004246
v 0.236779 0.000000 -0.020625
v 0.640777 0.000000 0.032470
v 0.678960 0.000000 0.057158
v 0.265357 0.000000 0.079683
v 1.119350 0.000000 0.226852
v 0.301148 0.000000 0.167918
v 0.344153 0.000000 0.244078
v 1.026340 0.000000 0.334238
v 0.394371 0.000000 0.308164
v 0.920012 0.000000 0.406186
v 0.451803 0.000000 0.360176
v 0.516448 0.000000 0.400114
v 0.800357 0.000000 0.442696
v 0.588306 0.000000 0.427977
v 0.667379 0.000000 0.443767
v 1.200630 0.000000 -1.812470
v 1.267190 0.000000 -1.806630
v 1.295510 0.000000 -1.786510
v 1.167920 0.000000 -1.794460
v 1.323020 0.000000 -1.757700
v 1.137270 0.000000 -1.761790
v 1.341170 0.000000 -1.723710
v 1.108660 0.000000 -1.714450
v 1.349430 0.000000 -1.640160
v 0.931559 0.000000 -1.801420
v 0.983185 0.000000 -1.807630
v 1.048100 0.000000 -1.780610
v 0.884019 0.000000 -1.770860
v 0.863846 0.000000 -1.691180
v 1.327660 0.000000 -1.558820
v 0.870608 0.000000 -1.590320
v 1.280980 0.000000 -1.482500
v 0.914371 0.000000 -1.499000
v 1.209390 0.000000 -1.411220
v 0.995129 0.000000 -1.417220
v 1.112890 0.000000 -1.344970
# UVs
# Normals
vn 0.000000 1.000000 0.000000
vn 0.000000 1.000000 0.000000
vn 0.000000 1.000000 0.000000
vn -0.053542 -0.000000 -0.998566
vn -0.053542 -0.000000 -0.998566
vn -0.121449 -0.000000 -0.992598
vn -0.000000 -1.000000 -0.000000
vn -0.000000 -1.000000 -0.000000
vn -0.000000 -1.000000 -0.000000
vn -0.000000 -1.000000 -0.000000
vn -0.000000 -1.000000 -0.000000
vn -0.000000 -1.000000 -0.000000
vn -0.000000 -1.000000 -0.000000
vn -0.000000 -1.000000 -0.000000
vn -0.000000 -1.000000 -0.000000
vn -0.000000 -1.000000 -0.000000
vn -0.000000 -1.000000 -0.000000
vn -0.000000 -1.000000 -0.000000
vn -0.000000 -1.000000 -0.000000
vn -0.000000 -1.000000 -0.000000
vn -0.000000 -1.000000 -0.000000
vn -0.000000 -1.000000 -0.000000
vn -0.000000 -1.000000 -0.000000
vn -0.000000 -1.000000 -0.000000
vn -0.000000 -1.000000 -0.000000
vn -0.000000 -1.000000 -0.000000
vn -0.000000 -1.000000 -0.000000
vn -0.000000 -1.000000 -0.000000
vn -0.000000 -1.000000 -0.000000
vn -0.000000 -1.000000 -0.000000
vn -0.000000 -1.000000 -0.000000
vn -0.000000 -1.000000 -0.000000
vn -0.000000 -1.000000 -0.000000
vn -0.000000 -1.000000 -0.000000
vn -0.000000 -1.000000 -0.000000
vn -0.000000 -1.000000 -0.000000
vn -0.000000 -1.000000 -0.000000
vn -0.000000 -1.000000 -0.000000
vn -0.000000 -1.000000 -0.000000
vn -0.000000 -1.000000 -0.000000
vn -0.000000 -1.000000 -0.000000
vn -0.000000 -1.000000 -0.000000
vn -0.000000 -1.000000 -0.000000
vn -0.000000 -1.000000 -0.000000
vn -0.000000 -1.000000 -0.000000
vn -0.000000 -1.000000 -0.000000
vn -0.000000 -1.000000 -0.000000
vn -0.000000 -1.000000 -0.000000
vn -0.000000 -1.000000 -0.000000
vn -0.000000 -1.000000 -0.000000
vn -0.000000 -1.000000 -0.000000
vn -0.000000 -1.000000 -0.000000
vn -0.000000 -1.000000 -0.000000
vn -0.000000 -1.000000 -0.000000
vn -0.000000 -1.000000 -0.000000
vn -0.000000 -1.000000 -0.000000
vn -0.000000 -1.000000 -0.000000
vn -0.000000 -1.000000 -0.000000
vn -0.000000 -1.000000 -0.000000
vn -0.000000 -1.000000 -0.000000
# Material
mtllib j2.mtl
usemtl j2
# Faces
f 1//1 2//1 3//1 
f 3//1 2//1 4//1 
f 3//1 4//1 5//1 
f 3//2 5//2 6//2 
f 6//1 5//1 7//1 
f 7//1 5//1 8//1 
f 7//1 8//1 9//1 
f 9//1 8//1 10//1 
f 9//1 10//1 11//1 
f 9//2 11//2 12//2 
f 9//2 12//2 13//2 
f 9//1 13//1 14//1 
f 13//1 15//1 14//1 
f 16//3 17//3 18//3 
f 18//2 17//2 19//2 
f 19//1 17//1 20//1 
f 19//1 20//1 21//1 
f 21//2 20//2 22//2 
f 22//1 20//1 23//1 
f 22//1 23//1 24//1 
f 24//1 23//1 25//1 
f 25//1 23//1 15//1 
f 15//1 23//1 26//1 
f 14//2 15//2 26//2 
f 14//1 26//1 27//1 
f 27//1 26//1 28//1 
f 27//2 28//2 29//2 
f 27//1 29//1 30//1 
f 30//1 29//1 31//1 
f 30//1 31//1 32//1 
f 32//1 31//1 33//1 
f 32//1 33//1 34//1 
f 32//1 34//1 35//1 
f 35//2 34//2 36//2 
f 35//1 36//1 37//1 
f 38//1 39//1 40//1 
f 38//1 40//1 41//1 
f 41//2 40//2 42//2 
f 41//1 42//1 43//1 
f 43//2 42//2 44//2 
f 43//2 44//2 45//2 
f 45//1 44//1 46//1 
f 45//1 46//1 47//1 
f 48//1 49//1 50//1 
f 50//1 49//1 51//1 
f 50//2 51//2 46//2 
f 46//1 51//1 47//1 
f 47//1 51//1 52//1 
f 47//1 52//1 53//1 
f 53//2 52//2 54//2 
f 53//1 54//1 55//1 
f 55//1 54//1 56//1 
f 55//1 56//1 57//1 
f 57//1 56//1 58//1 
f 57//1 58//1 59//1 
f 1//4 60//4 2//4 
f 2//5 60//5 61//5 
f 16//6 62//6 17//6 
f 17//6 62//6 63//6 
f 61//7 60//7 64//7 
f 61//8 64//8 65//8 
f 65//9 64//9 66//9 
f 66//10 64//10 67//10 
f 66//11 67//11 68//11 
f 66//12 68//12 69//12 
f 69//13 68//13 70//13 
f 69//14 70//14 71//14 
f 71//15 70//15 72//15 
f 72//16 70//16 73//16 
f 73//17 70//17 74//17 
f 74//18 70//18 75//18 
f 76//19 74//19 75//19 
f 63//20 62//20 77//20 
f 63//21 77//21 78//21 
f 63//22 78//22 79//22 
f 79//23 78//23 80//23 
f 79//24 80//24 81//24 
f 79//25 81//25 82//25 
f 82//26 81//26 83//26 
f 82//27 83//27 84//27 
f 82//28 84//28 76//28 
f 82//29 76//29 85//29 
f 76//30 75//30 85//30 
f 85//31 75//31 86//31 
f 85//32 86//32 87//32 
f 87//33 86//33 88//33 
f 88//34 86//34 89//34 
f 88//35 89//35 90//35 
f 90//36 89//36 91//36 
f 90//37 91//37 92//37 
f 92//38 91//38 93//38 
f 93//39 91//39 94//39 
f 93//40 94//40 95//40 
f 95//41 94//41 96//41 
f 97//42 98//42 99//42 
f 97//43 99//43 100//43 
f 100//44 99//44 101//44 
f 100//45 101//45 102//45 
f 102//46 101//46 103//46 
f 102//47 103//47 104//47 
f 104//48 103//48 105//48 
f 106//49 107//49 108//49 
f 106//50 108//50 109//50 
f 109//51 108//51 104//51 
f 109//52 104//52 105//52 
f 109//53 105//53 110//53 
f 110//54 105//54 111//54 
f 110//55 111//55 112//55 
f 112//56 111//56 113//56 
f 112//57 113//57 114//57 
f 114//58 113//58 115//58 
f 114//59 115//59 116//59 
f 116//60 115//60 117//60 
# eof
