# j.c. convert leaf file to obj
# Verts
v 1.177880 -0.000000 -0.842625
v 1.177880 0.500000 -0.842625
v 1.073250 0.500000 -0.740250
v 1.073250 -0.000000 -0.740250
v 1.257750 0.500000 -0.969750
v 1.257750 -0.000000 -0.969750
v 1.312880 0.500000 -1.121620
v 1.312880 -0.000000 -1.121620
v 1.343250 0.500000 -1.298250
v 1.343250 -0.000000 -1.298250
v 0.987750 0.500000 -1.287000
v 0.981000 0.500000 -1.399500
v 0.981000 -0.000000 -1.399500
v 0.987750 -0.000000 -1.287000
v 0.982477 0.500000 -1.197700
v 0.982477 -0.000000 -1.197700
v 0.966657 0.500000 -1.119940
v 0.966656 -0.000000 -1.119940
v 0.940289 0.500000 -1.053700
v 0.940289 -0.000000 -1.053700
v 0.903375 0.500000 -0.999000
v 0.903375 -0.000000 -0.999000
v 0.855914 0.500000 -0.955828
v 0.855914 -0.000000 -0.955828
v 0.797907 0.500000 -0.924188
v 0.797906 -0.000000 -0.924188
v 0.729352 0.500000 -0.904078
v 0.729352 -0.000000 -0.904078
v 0.650250 0.500000 -0.895500
v 0.650250 -0.000000 -0.895500
v 0.739055 -0.000000 -0.605250
v 0.739055 0.500000 -0.605250
v 0.650250 0.500000 -0.589500
v 0.650250 -0.000000 -0.589500
v 0.797343 -0.000000 -0.596953
v 0.797343 0.500000 -0.596953
v 0.847859 -0.000000 -0.572063
v 0.847859 0.500000 -0.572063
v 0.890604 -0.000000 -0.530578
v 0.890604 0.500000 -0.530578
v 0.925577 0.500000 -0.472500
v 0.925576 -0.000000 -0.472500
v 0.952778 0.500000 -0.397828
v 0.952777 -0.000000 -0.397828
v 0.972207 0.500000 -0.306563
v 0.972207 -0.000000 -0.306563
v 0.987750 0.500000 -0.074250
v 0.987750 -0.000000 -0.074250
v 0.975375 0.500000 0.195188
v 0.975375 0.000000 0.195188
v 0.938250 0.500000 0.486000
v 0.938250 0.000000 0.486000
v 1.448240 0.500000 0.176484
v 1.451250 0.500000 0.450000
v 1.451250 0.000000 0.450000
v 1.448240 0.000000 0.176484
v 1.427970 0.500000 -0.061312
v 1.427970 -0.000000 -0.061312
v 1.390430 0.500000 -0.263391
v 1.390430 -0.000000 -0.263391
v 1.335620 0.500000 -0.429750
v 1.335620 -0.000000 -0.429750
v 1.287540 0.500000 -0.521719
v 1.287540 -0.000000 -0.521719
v 1.227790 0.500000 -0.604125
v 1.227790 -0.000000 -0.604125
v 1.156360 0.500000 -0.676969
v 1.156360 -0.000000 -0.676969
# UVs
# Normals
vn 0.778438 0.000000 0.627721
vn 0.778438 0.000000 0.627721
vn 0.998087 0.000000 -0.061830
vn 0.998087 0.000000 -0.061830
vn 0.882257 0.000000 0.470768
vn 0.913493 0.000000 0.406855
vn 0.958537 0.000000 0.284967
vn 0.973776 0.000000 0.227510
vn 0.985538 0.000000 0.169455
vn 0.985538 0.000000 0.169455
vn -0.999794 0.000000 0.020312
vn -0.998205 0.000000 0.059892
vn -0.998205 0.000000 0.059892
vn -0.999812 0.000000 -0.019363
vn -0.994367 0.000000 -0.105988
vn -0.988241 0.000001 -0.152902
vn -0.966385 0.000001 -0.257099
vn -0.949383 0.000001 -0.314122
vn -0.900311 0.000001 -0.435247
vn -0.866744 0.000000 -0.498754
vn -0.781859 0.000000 -0.623456
vn -0.729521 0.000000 -0.683958
vn -0.612082 0.000000 -0.790794
vn -0.546988 0.000000 -0.837141
vn -0.415168 0.000001 -0.909745
vn -0.349043 0.000001 -0.937107
vn -0.224375 0.000000 -0.974503
vn -0.166282 0.000000 -0.986078
vn -0.107810 0.000000 -0.994172
vn -0.107810 0.000000 -0.994172
vn 0.070226 0.000000 0.997531
vn -0.036142 0.000000 0.999347
vn 0.174630 0.000000 0.984634
vn 0.174630 0.000000 0.984634
vn -0.243982 0.000000 0.969780
vn -0.345459 0.000000 0.938434
vn -0.532570 0.000000 0.846386
vn -0.618324 0.000000 0.785924
vn -0.783087 0.000000 0.621912
vn -0.783085 0.000000 0.621915
vn -0.887976 0.000001 0.459891
vn -0.915733 0.000002 0.401787
vn -0.954493 0.000002 0.298233
vn -0.967347 0.000001 0.253455
vn -0.986883 0.000001 0.161435
vn -0.993461 0.000000 0.114173
vn -0.999572 0.000000 0.029252
vn -0.999965 0.000000 -0.008347
vn -0.997343 0.000000 -0.072851
vn -0.995009 0.000000 -0.099788
vn -0.991950 0.000000 -0.126632
vn -0.991950 0.000000 -0.126632
vn 0.999364 0.000000 -0.035669
vn 0.999940 0.000000 -0.011004
vn 0.999939 0.000000 -0.011004
vn 0.998179 0.000000 -0.060327
vn 0.993057 0.000000 -0.117631
vn 0.988650 0.000000 -0.150236
vn 0.974005 0.000000 -0.226526
vn 0.962849 0.000000 -0.270039
vn 0.931350 0.000000 -0.364126
vn 0.910095 0.000000 -0.414400
vn 0.862696 0.000000 -0.505722
vn 0.837096 0.000000 -0.547056
vn 0.779626 0.000000 -0.626245
vn 0.747688 0.000000 -0.664050
vn 0.679508 0.000000 -0.733668
vn 0.643355 0.000000 -0.765568
# Material
mtllib k1.mtl
usemtl k1
# Faces
f 1//1 2//2 3//3 
f 1//1 3//3 4//4 
f 5//5 2//2 1//1 
f 5//5 1//1 6//6 
f 7//7 5//5 6//6 
f 7//7 6//6 8//8 
f 9//9 7//7 8//8 
f 9//9 8//8 10//10 
f 11//11 12//12 13//13 
f 11//11 13//13 14//14 
f 15//15 11//11 14//14 
f 15//15 14//14 16//16 
f 17//17 15//15 16//16 
f 17//17 16//16 18//18 
f 19//19 17//17 18//18 
f 19//19 18//18 20//20 
f 21//21 19//19 20//20 
f 21//21 20//20 22//22 
f 21//21 22//22 23//23 
f 23//23 22//22 24//24 
f 23//23 24//24 25//25 
f 25//25 24//24 26//26 
f 25//25 26//26 27//27 
f 27//27 26//26 28//28 
f 27//27 28//28 29//29 
f 29//29 28//28 30//30 
f 31//31 32//32 33//33 
f 31//31 33//33 34//34 
f 35//35 36//36 32//32 
f 35//35 32//32 31//31 
f 37//37 38//38 36//36 
f 37//37 36//36 35//35 
f 39//39 40//40 38//38 
f 39//39 38//38 37//37 
f 41//41 40//40 39//39 
f 41//41 39//39 42//42 
f 43//43 41//41 42//42 
f 43//43 42//42 44//44 
f 45//45 43//43 44//44 
f 45//45 44//44 46//46 
f 47//47 45//45 46//46 
f 47//47 46//46 48//48 
f 49//49 47//47 48//48 
f 49//49 48//48 50//50 
f 51//51 49//49 50//50 
f 51//51 50//50 52//52 
f 53//53 54//54 55//55 
f 53//53 55//55 56//56 
f 57//57 53//53 56//56 
f 57//57 56//56 58//58 
f 59//59 57//57 58//58 
f 59//59 58//58 60//60 
f 61//61 59//59 60//60 
f 61//61 60//60 62//62 
f 63//63 61//61 62//62 
f 63//63 62//62 64//64 
f 65//65 63//63 64//64 
f 65//65 64//64 66//66 
f 67//67 65//65 66//66 
f 67//67 66//66 68//68 
f 67//67 68//68 3//3 
f 3//3 68//68 4//4 
# eof
