# j.c. convert leaf file to obj
# Verts
v 2.182500 0.500000 -0.459738
v 2.198250 0.500000 0.026930
v 2.198250 0.000000 0.026930
v 2.182500 -0.000000 -0.459738
v 2.196000 0.500000 -0.874336
v 2.196000 -0.000000 -0.874336
v 2.194440 0.500000 -0.979242
v 2.194440 -0.000000 -0.979242
v 2.176280 0.500000 -1.082180
v 2.176280 -0.000000 -1.082180
v 2.141500 0.500000 -1.183150
v 2.141500 -0.000000 -1.183150
v 2.090110 0.500000 -1.282150
v 2.090110 -0.000000 -1.282150
v 2.006180 0.500000 -1.391570
v 2.006180 -0.000000 -1.391570
v 1.905350 0.500000 -1.469730
v 1.905350 -0.000000 -1.469730
v 1.787610 0.500000 -1.516620
v 1.787610 -0.000000 -1.516620
v 1.652980 0.500000 -1.532250
v 1.652980 -0.000000 -1.532250
v 1.548070 0.500000 -1.521700
v 1.548070 -0.000000 -1.521700
v 1.454150 0.500000 -1.490060
v 1.454150 -0.000000 -1.490060
v 1.371200 0.500000 -1.437330
v 1.371200 -0.000000 -1.437330
v 1.299230 0.500000 -1.363500
v 1.299230 -0.000000 -1.363500
v 1.221940 0.500000 -1.433390
v 1.221940 -0.000000 -1.433390
v 1.134210 0.500000 -1.483310
v 1.134210 -0.000000 -1.483310
v 1.036060 0.500000 -1.513270
v 1.036060 -0.000000 -1.513270
v 0.927493 0.500000 -1.523250
v 0.927492 -0.000000 -1.523250
v 0.832434 0.500000 -1.515090
v 0.832434 -0.000000 -1.515090
v 0.743291 0.500000 -1.490630
v 0.743291 -0.000000 -1.490630
v 0.660063 0.500000 -1.449840
v 0.660063 -0.000000 -1.449840
v 0.582750 0.500000 -1.392750
v 0.582750 -0.000000 -1.392750
v 0.652500 0.500000 -0.262090
v 0.690750 0.500000 0.013676
v 0.690750 0.000000 0.013676
v 0.652500 -0.000000 -0.262090
v 0.625500 0.500000 -0.459387
v 0.625500 -0.000000 -0.459387
v 0.616500 0.500000 -0.616324
v 0.616500 -0.000000 -0.616324
v 0.621000 0.500000 -0.723938
v 0.621000 -0.000000 -0.723938
v 0.678938 0.500000 -0.928231
v 0.678938 -0.000000 -0.928231
v 0.714235 0.500000 -1.008730
v 0.714235 -0.000000 -1.008730
v 0.753750 0.500000 -1.074800
v 0.753750 -0.000000 -1.074800
v 0.797485 0.500000 -1.126430
v 0.797485 -0.000000 -1.126430
v 0.845438 -0.000000 -1.163640
v 0.845438 0.500000 -1.163640
v 0.897610 -0.000000 -1.186410
v 0.897610 0.500000 -1.186410
v 0.954000 -0.000000 -1.194750
v 0.954000 0.500000 -1.194750
v 0.995660 -0.000000 -1.190040
v 0.995661 0.500000 -1.190040
v 1.031770 -0.000000 -1.173660
v 1.031770 0.500000 -1.173660
v 1.062320 -0.000000 -1.145600
v 1.062320 0.500000 -1.145600
v 1.087310 0.500000 -1.105880
v 1.087310 -0.000000 -1.105880
v 1.120640 0.500000 -0.991407
v 1.120640 -0.000000 -0.991406
v 1.131750 0.500000 -0.830250
v 1.131750 -0.000000 -0.830250
v 1.116000 0.500000 -0.607500
v 1.116000 -0.000000 -0.607500
v 0.990000 0.500000 0.049500
v 0.990000 0.000000 0.049500
v 1.451810 0.500000 -0.404200
v 1.442250 0.500000 0.108000
v 1.442250 0.000000 0.108000
v 1.451810 -0.000000 -0.404200
v 1.480500 0.500000 -0.804832
v 1.480500 -0.000000 -0.804832
v 1.508910 0.500000 -0.970499
v 1.508910 -0.000000 -0.970499
v 1.551380 0.500000 -1.088830
v 1.551380 -0.000000 -1.088830
v 1.577880 0.500000 -1.130250
v 1.577880 -0.000000 -1.130250
v 1.607910 -0.000000 -1.159830
v 1.607910 0.500000 -1.159830
v 1.641450 -0.000000 -1.177580
v 1.641450 0.500000 -1.177580
v 1.678500 -0.000000 -1.183500
v 1.678500 0.500000 -1.183500
v 1.717520 -0.000000 -1.178570
v 1.717520 0.500000 -1.178570
v 1.751340 -0.000000 -1.163780
v 1.751350 0.500000 -1.163780
v 1.779960 -0.000000 -1.139120
v 1.779960 0.500000 -1.139120
v 1.803380 0.500000 -1.104610
v 1.803380 -0.000000 -1.104610
v 1.834590 0.500000 -1.006000
v 1.834590 -0.000000 -1.006000
v 1.845000 0.500000 -0.867938
v 1.845000 -0.000000 -0.867938
v 1.838810 0.500000 -0.741700
v 1.838810 -0.000000 -0.741700
v 1.820250 0.500000 -0.610981
v 1.820250 -0.000000 -0.610981
v 1.754440 0.500000 -0.239054
v 1.754440 -0.000000 -0.239054
v 1.732500 0.500000 0.065250
v 1.732500 0.000000 0.065250
# UVs
# Normals
vn 0.999943 0.000000 -0.010721
vn 0.999477 0.000000 -0.032346
vn 0.999477 0.000000 -0.032346
vn 0.999940 0.000000 0.010920
vn 0.999860 0.000000 0.016744
vn 1.000000 0.000000 0.000935
vn 0.997684 0.000000 -0.068018
vn 0.992638 0.000000 -0.121122
vn 0.974359 0.000000 -0.224998
vn 0.961219 0.000000 -0.275786
vn 0.928399 0.000000 -0.371584
vn 0.909042 0.000000 -0.416705
vn 0.859123 0.000000 -0.511769
vn 0.827654 0.000000 -0.561239
vn 0.738605 0.000000 -0.674138
vn 0.677891 0.000000 -0.735162
vn 0.536442 0.000000 -0.843937
vn 0.454843 0.000000 -0.890572
vn 0.287311 0.000000 -0.957837
vn 0.201763 0.000000 -0.979434
vn 0.043754 0.000000 -0.999042
vn -0.028412 0.000000 -0.999596
vn -0.174099 0.000000 -0.984728
vn -0.247576 0.000000 -0.968869
vn -0.394204 0.000000 -0.919023
vn -0.467080 0.000000 -0.884215
vn -0.599914 0.000000 -0.800064
vn -0.660141 0.000000 -0.751142
vn -0.335530 0.000000 -0.942029
vn 0.275564 0.000000 -0.961283
vn 0.615231 0.000000 -0.788347
vn 0.556204 0.000000 -0.831046
vn 0.429350 0.000000 -0.903138
vn 0.361445 0.000000 -0.932393
vn 0.226196 0.000000 -0.974082
vn 0.159081 -0.000000 -0.987266
vn 0.032630 -0.000000 -0.999467
vn -0.026598 -0.000000 -0.999646
vn -0.145758 0.000000 -0.989320
vn -0.205673 0.000000 -0.978621
vn -0.324374 0.000000 -0.945929
vn -0.383097 0.000000 -0.923708
vn -0.493181 0.000000 -0.869927
vn -0.544679 0.000000 -0.838645
vn -0.594024 0.000000 -0.804447
vn -0.594024 0.000000 -0.804447
vn 0.990600 0.000000 -0.136788
vn 0.990517 0.000000 -0.137389
vn 0.990517 0.000000 -0.137389
vn 0.990683 0.000000 -0.136187
vn 0.993981 0.000000 -0.109550
vn 0.996514 0.000000 -0.083422
vn 0.999705 0.000000 -0.024269
vn 0.999961 0.000000 0.008778
vn 0.992831 0.000000 0.119530
vn 0.980399 0.000000 0.197024
vn 0.948623 0.000000 0.316410
vn 0.933180 0.000000 0.359409
vn 0.898203 0.000000 0.439580
vn 0.878967 0.000000 0.476883
vn 0.828961 0.000000 0.559306
vn 0.797138 0.000000 0.603797
vn 0.691783 0.000000 0.722105
vn 0.691783 0.000000 0.722105
vn 0.545769 0.000000 0.837936
vn 0.474264 0.000000 0.880383
vn 0.317907 0.000000 0.948122
vn 0.232680 0.000000 0.972553
vn 0.060543 0.000000 0.998166
vn -0.026321 0.000000 0.999654
vn -0.214930 0.000000 0.976629
vn -0.316289 0.000000 0.948663
vn -0.506531 0.000000 0.862222
vn -0.595305 0.000000 0.803499
vn -0.768234 0.000000 0.640169
vn -0.768234 0.000000 0.640169
vn -0.891977 0.000000 0.452082
vn -0.930210 0.000000 0.367027
vn -0.977623 0.000000 0.210367
vn -0.990187 0.000000 0.139747
vn -0.999749 0.000000 0.022389
vn -0.999708 0.000000 -0.024147
vn -0.993934 0.000000 -0.109976
vn -0.988790 0.000000 -0.149310
vn -0.982102 0.000000 -0.188348
vn -0.982102 0.000000 -0.188348
vn 0.999342 0.000000 0.036262
vn 0.999826 0.000000 0.018661
vn 0.999826 0.000000 0.018661
vn 0.998549 0.000000 0.053856
vn 0.994570 0.000000 0.104071
vn 0.990621 0.000000 0.136637
vn 0.974116 0.000000 0.226051
vn 0.959266 0.000000 0.282505
vn 0.913371 0.000000 0.407127
vn 0.880232 0.000000 0.474543
vn 0.776909 0.000000 0.629613
vn 0.776909 0.000000 0.629613
vn 0.629665 0.000000 0.776866
vn 0.550928 0.000000 0.834553
vn 0.368835 0.000000 0.929495
vn 0.264263 0.000000 0.964451
vn 0.063979 0.000000 0.997951
vn -0.031251 0.000000 0.999512
vn -0.219121 0.000000 0.975698
vn -0.311705 0.000003 0.950179
vn -0.489520 0.000007 0.871992
vn -0.574435 0.000007 0.818550
vn -0.746591 0.000003 0.665284
vn -0.746619 0.000000 0.665251
vn -0.877594 0.000000 0.479404
vn -0.919968 0.000000 0.391992
vn -0.973760 0.000000 0.227577
vn -0.988441 0.000000 0.151607
vn -0.999427 0.000000 0.033858
vn -0.999971 0.000000 -0.007601
vn -0.996828 0.000000 -0.079583
vn -0.993916 0.000000 -0.110145
vn -0.988409 0.000000 -0.151814
vn -0.986620 0.000000 -0.163037
vn -0.990110 0.000000 -0.140295
vn -0.994351 0.000000 -0.106146
vn -0.997411 0.000000 -0.071912
vn -0.997411 0.000000 -0.071912
# Material
mtllib m1.mtl
usemtl m1
# Faces
f 1//1 2//2 3//3 
f 1//1 3//3 4//4 
f 5//5 1//1 4//4 
f 5//5 4//4 6//6 
f 7//7 5//5 6//6 
f 7//7 6//6 8//8 
f 9//9 7//7 8//8 
f 9//9 8//8 10//10 
f 11//11 9//9 10//10 
f 11//11 10//10 12//12 
f 13//13 11//11 12//12 
f 13//13 12//12 14//14 
f 15//15 13//13 14//14 
f 15//15 14//14 16//16 
f 15//15 16//16 17//17 
f 17//17 16//16 18//18 
f 17//17 18//18 19//19 
f 19//19 18//18 20//20 
f 19//19 20//20 21//21 
f 21//21 20//20 22//22 
f 21//21 22//22 23//23 
f 23//23 22//22 24//24 
f 23//23 24//24 25//25 
f 25//25 24//24 26//26 
f 25//25 26//26 27//27 
f 27//27 26//26 28//28 
f 29//29 27//27 28//28 
f 29//29 28//28 30//30 
f 29//29 30//30 31//31 
f 31//31 30//30 32//32 
f 31//31 32//32 33//33 
f 33//33 32//32 34//34 
f 33//33 34//34 35//35 
f 35//35 34//34 36//36 
f 35//35 36//36 37//37 
f 37//37 36//36 38//38 
f 37//37 38//38 39//39 
f 39//39 38//38 40//40 
f 39//39 40//40 41//41 
f 41//41 40//40 42//42 
f 41//41 42//42 43//43 
f 43//43 42//42 44//44 
f 43//43 44//44 45//45 
f 45//45 44//44 46//46 
f 47//47 48//48 49//49 
f 47//47 49//49 50//50 
f 51//51 47//47 50//50 
f 51//51 50//50 52//52 
f 53//53 51//51 52//52 
f 53//53 52//52 54//54 
f 55//55 53//53 54//54 
f 55//55 54//54 56//56 
f 57//57 55//55 56//56 
f 57//57 56//56 58//58 
f 59//59 57//57 58//58 
f 59//59 58//58 60//60 
f 61//61 59//59 60//60 
f 61//61 60//60 62//62 
f 63//63 61//61 62//62 
f 63//63 62//62 64//64 
f 65//65 66//66 63//63 
f 65//65 63//63 64//64 
f 67//67 68//68 66//66 
f 67//67 66//66 65//65 
f 69//69 70//70 68//68 
f 69//69 68//68 67//67 
f 71//71 72//72 70//70 
f 71//71 70//70 69//69 
f 73//73 74//74 72//72 
f 73//73 72//72 71//71 
f 75//75 76//76 74//74 
f 75//75 74//74 73//73 
f 77//77 76//76 75//75 
f 77//77 75//75 78//78 
f 79//79 77//77 78//78 
f 79//79 78//78 80//80 
f 81//81 79//79 80//80 
f 81//81 80//80 82//82 
f 83//83 81//81 82//82 
f 83//83 82//82 84//84 
f 85//85 83//83 84//84 
f 85//85 84//84 86//86 
f 87//87 88//88 89//89 
f 87//87 89//89 90//90 
f 91//91 87//87 90//90 
f 91//91 90//90 92//92 
f 93//93 91//91 92//92 
f 93//93 92//92 94//94 
f 95//95 93//93 94//94 
f 95//95 94//94 96//96 
f 97//97 95//95 96//96 
f 97//97 96//96 98//98 
f 99//99 100//100 97//97 
f 99//99 97//97 98//98 
f 101//101 102//102 100//100 
f 101//101 100//100 99//99 
f 103//103 104//104 102//102 
f 103//103 102//102 101//101 
f 105//105 106//106 104//104 
f 105//105 104//104 103//103 
f 107//107 108//108 106//106 
f 107//107 106//106 105//105 
f 109//109 110//110 108//108 
f 109//109 108//108 107//107 
f 111//111 110//110 109//109 
f 111//111 109//109 112//112 
f 113//113 111//111 112//112 
f 113//113 112//112 114//114 
f 115//115 113//113 114//114 
f 115//115 114//114 116//116 
f 117//117 115//115 116//116 
f 117//117 116//116 118//118 
f 119//119 117//117 118//118 
f 119//119 118//118 120//120 
f 121//121 119//119 120//120 
f 121//121 120//120 122//122 
f 123//123 121//121 122//122 
f 123//123 122//122 124//124 
# eof
