# j.c. convert leaf file to obj
# Verts
v 0.937500 0.478355 1.154850
v 0.662912 0.441943 1.154850
v 0.937500 0.000000 1.250000
v 0.430128 0.338247 1.154850
v 0.274588 0.183058 1.154850
v 0.219967 0.000000 1.154850
v 0.274588 -0.183058 1.154850
v 0.430128 -0.338247 1.154850
v 0.662912 -0.441943 1.154850
v 0.937500 -0.478355 1.154850
v 0.937500 0.883883 0.883883
v 0.430128 0.816602 0.883883
v 0.000000 0.625000 0.883883
v -0.287403 0.338247 0.883883
v -0.388325 0.000000 0.883883
v -0.287403 -0.338247 0.883883
v 0.000000 -0.625000 0.883883
v 0.430128 -0.816602 0.883883
v 0.937500 -0.883883 0.883883
v 0.937500 1.154850 0.478355
v 0.274588 1.066940 0.478355
v -0.287403 0.816602 0.478355
v -0.662912 0.441943 0.478355
v -0.794775 0.000000 0.478355
v -0.662912 -0.441943 0.478355
v -0.287403 -0.816602 0.478355
v 0.274588 -1.066940 0.478355
v 0.937500 -1.154850 0.478355
v 0.937500 1.250000 0.000000
v 0.219967 1.154850 0.000000
v -0.388325 0.883883 0.000000
v -0.794775 0.478355 0.000000
v -0.937500 0.000000 0.000000
v -0.794775 -0.478355 0.000000
v -0.388325 -0.883883 0.000000
v 0.219967 -1.154850 0.000000
v 0.937500 -1.250000 0.000000
v 0.937500 1.154850 -0.478355
v 0.274588 1.066940 -0.478355
v -0.287403 0.816602 -0.478355
v -0.662912 0.441943 -0.478355
v -0.794775 0.000000 -0.478355
v -0.662912 -0.441943 -0.478355
v -0.287403 -0.816602 -0.478355
v 0.274588 -1.066940 -0.478355
v 0.937500 -1.154850 -0.478355
v 0.937500 0.883883 -0.883883
v 0.430128 0.816602 -0.883883
v 0.000000 0.625000 -0.883883
v -0.287403 0.338247 -0.883883
v -0.388325 0.000000 -0.883883
v -0.287403 -0.338247 -0.883883
v 0.000000 -0.625000 -0.883883
v 0.430128 -0.816602 -0.883883
v 0.937500 -0.883883 -0.883883
v 0.937500 0.478355 -1.154850
v 0.662912 0.441943 -1.154850
v 0.430128 0.338247 -1.154850
v 0.274588 0.183058 -1.154850
v 0.219967 0.000000 -1.154850
v 0.274588 -0.183058 -1.154850
v 0.430128 -0.338247 -1.154850
v 0.662912 -0.441943 -1.154850
v 0.937500 -0.478355 -1.154850
v 0.937500 0.000000 -1.250000
# UVs
# Normals
vn -0.058615 0.442021 0.895088
vn -0.122714 0.382706 0.915684
vn -0.086461 0.000000 0.996255
vn -0.216630 0.289968 0.932196
vn -0.248644 0.153545 0.956347
vn -0.299166 0.024453 0.953888
vn -0.280717 -0.147188 0.948438
vn -0.216630 -0.289968 0.932196
vn -0.122714 -0.382706 0.915684
vn -0.058615 -0.442021 0.895088
vn -0.093327 0.703787 0.704254
vn -0.155483 0.680069 0.716471
vn -0.336017 0.568313 0.751074
vn -0.477900 0.323797 0.816558
vn -0.564858 0.014732 0.825057
vn -0.513019 -0.298773 0.804703
vn -0.367392 -0.566626 0.737535
vn -0.155483 -0.680069 0.716471
vn -0.093327 -0.703787 0.704254
vn -0.118047 0.890178 0.440054
vn -0.244896 0.884093 0.398002
vn -0.502018 0.745728 0.438027
vn -0.741776 0.458211 0.489706
vn -0.857402 0.012174 0.514503
vn -0.754091 -0.443279 0.484613
vn -0.524920 -0.767788 0.367371
vn -0.244896 -0.884093 0.398002
vn -0.118047 -0.890178 0.440054
vn -0.131459 0.991322 0.000000
vn -0.317792 0.948160 0.000000
vn -0.594767 0.802323 0.050308
vn -0.857988 0.513634 0.005991
vn -1.000000 0.000000 0.000000
vn -0.857988 -0.513634 -0.005991
vn -0.594766 -0.802323 -0.050308
vn -0.317792 -0.948160 -0.000000
vn -0.131459 -0.991322 -0.000000
vn -0.118047 0.890178 -0.440054
vn -0.244896 0.884093 -0.398002
vn -0.524920 0.767788 -0.367371
vn -0.754091 0.443279 -0.484613
vn -0.857402 -0.012174 -0.514503
vn -0.741776 -0.458211 -0.489706
vn -0.502018 -0.745728 -0.438027
vn -0.244896 -0.884093 -0.398002
vn -0.118047 -0.890178 -0.440054
vn -0.093327 0.703787 -0.704254
vn -0.155483 0.680069 -0.716471
vn -0.367392 0.566626 -0.737535
vn -0.498752 0.273627 -0.822420
vn -0.564029 -0.056097 -0.823847
vn -0.487951 -0.356872 -0.796584
vn -0.336017 -0.568314 -0.751074
vn -0.155483 -0.680069 -0.716471
vn -0.093327 -0.703787 -0.704254
vn -0.058615 0.442021 -0.895088
vn -0.122714 0.382706 -0.915684
vn -0.216630 0.289968 -0.932196
vn -0.248644 0.153545 -0.956347
vn -0.299166 0.024453 -0.953888
vn -0.280717 -0.147188 -0.948438
vn -0.216630 -0.289968 -0.932196
vn -0.122714 -0.382706 -0.915684
vn -0.058615 -0.442021 -0.895088
vn -0.086461 -0.000000 -0.996255
# Material
mtllib melon1.mtl
usemtl melon1
# Faces
f 1//1 2//2 3//3 
f 3//3 2//2 4//4 
f 3//3 4//4 5//5 
f 3//3 5//5 6//6 
f 3//3 6//6 7//7 
f 3//3 7//7 8//8 
f 3//3 8//8 9//9 
f 3//3 9//9 10//10 
f 11//11 12//12 1//1 
f 1//1 12//12 2//2 
f 12//12 13//13 2//2 
f 2//2 13//13 4//4 
f 13//13 14//14 4//4 
f 4//4 14//14 5//5 
f 5//5 14//14 6//6 
f 6//6 14//14 15//15 
f 6//6 15//15 7//7 
f 7//7 15//15 16//16 
f 7//7 16//16 8//8 
f 8//8 16//16 17//17 
f 9//9 8//8 17//17 
f 9//9 17//17 18//18 
f 10//10 9//9 18//18 
f 10//10 18//18 19//19 
f 11//11 20//20 12//12 
f 12//12 20//20 21//21 
f 12//12 21//21 13//13 
f 13//13 21//21 22//22 
f 14//14 13//13 22//22 
f 14//14 22//22 23//23 
f 15//15 14//14 23//23 
f 15//15 23//23 24//24 
f 16//16 15//15 24//24 
f 16//16 24//24 25//25 
f 17//17 16//16 25//25 
f 17//17 25//25 26//26 
f 27//27 18//18 17//17 
f 27//27 17//17 26//26 
f 28//28 19//19 18//18 
f 28//28 18//18 27//27 
f 20//20 29//29 21//21 
f 21//21 29//29 30//30 
f 21//21 30//30 22//22 
f 22//22 30//30 31//31 
f 23//23 22//22 31//31 
f 23//23 31//31 32//32 
f 24//24 23//23 32//32 
f 24//24 32//32 33//33 
f 25//25 24//24 33//33 
f 25//25 33//33 34//34 
f 26//26 25//25 34//34 
f 26//26 34//34 35//35 
f 36//36 27//27 26//26 
f 36//36 26//26 35//35 
f 37//37 28//28 27//27 
f 37//37 27//27 36//36 
f 29//29 38//38 39//39 
f 29//29 39//39 30//30 
f 30//30 39//39 40//40 
f 30//30 40//40 31//31 
f 32//32 31//31 40//40 
f 32//32 40//40 41//41 
f 33//33 32//32 41//41 
f 33//33 41//41 42//42 
f 34//34 33//33 42//42 
f 34//34 42//42 43//43 
f 35//35 34//34 43//43 
f 35//35 43//43 44//44 
f 45//45 36//36 44//44 
f 44//44 36//36 35//35 
f 46//46 37//37 45//45 
f 45//45 37//37 36//36 
f 38//38 47//47 48//48 
f 38//38 48//48 39//39 
f 39//39 48//48 49//49 
f 39//39 49//49 40//40 
f 41//41 40//40 49//49 
f 41//41 49//49 50//50 
f 42//42 41//41 50//50 
f 42//42 50//50 51//51 
f 43//43 42//42 51//51 
f 43//43 51//51 52//52 
f 44//44 43//43 52//52 
f 44//44 52//52 53//53 
f 54//54 45//45 53//53 
f 53//53 45//45 44//44 
f 55//55 46//46 54//54 
f 54//54 46//46 45//45 
f 48//48 47//47 56//56 
f 48//48 56//56 57//57 
f 49//49 48//48 57//57 
f 49//49 57//57 58//58 
f 49//49 58//58 50//50 
f 50//50 58//58 59//59 
f 50//50 59//59 60//60 
f 50//50 60//60 51//51 
f 51//51 60//60 61//61 
f 51//51 61//61 52//52 
f 52//52 61//61 62//62 
f 52//52 62//62 53//53 
f 62//62 63//63 53//53 
f 53//53 63//63 54//54 
f 63//63 64//64 54//54 
f 54//54 64//64 55//55 
f 65//65 57//57 56//56 
f 57//57 65//65 58//58 
f 58//58 65//65 59//59 
f 59//59 65//65 60//60 
f 60//60 65//65 61//61 
f 61//61 65//65 62//62 
f 62//62 65//65 63//63 
f 64//64 63//63 65//65 
# eof
