# j.c. convert leaf file to obj
# Verts
v 1.309860 0.500000 -0.829988
v 1.320690 0.500000 -0.662784
v 1.320690 0.000000 -0.662784
v 1.309860 0.000000 -0.829988
v 0.792926 0.000000 -1.100690
v 0.792926 0.500000 -1.100690
v 0.755942 0.500000 -1.108280
v 0.755942 0.000000 -1.108280
v 1.277380 0.500000 -0.982847
v 1.277380 0.000000 -0.982847
v 1.223240 0.500000 -1.121360
v 1.223240 0.000000 -1.121360
v 1.147440 0.500000 -1.245530
v 1.147440 0.000000 -1.245530
v 1.061100 0.500000 -1.343970
v 1.061100 0.000000 -1.343970
v 0.966317 0.000000 -1.414280
v 0.966317 0.500000 -1.414280
v 0.863098 0.000000 -1.456470
v 0.863098 0.500000 -1.456470
v 0.751442 0.000000 -1.470530
v 0.751442 0.500000 -1.470530
v 0.640067 0.000000 -1.456890
v 0.640067 0.500000 -1.456890
v 0.535442 0.000000 -1.415970
v 0.535442 0.500000 -1.415970
v 0.437567 0.000000 -1.347770
v 0.437567 0.500000 -1.347770
v 0.346442 0.500000 -1.252280
v 0.346442 0.000000 -1.252280
v 0.267692 0.500000 -1.134440
v 0.267692 0.000000 -1.134440
v 0.211442 0.500000 -1.005910
v 0.211442 0.000000 -1.005910
v 0.177692 0.500000 -0.866691
v 0.177692 0.000000 -0.866691
v 0.166442 0.500000 -0.716784
v 0.166442 0.000000 -0.716784
v 0.170801 0.500000 -0.537066
v 0.170801 0.000000 -0.537066
v 0.183879 0.500000 -0.387159
v 0.183879 0.000000 -0.387159
v 0.205676 0.500000 -0.267066
v 0.205676 -0.000000 -0.267066
v 0.236192 0.500000 -0.176784
v 0.236192 -0.000000 -0.176784
v 0.304254 0.500000 -0.074691
v 0.304254 -0.000000 -0.074691
v 0.400442 -0.000000 -0.000159
v 0.400442 0.500000 -0.000159
v 0.524754 -0.000000 0.046809
v 0.524754 0.500000 0.046809
v 0.677192 -0.000000 0.066216
v 0.677192 0.500000 0.066216
v 0.846223 -0.000000 0.057919
v 0.846223 0.500000 0.057919
v 0.988816 -0.000000 0.021778
v 0.988816 0.500000 0.021778
v 1.104970 -0.000000 -0.042206
v 1.104970 0.500000 -0.042206
v 1.194690 0.500000 -0.134034
v 1.194690 -0.000000 -0.134034
v 1.249820 0.500000 -0.232050
v 1.249820 -0.000000 -0.232050
v 1.289190 0.500000 -0.352847
v 1.289190 0.000000 -0.352847
v 1.312820 0.500000 -0.496425
v 1.312820 0.000000 -0.496425
v 0.829629 0.000000 -1.080160
v 0.829629 0.500000 -1.080160
v 0.902192 0.500000 -1.000280
v 0.902192 0.000000 -1.000280
v 0.938332 0.500000 -0.936863
v 0.938332 0.000000 -0.936863
v 0.965754 0.500000 -0.865847
v 0.965754 0.000000 -0.865847
v 0.994442 0.500000 -0.701034
v 0.994442 0.000000 -0.701034
v 0.994090 0.500000 -0.611808
v 0.994090 0.000000 -0.611808
v 0.981785 0.500000 -0.530878
v 0.981785 0.000000 -0.530878
v 0.957528 0.500000 -0.458245
v 0.957528 0.000000 -0.458245
v 0.921317 0.500000 -0.393909
v 0.921317 0.000000 -0.393909
v 0.876387 0.500000 -0.341527
v 0.876387 0.000000 -0.341527
v 0.825973 0.000000 -0.304753
v 0.825973 0.500000 -0.304753
v 0.770074 -0.000000 -0.283589
v 0.770074 0.500000 -0.283589
v 0.708692 -0.000000 -0.278034
v 0.708692 0.500000 -0.278034
v 0.653848 -0.000000 -0.285909
v 0.653848 0.500000 -0.285909
v 0.608567 0.000000 -0.305034
v 0.608567 0.500000 -0.305034
v 0.572848 0.000000 -0.335409
v 0.572848 0.500000 -0.335409
v 0.546692 0.500000 -0.377034
v 0.546692 0.000000 -0.377034
v 0.514629 0.500000 -0.505847
v 0.514629 0.000000 -0.505847
v 0.503942 0.500000 -0.703284
v 0.503942 0.000000 -0.703284
v 0.511535 0.500000 -0.802706
v 0.511535 0.000000 -0.802706
v 0.532067 0.500000 -0.889472
v 0.532067 0.000000 -0.889472
v 0.565535 0.500000 -0.963581
v 0.565535 0.000000 -0.963581
v 0.611942 0.500000 -1.025030
v 0.611942 0.000000 -1.025030
v 0.679442 0.000000 -1.078470
v 0.679442 0.500000 -1.078470
# UVs
# Normals
vn 0.993637 0.000000 -0.112634
vn 0.999950 0.000000 0.009972
vn 0.999625 0.000000 -0.027377
vn 0.987039 0.000000 -0.160481
vn -0.299891 0.000000 0.953974
vn -0.396619 0.000000 0.917983
vn -0.013484 0.000000 0.999909
vn 0.181631 0.000000 0.983367
vn 0.965425 0.000000 -0.260682
vn 0.949785 0.000000 -0.312904
vn 0.908537 0.000000 -0.417805
vn 0.882498 0.000000 -0.470317
vn 0.822320 0.000000 -0.569025
vn 0.788298 0.000000 -0.615294
vn 0.677612 0.000000 -0.735420
vn 0.677612 0.000000 -0.735420
vn 0.526963 0.000000 -0.849888
vn 0.453983 0.000000 -0.891011
vn 0.296150 0.000000 -0.955141
vn 0.211025 0.000000 -0.977481
vn 0.043062 0.000000 -0.999072
vn -0.039664 0.000000 -0.999213
vn -0.203880 0.000000 -0.978996
vn -0.285343 0.000000 -0.958426
vn -0.436086 0.000000 -0.899905
vn -0.505668 0.000000 -0.862728
vn -0.650834 0.000000 -0.759220
vn -0.650834 0.000000 -0.759220
vn -0.761971 0.000000 -0.647611
vn -0.798085 0.000000 -0.602544
vn -0.862644 0.000000 -0.505812
vn -0.890968 0.000000 -0.454066
vn -0.937867 0.000000 -0.346994
vn -0.956511 0.000000 -0.291697
vn -0.983197 0.000000 -0.182550
vn -0.991670 0.000000 -0.128803
vn -0.999124 0.000000 -0.041854
vn -0.999961 0.000000 -0.008790
vn -0.998980 0.000000 0.045155
vn -0.997816 0.000000 0.066052
vn -0.993063 0.000000 0.117580
vn -0.988962 0.000000 0.148167
vn -0.974050 0.000000 0.226331
vn -0.961829 0.000000 0.273653
vn -0.915890 0.000000 0.401431
vn -0.877162 -0.000000 0.480194
vn -0.731833 -0.000000 0.681484
vn -0.731833 -0.000000 0.681484
vn -0.531376 -0.000000 0.847136
vn -0.444163 -0.000000 0.895946
vn -0.279429 -0.000000 0.960166
vn -0.203248 -0.000000 0.979127
vn -0.068086 -0.000000 0.997680
vn -0.009445 -0.000000 0.999955
vn 0.115087 -0.000000 0.993355
vn 0.180930 0.000000 0.983496
vn 0.326986 0.000000 0.945029
vn 0.406496 0.000000 0.913653
vn 0.605389 0.000000 0.795930
vn 0.605389 0.000000 0.795930
vn 0.773237 0.000000 0.634117
vn 0.825742 0.000000 0.564048
vn 0.901883 0.000000 0.431981
vn 0.928392 0.000000 0.371601
vn 0.965234 0.000000 0.261386
vn 0.977248 0.000000 0.212099
vn 0.992257 0.000000 0.124200
vn 0.996316 0.000000 0.085763
vn -0.622301 0.000000 0.782778
vn -0.622301 0.000000 0.782778
vn -0.787278 0.000000 0.616598
vn -0.830384 0.000000 0.557191
vn -0.892385 0.000000 0.451274
vn -0.913787 0.000000 0.406193
vn -0.954384 0.000000 0.298581
vn -0.971898 0.000000 0.235401
vn -0.993549 0.000000 0.113400
vn -0.998502 0.000000 0.054721
vn -0.998602 0.000000 -0.052862
vn -0.994808 0.000000 -0.101771
vn -0.978452 0.000000 -0.206475
vn -0.965030 0.000000 -0.262140
vn -0.926544 0.000000 -0.376187
vn -0.900755 0.000000 -0.434328
vn -0.837560 0.000000 -0.546346
vn -0.799927 0.000000 -0.600097
vn -0.678721 0.000000 -0.734396
vn -0.678721 0.000000 -0.734396
vn -0.515015 0.000000 -0.857181
vn -0.435974 0.000000 -0.899960
vn -0.268295 0.000000 -0.963337
vn -0.179584 0.000000 -0.983743
vn -0.012787 0.000000 -0.999918
vn 0.065102 0.000000 -0.997879
vn 0.226105 0.000000 -0.974103
vn 0.309029 0.000000 -0.951053
vn 0.480282 0.000000 -0.877114
vn 0.567427 0.000000 -0.823424
vn 0.756044 0.000000 -0.654521
vn 0.756044 0.000000 -0.654521
vn 0.897941 0.000000 -0.440117
vn 0.939631 0.000000 -0.342189
vn 0.983710 0.000000 -0.179763
vn 0.993130 0.000000 -0.117015
vn 0.999943 0.000000 -0.010670
vn 0.999462 0.000000 0.032812
vn 0.991791 0.000000 0.127871
vn 0.983779 0.000000 0.179387
vn 0.956448 0.000000 0.291904
vn 0.935779 0.000000 0.352586
vn 0.878413 0.000000 0.477902
vn 0.840413 0.000000 0.541947
vn 0.715133 0.000000 0.698988
vn 0.715133 0.000000 0.698988
vn 0.540160 0.000000 0.841562
vn 0.453426 0.000000 0.891294
# Material
mtllib o1.mtl
usemtl o1
# Faces
f 1//1 2//2 3//3 
f 1//1 3//3 4//4 
f 5//5 6//6 7//7 
f 5//5 7//7 8//8 
f 9//9 1//1 4//4 
f 9//9 4//4 10//10 
f 11//11 9//9 10//10 
f 11//11 10//10 12//12 
f 13//13 11//11 12//12 
f 13//13 12//12 14//14 
f 15//15 13//13 14//14 
f 15//15 14//14 16//16 
f 15//15 16//16 17//17 
f 15//15 17//17 18//18 
f 18//18 17//17 19//19 
f 18//18 19//19 20//20 
f 20//20 19//19 21//21 
f 20//20 21//21 22//22 
f 22//22 21//21 23//23 
f 22//22 23//23 24//24 
f 24//24 23//23 25//25 
f 24//24 25//25 26//26 
f 26//26 25//25 27//27 
f 26//26 27//27 28//28 
f 29//29 28//28 27//27 
f 29//29 27//27 30//30 
f 31//31 29//29 30//30 
f 31//31 30//30 32//32 
f 33//33 31//31 32//32 
f 33//33 32//32 34//34 
f 35//35 33//33 34//34 
f 35//35 34//34 36//36 
f 37//37 35//35 36//36 
f 37//37 36//36 38//38 
f 39//39 37//37 38//38 
f 39//39 38//38 40//40 
f 41//41 39//39 40//40 
f 41//41 40//40 42//42 
f 43//43 41//41 42//42 
f 43//43 42//42 44//44 
f 45//45 43//43 44//44 
f 45//45 44//44 46//46 
f 47//47 45//45 46//46 
f 47//47 46//46 48//48 
f 49//49 50//50 47//47 
f 49//49 47//47 48//48 
f 51//51 52//52 50//50 
f 51//51 50//50 49//49 
f 53//53 54//54 52//52 
f 53//53 52//52 51//51 
f 55//55 56//56 54//54 
f 55//55 54//54 53//53 
f 57//57 58//58 56//56 
f 57//57 56//56 55//55 
f 59//59 60//60 58//58 
f 59//59 58//58 57//57 
f 61//61 60//60 59//59 
f 61//61 59//59 62//62 
f 63//63 61//61 62//62 
f 63//63 62//62 64//64 
f 65//65 63//63 64//64 
f 65//65 64//64 66//66 
f 67//67 65//65 66//66 
f 67//67 66//66 68//68 
f 2//2 67//67 68//68 
f 2//2 68//68 3//3 
f 69//69 70//70 6//6 
f 69//69 6//6 5//5 
f 71//71 70//70 69//69 
f 71//71 69//69 72//72 
f 73//73 71//71 72//72 
f 73//73 72//72 74//74 
f 75//75 73//73 74//74 
f 75//75 74//74 76//76 
f 77//77 75//75 76//76 
f 77//77 76//76 78//78 
f 79//79 77//77 78//78 
f 79//79 78//78 80//80 
f 81//81 79//79 80//80 
f 81//81 80//80 82//82 
f 83//83 81//81 82//82 
f 83//83 82//82 84//84 
f 85//85 83//83 84//84 
f 85//85 84//84 86//86 
f 87//87 85//85 86//86 
f 87//87 86//86 88//88 
f 87//87 88//88 89//89 
f 87//87 89//89 90//90 
f 90//90 89//89 91//91 
f 90//90 91//91 92//92 
f 92//92 91//91 93//93 
f 92//92 93//93 94//94 
f 94//94 93//93 95//95 
f 94//94 95//95 96//96 
f 96//96 95//95 97//97 
f 96//96 97//97 98//98 
f 98//98 97//97 99//99 
f 98//98 99//99 100//100 
f 101//101 100//100 99//99 
f 101//101 99//99 102//102 
f 103//103 101//101 102//102 
f 103//103 102//102 104//104 
f 105//105 103//103 104//104 
f 105//105 104//104 106//106 
f 107//107 105//105 106//106 
f 107//107 106//106 108//108 
f 109//109 107//107 108//108 
f 109//109 108//108 110//110 
f 111//111 109//109 110//110 
f 111//111 110//110 112//112 
f 113//113 111//111 112//112 
f 113//113 112//112 114//114 
f 115//115 116//116 113//113 
f 115//115 113//113 114//114 
f 8//8 7//7 116//116 
f 8//8 116//116 115//115 
# eof
