# j.c. convert leaf file to obj
# Verts
v 1.127160 0.500000 -2.205800
v 0.960100 0.500000 -2.185330
v 1.294650 0.500000 -2.184710
v 0.803163 0.500000 -2.123960
v 1.449480 0.500000 -2.121420
v 0.656350 0.500000 -2.021660
v 1.591650 0.500000 -2.015950
v 0.519663 0.500000 -1.878420
v 1.721160 0.500000 -1.868290
v 0.401538 0.500000 -1.701660
v 1.834860 0.500000 -1.682040
v 1.133910 0.500000 -1.662420
v 1.019160 0.500000 -1.617700
v 0.917913 0.500000 -1.537540
v 0.317163 0.500000 -1.508870
v 0.848302 0.500000 -1.445370
v 0.798100 0.500000 -1.334210
v 0.266538 0.500000 -1.300040
v 0.767303 0.500000 -1.204060
v 0.249663 0.500000 -1.075180
v 0.755913 0.500000 -1.054930
v 0.256202 0.500000 -0.805599
v 0.771944 0.500000 -0.758770
v 0.275818 0.500000 -0.580738
v 0.820038 0.500000 -0.565551
v 0.859272 0.500000 -0.503114
v 0.912850 0.500000 -0.457551
v 0.980772 0.500000 -0.428863
v 0.308514 0.500000 -0.400599
v 1.063040 0.500000 -0.417051
v 1.189390 0.500000 -1.651040
v 1.244440 0.500000 -1.620240
v 1.353290 0.500000 -1.500420
v 1.916070 0.500000 -1.474270
v 1.407500 0.500000 -1.405290
v 1.448630 0.500000 -1.298770
v 1.964790 0.500000 -1.244980
v 1.491660 0.500000 -1.051550
v 1.981030 0.500000 -0.994176
v 1.491140 0.500000 -0.917712
v 1.472680 0.500000 -0.796317
v 1.969230 0.500000 -0.744637
v 1.436290 0.500000 -0.687367
v 1.381980 0.500000 -0.590864
v 1.933790 0.500000 -0.529271
v 1.314580 0.500000 -0.512290
v 1.238960 0.500000 -0.457130
v 1.155110 0.500000 -0.425384
v 1.874730 0.500000 -0.348075
v 0.354288 0.500000 -0.265176
v 1.792030 0.500000 -0.201051
v 0.456381 0.500000 -0.112036
v 1.657450 0.500000 -0.063309
v 0.600663 0.500000 -0.000238
v 1.483220 0.500000 0.032667
v 0.787131 0.500000 0.070213
v 1.269330 0.500000 0.086879
v 1.015790 0.500000 0.099324
v 0.960100 0.000000 -2.185330
v 1.127160 0.000000 -2.205800
v 1.294650 0.000000 -2.184710
v 0.803163 0.000000 -2.123960
v 1.449480 0.000000 -2.121420
v 0.656350 0.000000 -2.021660
v 1.591650 0.000000 -2.015950
v 0.519663 0.000000 -1.878420
v 1.721160 0.000000 -1.868290
v 0.401538 0.000000 -1.701660
v 1.834860 0.000000 -1.682040
v 1.133910 0.000000 -1.662420
v 1.019160 0.000000 -1.617700
v 0.917913 0.000000 -1.537540
v 0.317163 0.000000 -1.508870
v 0.848302 0.000000 -1.445370
v 0.798100 0.000000 -1.334210
v 0.266538 0.000000 -1.300040
v 0.767303 0.000000 -1.204060
v 0.249663 0.000000 -1.075180
v 0.755913 0.000000 -1.054930
v 0.256202 0.000000 -0.805599
v 0.771944 0.000000 -0.758770
v 0.275818 0.000000 -0.580738
v 0.820038 0.000000 -0.565551
v 0.859272 0.000000 -0.503114
v 0.912850 0.000000 -0.457551
v 0.980772 -0.000000 -0.428863
v 0.308514 -0.000000 -0.400599
v 1.063040 -0.000000 -0.417051
v 1.189390 0.000000 -1.651040
v 1.244440 0.000000 -1.620240
v 1.353290 0.000000 -1.500420
v 1.916070 0.000000 -1.474270
v 1.407500 0.000000 -1.405290
v 1.448630 0.000000 -1.298770
v 1.964790 0.000000 -1.244980
v 1.491660 0.000000 -1.051550
v 1.981030 0.000000 -0.994176
v 1.491140 0.000000 -0.917712
v 1.472680 0.000000 -0.796317
v 1.969230 0.000000 -0.744637
v 1.436290 0.000000 -0.687367
v 1.381980 0.000000 -0.590864
v 1.933790 0.000000 -0.529271
v 1.314580 0.000000 -0.512290
v 1.238960 0.000000 -0.457130
v 1.155110 -0.000000 -0.425384
v 1.874730 -0.000000 -0.348075
v 0.354288 -0.000000 -0.265176
v 1.792030 -0.000000 -0.201051
v 0.456381 -0.000000 -0.112036
v 1.657450 -0.000000 -0.063309
v 0.600663 -0.000000 -0.000238
v 1.483220 -0.000000 0.032667
v 0.787131 -0.000000 0.070213
v 1.269330 -0.000000 0.086879
v 1.015790 -0.000000 0.099324
# UVs
# Normals
vn 0.000000 1.000000 -0.000000
vn 0.000000 1.000000 0.000000
vn 0.000000 1.000000 0.000000
vn -0.000000 -1.000000 -0.000000
vn -0.000000 -1.000000 -0.000000
vn 0.000000 -1.000000 -0.000000
vn 0.000000 -1.000000 -0.000000
vn 0.000000 -1.000000 -0.000000
vn 0.000000 -1.000000 -0.000000
vn 0.000000 -1.000000 -0.000000
vn 0.000000 -1.000000 -0.000000
vn 0.000000 -1.000000 -0.000000
vn 0.000000 -1.000000 -0.000000
vn 0.000000 -1.000000 -0.000000
vn 0.000000 -1.000000 -0.000000
vn 0.000000 -1.000000 -0.000000
vn 0.000000 -1.000000 -0.000000
vn 0.000000 -1.000000 -0.000000
vn -0.000000 -1.000000 -0.000000
vn -0.000000 -1.000000 -0.000000
vn 0.000000 -1.000000 -0.000000
vn 0.000000 -1.000000 -0.000000
vn -0.000000 -1.000000 -0.000000
vn -0.000000 -1.000000 -0.000000
vn 0.000000 -1.000000 -0.000000
vn -0.000000 -1.000000 -0.000000
vn -0.000000 -1.000000 -0.000000
vn -0.000000 -1.000000 -0.000000
vn -0.000000 -1.000000 -0.000000
vn 0.000000 -1.000000 -0.000000
vn -0.000000 -1.000000 -0.000000
vn -0.000000 -1.000000 -0.000000
vn 0.000000 -1.000000 -0.000000
vn 0.000000 -1.000000 -0.000000
vn -0.000000 -1.000000 -0.000000
vn -0.000000 -1.000000 -0.000000
vn -0.000000 -1.000000 -0.000000
vn -0.000000 -1.000000 -0.000000
vn -0.000000 -1.000000 -0.000000
vn -0.000000 -1.000000 -0.000000
vn -0.000000 -1.000000 -0.000000
vn -0.000000 -1.000000 -0.000000
vn 0.000000 -1.000000 -0.000000
vn 0.000000 -1.000000 -0.000000
vn -0.000000 -1.000000 -0.000000
vn 0.000000 -1.000000 -0.000000
vn -0.000000 -1.000000 -0.000000
vn -0.000000 -1.000000 -0.000000
vn 0.000000 -1.000000 -0.000000
vn 0.000000 -1.000000 -0.000000
vn -0.000000 -1.000000 -0.000000
vn -0.000000 -1.000000 -0.000000
vn -0.000000 -1.000000 -0.000000
vn -0.000000 -1.000000 -0.000000
vn -0.000000 -1.000000 -0.000000
vn 0.000000 -1.000000 -0.000000
vn 0.000000 -1.000000 -0.000000
vn 0.000000 -1.000000 -0.000000
vn -0.000000 -1.000000 -0.000000
vn 0.000000 -1.000000 -0.000000
vn 0.000000 -1.000000 -0.000000
# Material
mtllib o22.mtl
usemtl o22
# Faces
f 1//1 2//1 3//1 
f 3//1 2//1 4//1 
f 3//1 4//1 5//1 
f 5//1 4//1 6//1 
f 5//1 6//1 7//1 
f 7//1 6//1 8//1 
f 7//1 8//1 9//1 
f 9//1 8//1 10//1 
f 9//1 10//1 11//1 
f 11//1 10//1 12//1 
f 12//1 10//1 13//1 
f 13//1 10//1 14//1 
f 14//1 10//1 15//1 
f 14//1 15//1 16//1 
f 16//1 15//1 17//1 
f 17//1 15//1 18//1 
f 17//2 18//2 19//2 
f 19//2 18//2 20//2 
f 19//1 20//1 21//1 
f 21//1 20//1 22//1 
f 21//1 22//1 23//1 
f 23//2 22//2 24//2 
f 23//1 24//1 25//1 
f 25//1 24//1 26//1 
f 26//1 24//1 27//1 
f 27//1 24//1 28//1 
f 28//1 24//1 29//1 
f 30//1 28//1 29//1 
f 11//1 12//1 31//1 
f 11//1 31//1 32//1 
f 11//1 32//1 33//1 
f 11//1 33//1 34//1 
f 34//2 33//2 35//2 
f 34//1 35//1 36//1 
f 34//2 36//2 37//2 
f 37//1 36//1 38//1 
f 37//1 38//1 39//1 
f 39//1 38//1 40//1 
f 39//1 40//1 41//1 
f 39//3 41//3 42//3 
f 42//1 41//1 43//1 
f 42//2 43//2 44//2 
f 42//1 44//1 45//1 
f 45//1 44//1 46//1 
f 45//1 46//1 47//1 
f 45//1 47//1 48//1 
f 45//1 48//1 49//1 
f 48//1 30//1 49//1 
f 30//2 29//2 49//2 
f 49//1 29//1 50//1 
f 49//2 50//2 51//2 
f 51//1 50//1 52//1 
f 51//2 52//2 53//2 
f 53//1 52//1 54//1 
f 53//2 54//2 55//2 
f 55//2 54//2 56//2 
f 55//2 56//2 57//2 
f 57//1 56//1 58//1 
f 59//4 60//4 61//4 
f 59//5 61//5 62//5 
f 62//6 61//6 63//6 
f 62//7 63//7 64//7 
f 64//8 63//8 65//8 
f 64//9 65//9 66//9 
f 66//10 65//10 67//10 
f 66//11 67//11 68//11 
f 68//12 67//12 69//12 
f 68//13 69//13 70//13 
f 68//14 70//14 71//14 
f 68//15 71//15 72//15 
f 68//16 72//16 73//16 
f 73//17 72//17 74//17 
f 73//18 74//18 75//18 
f 73//19 75//19 76//19 
f 76//20 75//20 77//20 
f 76//21 77//21 78//21 
f 78//22 77//22 79//22 
f 78//23 79//23 80//23 
f 80//24 79//24 81//24 
f 80//25 81//25 82//25 
f 82//26 81//26 83//26 
f 82//27 83//27 84//27 
f 82//28 84//28 85//28 
f 82//29 85//29 86//29 
f 82//30 86//30 87//30 
f 86//31 88//31 87//31 
f 70//32 69//32 89//32 
f 89//33 69//33 90//33 
f 90//34 69//34 91//34 
f 91//35 69//35 92//35 
f 91//36 92//36 93//36 
f 93//37 92//37 94//37 
f 94//38 92//38 95//38 
f 94//39 95//39 96//39 
f 96//40 95//40 97//40 
f 96//41 97//41 98//41 
f 98//42 97//42 99//42 
f 99//43 97//43 100//43 
f 99//44 100//44 101//44 
f 101//45 100//45 102//45 
f 102//46 100//46 103//46 
f 102//47 103//47 104//47 
f 104//48 103//48 105//48 
f 105//49 103//49 106//49 
f 106//50 103//50 107//50 
f 88//51 106//51 107//51 
f 87//52 88//52 107//52 
f 87//53 107//53 108//53 
f 108//54 107//54 109//54 
f 108//55 109//55 110//55 
f 110//56 109//56 111//56 
f 110//57 111//57 112//57 
f 112//58 111//58 113//58 
f 112//59 113//59 114//59 
f 114//60 113//60 115//60 
f 114//61 115//61 116//61 
# eof
