# j.c. convert leaf file to obj
# Verts
v 4.242000 2.000000 -4.242000
v 5.999100 2.000000 -0.000001
v 5.999100 -2.000000 0.000000
v 4.242000 -2.000000 -4.242000
v 0.000000 -2.000000 -5.999100
v 0.000000 2.000000 -5.999100
v -4.242000 -2.000000 -4.242000
v -4.242000 2.000000 -4.242000
v -5.999100 2.000000 -0.000001
v -5.999100 -2.000000 0.000000
v -4.242000 2.000000 4.242000
v -4.242000 -2.000000 4.242000
v 0.000000 -2.000000 5.999100
v 0.000000 2.000000 5.999100
v 4.242000 -2.000000 4.242000
v 4.242000 2.000000 4.242000
# UVs
# Normals
vn 0.707107 -0.000000 -0.707107
vn 0.990602 -0.000000 0.136774
vn 0.990602 -0.000000 -0.136774
vn 0.707107 0.000000 -0.707107
vn 0.136774 0.000000 -0.990602
vn -0.136774 0.000000 -0.990602
vn -0.707107 -0.000000 -0.707107
vn -0.707107 0.000000 -0.707107
vn -0.990602 -0.000000 -0.136774
vn -0.990602 -0.000000 0.136774
vn -0.707107 0.000000 0.707107
vn -0.707107 0.000000 0.707107
vn -0.136774 0.000000 0.990602
vn 0.136774 0.000000 0.990602
vn 0.707107 0.000000 0.707107
vn 0.707107 0.000000 0.707107
# Material
mtllib oct12_2.mtl
usemtl oct12_2
# Faces
f 1//1 2//2 3//3 
f 1//1 3//3 4//4 
f 1//1 4//4 5//5 
f 1//1 5//5 6//6 
f 6//6 5//5 7//7 
f 6//6 7//7 8//8 
f 9//9 8//8 7//7 
f 9//9 7//7 10//10 
f 11//11 9//9 10//10 
f 11//11 10//10 12//12 
f 13//13 14//14 11//11 
f 13//13 11//11 12//12 
f 15//15 16//16 14//14 
f 15//15 14//14 13//13 
f 2//2 16//16 15//15 
f 2//2 15//15 3//3 
# eof
