# j.c. convert leaf file to obj
# Verts
v -0.042356 0.500000 -1.339140
v -0.501356 0.500000 -1.288140
v -0.060356 0.500000 0.109860
v -0.519356 0.500000 0.664860
v 0.461644 0.500000 0.619860
v 0.422644 0.500000 0.058860
v 0.461644 0.000000 0.619860
v 0.422644 0.000000 0.058860
v -0.060356 0.000000 0.109860
v -0.042356 0.000000 -1.339140
v -0.501356 0.000000 -1.288140
v -0.519356 0.000000 0.664860
# UVs
# Normals
vn 0.000000 1.000000 0.000000
vn 0.000000 1.000000 0.000000
vn 0.997592 0.000000 -0.069351
vn -0.105007 -0.000000 -0.994471
vn 0.999923 0.000000 0.012421
vn -0.110432 -0.000000 -0.993884
vn -0.999958 0.000000 -0.009216
vn -0.999958 -0.000000 -0.009216
vn 0.045823 -0.000000 0.998949
vn -0.000000 -1.000000 -0.000000
vn 0.000000 -1.000000 -0.000000
vn -0.000000 -1.000000 -0.000000
vn -0.000000 -1.000000 -0.000000
# Material
mtllib pool-l.mtl
usemtl pool-l
# Faces
f 1//1 2//1 3//1 
f 3//2 2//2 4//2 
f 5//1 3//1 4//1 
f 5//1 6//1 3//1 
f 6//3 5//3 7//3 
f 6//3 7//3 8//3 
f 6//4 8//4 9//4 
f 6//4 9//4 3//4 
f 1//5 3//5 9//5 
f 1//5 9//5 10//5 
f 1//6 10//6 11//6 
f 1//6 11//6 2//6 
f 4//7 2//7 11//7 
f 4//8 11//8 12//8 
f 7//9 5//9 4//9 
f 7//9 4//9 12//9 
f 11//10 10//10 9//10 
f 11//11 9//11 12//11 
f 9//12 7//12 12//12 
f 9//13 8//13 7//13 
# eof
