# j.c. convert leaf file to obj
# Verts
v -0.102776 0.000000 -0.486223
v -0.102776 0.500000 -0.486223
v -0.282776 0.500000 -0.471223
v -0.282776 0.000000 -0.471223
v 0.007192 0.000000 0.834949
v 0.007192 0.500000 0.834949
v -0.123776 0.500000 0.842777
v -0.123776 0.000000 0.842777
v 0.128599 0.000000 0.817464
v 0.128599 0.500000 0.817464
v 0.240442 0.000000 0.790324
v 0.240442 0.500000 0.790324
v 0.342724 0.000000 0.753527
v 0.342724 0.500000 0.753527
v 0.435442 0.000000 0.707074
v 0.435442 0.500000 0.707074
v 0.518599 0.000000 0.650964
v 0.518599 0.500000 0.650964
v 0.592192 0.000000 0.585199
v 0.592192 0.500000 0.585199
v 0.656224 0.500000 0.509777
v 0.656224 0.000000 0.509777
v 0.729724 0.500000 0.389402
v 0.729724 0.000000 0.389402
v 0.782224 0.500000 0.253277
v 0.782224 0.000000 0.253277
v 0.813724 0.500000 0.101402
v 0.813724 0.000000 0.101402
v 0.824224 0.500000 -0.066223
v 0.824224 0.000000 -0.066223
v 0.817474 0.500000 -0.207973
v 0.817474 0.000000 -0.207973
v 0.797223 0.500000 -0.339223
v 0.797223 0.000000 -0.339223
v 0.743223 0.500000 -0.489973
v 0.743223 0.000000 -0.489973
v 0.659223 0.500000 -0.618223
v 0.659223 0.000000 -0.618223
v 0.594208 0.500000 -0.683614
v 0.594208 0.000000 -0.683614
v 0.520661 0.000000 -0.740286
v 0.520661 0.500000 -0.740286
v 0.438583 0.000000 -0.788239
v 0.438583 0.500000 -0.788239
v 0.347974 0.000000 -0.827473
v 0.347974 0.500000 -0.827473
v 0.248833 0.000000 -0.857989
v 0.248833 0.500000 -0.857989
v 0.141161 0.000000 -0.879786
v 0.141161 0.500000 -0.879786
v -0.099776 0.000000 -0.897223
v -0.099776 0.500000 -0.897223
v -0.396026 0.000000 -0.876223
v -0.396026 0.500000 -0.876223
v -0.726776 0.000000 -0.813223
v -0.726776 0.500000 -0.813223
v 0.003395 0.000000 -0.480317
v 0.003395 0.500000 -0.480317
v 0.098411 0.000000 -0.462598
v 0.098411 0.500000 -0.462598
v 0.182270 0.000000 -0.433067
v 0.182270 0.500000 -0.433067
v 0.254974 0.000000 -0.391723
v 0.254974 0.500000 -0.391723
v 0.316521 0.000000 -0.338567
v 0.316521 0.500000 -0.338567
v 0.366911 0.500000 -0.273598
v 0.366911 0.000000 -0.273598
v 0.406146 0.500000 -0.196817
v 0.406146 0.000000 -0.196817
v 0.434224 0.500000 -0.108223
v 0.434224 0.000000 -0.108223
v 0.417724 0.500000 0.034277
v 0.417724 0.000000 0.034277
v 0.374224 0.500000 0.155777
v 0.374224 0.000000 0.155777
v 0.334755 0.500000 0.218589
v 0.334755 0.000000 0.218589
v 0.286848 0.500000 0.273527
v 0.286848 0.000000 0.273527
v 0.230505 0.000000 0.320589
v 0.230505 0.500000 0.320589
v 0.165723 0.000000 0.359777
v 0.165723 0.500000 0.359777
v 0.092505 0.000000 0.391089
v 0.092505 0.500000 0.391089
v 0.010849 0.000000 0.414527
v 0.010849 0.500000 0.414527
v -0.177776 0.000000 0.437777
v -0.177776 0.500000 0.437777
# UVs
# Normals
vn 0.036929 0.000000 0.999318
vn -0.009366 0.000000 0.999956
vn 0.083046 0.000000 0.996546
vn 0.083046 0.000000 0.996546
vn 0.087360 0.000000 0.996177
vn 0.115009 0.000000 0.993364
vn 0.059664 0.000000 0.998219
vn 0.059664 0.000000 0.998219
vn 0.173813 0.000000 0.984779
vn 0.204934 0.000000 0.978776
vn 0.270398 0.000000 0.962749
vn 0.304675 0.000000 0.952456
vn 0.375585 0.000000 0.926788
vn 0.412115 0.000000 0.911132
vn 0.485969 0.000000 0.873976
vn 0.523168 0.000000 0.852230
vn 0.596218 0.000000 0.802823
vn 0.631960 0.000000 0.775001
vn 0.716023 0.000000 0.698076
vn 0.716023 0.000000 0.698076
vn 0.794848 0.000000 0.606809
vn 0.825316 0.000000 0.564672
vn 0.883170 0.000000 0.469053
vn 0.909777 0.000000 0.415097
vn 0.951223 0.000000 0.308505
vn 0.966651 0.000000 0.256098
vn 0.987665 0.000000 0.156580
vn 0.993974 0.000000 0.109619
vn 0.999666 0.000000 0.025858
vn 0.999941 0.000000 -0.010886
vn 0.996579 0.000000 -0.082642
vn 0.993054 0.000000 -0.117660
vn 0.976628 0.000000 -0.214937
vn 0.960937 0.000000 -0.276766
vn 0.912093 0.000000 -0.409984
vn 0.876914 0.000000 -0.480648
vn 0.797709 0.000000 -0.603043
vn 0.755049 0.000000 -0.655668
vn 0.661190 0.000000 -0.750218
vn 0.661190 0.000000 -0.750218
vn 0.576109 0.000000 -0.817373
vn 0.540739 0.000000 -0.841190
vn 0.469505 0.000000 -0.882930
vn 0.433748 0.000000 -0.901034
vn 0.363452 0.000000 -0.931613
vn 0.329016 0.000000 -0.944324
vn 0.262545 0.000000 -0.964920
vn 0.230588 0.000000 -0.973052
vn 0.156620 0.000000 -0.987659
vn 0.114466 0.000000 -0.993427
vn 0.024608 0.000000 -0.999697
vn -0.023131 0.000000 -0.999732
vn -0.109678 0.000000 -0.993967
vn -0.148539 0.000000 -0.988907
vn -0.187112 0.000000 -0.982339
vn -0.187112 0.000000 -0.982339
vn -0.098317 0.000000 0.995155
vn -0.140990 0.000000 0.990011
vn -0.233552 0.000000 0.972344
vn -0.283294 0.000000 0.959033
vn -0.387583 0.000000 0.921835
vn -0.441831 0.000000 0.897098
vn -0.549755 0.000000 0.835326
vn -0.603084 0.000000 0.797678
vn -0.725488 0.000000 0.688235
vn -0.725488 0.000000 0.688235
vn -0.826834 0.000000 0.562446
vn -0.860395 0.000000 0.509628
vn -0.914187 0.000000 0.405293
vn -0.935182 0.000000 0.354167
vn -0.986067 0.000000 0.166351
vn -0.999700 0.000000 0.024509
vn -0.981757 0.000000 -0.190140
vn -0.964361 0.000000 -0.264589
vn -0.914679 0.000000 -0.404180
vn -0.882925 0.000000 -0.469514
vn -0.817920 0.000000 -0.575333
vn -0.786827 0.000000 -0.617174
vn -0.699552 0.000000 -0.714582
vn -0.699552 0.000000 -0.714582
vn -0.601446 0.000000 -0.798914
vn -0.560181 0.000000 -0.828370
vn -0.477165 0.000000 -0.878814
vn -0.435614 0.000000 -0.900134
vn -0.354714 0.000000 -0.934975
vn -0.315542 0.000000 -0.948912
vn -0.225323 0.000000 -0.974284
vn -0.173996 0.000000 -0.984746
vn -0.122335 0.000000 -0.992489
vn -0.122335 0.000000 -0.992489
# Material
mtllib pool-p1.mtl
usemtl pool-p1
# Faces
f 1//1 2//2 3//3 
f 1//1 3//3 4//4 
f 5//5 6//6 7//7 
f 5//5 7//7 8//8 
f 9//9 10//10 6//6 
f 9//9 6//6 5//5 
f 11//11 12//12 10//10 
f 11//11 10//10 9//9 
f 13//13 14//14 12//12 
f 13//13 12//12 11//11 
f 15//15 16//16 14//14 
f 15//15 14//14 13//13 
f 17//17 18//18 16//16 
f 17//17 16//16 15//15 
f 19//19 20//20 18//18 
f 19//19 18//18 17//17 
f 21//21 20//20 19//19 
f 21//21 19//19 22//22 
f 23//23 21//21 22//22 
f 23//23 22//22 24//24 
f 25//25 23//23 24//24 
f 25//25 24//24 26//26 
f 27//27 25//25 26//26 
f 27//27 26//26 28//28 
f 29//29 27//27 28//28 
f 29//29 28//28 30//30 
f 31//31 29//29 30//30 
f 31//31 30//30 32//32 
f 33//33 31//31 32//32 
f 33//33 32//32 34//34 
f 35//35 33//33 34//34 
f 35//35 34//34 36//36 
f 37//37 35//35 36//36 
f 37//37 36//36 38//38 
f 39//39 37//37 38//38 
f 39//39 38//38 40//40 
f 39//39 40//40 41//41 
f 39//39 41//41 42//42 
f 42//42 41//41 43//43 
f 42//42 43//43 44//44 
f 44//44 43//43 45//45 
f 44//44 45//45 46//46 
f 46//46 45//45 47//47 
f 46//46 47//47 48//48 
f 48//48 47//47 49//49 
f 48//48 49//49 50//50 
f 50//50 49//49 51//51 
f 50//50 51//51 52//52 
f 52//52 51//51 53//53 
f 52//52 53//53 54//54 
f 54//54 53//53 55//55 
f 54//54 55//55 56//56 
f 57//57 58//58 2//2 
f 57//57 2//2 1//1 
f 59//59 60//60 58//58 
f 59//59 58//58 57//57 
f 61//61 62//62 60//60 
f 61//61 60//60 59//59 
f 63//63 64//64 62//62 
f 63//63 62//62 61//61 
f 65//65 66//66 64//64 
f 65//65 64//64 63//63 
f 67//67 66//66 65//65 
f 67//67 65//65 68//68 
f 69//69 67//67 68//68 
f 69//69 68//68 70//70 
f 71//71 69//69 70//70 
f 71//71 70//70 72//72 
f 73//73 71//71 72//72 
f 73//73 72//72 74//74 
f 75//75 73//73 74//74 
f 75//75 74//74 76//76 
f 77//77 75//75 76//76 
f 77//77 76//76 78//78 
f 79//79 77//77 78//78 
f 79//79 78//78 80//80 
f 79//79 80//80 81//81 
f 79//79 81//81 82//82 
f 82//82 81//81 83//83 
f 82//82 83//83 84//84 
f 84//84 83//83 85//85 
f 84//84 85//85 86//86 
f 86//86 85//85 87//87 
f 86//86 87//87 88//88 
f 88//88 87//87 89//89 
f 88//88 89//89 90//90 
# eof
