# j.c. convert leaf file to obj
# Verts
v 1.335270 0.500000 0.397552
v 1.259050 0.500000 0.395874
v 1.417400 0.500000 0.413469
v 1.186930 0.500000 0.408236
v 1.498330 0.500000 0.442835
v 1.243960 0.500000 -1.281620
v 1.072140 0.500000 -1.309200
v 0.858189 0.500000 -1.317970
v 1.428450 0.500000 -1.235650
v 0.672534 0.500000 -1.293600
v 0.590319 0.500000 -1.268990
v 0.515175 0.500000 -1.236100
v 0.447105 0.500000 -1.194920
v 0.386110 0.500000 -1.145450
v 0.976974 0.500000 -1.002830
v 1.059220 0.500000 -0.989164
v 0.951878 0.500000 -0.308354
v 0.297158 0.500000 -0.324505
v 0.341117 0.500000 -0.256303
v 0.393983 0.500000 -0.196309
v 0.455755 0.500000 -0.144523
v 0.526434 0.500000 -0.100943
v 0.606018 0.500000 -0.065571
v 0.694509 0.500000 -0.038406
v 0.898208 0.500000 -0.008698
v 1.578040 0.500000 0.485650
v 1.656540 0.500000 0.541914
v 0.782917 0.500000 0.743672
v 1.113880 0.500000 0.861944
v 0.886041 0.500000 -1.008020
v 0.804442 0.500000 -1.002330
v 0.303059 0.500000 -1.044880
v 0.732175 0.500000 -0.985779
v 0.669243 0.500000 -0.958354
v 0.615643 0.500000 -0.920059
v 0.245724 0.500000 -0.921084
v 0.571376 0.500000 -0.870893
v 0.536443 0.500000 -0.810856
v 0.222368 0.500000 -0.792376
v 0.510843 0.500000 -0.739949
v 0.518110 0.500000 -0.632174
v 0.215581 0.500000 -0.659987
v 0.547367 0.500000 -0.538935
v 0.225784 0.500000 -0.537880
v 0.609082 0.500000 -0.447467
v 0.697071 0.500000 -0.378547
v 0.252976 0.500000 -0.426052
v 0.811337 0.500000 -0.332177
v 1.059220 0.000000 -0.989165
v 0.951878 0.000000 -0.308354
v 1.186930 -0.000000 0.408236
v 1.428450 0.000000 -1.235650
v 0.898208 0.000000 -0.008698
v 0.782917 -0.000000 0.743672
v 1.113880 -0.000000 0.861944
v 1.656540 -0.000000 0.541914
v 1.335270 -0.000000 0.397551
v 1.417400 -0.000000 0.413469
v 1.259050 -0.000000 0.395874
v 1.498330 -0.000000 0.442835
v 1.578040 -0.000000 0.485650
v 1.072140 0.000000 -1.309200
v 1.243960 0.000000 -1.281610
v 0.858189 0.000000 -1.317970
v 0.672534 0.000000 -1.293600
v 0.590319 0.000000 -1.268990
v 0.515175 0.000000 -1.236100
v 0.447105 0.000000 -1.194920
v 0.386110 0.000000 -1.145450
v 0.976974 0.000000 -1.002830
v 0.297158 0.000000 -0.324505
v 0.341117 0.000000 -0.256303
v 0.393983 0.000000 -0.196309
v 0.455755 0.000000 -0.144523
v 0.526434 0.000000 -0.100943
v 0.606018 0.000000 -0.065571
v 0.694509 0.000000 -0.038406
v 0.886041 0.000000 -1.008020
v 0.804442 0.000000 -1.002330
v 0.303059 0.000000 -1.044880
v 0.732175 0.000000 -0.985779
v 0.669243 0.000000 -0.958354
v 0.615643 0.000000 -0.920059
v 0.245724 0.000000 -0.921083
v 0.571376 0.000000 -0.870893
v 0.536443 0.000000 -0.810856
v 0.222368 0.000000 -0.792376
v 0.510843 0.000000 -0.739949
v 0.518110 0.000000 -0.632174
v 0.215581 0.000000 -0.659987
v 0.547367 0.000000 -0.538935
v 0.225784 0.000000 -0.537880
v 0.609082 0.000000 -0.447467
v 0.697071 0.000000 -0.378547
v 0.252976 0.000000 -0.426052
v 0.811337 0.000000 -0.332177
# UVs
# Normals
vn 0.000000 1.000000 -0.000000
vn 0.000000 1.000000 -0.000000
vn 0.000000 1.000000 0.000000
vn -0.987797 0.000000 -0.155744
vn -0.987797 -0.000000 -0.155744
vn 0.989379 0.000000 0.145360
vn 0.989379 0.000000 0.145360
vn -0.988462 0.000000 -0.151469
vn -0.336515 0.000000 0.941678
vn 0.507985 -0.000000 0.861366
vn -0.000000 -1.000000 -0.000000
vn -0.000000 -1.000000 -0.000000
vn -0.000000 -1.000000 -0.000000
vn -0.000000 -1.000000 -0.000000
vn -0.000000 -1.000000 -0.000000
vn -0.000000 -1.000000 -0.000000
vn -0.000000 -1.000000 -0.000000
vn -0.000000 -1.000000 -0.000000
vn -0.000000 -1.000000 -0.000000
vn -0.000000 -1.000000 -0.000000
vn -0.000000 -1.000000 -0.000000
vn -0.000000 -1.000000 -0.000000
vn -0.000000 -1.000000 -0.000000
vn -0.000000 -1.000000 -0.000000
vn -0.000000 -1.000000 -0.000000
vn -0.000000 -1.000000 -0.000000
vn -0.000000 -1.000000 -0.000000
vn -0.000000 -1.000000 -0.000000
vn -0.000000 -1.000000 -0.000000
vn -0.000000 -1.000000 -0.000000
vn -0.000000 -1.000000 -0.000000
vn -0.000000 -1.000000 -0.000000
vn -0.000000 -1.000000 -0.000000
vn -0.000000 -1.000000 -0.000000
vn -0.000000 -1.000000 -0.000000
vn -0.000000 -1.000000 -0.000000
vn -0.000000 -1.000000 -0.000000
vn -0.000000 -1.000000 -0.000000
vn -0.000000 -1.000000 -0.000000
vn -0.000000 -1.000000 -0.000000
vn -0.000000 -1.000000 -0.000000
vn -0.000000 -1.000000 -0.000000
vn -0.000000 -1.000000 -0.000000
vn -0.000000 -1.000000 -0.000000
vn -0.000000 -1.000000 -0.000000
vn -0.000000 -1.000000 -0.000000
vn -0.000000 -1.000000 -0.000000
vn -0.000000 -1.000000 -0.000000
vn -0.000000 -1.000000 -0.000000
vn -0.000000 -1.000000 -0.000000
vn -0.000000 -1.000000 -0.000000
vn -0.000000 -1.000000 -0.000000
vn -0.000000 -1.000000 -0.000000
vn -0.000000 -1.000000 -0.000000
vn -0.000000 -1.000000 -0.000000
vn -0.000000 -1.000000 -0.000000
vn -0.000000 -1.000000 -0.000000
vn -0.000000 -1.000000 -0.000000
# Material
mtllib q2.mtl
usemtl q2
# Faces
f 1//1 2//1 3//1 
f 3//1 2//1 4//1 
f 3//2 4//2 5//2 
f 6//2 7//2 8//2 
f 6//1 8//1 9//1 
f 9//1 8//1 10//1 
f 9//3 10//3 11//3 
f 9//1 11//1 12//1 
f 9//1 12//1 13//1 
f 9//1 13//1 14//1 
f 9//1 14//1 15//1 
f 9//2 15//2 16//2 
f 9//1 16//1 17//1 
f 17//1 18//1 19//1 
f 17//1 19//1 20//1 
f 17//1 20//1 21//1 
f 17//2 21//2 22//2 
f 17//1 22//1 23//1 
f 17//1 23//1 24//1 
f 17//2 24//2 25//2 
f 9//1 17//1 25//1 
f 9//1 25//1 4//1 
f 5//1 4//1 26//1 
f 26//1 4//1 27//1 
f 4//1 25//1 28//1 
f 27//1 4//1 28//1 
f 27//1 28//1 29//1 
f 15//1 14//1 30//1 
f 30//1 14//1 31//1 
f 31//1 14//1 32//1 
f 31//1 32//1 33//1 
f 33//1 32//1 34//1 
f 34//1 32//1 35//1 
f 35//1 32//1 36//1 
f 35//1 36//1 37//1 
f 37//1 36//1 38//1 
f 38//1 36//1 39//1 
f 38//1 39//1 40//1 
f 40//1 39//1 41//1 
f 41//1 39//1 42//1 
f 41//1 42//1 43//1 
f 43//1 42//1 44//1 
f 43//1 44//1 45//1 
f 45//1 44//1 46//1 
f 46//1 44//1 47//1 
f 46//1 47//1 48//1 
f 48//1 47//1 17//1 
f 17//1 47//1 18//1 
f 17//4 16//4 49//4 
f 17//5 49//5 50//5 
f 9//6 4//6 51//6 
f 9//7 51//7 52//7 
f 28//8 25//8 53//8 
f 28//8 53//8 54//8 
f 55//9 29//9 28//9 
f 55//9 28//9 54//9 
f 56//10 27//10 29//10 
f 56//10 29//10 55//10 
f 57//11 58//11 59//11 
f 59//12 58//12 60//12 
f 59//13 60//13 51//13 
f 51//14 60//14 61//14 
f 62//15 63//15 64//15 
f 64//16 63//16 52//16 
f 64//17 52//17 65//17 
f 65//18 52//18 66//18 
f 66//19 52//19 67//19 
f 67//20 52//20 68//20 
f 68//21 52//21 69//21 
f 69//22 52//22 70//22 
f 70//23 52//23 49//23 
f 49//24 52//24 50//24 
f 71//25 50//25 72//25 
f 72//26 50//26 73//26 
f 73//27 50//27 74//27 
f 74//28 50//28 75//28 
f 75//29 50//29 76//29 
f 76//30 50//30 77//30 
f 77//31 50//31 53//31 
f 50//32 52//32 53//32 
f 53//33 52//33 51//33 
f 51//34 61//34 56//34 
f 53//35 51//35 54//35 
f 51//36 56//36 54//36 
f 54//37 56//37 55//37 
f 69//38 70//38 78//38 
f 69//39 78//39 79//39 
f 69//40 79//40 80//40 
f 80//41 79//41 81//41 
f 80//42 81//42 82//42 
f 80//43 82//43 83//43 
f 80//44 83//44 84//44 
f 84//45 83//45 85//45 
f 84//46 85//46 86//46 
f 84//47 86//47 87//47 
f 87//48 86//48 88//48 
f 87//49 88//49 89//49 
f 87//50 89//50 90//50 
f 90//51 89//51 91//51 
f 90//52 91//52 92//52 
f 92//53 91//53 93//53 
f 92//54 93//54 94//54 
f 92//55 94//55 95//55 
f 95//56 94//56 96//56 
f 95//57 96//57 50//57 
f 95//58 50//58 71//58 
# eof
