# j.c. convert leaf file to obj
# Verts
v 1.371660 0.500000 -1.006300
v 1.417790 0.500000 -0.805491
v 1.417790 0.000000 -0.805491
v 1.371660 0.000000 -1.006300
v 1.314290 0.500000 -1.176740
v 1.314290 0.000000 -1.176740
v 1.232720 0.500000 -1.339160
v 1.232720 0.000000 -1.339160
v 1.141040 0.500000 -1.455180
v 1.141040 0.000000 -1.455180
v 1.091400 0.000000 -1.495780
v 1.091400 0.500000 -1.495780
v 1.039220 0.000000 -1.524790
v 1.039220 0.500000 -1.524790
v 0.984521 0.000000 -1.542190
v 0.984521 0.500000 -1.542190
v 0.927286 0.000000 -1.547990
v 0.927286 0.500000 -1.547990
v 0.837286 0.000000 -1.534490
v 0.837286 0.500000 -1.534490
v 0.719161 0.000000 -1.488370
v 0.719161 0.500000 -1.488370
v 0.616786 0.000000 -1.421990
v 0.616786 0.500000 -1.421990
v 0.657286 0.500000 -0.965241
v 0.691036 0.500000 -0.011241
v 0.691036 -0.000000 -0.011241
v 0.657286 0.000000 -0.965241
v 0.669099 0.500000 -1.072960
v 0.669099 0.000000 -1.072960
v 0.704536 0.500000 -1.144120
v 0.704536 0.000000 -1.144120
v 0.765849 0.000000 -1.183770
v 0.765849 0.500000 -1.183770
v 0.855286 0.000000 -1.196990
v 0.855286 0.500000 -1.196990
v 0.881337 0.000000 -1.189220
v 0.881337 0.500000 -1.189220
v 0.905489 0.000000 -1.165910
v 0.905489 0.500000 -1.165910
v 0.948099 0.500000 -1.072680
v 0.948099 0.000000 -1.072680
v 0.983114 0.500000 -0.917288
v 0.983114 0.000000 -0.917288
v 1.010540 0.500000 -0.699741
v 1.010540 0.000000 -0.699741
# UVs
# Normals
vn 0.966710 0.000000 -0.255875
vn 0.974615 0.000000 -0.223889
vn 0.974615 0.000000 -0.223889
vn 0.957746 0.000000 -0.287617
vn 0.931761 0.000000 -0.363072
vn 0.913682 0.000000 -0.406430
vn 0.861241 0.000000 -0.508197
vn 0.824730 0.000000 -0.565527
vn 0.713026 0.000000 -0.701138
vn 0.713026 0.000000 -0.701138
vn 0.586104 0.000000 -0.810236
vn 0.536868 0.000000 -0.843666
vn 0.426872 0.000000 -0.904312
vn 0.365676 0.000000 -0.930742
vn 0.236823 0.000000 -0.971553
vn 0.169063 0.000000 -0.985605
vn 0.017891 0.000000 -0.999840
vn -0.065742 0.000000 -0.997837
vn -0.221351 0.000000 -0.975194
vn -0.293536 0.000000 -0.955948
vn -0.425760 0.000000 -0.904836
vn -0.486152 0.000000 -0.873874
vn -0.544044 0.000000 -0.839057
vn -0.544044 0.000000 -0.839057
vn 0.999918 0.000000 0.012797
vn 0.999375 0.000000 -0.035355
vn 0.999375 0.000000 -0.035355
vn 0.998136 0.000000 0.061031
vn 0.974507 0.000000 0.224358
vn 0.941081 0.000000 0.338181
vn 0.745575 0.000000 0.666421
vn 0.745575 0.000000 0.666421
vn 0.419222 0.000000 0.907884
vn 0.284230 0.000000 0.958756
vn 0.002258 0.000000 0.999997
vn -0.144857 0.000000 0.989452
vn -0.432943 0.000000 0.901421
vn -0.572675 0.000000 0.819782
vn -0.816244 0.000000 0.577707
vn -0.816244 0.000000 0.577707
vn -0.935973 0.000000 0.352071
vn -0.958089 0.000000 0.286472
vn -0.982086 0.000000 0.188435
vn -0.987627 0.000000 0.156821
vn -0.992147 0.000000 0.125079
vn -0.992147 0.000000 0.125079
# Material
mtllib r1.mtl
usemtl r1
# Faces
f 1//1 2//2 3//3 
f 1//1 3//3 4//4 
f 5//5 1//1 4//4 
f 5//5 4//4 6//6 
f 7//7 5//5 6//6 
f 7//7 6//6 8//8 
f 9//9 7//7 8//8 
f 9//9 8//8 10//10 
f 9//9 10//10 11//11 
f 9//9 11//11 12//12 
f 12//12 11//11 13//13 
f 12//12 13//13 14//14 
f 14//14 13//13 15//15 
f 14//14 15//15 16//16 
f 16//16 15//15 17//17 
f 16//16 17//17 18//18 
f 18//18 17//17 19//19 
f 18//18 19//19 20//20 
f 20//20 19//19 21//21 
f 20//20 21//21 22//22 
f 22//22 21//21 23//23 
f 22//22 23//23 24//24 
f 25//25 26//26 27//27 
f 25//25 27//27 28//28 
f 29//29 25//25 28//28 
f 29//29 28//28 30//30 
f 31//31 29//29 30//30 
f 31//31 30//30 32//32 
f 33//33 34//34 31//31 
f 33//33 31//31 32//32 
f 35//35 36//36 34//34 
f 35//35 34//34 33//33 
f 37//37 38//38 36//36 
f 37//37 36//36 35//35 
f 39//39 40//40 38//38 
f 39//39 38//38 37//37 
f 41//41 40//40 39//39 
f 41//41 39//39 42//42 
f 43//43 41//41 42//42 
f 43//43 42//42 44//44 
f 45//45 43//43 44//44 
f 45//45 44//44 46//46 
# eof
