# j.c. convert leaf file to obj
# Verts
v 18.049999 23.671400 18.049999
v 18.049999 23.671400 -18.049999
v 18.049999 -0.000001 -18.049999
v 18.049999 0.000001 18.049999
v -18.049999 23.671400 -18.049999
v -18.049999 23.671400 18.049999
v -18.049999 0.000001 18.049999
v -18.049999 -0.000001 -18.049999
# UVs
# Normals
vn -1.000000 0.000000 -0.000000
vn 1.000000 0.000000 -0.000000
# Material
mtllib shd24.mtl
usemtl shd24
# Faces
f 1//1 2//1 3//1 
f 1//1 3//1 4//1 
f 5//2 6//2 7//2 
f 5//2 7//2 8//2 
# eof
