# j.c. convert leaf file to obj
# Verts
v 19.000000 23.094000 -19.000000
v 19.000000 -0.000001 -19.000000
v 9.604940 -0.000001 -19.000000
v 8.774560 8.179540 -19.000000
v 6.426960 14.944800 -19.000000
v 2.968080 19.125900 -19.000000
v 0.000000 34.640999 -19.000000
v -1.004000 20.000000 -19.000000
v -4.802480 17.415899 -19.000000
v -7.770560 11.820500 -19.000000
v -9.395060 4.181140 -19.000000
v -9.395060 -0.000001 -19.000000
v -19.000000 -0.000001 -19.000000
v -19.000000 23.094000 -19.000000
v 19.000000 0.000001 19.000000
v 19.000000 23.094000 19.000000
v 0.000000 34.640999 19.000000
v -19.000000 23.094000 19.000000
v -19.000000 0.000001 19.000000
# UVs
# Normals
vn 0.000000 0.000000 -1.000000
vn 0.000000 0.000000 -1.000000
vn 0.000000 0.000000 -1.000000
vn 0.000000 0.000000 -1.000000
vn 0.000000 0.000000 -1.000000
vn 0.000000 0.000000 -1.000000
vn 0.000000 0.000000 -1.000000
vn 0.000000 0.000000 -1.000000
vn 0.000000 0.000000 -1.000000
vn 0.000000 0.000000 -1.000000
vn 0.000000 0.000000 -1.000000
vn 0.000000 0.000000 -1.000000
vn 0.000000 0.000000 -1.000000
vn 0.000000 0.000000 -1.000000
vn 0.000000 0.000000 1.000000
vn 0.000000 0.000000 1.000000
vn 0.000000 0.000000 1.000000
vn 0.000000 0.000000 1.000000
vn 0.000000 0.000000 1.000000
# Material
mtllib shd2.mtl
usemtl shd2
# Faces
f 1//1 2//2 3//3 
f 1//1 3//3 4//4 
f 1//1 4//4 5//5 
f 1//1 5//5 6//6 
f 1//1 6//6 7//7 
f 7//7 6//6 8//8 
f 7//7 8//8 9//9 
f 7//7 9//9 10//10 
f 11//11 12//12 13//13 
f 10//10 11//11 13//13 
f 7//7 10//10 13//13 
f 7//7 13//13 14//14 
f 15//15 16//16 17//17 
f 15//15 17//17 18//18 
f 15//15 18//18 19//19 
# eof
