# j.c. convert leaf file to obj
# Verts
v -22.049999 33.183998 20.000000
v -22.049999 33.183998 -20.000000
v -22.049999 0.000001 19.178900
v -20.741600 -0.059341 -19.002899
v 22.049999 33.277802 -20.000000
v 22.049999 33.277802 20.000000
v 22.049999 0.000001 18.709700
v 20.676100 -0.058661 -18.768299
# UVs
# Normals
vn -1.000000 0.000000 0.000000
vn -0.999651 -0.020171 -0.017084
vn -0.999651 -0.020171 -0.017084
vn -0.998603 -0.040328 -0.034157
vn 0.999607 -0.021257 -0.018275
vn 1.000000 0.000000 0.000000
vn 0.999607 -0.021257 -0.018275
vn 0.998428 -0.042498 -0.036535
# Material
mtllib shed2_21.mtl
usemtl shed2_21
# Faces
f 1//1 2//2 3//3 
f 3//3 2//2 4//4 
f 5//5 6//6 7//7 
f 5//5 7//7 8//8 
# eof
