# j.c. convert leaf file to obj
# Verts
v -20.947500 0.000001 -18.709700
v -20.947500 33.277802 -20.000000
v -13.421500 48.687401 -20.000000
v 0.625302 59.940800 -20.000000
v 12.542400 50.393398 -20.000000
v 20.947500 33.183998 -20.000000
v 20.947500 0.000001 -19.178900
# UVs
# Normals
vn 0.079082 -0.038623 -0.996120
vn 0.024214 -0.030225 -0.999250
vn -0.013383 -0.016705 -0.999771
vn -0.022201 -0.010843 -0.999695
vn -0.011195 -0.024735 -0.999631
# Material
mtllib shed2_2bk.mtl
usemtl shed2_2bk
# Faces
f 1//1 2//1 3//1 
f 1//2 3//2 4//2 
f 1//3 4//3 5//3 
f 1//4 5//4 6//4 
f 1//5 6//5 7//5 
# eof
