# j.c. convert leaf file to obj
# Verts
v 21.014200 12.574100 37.958900
v 19.099800 12.574100 38.339699
v 21.258301 12.504100 38.548401
v 19.099800 12.504100 38.977600
v 23.088400 12.504100 37.325699
v 22.637300 12.574100 36.874599
v 24.311300 12.504100 35.495800
v 23.721800 12.574100 35.251499
v 24.740700 12.504100 33.337101
v 24.102501 12.574100 33.337101
v 21.465500 12.304900 39.048302
v 19.099800 12.304900 39.518700
v 23.471100 12.304900 37.708199
v 24.810900 12.304900 35.702702
v 25.281401 12.304900 33.337101
v 21.603800 12.007000 39.382000
v 19.099800 12.007000 39.880199
v 23.726601 12.007000 37.963799
v 25.145000 12.007000 35.841000
v 25.643101 12.007000 33.337101
v 21.652399 11.655300 39.499500
v 19.099800 11.655300 40.007099
v 23.816401 11.655300 38.053600
v 25.262199 11.655300 35.889599
v 25.769800 11.655300 33.337101
v 21.652399 8.899090 39.499500
v 19.099800 8.899090 40.007099
v 23.816401 8.899090 38.053600
v 25.262199 8.899090 35.889599
v 25.769800 8.899090 33.337101
v 21.954000 12.574100 33.337101
v 22.325399 12.574100 33.585300
v 22.790199 12.574100 34.280899
v 22.953501 12.574100 35.101200
v 22.790199 12.574100 35.921700
v 22.325399 12.574100 36.617298
v 21.630100 12.574100 37.082100
v 20.809500 12.574100 37.245300
v 19.989000 12.574100 37.082100
v 19.293400 12.574100 36.617298
v 19.099800 12.574100 36.327400
# UVs
# Normals
vn 0.018178 0.999158 0.036794
vn 0.010860 0.998449 0.054605
vn 0.094839 0.973435 0.208396
vn 0.053279 0.961959 0.267947
vn 0.167407 0.973425 0.156265
vn 0.041169 0.998501 0.036054
vn 0.214520 0.973411 0.080326
vn 0.044418 0.998900 0.015040
vn 0.188924 0.981273 0.037578
vn 0.021822 0.999752 0.004340
vn 0.159794 0.867033 0.471931
vn 0.098410 0.863350 0.494917
vn 0.328228 0.867040 0.374845
vn 0.446661 0.867061 0.220678
vn 0.494923 0.863343 0.098444
vn 0.303041 0.577131 0.758344
vn 0.149664 0.641529 0.752357
vn 0.570144 0.577208 0.584608
vn 0.750492 0.577169 0.321928
vn 0.853371 0.492896 0.169740
vn 0.436311 0.172350 0.883135
vn 0.192242 0.169409 0.966615
vn 0.718171 0.206727 0.664451
vn 0.909329 0.172363 0.378697
vn 0.974569 0.112486 0.193807
vn 0.320684 0.000000 0.947186
vn 0.195037 0.000000 0.980796
vn 0.707118 0.000000 0.707095
vn 0.947188 0.000000 0.320679
vn 0.980794 0.000000 0.195045
vn 0.000000 1.000000 0.000000
vn 0.000000 1.000000 0.000000
vn 0.000000 1.000000 0.000000
vn 0.000000 1.000000 0.000000
vn 0.000000 1.000000 0.000000
vn 0.000000 1.000000 0.000000
vn 0.000000 1.000000 0.000000
vn 0.000000 1.000000 0.000000
vn 0.000000 1.000000 0.000000
vn 0.000000 1.000000 0.000000
vn 0.000000 1.000000 0.000000
# Material
mtllib table6-1-regular.mtl
usemtl table6-1-regular
# Faces
f 1//1 2//2 3//3 
f 3//3 2//2 4//4 
f 5//5 6//6 1//1 
f 5//5 1//1 3//3 
f 7//7 8//8 6//6 
f 7//7 6//6 5//5 
f 9//9 10//10 8//8 
f 9//9 8//8 7//7 
f 3//3 4//4 11//11 
f 11//11 4//4 12//12 
f 13//13 5//5 3//3 
f 13//13 3//3 11//11 
f 14//14 7//7 5//5 
f 14//14 5//5 13//13 
f 15//15 9//9 7//7 
f 15//15 7//7 14//14 
f 16//16 11//11 17//17 
f 17//17 11//11 12//12 
f 18//18 13//13 16//16 
f 16//16 13//13 11//11 
f 14//14 13//13 18//18 
f 14//14 18//18 19//19 
f 15//15 14//14 19//19 
f 15//15 19//19 20//20 
f 21//21 16//16 22//22 
f 22//22 16//16 17//17 
f 23//23 18//18 21//21 
f 21//21 18//18 16//16 
f 19//19 18//18 23//23 
f 19//19 23//23 24//24 
f 20//20 19//19 24//24 
f 20//20 24//24 25//25 
f 26//26 21//21 22//22 
f 26//26 22//22 27//27 
f 28//28 23//23 21//21 
f 28//28 21//21 26//26 
f 24//24 23//23 28//28 
f 24//24 28//28 29//29 
f 25//25 24//24 29//29 
f 25//25 29//29 30//30 
f 10//10 31//31 32//32 
f 10//10 32//32 33//33 
f 10//10 33//33 34//34 
f 10//10 34//34 8//8 
f 8//8 34//34 35//35 
f 8//8 35//35 36//36 
f 8//8 36//36 6//6 
f 6//6 36//36 37//37 
f 6//6 37//37 1//1 
f 37//37 38//38 1//1 
f 38//38 39//39 1//1 
f 39//39 40//40 1//1 
f 40//40 41//41 2//2 
f 1//1 40//40 2//2 
# eof
