# j.c. convert leaf file to obj
# Verts
v 11.083600 11.923900 36.994598
v -11.083600 11.831500 37.308399
v 11.083600 11.831500 37.308399
v 11.083600 11.980800 36.654202
v -11.083600 11.980800 36.654202
v -11.083600 11.923900 36.994598
v 11.083600 12.000000 36.299999
v -11.083600 12.000000 36.299999
v 11.083600 12.000000 34.485001
v -11.083600 12.000000 34.485001
v 11.083600 10.000000 34.485001
v 11.083600 8.500000 34.485001
v -11.083600 8.500000 34.485001
v -11.083600 10.000000 34.485001
# UVs
# Normals
vn 0.000000 0.974572 0.224075
vn 0.000000 0.959278 0.282462
vn 0.000000 0.959278 0.282462
vn 0.000000 0.991757 0.128133
vn 0.000000 0.995836 0.091168
vn 0.000000 0.986315 0.164870
vn 0.000000 0.999348 0.036097
vn 0.000000 0.999837 0.018048
vn 0.000000 0.707107 -0.707107
vn 0.000000 0.707107 -0.707107
vn 0.000000 0.000000 -1.000000
vn 0.000000 0.000000 -1.000000
vn 0.000000 0.000000 -1.000000
vn 0.000000 0.000000 -1.000000
# Material
mtllib table2-2-regular.mtl
usemtl table2-2-regular
# Faces
f 1//1 2//2 3//3 
f 4//4 5//5 6//6 
f 4//4 6//6 1//1 
f 7//7 8//8 5//5 
f 7//7 5//5 4//4 
f 9//9 10//10 8//8 
f 9//9 8//8 7//7 
f 11//11 12//12 13//13 
f 11//11 13//13 14//14 
f 9//9 11//11 14//14 
f 9//9 14//14 10//10 
# eof
