# j.c. convert leaf file to obj
# Verts
v 29.339600 12.600000 2.739280
v 29.912001 12.600000 2.625460
v 29.912001 8.925000 2.625460
v 29.339600 8.925000 2.739280
v 29.912001 12.600000 -2.539180
v 29.339600 12.600000 -2.653000
v 29.339600 8.925000 -2.653000
v 29.912001 8.925000 -2.539180
v 30.818399 12.600000 2.019560
v 30.818399 8.925000 2.019560
v 31.424400 12.600000 1.112780
v 31.424400 8.925000 1.112780
v 31.637199 12.600000 0.043120
v 31.637199 8.925000 0.043120
v 31.424400 12.600000 -1.026520
v 31.424400 8.925000 -1.026510
v 30.818399 12.600000 -1.933300
v 30.818399 8.925000 -1.933290
# UVs
# Normals
vn -0.195028 0.000000 -0.980798
vn -0.195028 0.000000 0.980798
vn -0.555737 0.000000 -0.831358
vn -0.831423 0.000000 -0.555640
vn -0.980780 -0.000000 -0.195117
vn -0.980780 0.000000 -0.195117
vn -0.980779 0.000001 0.195122
vn -0.980779 0.000000 0.195121
vn -0.831423 0.000002 0.555640
vn -0.831423 0.000002 0.555640
vn -0.555725 0.000000 0.831366
vn -0.555731 0.000002 0.831362
# Material
mtllib table7-2-bigpockets.mtl
usemtl table7-2-bigpockets
# Faces
f 1//1 2//1 3//1 
f 1//1 3//1 4//1 
f 5//2 6//2 7//2 
f 5//2 7//2 8//2 
f 2//3 9//3 10//3 
f 2//3 10//3 3//3 
f 9//4 11//4 12//4 
f 9//4 12//4 10//4 
f 13//5 14//5 12//5 
f 13//6 12//6 11//6 
f 15//7 16//7 14//7 
f 15//8 14//8 13//8 
f 15//9 17//9 18//9 
f 15//10 18//10 16//10 
f 17//11 5//11 8//11 
f 17//12 8//12 18//12 
# eof
