# j.c. convert leaf file to obj
# Verts
v 15.588100 11.923900 1.361250
v 15.588100 11.923900 21.023800
v 15.797300 11.831500 21.023800
v 15.797300 11.831500 1.361250
v 15.361100 11.980800 1.361250
v 15.361100 11.980800 21.023800
v 15.125000 12.000000 1.361250
v 15.125000 12.000000 21.023800
v 13.915000 12.000000 1.361250
v 13.915000 12.000000 21.023800
v 13.915000 10.000000 1.361250
v 13.915000 8.500000 1.361250
v 13.915000 8.500000 21.023800
v 13.915000 10.000000 21.023800
# UVs
# Normals
vn 0.351529 0.936177 0.000000
vn 0.297727 0.954651 0.000000
vn 0.404026 0.914747 0.000000
vn 0.404026 0.914747 0.000000
vn 0.189680 0.981846 0.000000
vn 0.135490 0.990779 0.000000
vn 0.054076 0.998537 0.000000
vn 0.027038 0.999634 0.000000
vn -0.707107 0.707107 0.000000
vn -0.707107 0.707107 0.000000
vn -1.000000 0.000000 0.000000
vn -1.000000 0.000000 0.000000
vn -1.000000 0.000000 0.000000
vn -1.000000 0.000000 0.000000
# Material
mtllib table3-2.mtl
usemtl table3-2
# Faces
f 1//1 2//2 3//3 
f 1//1 3//3 4//4 
f 5//5 6//6 2//2 
f 5//5 2//2 1//1 
f 7//7 8//8 6//6 
f 7//7 6//6 5//5 
f 9//9 10//10 8//8 
f 9//9 8//8 7//7 
f 11//11 12//12 13//13 
f 11//11 13//13 14//14 
f 9//9 11//11 14//14 
f 9//9 14//14 10//10 
# eof
