# j.c. convert leaf file to obj
# Verts
v 15.940300 12.600000 1.927310
v 14.669800 12.600000 1.927310
v 16.188200 12.579800 1.927310
v 16.426600 12.520100 1.927310
v 16.646200 12.423100 1.927310
v 16.838699 12.292500 1.927310
v 16.996700 12.133400 1.927310
v 17.114100 11.951800 1.927310
v 17.186501 11.754900 1.927310
v 17.210800 11.550000 1.927310
v 14.669800 8.925000 1.927310
v 17.210800 8.925000 1.927310
v 14.669800 12.600000 -1.884190
v 15.940300 12.600000 -1.884190
v 16.188200 12.579800 -1.884190
v 16.426600 12.520100 -1.884190
v 16.646200 12.423100 -1.884190
v 16.838699 12.292500 -1.884190
v 16.996700 12.133400 -1.884190
v 17.114100 11.951800 -1.884190
v 17.186501 11.754900 -1.884190
v 17.210800 11.550000 -1.884190
v 17.210800 8.925000 -1.884190
v 14.669800 8.925000 -1.884190
# UVs
# Normals
vn 0.000000 0.000000 1.000000
vn 0.000000 0.000000 1.000000
vn 0.000000 0.000000 1.000000
vn 0.000000 0.000000 1.000000
vn 0.000000 0.000000 1.000000
vn 0.000000 0.000000 1.000000
vn 0.000000 0.000000 1.000000
vn 0.000000 0.000000 1.000000
vn 0.000000 0.000000 1.000000
vn 0.000000 0.000000 1.000000
vn 0.000000 0.000000 1.000000
vn 0.000000 0.000000 1.000000
vn 0.000000 0.000000 -1.000000
vn 0.000000 0.000000 -1.000000
vn 0.000000 0.000000 -1.000000
vn 0.000000 0.000000 -1.000000
vn 0.000000 0.000000 -1.000000
vn 0.000000 0.000000 -1.000000
vn 0.000000 0.000000 -1.000000
vn 0.000000 0.000000 -1.000000
vn 0.000000 0.000000 -1.000000
vn 0.000000 0.000000 -1.000000
vn 0.000000 0.000000 -1.000000
vn 0.000000 0.000000 -1.000000
# Material
mtllib table7-3.mtl
usemtl table7-3
# Faces
f 1//1 2//2 3//3 
f 3//3 2//2 4//4 
f 4//4 2//2 5//5 
f 5//5 2//2 6//6 
f 6//6 2//2 7//7 
f 7//7 2//2 8//8 
f 8//8 2//2 9//9 
f 9//9 2//2 10//10 
f 10//10 2//2 11//11 
f 10//10 11//11 12//12 
f 13//13 14//14 15//15 
f 13//13 15//15 16//16 
f 13//13 16//16 17//17 
f 13//13 17//17 18//18 
f 13//13 18//18 19//19 
f 13//13 19//19 20//20 
f 13//13 20//20 21//21 
f 13//13 21//21 22//22 
f 13//13 22//22 23//23 
f 13//13 23//23 24//24 
# eof
