# j.c. convert leaf file to obj
# Verts
v 0.141953 12.000000 -4.439280
v 0.605000 12.000000 -4.614910
v 0.605000 10.000000 -4.614910
v 0.141953 10.000000 -4.439280
v -0.250600 12.000000 -3.939080
v -0.250600 10.000000 -3.939080
v -0.512895 10.000000 -3.190490
v -0.512895 12.000000 -3.190490
v -0.605000 10.000000 -2.307460
v -0.605000 12.000000 -2.307460
v -0.604999 10.000000 13.844700
v -0.604999 12.000000 13.844700
v -0.512894 10.000000 14.727800
v -0.512894 12.000000 14.727800
v -0.250599 10.000000 15.476300
v -0.250599 12.000000 15.476300
v 0.141954 12.000000 15.976600
v 0.141954 10.000000 15.976600
v 0.605001 12.000000 16.152300
v 0.605001 10.000000 16.152300
# UVs
# Normals
vn -0.424395 0.567392 -0.705660
vn 0.280572 0.869506 -0.406495
vn 0.426399 -0.660715 -0.617770
vn -0.546960 -0.567392 -0.615549
vn -0.698161 0.605196 -0.382503
vn -0.481916 -0.835492 -0.264028
vn -0.681366 -0.709241 -0.180878
vn -0.693390 0.709241 -0.127228
vn -0.829746 -0.555161 -0.057594
vn -0.831244 0.555161 -0.028797
vn -0.948001 -0.316570 0.032839
vn -0.946293 0.316570 0.065678
vn -0.693389 -0.709242 0.127233
vn -0.681362 0.709242 0.180893
vn -0.698175 -0.605192 0.382484
vn -0.481927 0.835489 0.264016
vn -0.390158 0.809362 0.438988
vn -0.302753 -0.809362 0.503263
vn 0.519867 0.402850 0.753293
vn 0.426340 -0.660750 0.617773
# Material
mtllib table-r2-reg-short.mtl
usemtl table-r2-reg-short
# Faces
f 1//1 2//2 3//3 
f 1//1 3//3 4//4 
f 5//5 1//1 4//4 
f 5//5 4//4 6//6 
f 5//5 6//6 7//7 
f 5//5 7//7 8//8 
f 8//8 7//7 9//9 
f 8//8 9//9 10//10 
f 10//10 9//9 11//11 
f 10//10 11//11 12//12 
f 12//12 11//11 13//13 
f 12//12 13//13 14//14 
f 14//14 13//13 15//15 
f 14//14 15//15 16//16 
f 17//17 16//16 15//15 
f 17//17 15//15 18//18 
f 19//19 17//17 18//18 
f 19//19 18//18 20//20 
f 10//10 12//12 14//14 
f 10//10 14//14 8//8 
f 8//8 14//14 16//16 
f 8//8 16//16 5//5 
f 5//5 16//16 17//17 
f 5//5 17//17 1//1 
f 1//1 17//17 2//2 
f 2//2 17//17 19//19 
f 3//3 2//2 19//19 
f 3//3 19//19 20//20 
f 11//11 9//9 13//13 
f 13//13 9//9 7//7 
f 13//13 7//7 15//15 
f 15//15 7//7 6//6 
f 15//15 6//6 18//18 
f 18//18 6//6 4//4 
f 18//18 4//4 3//3 
f 18//18 3//3 20//20 
# eof
