# j.c. convert leaf file to obj
# Verts
v 0.141953 12.000000 -4.825300
v 0.605000 12.000000 -5.016210
v 0.605000 10.000000 -5.016210
v 0.141953 10.000000 -4.825300
v -0.250600 12.000000 -4.281610
v -0.250600 10.000000 -4.281610
v -0.512895 10.000000 -3.467920
v -0.512895 12.000000 -3.467920
v -0.605000 10.000000 -2.508110
v -0.605000 12.000000 -2.508110
v -0.604999 10.000000 15.048600
v -0.604999 12.000000 15.048600
v -0.512894 10.000000 16.008499
v -0.512894 12.000000 16.008499
v -0.250599 10.000000 16.822100
v -0.250599 12.000000 16.822100
v 0.141954 12.000000 17.365900
v 0.141954 10.000000 17.365900
v 0.605001 12.000000 17.556900
v 0.605001 10.000000 17.556900
# UVs
# Normals
vn -0.446711 0.567942 -0.691297
vn 0.270399 0.873898 -0.403963
vn 0.413692 -0.668501 -0.618034
vn -0.568703 -0.567942 -0.594995
vn -0.710576 0.604735 -0.359691
vn -0.490681 -0.835188 -0.248381
vn -0.685068 -0.708942 -0.167579
vn -0.695384 0.708942 -0.117649
vn -0.830098 -0.555091 -0.053024
vn -0.831367 0.555091 -0.026512
vn -0.948105 -0.316517 0.030232
vn -0.946658 0.316517 0.060464
vn -0.695383 -0.708943 0.117653
vn -0.685064 0.708943 0.167591
vn -0.710590 -0.604731 0.359670
vn -0.490693 0.835185 0.248367
vn -0.405477 0.809759 0.424121
vn -0.318530 -0.809759 0.492777
vn 0.507292 0.409979 0.758005
vn 0.413617 -0.668547 0.618034
# Material
mtllib table-r2-regular.mtl
usemtl table-r2-regular
# Faces
f 1//1 2//2 3//3 
f 1//1 3//3 4//4 
f 5//5 1//1 4//4 
f 5//5 4//4 6//6 
f 5//5 6//6 7//7 
f 5//5 7//7 8//8 
f 8//8 7//7 9//9 
f 8//8 9//9 10//10 
f 10//10 9//9 11//11 
f 10//10 11//11 12//12 
f 12//12 11//11 13//13 
f 12//12 13//13 14//14 
f 14//14 13//13 15//15 
f 14//14 15//15 16//16 
f 17//17 16//16 15//15 
f 17//17 15//15 18//18 
f 19//19 17//17 18//18 
f 19//19 18//18 20//20 
f 10//10 12//12 14//14 
f 10//10 14//14 8//8 
f 8//8 14//14 16//16 
f 8//8 16//16 5//5 
f 5//5 16//16 17//17 
f 5//5 17//17 1//1 
f 1//1 17//17 2//2 
f 2//2 17//17 19//19 
f 3//3 2//2 19//19 
f 3//3 19//19 20//20 
f 11//11 9//9 13//13 
f 13//13 9//9 7//7 
f 13//13 7//7 15//15 
f 15//15 7//7 6//6 
f 15//15 6//6 18//18 
f 18//18 6//6 4//4 
f 18//18 4//4 3//3 
f 18//18 3//3 20//20 
# eof
