# j.c. convert leaf file to obj
# Verts
v 17.210800 8.925000 -1.884190
v 17.210800 11.550000 -1.884190
v 17.210800 11.550000 1.927310
v 17.210800 8.925000 1.927310
v 17.186501 11.754900 -1.884190
v 17.186501 11.754900 1.927310
v 17.114100 11.951800 -1.884190
v 17.114100 11.951800 1.927310
v 16.996700 12.133400 -1.884190
v 16.996700 12.133400 1.927310
v 16.838699 12.292500 -1.884190
v 16.838699 12.292500 1.927310
v 16.646200 12.423100 -1.884190
v 16.646200 12.423100 1.927310
v 16.426600 12.520100 -1.884190
v 16.426600 12.520100 1.927310
v 16.188200 12.579800 -1.884190
v 16.188200 12.579800 1.927310
v 15.940300 12.600000 -1.884190
v 15.940300 12.600000 1.927310
v 14.669800 12.600000 1.369640
v 14.669800 8.925000 1.369640
v 14.669800 8.925000 1.927310
v 14.669800 12.600000 1.927310
v 14.669800 12.600000 -1.884190
v 14.669800 8.925000 -1.884190
v 14.669800 8.925000 -1.326500
v 14.669800 12.600000 -1.326500
v 14.956000 12.600000 1.312730
v 15.409200 12.600000 1.009780
v 15.712200 12.600000 0.556388
v 15.818600 12.600000 0.021560
v 14.956000 12.600000 -1.269590
v 15.409200 12.600000 -0.966649
v 15.712200 12.600000 -0.513258
# UVs
# Normals
vn 1.000000 0.000000 0.000000
vn 0.996904 0.078633 0.000000
vn 0.999227 0.039317 0.000000
vn 1.000000 0.000000 0.000000
vn 0.962584 0.270982 0.000000
vn 0.980856 0.194735 0.000000
vn 0.894661 0.446746 0.000000
vn 0.894661 0.446746 0.000000
vn 0.800224 0.599701 0.000000
vn 0.756601 0.653877 0.000000
vn 0.662913 0.748697 0.000000
vn 0.613335 0.789823 0.000000
vn 0.510811 0.859693 0.000000
vn 0.458160 0.888870 0.000000
vn 0.351472 0.936198 0.000000
vn 0.297589 0.954694 0.000000
vn 0.189585 0.981864 0.000000
vn 0.135524 0.990774 0.000000
vn 0.027093 0.999633 0.000000
vn 0.016252 0.999868 0.000000
vn -0.894427 0.447214 0.000000
vn -1.000000 0.000000 0.000000
vn -1.000000 0.000000 0.000000
vn -0.316228 0.948683 0.000000
vn -0.554700 0.832050 0.000000
vn -1.000000 0.000000 0.000000
vn -1.000000 0.000000 0.000000
vn -0.707107 0.707107 0.000000
vn 0.000000 1.000000 0.000000
vn 0.000000 1.000000 0.000000
vn 0.000000 1.000000 0.000000
vn 0.000000 1.000000 0.000000
vn 0.000000 1.000000 0.000000
vn 0.000000 1.000000 0.000000
vn 0.000000 1.000000 0.000000
# Material
mtllib table7-1.mtl
usemtl table7-1
# Faces
f 1//1 2//2 3//3 
f 1//1 3//3 4//4 
f 2//2 5//5 6//6 
f 2//2 6//6 3//3 
f 5//5 7//7 8//8 
f 5//5 8//8 6//6 
f 9//9 10//10 8//8 
f 9//9 8//8 7//7 
f 11//11 12//12 10//10 
f 11//11 10//10 9//9 
f 13//13 14//14 12//12 
f 13//13 12//12 11//11 
f 15//15 16//16 14//14 
f 15//15 14//14 13//13 
f 17//17 18//18 16//16 
f 17//17 16//16 15//15 
f 19//19 20//20 18//18 
f 19//19 18//18 17//17 
f 21//21 22//22 23//23 
f 21//21 23//23 24//24 
f 25//25 26//26 27//27 
f 25//25 27//27 28//28 
f 21//21 24//24 29//29 
f 29//29 24//24 30//30 
f 30//30 24//24 20//20 
f 31//31 30//30 20//20 
f 32//32 31//31 20//20 
f 25//25 28//28 33//33 
f 25//25 33//33 34//34 
f 25//25 34//34 19//19 
f 34//34 35//35 19//19 
f 35//35 32//32 19//19 
f 32//32 20//20 19//19 
# eof
