# j.c. convert leaf file to obj
# Verts
v 3.595300 12.000000 0.141953
v 3.737560 12.000000 0.605000
v 3.737560 10.000000 0.605000
v 3.595300 10.000000 0.141954
v 3.190200 12.000000 -0.250600
v 3.190200 10.000000 -0.250599
v 2.583930 10.000000 -0.512895
v 2.583930 12.000000 -0.512895
v 1.868780 10.000000 -0.605000
v 1.868780 12.000000 -0.605000
v -11.212600 10.000000 -0.605000
v -11.212600 12.000000 -0.605000
v -11.927800 10.000000 -0.512895
v -11.927800 12.000000 -0.512895
v -12.534100 10.000000 -0.250599
v -12.534100 12.000000 -0.250600
v -12.939200 12.000000 0.141953
v -12.939200 10.000000 0.141954
v -13.081400 12.000000 0.605000
v -13.081400 10.000000 0.605000
# UVs
# Normals
vn 0.737439 0.565584 -0.369185
vn 0.410875 0.859657 0.303597
vn 0.615415 -0.643804 0.454732
vn 0.663911 -0.565585 -0.489219
vn 0.441776 0.606297 -0.661240
vn 0.304652 -0.836215 -0.455996
vn 0.218236 -0.710192 -0.669328
vn 0.154477 0.710192 -0.686851
vn 0.070945 -0.555401 -0.828551
vn 0.035472 0.555401 -0.830826
vn -0.040457 -0.316747 -0.947647
vn -0.080915 0.316747 -0.945053
vn -0.154469 -0.710192 -0.686853
vn -0.218227 0.710192 -0.669332
vn -0.441769 -0.606298 -0.661243
vn -0.304647 0.836215 -0.455998
vn -0.474273 0.808052 -0.349452
vn -0.526805 -0.808052 -0.263682
vn -0.741312 0.387740 0.547827
vn -0.615408 -0.643773 0.454784
# Material
mtllib table-r1-bigpockets.mtl
usemtl table-r1-bigpockets
# Faces
f 1//1 2//2 3//3 
f 1//1 3//3 4//4 
f 5//5 1//1 4//4 
f 5//5 4//4 6//6 
f 5//5 6//6 7//7 
f 5//5 7//7 8//8 
f 8//8 7//7 9//9 
f 8//8 9//9 10//10 
f 10//10 9//9 11//11 
f 10//10 11//11 12//12 
f 12//12 11//11 13//13 
f 12//12 13//13 14//14 
f 14//14 13//13 15//15 
f 14//14 15//15 16//16 
f 17//17 16//16 15//15 
f 17//17 15//15 18//18 
f 19//19 17//17 18//18 
f 19//19 18//18 20//20 
f 10//10 12//12 14//14 
f 10//10 14//14 8//8 
f 8//8 14//14 16//16 
f 8//8 16//16 5//5 
f 5//5 16//16 17//17 
f 5//5 17//17 1//1 
f 1//1 17//17 2//2 
f 2//2 17//17 19//19 
f 3//3 2//2 19//19 
f 3//3 19//19 20//20 
f 11//11 9//9 13//13 
f 13//13 9//9 7//7 
f 13//13 7//7 15//15 
f 15//15 7//7 6//6 
f 15//15 6//6 18//18 
f 18//18 6//6 4//4 
f 18//18 4//4 3//3 
f 18//18 3//3 20//20 
# eof
