# j.c. convert leaf file to obj
# Verts
v 1.443260 0.500000 -1.434210
v 1.054880 0.500000 -1.443260
v 1.380340 0.500000 -1.051290
v 1.003740 0.500000 -0.942234
v 0.879048 0.500000 -0.910059
v 0.759962 0.500000 -0.907948
v 0.321050 0.500000 -0.886855
v 0.358123 0.500000 -0.806012
v 0.410065 0.500000 -0.740567
v 0.970416 0.500000 -0.662706
v 1.262710 0.500000 -0.440915
v 0.924760 0.500000 -0.474646
v 0.896108 0.500000 -0.403652
v 1.231890 0.500000 -0.341763
v 0.863574 0.500000 -0.348019
v 0.827157 0.500000 -0.307744
v 1.191620 0.500000 -0.249322
v 0.786859 0.500000 -0.282826
v 0.742678 0.500000 -0.273268
v 1.141910 0.500000 -0.163596
v 0.244618 0.500000 -0.312937
v 0.267489 0.500000 -0.211565
v 1.082760 0.500000 -0.084581
v 0.304453 0.500000 -0.124333
v 0.989973 0.500000 0.004292
v 0.355510 0.500000 -0.051240
v 0.420659 0.500000 0.007714
v 0.888555 0.500000 0.063868
v 0.499902 0.500000 0.052528
v 0.778507 0.500000 0.094147
v 0.593238 0.500000 0.083203
v 0.659828 0.500000 0.095129
v 0.734618 0.500000 -1.494840
v 0.374335 0.500000 -1.552980
v 0.327063 0.500000 -1.387310
v 0.665605 0.500000 -1.301590
v 0.299048 0.500000 -1.221770
v 0.630508 0.500000 -1.128340
v 0.291513 0.500000 -1.094730
v 0.629266 0.500000 -1.015290
v 0.641161 0.500000 -0.973357
v 0.298846 0.500000 -0.983095
v 0.666910 0.500000 -0.941492
v 0.706510 0.500000 -0.919688
v 0.476876 0.500000 -0.690520
v 0.801022 0.500000 -0.635686
v 0.558556 0.500000 -0.655870
v 0.655107 0.500000 -0.636618
v 0.588020 0.500000 -0.562573
v 0.241154 0.500000 -0.558100
v 0.579572 0.500000 -0.506915
v 0.578749 0.500000 -0.420556
v 0.235839 0.500000 -0.428450
v 0.597649 0.500000 -0.353795
v 0.636270 0.500000 -0.306632
v 0.694615 0.500000 -0.279068
v 1.443260 -0.000000 -1.434210
v 1.054880 -0.000000 -1.443260
v 1.003740 -0.000000 -0.942233
v 0.734617 -0.000000 -1.494840
v 0.374334 -0.000000 -1.552980
v 0.588020 -0.000000 -0.562574
v 0.241154 -0.000000 -0.558100
v 1.380340 -0.000000 -1.051290
v 0.759962 -0.000000 -0.907948
v 0.879048 -0.000000 -0.910059
v 0.321050 -0.000000 -0.886855
v 0.358123 -0.000000 -0.806012
v 0.410065 -0.000000 -0.740567
v 0.970416 -0.000000 -0.662706
v 1.262710 -0.000000 -0.440915
v 0.924760 -0.000000 -0.474646
v 0.896108 -0.000000 -0.403653
v 1.231890 -0.000000 -0.341763
v 0.863573 -0.000000 -0.348019
v 0.827157 -0.000000 -0.307743
v 1.191620 -0.000000 -0.249322
v 0.786859 -0.000000 -0.282826
v 0.742678 -0.000000 -0.273267
v 1.141910 -0.000000 -0.163595
v 0.244617 -0.000000 -0.312937
v 0.267489 -0.000000 -0.211565
v 1.082760 -0.000000 -0.084581
v 0.304452 -0.000000 -0.124332
v 0.989973 -0.000000 0.004292
v 0.355509 -0.000000 -0.051239
v 0.420659 -0.000000 0.007714
v 0.888555 -0.000000 0.063868
v 0.499901 -0.000000 0.052529
v 0.778506 -0.000000 0.094148
v 0.593238 -0.000000 0.083203
v 0.659828 -0.000000 0.095129
v 0.579571 -0.000000 -0.506916
v 0.578749 -0.000000 -0.420556
v 0.235839 -0.000000 -0.428450
v 0.597649 -0.000000 -0.353795
v 0.636269 -0.000000 -0.306633
v 0.694613 -0.000000 -0.279068
v 0.476875 -0.000000 -0.690520
v 0.801022 -0.000000 -0.635686
v 0.558556 -0.000000 -0.655870
v 0.655106 -0.000000 -0.636617
v 0.327063 -0.000000 -1.387310
v 0.665605 -0.000000 -1.301590
v 0.299048 -0.000000 -1.221770
v 0.630508 -0.000000 -1.128340
v 0.291512 -0.000000 -1.094730
v 0.629266 -0.000000 -1.015290
v 0.641161 -0.000000 -0.973357
v 0.298846 -0.000000 -0.983095
v 0.666909 -0.000000 -0.941491
v 0.706510 -0.000000 -0.919688
# UVs
# Normals
vn 0.000000 1.000000 0.000000
vn 0.000000 1.000000 0.000000
vn 0.000000 1.000000 0.000000
vn 0.023296 0.000000 -0.999729
vn 0.023296 0.000000 -0.999729
vn -0.994831 0.000000 -0.101543
vn -0.994831 -0.000000 -0.101543
vn 0.159312 -0.000000 -0.987228
vn 0.159312 -0.000000 -0.987228
vn -0.012894 0.000002 -0.999917
vn -0.012897 -0.000000 -0.999917
vn -0.000000 -1.000000 -0.000000
vn -0.000000 -1.000000 -0.000000
vn -0.000000 -1.000000 -0.000000
vn -0.000000 -1.000000 -0.000000
vn -0.000000 -1.000000 -0.000000
vn -0.000000 -1.000000 -0.000000
vn -0.000000 -1.000000 -0.000000
vn -0.000000 -1.000000 -0.000000
vn -0.000000 -1.000000 -0.000000
vn -0.000000 -1.000000 -0.000000
vn -0.000000 -1.000000 -0.000000
vn -0.000000 -1.000000 -0.000000
vn -0.000000 -1.000000 -0.000000
vn -0.000000 -1.000000 -0.000000
vn -0.000000 -1.000000 -0.000000
vn -0.000000 -1.000000 -0.000000
vn -0.000000 -1.000000 -0.000000
vn -0.000000 -1.000000 -0.000000
vn -0.000000 -1.000000 -0.000000
vn -0.000000 -1.000000 -0.000000
vn -0.000000 -1.000000 -0.000000
vn -0.000000 -1.000000 -0.000000
vn -0.000000 -1.000000 -0.000000
vn -0.000000 -1.000000 -0.000000
vn -0.000000 -1.000000 -0.000000
vn -0.000000 -1.000000 -0.000000
vn -0.000000 -1.000000 -0.000000
vn -0.000000 -1.000000 -0.000000
vn -0.000000 -1.000000 -0.000000
vn -0.000000 -1.000000 -0.000000
vn -0.000000 -1.000000 -0.000000
vn -0.000000 -1.000000 -0.000000
vn -0.000000 -1.000000 -0.000000
vn -0.000000 -1.000000 -0.000000
vn -0.000000 -1.000000 -0.000000
vn -0.000000 -1.000000 -0.000000
vn -0.000000 -1.000000 -0.000000
vn -0.000000 -1.000000 -0.000000
vn -0.000000 -1.000000 -0.000000
vn -0.000000 -1.000000 -0.000000
vn -0.000000 -1.000000 -0.000000
vn -0.000000 -1.000000 -0.000000
vn -0.000000 -1.000000 -0.000000
vn -0.000000 -1.000000 -0.000000
vn -0.000000 -1.000000 -0.000000
vn -0.000000 -1.000000 -0.000000
vn -0.000000 -1.000000 -0.000000
vn -0.000000 -1.000000 -0.000000
vn -0.000000 -1.000000 -0.000000
vn -0.000000 -1.000000 -0.000000
vn -0.000000 -1.000000 -0.000000
vn -0.000000 -1.000000 -0.000000
vn -0.000000 -1.000000 -0.000000
vn -0.000000 -1.000000 -0.000000
# Material
mtllib y2.mtl
usemtl y2
# Faces
f 1//1 2//1 3//1 
f 3//1 2//1 4//1 
f 5//2 6//2 7//2 
f 5//2 7//2 8//2 
f 5//1 8//1 9//1 
f 4//2 5//2 9//2 
f 3//2 4//2 9//2 
f 3//1 9//1 10//1 
f 3//2 10//2 11//2 
f 11//2 10//2 12//2 
f 11//2 12//2 13//2 
f 11//2 13//2 14//2 
f 14//2 13//2 15//2 
f 14//2 15//2 16//2 
f 14//2 16//2 17//2 
f 17//2 16//2 18//2 
f 17//2 18//2 19//2 
f 17//2 19//2 20//2 
f 19//2 21//2 20//2 
f 20//1 21//1 22//1 
f 20//2 22//2 23//2 
f 23//2 22//2 24//2 
f 23//2 24//2 25//2 
f 25//2 24//2 26//2 
f 25//2 26//2 27//2 
f 25//2 27//2 28//2 
f 28//2 27//2 29//2 
f 28//2 29//2 30//2 
f 30//2 29//2 31//2 
f 30//2 31//2 32//2 
f 33//2 34//2 35//2 
f 33//2 35//2 36//2 
f 36//2 35//2 37//2 
f 36//1 37//1 38//1 
f 38//2 37//2 39//2 
f 38//2 39//2 40//2 
f 40//1 39//1 41//1 
f 41//2 39//2 42//2 
f 41//2 42//2 43//2 
f 43//2 42//2 44//2 
f 44//2 42//2 6//2 
f 6//1 42//1 7//1 
f 10//1 9//1 45//1 
f 10//2 45//2 46//2 
f 46//2 45//2 47//2 
f 46//2 47//2 48//2 
f 49//2 50//2 51//2 
f 51//3 50//3 52//3 
f 52//1 50//1 53//1 
f 52//2 53//2 54//2 
f 54//2 53//2 55//2 
f 55//2 53//2 56//2 
f 56//1 53//1 21//1 
f 19//2 56//2 21//2 
f 1//4 57//4 2//4 
f 2//5 57//5 58//5 
f 4//6 2//6 58//6 
f 4//7 58//7 59//7 
f 33//8 60//8 34//8 
f 34//9 60//9 61//9 
f 49//10 62//10 50//10 
f 50//11 62//11 63//11 
f 58//12 57//12 64//12 
f 58//13 64//13 59//13 
f 65//14 66//14 67//14 
f 67//15 66//15 68//15 
f 68//16 66//16 69//16 
f 66//17 59//17 69//17 
f 59//18 64//18 69//18 
f 69//19 64//19 70//19 
f 70//20 64//20 71//20 
f 70//21 71//21 72//21 
f 72//22 71//22 73//22 
f 73//23 71//23 74//23 
f 73//24 74//24 75//24 
f 75//25 74//25 76//25 
f 76//26 74//26 77//26 
f 76//27 77//27 78//27 
f 78//28 77//28 79//28 
f 79//29 77//29 80//29 
f 81//30 79//30 80//30 
f 81//31 80//31 82//31 
f 82//32 80//32 83//32 
f 82//33 83//33 84//33 
f 84//34 83//34 85//34 
f 84//35 85//35 86//35 
f 86//36 85//36 87//36 
f 87//37 85//37 88//37 
f 87//38 88//38 89//38 
f 89//39 88//39 90//39 
f 89//40 90//40 91//40 
f 91//41 90//41 92//41 
f 63//42 62//42 93//42 
f 63//43 93//43 94//43 
f 63//44 94//44 95//44 
f 95//45 94//45 96//45 
f 95//46 96//46 97//46 
f 95//47 97//47 98//47 
f 95//48 98//48 81//48 
f 98//49 79//49 81//49 
f 69//50 70//50 99//50 
f 99//51 70//51 100//51 
f 99//52 100//52 101//52 
f 101//53 100//53 102//53 
f 61//54 60//54 103//54 
f 103//55 60//55 104//55 
f 103//56 104//56 105//56 
f 105//57 104//57 106//57 
f 105//58 106//58 107//58 
f 107//59 106//59 108//59 
f 107//60 108//60 109//60 
f 107//61 109//61 110//61 
f 110//62 109//62 111//62 
f 110//63 111//63 112//63 
f 110//64 112//64 65//64 
f 110//65 65//65 67//65 
# eof
