# j.c. convert leaf file to obj
# Verts
v 1.591820 0.500000 -1.441150
v 0.489604 0.500000 -1.627000
v 0.454818 0.500000 -1.252810
v 1.274030 0.500000 -1.148200
v 1.560510 0.500000 -0.955635
v 0.303252 0.500000 -0.479565
v 0.844173 0.500000 -0.396824
v 1.290430 0.500000 -0.317810
v 0.309712 0.500000 -0.109840
v 1.215390 0.500000 0.051914
v 1.560520 -0.000000 -0.955635
v 1.591820 -0.000000 -1.441150
v 0.489605 -0.000000 -1.627000
v 0.454820 -0.000000 -1.252810
v 1.274030 -0.000000 -1.148200
v 0.303252 -0.000000 -0.479565
v 0.309713 -0.000000 -0.109840
v 1.215390 -0.000000 0.051914
v 1.290430 -0.000000 -0.317810
v 0.844174 -0.000000 -0.396824
# UVs
# Normals
vn 0.000000 1.000000 0.000000
vn 0.997927 0.000020 0.064354
vn 0.997928 0.000000 0.064334
vn 0.166268 0.000000 -0.986081
vn 0.166268 0.000000 -0.986081
vn -0.995707 -0.000002 -0.092564
vn -0.995707 -0.000004 -0.092562
vn -0.126668 0.000000 0.991945
vn -0.126667 -0.000001 0.991945
vn -0.567234 -0.000000 -0.823556
vn -0.999847 0.000000 0.017470
vn -0.999847 -0.000002 0.017472
vn -0.175819 0.000000 0.984423
vn -0.175818 -0.000000 0.984423
vn 0.980018 0.000000 0.198906
vn 0.174348 0.000000 -0.984684
vn 0.174348 0.000000 -0.984684
vn 0.615074 0.000012 0.788470
vn 0.615078 0.000001 0.788466
vn -0.000000 -1.000000 -0.000000
vn -0.000000 -1.000000 -0.000000
vn -0.000000 -1.000000 -0.000000
vn -0.000000 -1.000000 -0.000000
vn -0.000000 -1.000000 -0.000000
vn -0.000000 -1.000000 -0.000000
vn -0.000000 -1.000000 -0.000000
vn -0.000000 -1.000000 -0.000000
# Material
mtllib z1.mtl
usemtl z1
# Faces
f 1//1 2//1 3//1 
f 1//1 3//1 4//1 
f 1//1 4//1 5//1 
f 5//1 4//1 6//1 
f 5//1 6//1 7//1 
f 7//1 6//1 8//1 
f 8//1 6//1 9//1 
f 8//1 9//1 10//1 
f 1//2 5//2 11//2 
f 1//3 11//3 12//3 
f 1//4 12//4 13//4 
f 1//5 13//5 2//5 
f 3//6 2//6 13//6 
f 3//7 13//7 14//7 
f 15//8 4//8 14//8 
f 14//9 4//9 3//9 
f 4//10 15//10 16//10 
f 4//10 16//10 6//10 
f 9//11 6//11 16//11 
f 9//12 16//12 17//12 
f 18//13 10//13 17//13 
f 17//14 10//14 9//14 
f 8//15 10//15 18//15 
f 8//15 18//15 19//15 
f 8//16 19//16 20//16 
f 8//17 20//17 7//17 
f 11//18 5//18 20//18 
f 20//19 5//19 7//19 
f 13//20 12//20 14//20 
f 14//21 12//21 15//21 
f 15//22 12//22 11//22 
f 15//23 11//23 16//23 
f 16//24 11//24 20//24 
f 16//25 20//25 19//25 
f 16//26 19//26 17//26 
f 17//27 19//27 18//27 
# eof
