# j.c. convert leaf file to obj
# Verts
v 0.186250 0.500000 -1.516500
v -0.243500 0.500000 -1.334250
v 0.139000 0.500000 0.022500
v -0.196250 0.500000 0.031500
v 0.186250 -0.000000 -1.516500
v -0.243500 -0.000000 -1.334250
v -0.196250 0.000000 0.031500
v 0.139000 0.000000 0.022500
# UVs
# Normals
vn 0.000000 1.000000 0.000000
vn -0.390426 -0.000000 -0.920634
vn -0.999402 0.000000 0.034576
vn -0.999402 0.000000 0.034576
vn 0.026836 -0.000000 0.999640
vn 0.999529 0.000000 0.030687
vn 0.999529 0.000000 0.030687
vn -0.000000 -1.000000 0.000000
vn -0.000000 -1.000000 0.000000
# Material
mtllib 1.mtl
usemtl 1
# Faces
f 1//1 2//1 3//1 
f 3//1 2//1 4//1 
f 1//2 5//2 6//2 
f 1//2 6//2 2//2 
f 4//3 2//3 6//3 
f 4//4 6//4 7//4 
f 8//5 3//5 7//5 
f 7//5 3//5 4//5 
f 1//6 3//6 8//6 
f 1//7 8//7 5//7 
f 6//8 5//8 8//8 
f 6//9 8//9 7//9 
# eof
