# j.c. convert leaf file to obj
# Verts
v -0.223703 0.500000 -0.847547
v -0.290500 0.500000 -0.848250
v 0.302234 0.500000 -0.821391
v 0.206750 0.500000 -0.735750
v 0.257902 0.500000 -0.714692
v 0.302234 0.500000 -0.685266
v 0.339746 0.500000 -0.647473
v 0.370437 0.500000 -0.601313
v -0.331000 0.500000 -0.567000
v -0.176453 0.500000 -0.540282
v -0.066063 0.500000 -0.496125
v 0.411359 0.500000 -0.483891
v -0.027426 0.500000 -0.467508
v 0.000172 0.500000 -0.434532
v 0.016730 0.500000 -0.397196
v 0.022250 0.500000 -0.355500
v 0.425000 0.500000 -0.333000
v 0.020035 0.500000 -0.324000
v 0.419586 0.500000 -0.260578
v -0.004612 0.500000 -0.252141
v -0.047544 0.500000 -0.200813
v 0.403344 0.500000 -0.194063
v -0.108762 0.500000 -0.170016
v -0.188266 0.500000 -0.159750
v 0.376273 0.500000 -0.133453
v 0.383234 0.500000 -1.281940
v -0.083500 0.500000 -1.224000
v -0.031750 0.500000 -1.206000
v 0.411500 0.500000 -1.206000
v 0.008750 0.500000 -1.158190
v 0.425000 0.500000 -1.107000
v 0.022250 0.500000 -1.091250
v 0.017188 0.500000 -1.043300
v 0.411359 0.500000 -1.007020
v 0.002000 0.500000 -0.998438
v -0.058750 0.500000 -0.918000
v 0.370437 0.500000 -0.911813
v -0.107828 0.500000 -0.882422
v -0.162813 0.500000 -0.858938
v -0.011219 0.500000 -1.546880
v -0.094750 0.500000 -1.552500
v -0.192906 0.500000 -1.544200
v 0.068375 0.500000 -1.530000
v -0.278125 0.500000 -1.519310
v 0.144031 0.500000 -1.501880
v -0.350406 0.500000 -1.477830
v 0.215750 0.500000 -1.462500
v -0.409750 0.500000 -1.419750
v 0.285359 0.500000 -1.410190
v 0.341187 0.500000 -1.350000
v -0.131594 0.500000 -1.211200
v -0.578500 0.500000 -1.185750
v -0.179125 0.500000 -1.172810
v -0.603250 0.500000 -1.134000
v -0.226094 0.500000 -1.108830
v -0.272500 0.500000 -1.019250
v 0.338375 0.500000 -0.078750
v -0.263606 0.500000 -0.168750
v 0.289648 0.500000 -0.029953
v 0.230094 0.500000 0.012937
v 0.078500 0.500000 0.081000
v -0.081813 0.500000 0.117562
v -0.270250 0.500000 0.132750
v -0.272500 -0.000000 -1.019250
v -0.603250 -0.000000 -1.134000
v -0.290500 -0.000000 -0.848250
v -0.331000 -0.000000 -0.567000
v -0.263605 -0.000000 -0.168750
v -0.270250 0.000000 0.132750
v -0.223703 -0.000000 -0.847547
v 0.302234 -0.000000 -0.821391
v 0.206750 -0.000000 -0.735750
v 0.257902 -0.000000 -0.714691
v 0.302234 -0.000000 -0.685266
v 0.339746 -0.000000 -0.647473
v 0.370437 -0.000000 -0.601312
v -0.176453 -0.000000 -0.540281
v -0.066063 -0.000000 -0.496125
v 0.411359 -0.000000 -0.483891
v -0.027426 -0.000000 -0.467508
v 0.000172 -0.000000 -0.434531
v 0.016730 -0.000000 -0.397195
v 0.022250 -0.000000 -0.355500
v 0.425000 -0.000000 -0.333000
v 0.020035 -0.000000 -0.324000
v 0.419586 -0.000000 -0.260578
v -0.004612 -0.000000 -0.252141
v -0.047544 -0.000000 -0.200812
v 0.403344 -0.000000 -0.194062
v -0.108762 -0.000000 -0.170016
v -0.188266 -0.000000 -0.159750
v 0.376273 -0.000000 -0.133453
v 0.338375 -0.000000 -0.078750
v 0.289648 -0.000000 -0.029953
v 0.230094 0.000000 0.012937
v 0.078500 0.000000 0.081000
v -0.081813 0.000000 0.117562
v -0.083500 -0.000000 -1.224000
v 0.383234 -0.000000 -1.281940
v 0.411500 -0.000000 -1.206000
v -0.031750 -0.000000 -1.206000
v 0.008750 -0.000000 -1.158190
v 0.425000 -0.000000 -1.107000
v 0.022250 -0.000000 -1.091250
v 0.017187 -0.000000 -1.043300
v 0.411359 -0.000000 -1.007020
v 0.002000 -0.000000 -0.998437
v -0.058750 -0.000000 -0.918000
v 0.370437 -0.000000 -0.911812
v -0.107828 -0.000000 -0.882422
v -0.162813 -0.000000 -0.858937
v -0.094750 -0.000000 -1.552500
v -0.011219 -0.000000 -1.546880
v -0.192906 -0.000000 -1.544200
v 0.068375 -0.000000 -1.530000
v -0.278125 -0.000000 -1.519310
v 0.144031 -0.000000 -1.501880
v -0.350406 -0.000000 -1.477830
v 0.215750 -0.000000 -1.462500
v -0.409750 -0.000000 -1.419750
v 0.285359 -0.000000 -1.410190
v 0.341187 -0.000000 -1.350000
v -0.131594 -0.000000 -1.211200
v -0.578500 -0.000000 -1.185750
v -0.179125 -0.000000 -1.172810
v -0.226094 -0.000000 -1.108830
# UVs
# Normals
vn 0.000000 1.000000 -0.000000
vn 0.000000 1.000000 -0.000000
vn -0.327772 0.000000 0.944757
vn -0.989790 0.000000 -0.142530
vn -0.989790 -0.000000 -0.142530
vn -0.999757 -0.000002 -0.022031
vn -0.999757 -0.000000 -0.022034
vn -0.000000 -1.000000 0.000000
vn 0.000000 -1.000000 0.000000
vn -0.000000 -1.000000 0.000000
vn 0.000000 -1.000000 0.000000
vn -0.000000 -1.000000 0.000000
vn 0.000000 -1.000000 0.000000
vn 0.000000 -1.000000 0.000000
vn 0.000000 -1.000000 0.000000
vn -0.000000 -1.000000 0.000000
vn 0.000000 -1.000000 0.000000
vn 0.000000 -1.000000 0.000000
vn -0.000000 -1.000000 0.000000
vn 0.000000 -1.000000 0.000000
vn -0.000000 -1.000000 0.000000
vn 0.000000 -1.000000 0.000000
vn 0.000000 -1.000000 0.000000
vn 0.000000 -1.000000 0.000000
vn -0.000000 -1.000000 0.000000
vn -0.000000 -1.000000 0.000000
vn 0.000000 -1.000000 0.000000
vn -0.000000 -1.000000 0.000000
vn 0.000000 -1.000000 0.000000
vn -0.000000 -1.000000 0.000000
vn -0.000000 -1.000000 0.000000
vn 0.000000 -1.000000 0.000000
vn 0.000000 -1.000000 0.000000
vn -0.000000 -1.000000 0.000000
vn 0.000000 -1.000000 0.000000
vn -0.000000 -1.000000 0.000000
vn -0.000000 -1.000000 0.000000
vn 0.000000 -1.000000 0.000000
vn 0.000000 -1.000000 0.000000
vn 0.000000 -1.000000 0.000000
vn -0.000000 -1.000000 0.000000
vn -0.000000 -1.000000 0.000000
vn -0.000000 -1.000000 0.000000
vn -0.000000 -1.000000 0.000000
vn 0.000000 -1.000000 0.000000
vn 0.000000 -1.000000 0.000000
vn 0.000000 -1.000000 0.000000
vn 0.000000 -1.000000 0.000000
vn 0.000000 -1.000000 0.000000
vn -0.000000 -1.000000 0.000000
vn 0.000000 -1.000000 0.000000
vn 0.000000 -1.000000 0.000000
vn 0.000000 -1.000000 0.000000
vn 0.000000 -1.000000 0.000000
vn 0.000000 -1.000000 0.000000
vn 0.000000 -1.000000 0.000000
vn 0.000000 -1.000000 0.000000
vn -0.000000 -1.000000 0.000000
vn 0.000000 -1.000000 0.000000
vn 0.000000 -1.000000 0.000000
vn -0.000000 -1.000000 0.000000
vn 0.000000 -1.000000 0.000000
vn 0.000000 -1.000000 0.000000
vn -0.000000 -1.000000 0.000000
vn -0.000000 -1.000000 0.000000
vn -0.000000 -1.000000 0.000000
vn 0.000000 -1.000000 0.000000
vn 0.000000 -1.000000 0.000000
# Material
mtllib 32.mtl
usemtl 32
# Faces
f 1//1 2//1 3//1 
f 3//1 2//1 4//1 
f 4//1 2//1 5//1 
f 5//1 2//1 6//1 
f 6//1 2//1 7//1 
f 7//1 2//1 8//1 
f 8//1 2//1 9//1 
f 8//1 9//1 10//1 
f 8//1 10//1 11//1 
f 8//2 11//2 12//2 
f 12//2 11//2 13//2 
f 12//1 13//1 14//1 
f 12//1 14//1 15//1 
f 12//1 15//1 16//1 
f 12//1 16//1 17//1 
f 17//2 16//2 18//2 
f 17//1 18//1 19//1 
f 19//1 18//1 20//1 
f 19//1 20//1 21//1 
f 19//1 21//1 22//1 
f 22//1 21//1 23//1 
f 22//1 23//1 24//1 
f 22//1 24//1 25//1 
f 26//2 27//2 28//2 
f 26//1 28//1 29//1 
f 29//1 28//1 30//1 
f 29//1 30//1 31//1 
f 31//1 30//1 32//1 
f 31//1 32//1 33//1 
f 31//1 33//1 34//1 
f 34//1 33//1 35//1 
f 34//1 35//1 36//1 
f 34//1 36//1 37//1 
f 37//1 36//1 38//1 
f 37//1 38//1 39//1 
f 37//2 39//2 1//2 
f 37//1 1//1 3//1 
f 40//1 41//1 42//1 
f 40//1 42//1 43//1 
f 43//1 42//1 44//1 
f 43//1 44//1 45//1 
f 45//1 44//1 46//1 
f 45//2 46//2 47//2 
f 47//2 46//2 48//2 
f 47//1 48//1 49//1 
f 49//1 48//1 50//1 
f 50//1 48//1 26//1 
f 26//2 48//2 27//2 
f 27//2 48//2 51//2 
f 51//2 48//2 52//2 
f 51//1 52//1 53//1 
f 53//1 52//1 54//1 
f 53//1 54//1 55//1 
f 55//1 54//1 56//1 
f 25//1 24//1 57//1 
f 24//2 58//2 57//2 
f 57//1 58//1 59//1 
f 59//1 58//1 60//1 
f 60//1 58//1 61//1 
f 61//1 58//1 62//1 
f 62//2 58//2 63//2 
f 64//3 56//3 54//3 
f 64//3 54//3 65//3 
f 9//4 2//4 66//4 
f 9//5 66//5 67//5 
f 63//6 58//6 68//6 
f 63//7 68//7 69//7 
f 66//8 70//8 71//8 
f 66//9 71//9 72//9 
f 66//10 72//10 73//10 
f 66//11 73//11 74//11 
f 66//12 74//12 75//12 
f 66//13 75//13 76//13 
f 66//14 76//14 67//14 
f 67//15 76//15 77//15 
f 77//16 76//16 78//16 
f 78//17 76//17 79//17 
f 78//18 79//18 80//18 
f 80//19 79//19 81//19 
f 81//20 79//20 82//20 
f 82//21 79//21 83//21 
f 83//22 79//22 84//22 
f 83//23 84//23 85//23 
f 85//24 84//24 86//24 
f 85//25 86//25 87//25 
f 87//26 86//26 88//26 
f 88//27 86//27 89//27 
f 88//28 89//28 90//28 
f 90//29 89//29 91//29 
f 91//30 89//30 92//30 
f 91//31 92//31 93//31 
f 68//32 91//32 93//32 
f 68//33 93//33 94//33 
f 68//34 94//34 95//34 
f 68//35 95//35 96//35 
f 68//36 96//36 97//36 
f 68//37 97//37 69//37 
f 98//38 99//38 100//38 
f 98//39 100//39 101//39 
f 101//40 100//40 102//40 
f 102//41 100//41 103//41 
f 102//42 103//42 104//42 
f 104//43 103//43 105//43 
f 105//44 103//44 106//44 
f 105//45 106//45 107//45 
f 107//46 106//46 108//46 
f 108//47 106//47 109//47 
f 108//48 109//48 110//48 
f 110//49 109//49 111//49 
f 111//50 109//50 70//50 
f 70//51 109//51 71//51 
f 112//52 113//52 114//52 
f 114//53 113//53 115//53 
f 114//54 115//54 116//54 
f 116//55 115//55 117//55 
f 116//56 117//56 118//56 
f 118//57 117//57 119//57 
f 118//58 119//58 120//58 
f 120//59 119//59 121//59 
f 120//60 121//60 122//60 
f 120//61 122//61 99//61 
f 120//62 99//62 98//62 
f 120//63 98//63 123//63 
f 120//64 123//64 124//64 
f 124//65 123//65 125//65 
f 124//66 125//66 65//66 
f 65//67 125//67 126//67 
f 65//68 126//68 64//68 
# eof
