# j.c. convert leaf file to obj
# Verts
v -0.417750 0.500000 -1.352250
v -0.411000 0.500000 -1.568250
v -0.411000 -0.000000 -1.568250
v -0.417750 -0.000000 -1.352250
v -0.402000 0.500000 -1.029940
v -0.402000 -0.000000 -1.029940
v -0.382312 0.500000 -0.891984
v -0.382313 -0.000000 -0.891984
v -0.354750 0.500000 -0.769500
v -0.354750 -0.000000 -0.769500
v -0.303422 0.500000 -0.621844
v -0.303422 -0.000000 -0.621844
v -0.237187 0.500000 -0.516375
v -0.237188 -0.000000 -0.516375
v -0.198481 -0.000000 -0.479461
v -0.198480 0.500000 -0.479461
v -0.156047 -0.000000 -0.453094
v -0.156047 0.500000 -0.453094
v -0.109887 -0.000000 -0.437273
v -0.109887 0.500000 -0.437273
v -0.060000 -0.000000 -0.432000
v -0.060000 0.500000 -0.432000
v -0.006422 -0.000000 -0.437484
v -0.006422 0.500000 -0.437484
v 0.050812 -0.000000 -0.453937
v 0.050813 0.500000 -0.453937
v 0.176250 -0.000000 -0.519750
v 0.176250 0.500000 -0.519750
v 0.135750 0.500000 -1.105880
v 0.108750 0.500000 -1.449000
v 0.108750 -0.000000 -1.449000
v 0.135750 -0.000000 -1.105880
v 0.140250 0.500000 -0.913500
v 0.140250 -0.000000 -0.913500
v 0.129844 0.500000 -0.862031
v 0.129844 -0.000000 -0.862031
v 0.103125 0.500000 -0.815625
v 0.103125 -0.000000 -0.815625
v 0.067969 0.500000 -0.782719
v 0.067969 -0.000000 -0.782719
v 0.032250 0.500000 -0.771750
v 0.032250 -0.000000 -0.771750
v 0.001875 0.500000 -0.780469
v 0.001875 -0.000000 -0.780469
v -0.021750 0.500000 -0.806625
v -0.021750 -0.000000 -0.806625
v -0.038625 0.500000 -0.850219
v -0.038625 -0.000000 -0.850219
v -0.048750 0.500000 -0.911250
v -0.048750 -0.000000 -0.911250
v -0.064500 0.500000 -1.190810
v -0.064500 -0.000000 -1.190810
v -0.066750 0.500000 -1.593000
v -0.066750 -0.000000 -1.593000
# UVs
# Normals
vn -0.999990 0.000000 -0.004557
vn -0.999512 0.000000 -0.031235
vn -0.999512 0.000000 -0.031235
vn -0.999755 0.000000 0.022143
vn -0.996818 0.000000 0.079709
vn -0.993869 0.000001 0.110560
vn -0.985875 0.000001 0.167481
vn -0.981083 0.000001 0.193587
vn -0.966631 0.000001 0.256173
vn -0.956267 0.000000 0.292495
vn -0.917197 0.000000 0.398435
vn -0.884443 0.000001 0.466648
vn -0.774464 0.000001 0.632618
vn -0.774465 0.000002 0.632617
vn -0.639025 0.000001 0.769186
vn -0.584649 0.000001 0.811286
vn -0.462547 0.000000 0.886595
vn -0.394311 0.000000 0.918977
vn -0.252607 0.000000 0.967569
vn -0.179157 0.000000 0.983821
vn -0.036307 0.000000 0.999341
vn 0.033002 0.000000 0.999455
vn 0.160540 0.000000 0.987029
vn 0.218895 -0.000000 0.975748
vn 0.340614 -0.000001 0.940203
vn 0.403678 -0.000001 0.914901
vn 0.464603 -0.000001 0.885519
vn 0.464605 0.000000 0.885518
vn -0.998192 0.000000 0.060113
vn -0.996918 0.000000 0.078447
vn -0.996918 0.000000 0.078447
vn -0.999128 0.000000 0.041753
vn -0.998712 0.000000 -0.050747
vn -0.992156 0.000000 -0.125008
vn -0.953332 0.000000 -0.301925
vn -0.915040 0.000000 -0.403363
vn -0.813433 0.000000 -0.581658
vn -0.751747 0.000000 -0.659451
vn -0.566344 0.000000 -0.824169
vn -0.433380 0.000000 -0.901212
vn -0.107693 0.000000 -0.994184
vn 0.089363 0.000000 -0.995999
vn 0.446545 0.000000 -0.894761
vn 0.607435 0.000000 -0.794369
vn 0.817666 0.000000 -0.575693
vn 0.882107 0.000000 -0.471048
vn 0.955002 0.000000 -0.296598
vn 0.973069 0.000000 -0.230513
vn 0.991771 0.000000 -0.128024
vn 0.995743 0.000000 -0.092173
vn 0.999224 0.000000 -0.039376
vn 0.999747 0.000000 -0.022486
vn 0.999984 0.000000 -0.005594
vn 0.999984 0.000000 -0.005594
# Material
mtllib 41.mtl
usemtl 41
# Faces
f 1//1 2//2 3//3 
f 1//1 3//3 4//4 
f 5//5 1//1 4//4 
f 5//5 4//4 6//6 
f 7//7 5//5 6//6 
f 7//7 6//6 8//8 
f 9//9 7//7 8//8 
f 9//9 8//8 10//10 
f 11//11 9//9 10//10 
f 11//11 10//10 12//12 
f 13//13 11//11 12//12 
f 13//13 12//12 14//14 
f 15//15 16//16 13//13 
f 15//15 13//13 14//14 
f 17//17 18//18 16//16 
f 17//17 16//16 15//15 
f 19//19 20//20 18//18 
f 19//19 18//18 17//17 
f 21//21 22//22 20//20 
f 21//21 20//20 19//19 
f 23//23 24//24 22//22 
f 23//23 22//22 21//21 
f 25//25 26//26 24//24 
f 25//25 24//24 23//23 
f 27//27 28//28 26//26 
f 27//27 26//26 25//25 
f 29//29 30//30 31//31 
f 29//29 31//31 32//32 
f 33//33 29//29 32//32 
f 33//33 32//32 34//34 
f 35//35 33//33 34//34 
f 35//35 34//34 36//36 
f 37//37 35//35 36//36 
f 37//37 36//36 38//38 
f 37//37 38//38 39//39 
f 39//39 38//38 40//40 
f 39//39 40//40 41//41 
f 41//41 40//40 42//42 
f 41//41 42//42 43//43 
f 43//43 42//42 44//44 
f 45//45 43//43 44//44 
f 45//45 44//44 46//46 
f 47//47 45//45 46//46 
f 47//47 46//46 48//48 
f 49//49 47//47 48//48 
f 49//49 48//48 50//50 
f 51//51 49//49 50//50 
f 51//51 50//50 52//52 
f 53//53 51//51 52//52 
f 53//53 52//52 54//54 
# eof
