# j.c. convert leaf file to obj
# Verts
v 0.564500 0.500000 -0.942750
v 0.562250 0.500000 -0.859500
v 0.562250 -0.000000 -0.859500
v 0.564500 -0.000000 -0.942750
v 0.276640 0.500000 -0.224297
v 0.281000 0.500000 -0.267750
v 0.281000 -0.000000 -0.267750
v 0.276641 -0.000000 -0.224297
v 0.559578 0.500000 -1.058480
v 0.559578 -0.000000 -1.058480
v 0.544812 0.500000 -1.164940
v 0.544812 -0.000000 -1.164940
v 0.520203 0.500000 -1.262110
v 0.520203 -0.000000 -1.262110
v 0.485750 0.500000 -1.350000
v 0.485750 -0.000000 -1.350000
v 0.413468 0.500000 -1.464190
v 0.413469 -0.000000 -1.464190
v 0.320375 -0.000000 -1.545750
v 0.320375 0.500000 -1.545750
v 0.206469 -0.000000 -1.594690
v 0.206469 0.500000 -1.594690
v 0.071750 -0.000000 -1.611000
v 0.071750 0.500000 -1.611000
v -0.059875 -0.000000 -1.595530
v -0.059875 0.500000 -1.595530
v -0.173500 -0.000000 -1.549120
v -0.173500 0.500000 -1.549120
v -0.269125 -0.000000 -1.471780
v -0.269125 0.500000 -1.471780
v -0.346750 0.500000 -1.363500
v -0.346750 -0.000000 -1.363500
v -0.388375 0.500000 -1.274060
v -0.388375 -0.000000 -1.274060
v -0.418750 0.500000 -1.176750
v -0.418750 -0.000000 -1.176750
v -0.437875 0.500000 -1.071560
v -0.437875 -0.000000 -1.071560
v -0.445750 0.500000 -0.958500
v -0.445750 -0.000000 -0.958500
v -0.448739 0.500000 -0.857250
v -0.448738 -0.000000 -0.857250
v -0.450250 0.500000 -0.713250
v -0.450250 -0.000000 -0.713250
v -0.442217 0.500000 -0.512332
v -0.442217 -0.000000 -0.512332
v -0.418117 0.500000 -0.338203
v -0.418117 -0.000000 -0.338203
v -0.377951 0.500000 -0.190863
v -0.377951 -0.000000 -0.190863
v -0.321719 0.500000 -0.070313
v -0.321719 -0.000000 -0.070312
v -0.249420 0.500000 0.023449
v -0.249420 0.000000 0.023449
v -0.161055 0.000000 0.090422
v -0.161055 0.500000 0.090422
v -0.056623 0.000000 0.130605
v -0.056623 0.500000 0.130605
v 0.063875 0.000000 0.144000
v 0.063875 0.500000 0.144000
v 0.225523 0.000000 0.126000
v 0.225523 0.500000 0.126000
v 0.307608 0.000000 0.102586
v 0.307608 0.500000 0.102586
v 0.378748 0.000000 0.070594
v 0.378747 0.500000 0.070594
v 0.438943 0.000000 0.030023
v 0.438942 0.500000 0.030023
v 0.488193 -0.000000 -0.019125
v 0.488193 0.500000 -0.019125
v 0.526499 0.500000 -0.076852
v 0.526499 -0.000000 -0.076852
v 0.553860 0.500000 -0.143156
v 0.553861 -0.000000 -0.143156
v 0.570277 0.500000 -0.218039
v 0.570278 -0.000000 -0.218039
v 0.575750 0.500000 -0.301500
v 0.575750 -0.000000 -0.301500
v 0.569580 0.500000 -0.393750
v 0.569580 -0.000000 -0.393750
v 0.551070 0.500000 -0.481500
v 0.551070 -0.000000 -0.481500
v 0.495703 0.500000 -0.596672
v 0.495704 -0.000000 -0.596672
v 0.426037 0.500000 -0.678937
v 0.426037 -0.000000 -0.678937
v 0.342071 -0.000000 -0.728297
v 0.342070 0.500000 -0.728297
v 0.243805 -0.000000 -0.744750
v 0.243804 0.500000 -0.744750
v 0.167417 -0.000000 -0.735469
v 0.167416 0.500000 -0.735469
v 0.086261 -0.000000 -0.707625
v 0.086260 0.500000 -0.707625
v 0.000337 -0.000000 -0.661219
v 0.000336 0.500000 -0.661219
v -0.090355 -0.000000 -0.596250
v -0.090356 0.500000 -0.596250
v -0.112785 0.500000 -0.695250
v -0.112785 -0.000000 -0.695250
v -0.124000 0.500000 -0.879750
v -0.124000 -0.000000 -0.879750
v -0.112684 0.500000 -1.036970
v -0.112684 -0.000000 -1.036970
v -0.078737 0.500000 -1.148630
v -0.078736 -0.000000 -1.148630
v -0.053276 0.500000 -1.187370
v -0.053276 -0.000000 -1.187370
v -0.022157 -0.000000 -1.214720
v -0.022157 0.500000 -1.214720
v 0.014620 -0.000000 -1.230680
v 0.014620 0.500000 -1.230680
v 0.057055 -0.000000 -1.235250
v 0.057054 0.500000 -1.235250
v 0.127468 -0.000000 -1.219640
v 0.127468 0.500000 -1.219640
v 0.177764 -0.000000 -1.177310
v 0.177763 0.500000 -1.177310
v 0.207941 0.500000 -1.108270
v 0.207941 -0.000000 -1.108270
v 0.218000 0.500000 -1.012500
v 0.218000 -0.000000 -1.012500
v 0.211812 0.500000 -0.921937
v 0.211812 -0.000000 -0.921937
v 0.193250 0.500000 -0.825750
v 0.193250 -0.000000 -0.825750
v 0.261312 0.500000 -0.188438
v 0.261312 -0.000000 -0.188437
v 0.235015 0.500000 -0.160172
v 0.235016 -0.000000 -0.160172
v 0.197750 -0.000000 -0.139500
v 0.197750 0.500000 -0.139500
v 0.142062 -0.000000 -0.124312
v 0.142062 0.500000 -0.124313
v 0.083000 -0.000000 -0.123750
v 0.083000 0.500000 -0.123750
v 0.045453 -0.000000 -0.136266
v 0.045453 0.500000 -0.136266
v 0.013812 -0.000000 -0.164812
v 0.013812 0.500000 -0.164813
v -0.011922 0.500000 -0.209391
v -0.011922 -0.000000 -0.209391
v -0.031750 0.500000 -0.270000
v -0.031750 -0.000000 -0.270000
v -0.036250 0.500000 -0.301500
v -0.036250 -0.000000 -0.301500
v -0.019938 0.500000 -0.365625
v -0.019938 -0.000000 -0.365625
v 0.029000 0.500000 -0.423000
v 0.029000 -0.000000 -0.423000
v 0.088062 -0.000000 -0.461250
v 0.088062 0.500000 -0.461250
v 0.148250 -0.000000 -0.477000
v 0.148250 0.500000 -0.477000
v 0.205484 -0.000000 -0.466453
v 0.205484 0.500000 -0.466453
v 0.246687 -0.000000 -0.428062
v 0.246687 0.500000 -0.428062
v 0.271859 0.500000 -0.361828
v 0.271859 -0.000000 -0.361828
# UVs
# Normals
vn 0.999993 0.000000 0.003849
vn 0.999635 0.000000 0.027017
vn 0.999635 0.000000 0.027017
vn 0.999813 0.000000 -0.019332
vn -0.979875 -0.000001 -0.199610
vn -0.999509 0.000000 0.031328
vn -0.999406 -0.000001 -0.034462
vn -0.954452 -0.000002 -0.298364
vn 0.997244 0.000000 -0.074197
vn 0.994381 0.000000 -0.105860
vn 0.984806 0.000000 -0.173660
vn 0.977755 0.000000 -0.209749
vn 0.958282 0.000000 -0.285825
vn 0.945468 0.000000 -0.325714
vn 0.905989 0.000000 -0.423301
vn 0.877182 0.000001 -0.480158
vn 0.759773 0.000001 -0.650189
vn 0.759773 0.000001 -0.650189
vn 0.577196 0.000000 -0.816606
vn 0.488153 0.000000 -0.872758
vn 0.305997 0.000000 -0.952033
vn 0.213640 0.000000 -0.976912
vn 0.041477 0.000000 -0.999139
vn -0.037993 0.000000 -0.999278
vn -0.205530 0.000000 -0.978651
vn -0.293377 0.000000 -0.955997
vn -0.466114 0.000000 -0.884725
vn -0.550489 0.000000 -0.834843
vn -0.727348 0.000000 -0.686269
vn -0.727348 0.000000 -0.686269
vn -0.847296 0.000000 -0.531121
vn -0.878715 0.000000 -0.477347
vn -0.924425 0.000000 -0.381365
vn -0.940440 0.000000 -0.339959
vn -0.965956 0.000000 -0.258705
vn -0.975738 0.000000 -0.218943
vn -0.989779 0.000000 -0.142609
vn -0.994356 0.000000 -0.106094
vn -0.998421 0.000000 -0.056169
vn -0.999082 -0.000001 -0.042838
vn -0.999732 -0.000001 -0.023167
vn -0.999858 -0.000001 -0.016831
vn -0.999980 -0.000001 0.006321
vn -0.999732 0.000000 0.023140
vn -0.997375 0.000000 0.072408
vn -0.994491 0.000000 0.104825
vn -0.983777 0.000000 0.179397
vn -0.975173 0.000000 0.221445
vn -0.948334 0.000000 0.317273
vn -0.928759 0.000000 0.370685
vn -0.872845 0.000001 0.487997
vn -0.834524 0.000001 0.550972
vn -0.735023 0.000000 0.678042
vn -0.671903 0.000000 0.740639
vn -0.444649 0.000000 0.895705
vn -0.527010 0.000000 0.849859
vn -0.194781 0.000000 0.980847
vn -0.278267 0.000000 0.960504
vn 0.037154 0.000000 0.999310
vn -0.036967 0.000000 0.999317
vn 0.220439 0.000000 0.975401
vn 0.165726 0.000000 0.986172
vn 0.365713 0.000000 0.930728
vn 0.320327 0.000000 0.947307
vn 0.510961 0.000001 0.859604
vn 0.461216 0.000001 0.887288
vn 0.659893 0.000001 0.751359
vn 0.610535 0.000001 0.791990
vn 0.794498 0.000000 0.607267
vn 0.752018 0.000000 0.659143
vn 0.867262 0.000000 0.497851
vn 0.897771 0.000001 0.440463
vn 0.945090 0.000001 0.326810
vn 0.962622 0.000002 0.270849
vn 0.986295 0.000002 0.164992
vn 0.993332 0.000001 0.115292
vn 0.999771 0.000001 0.021416
vn 0.999742 0.000000 -0.022726
vn 0.993533 0.000000 -0.113540
vn 0.987085 0.000000 -0.160198
vn 0.958872 0.000000 -0.283839
vn 0.932973 0.000001 -0.359947
vn 0.861410 0.000001 -0.507910
vn 0.815029 0.000001 -0.579421
vn 0.644054 0.000001 -0.764980
vn 0.644053 0.000000 -0.764981
vn 0.398794 0.000000 -0.917041
vn 0.283203 0.000001 -0.959060
vn 0.070529 0.000000 -0.997510
vn -0.025596 -0.000000 -0.999672
vn -0.189506 -0.000000 -0.981880
vn -0.257810 -0.000001 -0.966196
vn -0.375882 -0.000001 -0.926667
vn -0.426261 -0.000001 -0.904600
vn -0.511831 -0.000001 -0.859086
vn -0.547613 -0.000001 -0.836731
vn 0.355253 -0.000000 -0.934770
vn 0.355255 0.000001 -0.934769
vn 0.985783 0.000001 -0.168022
vn 0.993430 0.000000 -0.114438
vn 0.999863 0.000000 -0.016552
vn 0.999617 0.000000 0.027689
vn 0.989340 0.000000 0.145624
vn 0.975711 0.000001 0.219061
vn 0.924800 0.000001 0.380453
vn 0.884070 0.000001 0.467354
vn 0.783426 0.000001 0.621485
vn 0.724450 0.000000 0.689328
vn 0.490729 0.000000 0.871312
vn 0.579032 0.000000 0.815305
vn 0.206169 0.000000 0.978516
vn 0.304168 0.000000 0.952618
vn -0.109888 -0.000000 0.993944
vn -0.000769 -0.000000 1.000000
vn -0.514594 -0.000000 0.857434
vn -0.368358 -0.000000 0.929684
vn -0.845178 -0.000001 0.534484
vn -0.752224 -0.000001 0.658908
vn -0.952345 -0.000001 0.305023
vn -0.978701 0.000000 0.205291
vn -0.998892 0.000000 0.047072
vn -0.999943 0.000000 -0.010662
vn -0.994065 0.000000 -0.108788
vn -0.988793 0.000000 -0.149293
vn -0.981884 0.000000 -0.189482
vn -0.981884 0.000000 -0.189482
vn -0.868532 -0.000001 -0.495633
vn -0.805239 -0.000001 -0.592950
vn -0.616245 -0.000001 -0.787555
vn -0.616243 -0.000001 -0.787556
vn -0.413747 -0.000000 -0.910392
vn -0.339279 -0.000001 -0.940686
vn -0.179897 -0.000001 -0.983685
vn -0.094744 -0.000001 -0.995502
vn 0.100282 -0.000001 -0.994959
vn 0.210202 0.000000 -0.977658
vn 0.442426 0.000000 -0.896805
vn 0.562563 -0.000001 -0.826754
vn 0.777476 -0.000001 -0.628913
vn 0.777477 -0.000001 -0.628911
vn 0.898468 -0.000000 -0.439039
vn 0.926730 0.000000 -0.375729
vn 0.966865 0.000000 -0.255288
vn 0.980082 0.000000 -0.198594
vn 0.999924 0.000000 -0.012314
vn 0.992867 0.000000 0.119227
vn 0.920958 0.000000 0.389662
vn 0.849882 0.000000 0.526973
vn 0.694889 0.000000 0.719117
vn 0.621793 0.000000 0.783181
vn 0.353951 0.000000 0.935264
vn 0.451863 0.000000 0.892087
vn -0.037223 0.000000 0.999307
vn 0.110711 0.000000 0.993853
vn -0.533830 0.000000 0.845592
vn -0.360864 0.000000 0.932618
vn -0.870543 0.000000 0.492093
vn -0.784189 0.000000 0.620522
vn -0.962521 0.000000 0.271207
vn -0.982862 0.000000 0.184341
# Material
mtllib 61.mtl
usemtl 61
# Faces
f 1//1 2//2 3//3 
f 1//1 3//3 4//4 
f 5//5 6//6 7//7 
f 5//5 7//7 8//8 
f 9//9 1//1 4//4 
f 9//9 4//4 10//10 
f 11//11 9//9 10//10 
f 11//11 10//10 12//12 
f 13//13 11//11 12//12 
f 13//13 12//12 14//14 
f 15//15 13//13 14//14 
f 15//15 14//14 16//16 
f 17//17 15//15 16//16 
f 17//17 16//16 18//18 
f 17//17 18//18 19//19 
f 17//17 19//19 20//20 
f 20//20 19//19 21//21 
f 20//20 21//21 22//22 
f 22//22 21//21 23//23 
f 22//22 23//23 24//24 
f 24//24 23//23 25//25 
f 24//24 25//25 26//26 
f 26//26 25//25 27//27 
f 26//26 27//27 28//28 
f 28//28 27//27 29//29 
f 28//28 29//29 30//30 
f 31//31 30//30 29//29 
f 31//31 29//29 32//32 
f 33//33 31//31 32//32 
f 33//33 32//32 34//34 
f 35//35 33//33 34//34 
f 35//35 34//34 36//36 
f 37//37 35//35 36//36 
f 37//37 36//36 38//38 
f 39//39 37//37 38//38 
f 39//39 38//38 40//40 
f 41//41 39//39 40//40 
f 41//41 40//40 42//42 
f 43//43 41//41 42//42 
f 43//43 42//42 44//44 
f 45//45 43//43 44//44 
f 45//45 44//44 46//46 
f 47//47 45//45 46//46 
f 47//47 46//46 48//48 
f 49//49 47//47 48//48 
f 49//49 48//48 50//50 
f 51//51 49//49 50//50 
f 51//51 50//50 52//52 
f 53//53 51//51 52//52 
f 53//53 52//52 54//54 
f 55//55 56//56 54//54 
f 54//54 56//56 53//53 
f 57//57 58//58 55//55 
f 55//55 58//58 56//56 
f 59//59 60//60 57//57 
f 57//57 60//60 58//58 
f 61//61 62//62 59//59 
f 59//59 62//62 60//60 
f 63//63 64//64 61//61 
f 61//61 64//64 62//62 
f 65//65 66//66 63//63 
f 63//63 66//66 64//64 
f 67//67 68//68 65//65 
f 65//65 68//68 66//66 
f 69//69 70//70 67//67 
f 67//67 70//70 68//68 
f 71//71 70//70 69//69 
f 71//71 69//69 72//72 
f 73//73 71//71 72//72 
f 73//73 72//72 74//74 
f 75//75 73//73 74//74 
f 75//75 74//74 76//76 
f 77//77 75//75 76//76 
f 77//77 76//76 78//78 
f 79//79 77//77 78//78 
f 79//79 78//78 80//80 
f 81//81 79//79 80//80 
f 81//81 80//80 82//82 
f 83//83 81//81 82//82 
f 83//83 82//82 84//84 
f 85//85 83//83 84//84 
f 85//85 84//84 86//86 
f 85//85 86//86 87//87 
f 85//85 87//87 88//88 
f 88//88 87//87 89//89 
f 88//88 89//89 90//90 
f 90//90 89//89 91//91 
f 90//90 91//91 92//92 
f 92//92 91//91 93//93 
f 92//92 93//93 94//94 
f 94//94 93//93 95//95 
f 94//94 95//95 96//96 
f 96//96 95//95 97//97 
f 96//96 97//97 98//98 
f 99//99 98//98 97//97 
f 99//99 97//97 100//100 
f 101//101 99//99 100//100 
f 101//101 100//100 102//102 
f 103//103 101//101 102//102 
f 103//103 102//102 104//104 
f 105//105 103//103 104//104 
f 105//105 104//104 106//106 
f 107//107 105//105 106//106 
f 107//107 106//106 108//108 
f 109//109 110//110 108//108 
f 108//108 110//110 107//107 
f 111//111 112//112 109//109 
f 109//109 112//112 110//110 
f 113//113 114//114 111//111 
f 111//111 114//114 112//112 
f 115//115 116//116 113//113 
f 113//113 116//116 114//114 
f 117//117 118//118 115//115 
f 115//115 118//118 116//116 
f 119//119 118//118 117//117 
f 119//119 117//117 120//120 
f 121//121 119//119 120//120 
f 121//121 120//120 122//122 
f 123//123 121//121 122//122 
f 123//123 122//122 124//124 
f 125//125 123//123 124//124 
f 125//125 124//124 126//126 
f 127//127 5//5 8//8 
f 127//127 8//8 128//128 
f 129//129 127//127 128//128 
f 129//129 128//128 130//130 
f 129//129 130//130 131//131 
f 129//129 131//131 132//132 
f 132//132 131//131 133//133 
f 132//132 133//133 134//134 
f 134//134 133//133 135//135 
f 134//134 135//135 136//136 
f 136//136 135//135 137//137 
f 136//136 137//137 138//138 
f 138//138 137//137 139//139 
f 138//138 139//139 140//140 
f 141//141 140//140 139//139 
f 141//141 139//139 142//142 
f 143//143 141//141 142//142 
f 143//143 142//142 144//144 
f 145//145 143//143 144//144 
f 145//145 144//144 146//146 
f 147//147 145//145 146//146 
f 147//147 146//146 148//148 
f 149//149 147//147 148//148 
f 149//149 148//148 150//150 
f 151//151 152//152 150//150 
f 150//150 152//152 149//149 
f 153//153 154//154 151//151 
f 151//151 154//154 152//152 
f 155//155 156//156 153//153 
f 153//153 156//156 154//154 
f 157//157 158//158 155//155 
f 155//155 158//158 156//156 
f 159//159 158//158 157//157 
f 159//159 157//157 160//160 
f 6//6 159//159 160//160 
f 6//6 160//160 7//7 
# eof
