# j.c. convert leaf file to obj
# Verts
v 0.101563 0.500000 -0.965812
v 0.278750 0.500000 -1.147500
v 0.278750 -0.000000 -1.147500
v 0.101562 -0.000000 -0.965812
v -0.052000 0.500000 -0.780750
v -0.052000 -0.000000 -0.780750
v -0.204859 0.500000 -0.559125
v -0.204859 -0.000000 -0.559125
v -0.321437 0.500000 -0.342000
v -0.321437 -0.000000 -0.342000
v -0.401734 0.500000 -0.129375
v -0.401734 -0.000000 -0.129375
v -0.445750 0.500000 0.078750
v -0.445750 0.000000 0.078750
v -0.035125 0.500000 -0.029813
v -0.058750 0.500000 0.184500
v -0.058750 0.000000 0.184500
v -0.035125 -0.000000 -0.029812
v 0.017750 0.500000 -0.240750
v 0.017750 -0.000000 -0.240750
v 0.113797 0.500000 -0.483047
v 0.113797 -0.000000 -0.483047
v 0.242188 0.500000 -0.710438
v 0.242187 -0.000000 -0.710437
v 0.402922 0.500000 -0.922922
v 0.402922 -0.000000 -0.922922
v 0.596000 0.500000 -1.120500
v 0.596000 -0.000000 -1.120500
# UVs
# Normals
vn -0.734324 0.000001 -0.678800
vn -0.715919 0.000000 -0.698183
vn -0.715918 0.000001 -0.698184
vn -0.752217 0.000001 -0.658915
vn -0.788128 0.000001 -0.615512
vn -0.806020 0.000000 -0.591889
vn -0.843627 0.000000 -0.536929
vn -0.862937 0.000000 -0.505311
vn -0.900931 0.000000 -0.433962
vn -0.919124 0.000000 -0.393968
vn -0.952260 0.000000 -0.305289
vn -0.966579 0.000000 -0.256369
vn -0.978360 0.000000 -0.206912
vn -0.978360 0.000000 -0.206912
vn 0.988006 0.000000 0.154413
vn 0.993979 0.000000 0.109572
vn 0.993979 0.000000 0.109572
vn 0.979994 0.000000 0.199028
vn 0.958384 0.000000 0.285482
vn 0.944903 0.000000 0.327350
vn 0.911901 0.000000 0.410410
vn 0.892247 -0.000000 0.451549
vn 0.848045 -0.000000 0.529925
vn 0.823576 -0.000000 0.567206
vn 0.771449 -0.000000 0.636291
vn 0.743961 0.000000 0.668223
vn 0.715204 0.000000 0.698915
vn 0.715204 0.000000 0.698915
# Material
mtllib 71.mtl
usemtl 71
# Faces
f 1//1 2//2 3//3 
f 1//1 3//3 4//4 
f 5//5 1//1 4//4 
f 5//5 4//4 6//6 
f 7//7 5//5 6//6 
f 7//7 6//6 8//8 
f 9//9 7//7 8//8 
f 9//9 8//8 10//10 
f 11//11 9//9 10//10 
f 11//11 10//10 12//12 
f 13//13 11//11 12//12 
f 13//13 12//12 14//14 
f 15//15 16//16 17//17 
f 15//15 17//17 18//18 
f 19//19 15//15 18//18 
f 19//19 18//18 20//20 
f 21//21 19//19 20//20 
f 21//21 20//20 22//22 
f 23//23 21//21 22//22 
f 23//23 22//22 24//24 
f 25//25 23//23 24//24 
f 25//25 24//24 26//26 
f 27//27 25//25 26//26 
f 27//27 26//26 28//28 
# eof
