# j.c. convert leaf file to obj
# Verts
v 1.339480 0.500000 -0.806182
v 1.359730 0.500000 0.186068
v 1.359730 0.000000 0.186068
v 1.339480 0.000000 -0.806182
v 1.331600 0.500000 -0.919244
v 1.331600 0.000000 -0.919244
v 1.312480 0.500000 -1.024430
v 1.312480 0.000000 -1.024430
v 1.282100 0.500000 -1.121740
v 1.282100 0.000000 -1.121740
v 1.240480 0.500000 -1.211180
v 1.240480 0.000000 -1.211180
v 1.162850 0.500000 -1.319460
v 1.162850 0.000000 -1.319460
v 1.067230 0.000000 -1.396810
v 1.067230 0.500000 -1.396810
v 0.953604 0.000000 -1.443210
v 0.953604 0.500000 -1.443210
v 0.821979 0.000000 -1.458680
v 0.821979 0.500000 -1.458680
v 0.700760 0.000000 -1.444620
v 0.700760 0.500000 -1.444620
v 0.595854 0.000000 -1.402430
v 0.595854 0.500000 -1.402430
v 0.507260 0.000000 -1.332120
v 0.507260 0.500000 -1.332120
v 0.434979 0.500000 -1.233680
v 0.434979 0.000000 -1.233680
v 0.393354 0.500000 -1.150150
v 0.393354 0.000000 -1.150150
v 0.360729 0.500000 -1.054810
v 0.360729 0.000000 -1.054810
v 0.337104 0.500000 -0.947650
v 0.337104 0.000000 -0.947650
v 0.322479 0.500000 -0.828682
v 0.322479 0.000000 -0.828682
v 0.678682 0.500000 -0.921775
v 0.668979 0.500000 -0.799432
v 0.668979 0.000000 -0.799432
v 0.678682 0.000000 -0.921775
v 0.710041 0.500000 -1.009810
v 0.710041 0.000000 -1.009810
v 0.763057 0.500000 -1.063520
v 0.763057 0.000000 -1.063520
v 0.837729 0.000000 -1.082930
v 0.837729 0.500000 -1.082930
v 0.888776 0.000000 -1.075480
v 0.888776 0.500000 -1.075480
v 0.931666 0.000000 -1.050870
v 0.931666 0.500000 -1.050870
v 0.966401 0.500000 -1.009100
v 0.966401 0.000000 -1.009100
v 0.992979 0.500000 -0.950182
v 0.992979 0.000000 -0.950182
v 1.015480 0.500000 -0.836557
v 1.015480 0.000000 -0.836557
v 1.019980 0.500000 -0.693682
v 1.019980 0.000000 -0.693682
v 0.850666 0.000000 -0.720682
v 0.850666 0.500000 -0.720682
v 0.689229 0.000000 -0.729682
v 0.689229 0.500000 -0.729682
v 0.575885 0.000000 -0.724373
v 0.575885 0.500000 -0.724373
v 0.476604 0.000000 -0.708447
v 0.476604 0.500000 -0.708447
v 0.391385 0.000000 -0.681904
v 0.391385 0.500000 -0.681904
v 0.320229 0.000000 -0.644744
v 0.320229 0.500000 -0.644744
v 0.263135 0.000000 -0.596967
v 0.263135 0.500000 -0.596967
v 0.220104 0.500000 -0.538572
v 0.220104 0.000000 -0.538572
v 0.191135 0.500000 -0.469560
v 0.191135 0.000000 -0.469560
v 0.176229 0.500000 -0.389932
v 0.176229 0.000000 -0.389932
v 0.183963 0.500000 -0.277432
v 0.183963 0.000000 -0.277432
v 0.202069 0.500000 -0.227932
v 0.202069 0.000000 -0.227932
v 0.229666 0.500000 -0.182932
v 0.229666 0.000000 -0.182932
v 0.313338 0.000000 -0.106432
v 0.313338 0.500000 -0.106432
v 0.434979 0.000000 -0.047932
v 0.434979 0.500000 -0.047932
v 0.538901 0.000000 -0.018822
v 0.538901 0.500000 -0.018822
v 0.657166 0.000000 0.001006
v 0.657166 0.500000 0.001006
v 0.936729 0.000000 0.012818
v 0.936729 0.500000 0.012818
v 0.977229 0.500000 -0.259432
v 0.977229 0.000000 -0.259432
v 0.851229 0.000000 -0.239182
v 0.851229 0.500000 -0.239182
v 0.734229 0.000000 -0.232432
v 0.734229 0.500000 -0.232432
v 0.623416 0.000000 -0.241572
v 0.623416 0.500000 -0.241572
v 0.545229 0.000000 -0.268994
v 0.545229 0.500000 -0.268994
v 0.499667 0.500000 -0.314697
v 0.499667 0.000000 -0.314697
v 0.486729 0.500000 -0.378682
v 0.486729 0.000000 -0.378682
v 0.502620 0.500000 -0.427900
v 0.502620 0.000000 -0.427900
v 0.545791 0.000000 -0.463057
v 0.545791 0.500000 -0.463057
v 0.616245 0.000000 -0.484150
v 0.616245 0.500000 -0.484150
v 0.713979 0.000000 -0.491182
v 0.713979 0.500000 -0.491182
v 0.845041 0.000000 -0.483307
v 0.845041 0.500000 -0.483307
v 0.990729 0.000000 -0.459682
v 0.990729 0.500000 -0.459682
# UVs
# Normals
vn 0.999323 0.000000 -0.036789
vn 0.999792 0.000000 -0.020404
vn 0.999792 0.000000 -0.020404
vn 0.998586 0.000000 -0.053168
vn 0.994354 0.000000 -0.106110
vn 0.989781 0.000000 -0.142597
vn 0.975740 0.000000 -0.218932
vn 0.965952 0.000000 -0.258723
vn 0.940435 0.000000 -0.339975
vn 0.924430 0.000000 -0.381351
vn 0.878725 0.000000 -0.477329
vn 0.847294 0.000000 -0.531125
vn 0.727368 0.000000 -0.686248
vn 0.727368 0.000000 -0.686248
vn 0.550517 0.000000 -0.834824
vn 0.466093 0.000000 -0.884736
vn 0.293326 0.000000 -0.956012
vn 0.205505 0.000000 -0.978656
vn 0.039651 0.000000 -0.999214
vn -0.038130 0.000000 -0.999273
vn -0.202788 0.000000 -0.979223
vn -0.289442 0.000000 -0.957196
vn -0.460210 0.000000 -0.887810
vn -0.543821 0.000000 -0.839202
vn -0.720235 0.000000 -0.693730
vn -0.720235 0.000000 -0.693730
vn -0.838430 0.000000 -0.545009
vn -0.868187 0.000000 -0.496238
vn -0.913848 0.000000 -0.406056
vn -0.930918 0.000000 -0.365227
vn -0.957626 0.000000 -0.288015
vn -0.967777 0.000000 -0.251807
vn -0.982854 0.000000 -0.184385
vn -0.988186 0.000000 -0.153260
vn -0.992528 0.000000 -0.122014
vn -0.992528 0.000000 -0.122014
vn 0.986154 0.000000 0.165833
vn 0.996870 0.000000 0.079062
vn 0.996870 0.000000 0.079062
vn 0.967729 0.000000 0.251992
vn 0.883873 0.000000 0.467728
vn 0.805443 0.000000 0.592674
vn 0.499572 0.000000 0.866272
vn 0.499572 0.000000 0.866272
vn 0.121726 0.000000 0.992564
vn -0.012640 0.000000 0.999920
vn -0.266338 0.000000 0.963880
vn -0.385967 0.000000 0.922512
vn -0.643461 0.000000 0.765479
vn -0.643461 0.000000 0.765479
vn -0.823088 0.000000 0.567913
vn -0.871029 0.000000 0.491231
vn -0.940115 0.000000 0.340856
vn -0.963385 0.000000 0.268121
vn -0.990092 0.000000 0.140417
vn -0.996296 0.000000 0.085996
vn -0.660942 0.000000 -0.750437
vn -0.660942 0.000000 -0.750437
vn 0.123683 0.000000 -0.992322
vn 0.089706 0.000000 -0.995968
vn 0.021537 0.000000 -0.999768
vn -0.012653 0.000000 -0.999920
vn -0.084106 0.000000 -0.996457
vn -0.121358 0.000000 -0.992609
vn -0.205183 0.000000 -0.978724
vn -0.251618 0.000000 -0.967827
vn -0.353818 0.000000 -0.935314
vn -0.409193 0.000000 -0.912448
vn -0.525233 0.000000 -0.850958
vn -0.585158 0.000000 -0.810919
vn -0.728590 0.000000 -0.684950
vn -0.728590 0.000000 -0.684950
vn -0.849364 0.000000 -0.527808
vn -0.888618 0.000000 -0.458649
vn -0.947088 0.000000 -0.320973
vn -0.967480 0.000000 -0.252949
vn -0.994935 0.000000 -0.100522
vn -0.999876 0.000000 -0.015722
vn -0.986847 0.000000 0.161655
vn -0.967174 0.000000 0.254115
vn -0.914289 0.000000 0.405063
vn -0.885266 0.000000 0.465085
vn -0.771162 0.000000 0.636638
vn -0.771162 0.000000 0.636638
vn -0.600000 0.000000 0.800000
vn -0.518777 0.000000 0.854910
vn -0.380144 0.000000 0.924928
vn -0.325399 0.000000 0.945577
vn -0.235237 0.000000 0.971938
vn -0.200399 -0.000000 0.979714
vn -0.124517 -0.000000 0.992218
vn -0.083401 -0.000000 0.996516
vn -0.042214 -0.000000 0.999109
vn -0.042214 0.000000 0.999109
vn -0.158678 0.000000 -0.987330
vn -0.158678 0.000000 -0.987330
vn -0.125128 0.000000 -0.992141
vn -0.091395 0.000000 -0.995815
vn -0.011021 0.000000 -0.999939
vn 0.035680 0.000000 -0.999363
vn 0.166321 0.000000 -0.986072
vn 0.249842 0.000000 -0.968287
vn 0.532990 0.000000 -0.846121
vn 0.532990 0.000000 -0.846121
vn 0.830045 0.000000 -0.557697
vn 0.924239 0.000000 -0.381814
vn 0.999532 0.000000 -0.030595
vn 0.989737 0.000000 0.142899
vn 0.825432 0.000000 0.564502
vn 0.825432 0.000000 0.564502
vn 0.525538 0.000000 0.850770
vn 0.408661 0.000000 0.912686
vn 0.216279 0.000000 0.976332
vn 0.144214 0.000000 0.989547
vn 0.027905 0.000000 0.999611
vn -0.016095 0.000000 0.999870
vn -0.093448 0.000000 0.995624
vn -0.126849 0.000000 0.991922
vn -0.160071 0.000000 0.987106
vn -0.160071 0.000000 0.987106
# Material
mtllib a1.mtl
usemtl a1
# Faces
f 1//1 2//2 3//3 
f 1//1 3//3 4//4 
f 5//5 1//1 4//4 
f 5//5 4//4 6//6 
f 7//7 5//5 6//6 
f 7//7 6//6 8//8 
f 9//9 7//7 8//8 
f 9//9 8//8 10//10 
f 11//11 9//9 10//10 
f 11//11 10//10 12//12 
f 13//13 11//11 12//12 
f 13//13 12//12 14//14 
f 13//13 14//14 15//15 
f 13//13 15//15 16//16 
f 16//16 15//15 17//17 
f 16//16 17//17 18//18 
f 18//18 17//17 19//19 
f 18//18 19//19 20//20 
f 20//20 19//19 21//21 
f 20//20 21//21 22//22 
f 22//22 21//21 23//23 
f 22//22 23//23 24//24 
f 24//24 23//23 25//25 
f 24//24 25//25 26//26 
f 27//27 26//26 25//25 
f 27//27 25//25 28//28 
f 29//29 27//27 28//28 
f 29//29 28//28 30//30 
f 31//31 29//29 30//30 
f 31//31 30//30 32//32 
f 33//33 31//31 32//32 
f 33//33 32//32 34//34 
f 35//35 33//33 34//34 
f 35//35 34//34 36//36 
f 37//37 38//38 39//39 
f 37//37 39//39 40//40 
f 41//41 37//37 40//40 
f 41//41 40//40 42//42 
f 43//43 41//41 42//42 
f 43//43 42//42 44//44 
f 45//45 46//46 43//43 
f 45//45 43//43 44//44 
f 47//47 48//48 46//46 
f 47//47 46//46 45//45 
f 49//49 50//50 48//48 
f 49//49 48//48 47//47 
f 51//51 50//50 49//49 
f 51//51 49//49 52//52 
f 53//53 51//51 52//52 
f 53//53 52//52 54//54 
f 55//55 53//53 54//54 
f 55//55 54//54 56//56 
f 57//57 55//55 56//56 
f 57//57 56//56 58//58 
f 57//57 58//58 59//59 
f 57//57 59//59 60//60 
f 60//60 59//59 61//61 
f 60//60 61//61 62//62 
f 62//62 61//61 63//63 
f 62//62 63//63 64//64 
f 64//64 63//63 65//65 
f 64//64 65//65 66//66 
f 66//66 65//65 67//67 
f 66//66 67//67 68//68 
f 68//68 67//67 69//69 
f 68//68 69//69 70//70 
f 70//70 69//69 71//71 
f 70//70 71//71 72//72 
f 73//73 72//72 71//71 
f 73//73 71//71 74//74 
f 75//75 73//73 74//74 
f 75//75 74//74 76//76 
f 77//77 75//75 76//76 
f 77//77 76//76 78//78 
f 79//79 77//77 78//78 
f 79//79 78//78 80//80 
f 81//81 79//79 80//80 
f 81//81 80//80 82//82 
f 83//83 81//81 82//82 
f 83//83 82//82 84//84 
f 85//85 86//86 83//83 
f 85//85 83//83 84//84 
f 87//87 88//88 86//86 
f 87//87 86//86 85//85 
f 89//89 90//90 88//88 
f 89//89 88//88 87//87 
f 91//91 92//92 90//90 
f 91//91 90//90 89//89 
f 93//93 94//94 92//92 
f 93//93 92//92 91//91 
f 95//95 96//96 97//97 
f 95//95 97//97 98//98 
f 98//98 97//97 99//99 
f 98//98 99//99 100//100 
f 100//100 99//99 101//101 
f 100//100 101//101 102//102 
f 102//102 101//101 103//103 
f 102//102 103//103 104//104 
f 105//105 104//104 103//103 
f 105//105 103//103 106//106 
f 107//107 105//105 106//106 
f 107//107 106//106 108//108 
f 109//109 107//107 108//108 
f 109//109 108//108 110//110 
f 111//111 112//112 109//109 
f 111//111 109//109 110//110 
f 113//113 114//114 112//112 
f 113//113 112//112 111//111 
f 115//115 116//116 114//114 
f 115//115 114//114 113//113 
f 117//117 118//118 116//116 
f 117//117 116//116 115//115 
f 119//119 120//120 118//118 
f 119//119 118//118 117//117 
# eof
