# j.c. convert leaf file to obj
# Verts
v 0.520520 0.734113 0.500000
v -0.287495 0.823893 0.500000
v -0.377275 0.015877 0.500000
v 0.430741 -0.073903 0.500000
v -0.781282 0.060767 0.500000
v -0.063046 -0.837028 0.500000
v 0.834749 -0.118792 0.500000
v -0.063046 -0.837028 0.000000
v 0.834749 -0.118792 -0.000000
v 0.430741 -0.073903 -0.000000
v 0.520520 0.734113 -0.000000
v -0.287495 0.823893 0.000000
v -0.377275 0.015877 0.000000
v -0.781283 0.060767 0.000000
# UVs
# Normals
vn 0.000000 0.000000 1.000000
vn 0.000000 0.000000 -1.000000
vn 0.000000 0.000000 1.000000
vn 0.624695 -0.780869 0.000000
vn 0.110431 0.993884 0.000000
vn 0.993884 -0.110431 0.000000
vn 0.110432 0.993884 0.000000
vn 0.110432 0.993884 0.000000
vn -0.993884 0.110432 0.000000
vn 0.110434 0.993883 0.000000
vn 0.110432 0.993884 -0.000002
vn -0.780869 -0.624695 0.000002
vn -0.780868 -0.624696 -0.000000
vn -0.000000 -0.000000 -1.000000
vn -0.000000 -0.000000 -1.000000
vn -0.000000 -0.000001 1.000000
vn -0.000000 -0.000000 -1.000000
vn -0.000000 -0.000000 -1.000000
# Material
mtllib arrow.mtl
usemtl arrow
# Faces
f 1//1 2//1 3//1 
f 1//1 3//1 4//1 
f 3//2 5//2 4//2 
f 4//3 5//3 6//3 
f 7//1 4//1 6//1 
f 7//4 6//4 8//4 
f 7//4 8//4 9//4 
f 7//5 9//5 10//5 
f 7//5 10//5 4//5 
f 1//6 4//6 10//6 
f 1//6 10//6 11//6 
f 1//7 11//7 2//7 
f 2//8 11//8 12//8 
f 3//9 2//9 12//9 
f 3//9 12//9 13//9 
f 3//10 13//10 5//10 
f 5//11 13//11 14//11 
f 6//12 5//12 14//12 
f 6//13 14//13 8//13 
f 12//14 11//14 10//14 
f 12//15 10//15 13//15 
f 10//16 9//16 13//16 
f 13//17 9//17 8//17 
f 14//18 13//18 8//18 
# eof
