# j.c. convert leaf file to obj
# Verts
v 12.107300 10.500000 0.179381
v 12.129000 10.500000 0.357036
v 12.129000 9.500000 0.357036
v 12.107300 9.500000 0.179381
v 12.100000 10.500000 -0.000001
v 12.100000 9.500000 -0.000001
v 12.107300 10.500000 -0.179381
v 12.107300 9.500000 -0.179381
v 12.165100 10.500000 0.531264
v 12.165100 9.500000 0.531264
v 12.129000 10.500000 -0.357036
v 12.129000 9.500000 -0.357036
v 12.215100 10.500000 0.700353
v 12.215100 9.500000 0.700353
v 12.165100 10.500000 -0.531264
v 12.165100 9.500000 -0.531264
v 12.278600 10.500000 0.862722
v 12.278600 9.500000 0.862722
v 12.215100 10.500000 -0.700353
v 12.215100 9.500000 -0.700353
v 12.354900 10.500000 1.016760
v 12.354900 9.500000 1.016760
v 12.278600 10.500000 -0.862722
v 12.278600 9.500000 -0.862722
v 12.443300 10.500000 1.161020
v 12.443300 9.500000 1.161020
v 12.354900 10.500000 -1.016760
v 12.354900 9.500000 -1.016760
v 12.543000 10.500000 1.294080
v 12.543000 9.500000 1.294080
v 12.443300 9.500000 -1.161020
v 12.443300 10.500000 -1.161020
v 12.653000 10.500000 1.414700
v 12.653000 9.500000 1.414700
v 12.543000 9.500000 -1.294080
v 12.543000 10.500000 -1.294080
v 12.772200 10.500000 1.521700
v 12.772200 9.500000 1.521700
v 12.653000 9.500000 -1.414700
v 12.653000 10.500000 -1.414700
v 12.899400 10.500000 1.614020
v 12.899400 9.500000 1.614020
v 12.772200 9.500000 -1.521700
v 12.772200 10.500000 -1.521700
v 13.033800 10.500000 1.690820
v 13.033800 9.500000 1.690820
v 12.899400 9.500000 -1.614020
v 12.899400 10.500000 -1.614020
v 13.173400 10.500000 1.751330
v 13.173400 9.500000 1.751330
v 13.033800 9.500000 -1.690820
v 13.033800 10.500000 -1.690820
v 13.317400 10.500000 1.794960
v 13.317400 9.500000 1.794960
v 13.173400 9.500000 -1.751330
v 13.173400 10.500000 -1.751330
v 13.464300 10.500000 1.821320
v 13.464300 9.500000 1.821320
v 13.317400 9.500000 -1.794960
v 13.317400 10.500000 -1.794960
v 13.612500 10.500000 1.830130
v 13.612500 9.500000 1.830130
v 13.464300 9.500000 -1.821320
v 13.464300 10.500000 -1.821320
v 13.612500 9.500000 -1.830130
v 13.612500 10.500000 -1.830130
v -13.612500 10.500000 1.830130
v -13.612500 9.500000 1.830130
v -13.760700 9.500000 1.821320
v -13.760700 10.500000 1.821320
v -13.464300 10.500000 1.821320
v -13.464300 9.500000 1.821320
v -13.612500 9.500000 -1.830130
v -13.612500 10.500000 -1.830130
v -13.760700 10.500000 -1.821320
v -13.760700 9.500000 -1.821320
v -13.317400 10.500000 1.794960
v -13.317400 9.500000 1.794960
v -13.464300 9.500000 -1.821320
v -13.464300 10.500000 -1.821320
v -13.173400 10.500000 1.751330
v -13.173400 9.500000 1.751330
v -13.317400 9.500000 -1.794960
v -13.317400 10.500000 -1.794960
v -13.033800 10.500000 1.690820
v -13.033800 9.500000 1.690820
v -13.173400 9.500000 -1.751330
v -13.173400 10.500000 -1.751330
v -12.899400 10.500000 1.614020
v -12.899400 9.500000 1.614020
v -13.033800 9.500000 -1.690820
v -13.033800 10.500000 -1.690820
v -12.772200 10.500000 1.521700
v -12.772200 9.500000 1.521700
v -12.899400 9.500000 -1.614020
v -12.899400 10.500000 -1.614020
v -12.653000 10.500000 1.414700
v -12.653000 9.500000 1.414700
v -12.772200 9.500000 -1.521700
v -12.772200 10.500000 -1.521700
v -12.543000 10.500000 1.294080
v -12.543000 9.500000 1.294080
v -12.653000 9.500000 -1.414700
v -12.653000 10.500000 -1.414700
v -12.443300 10.500000 1.161020
v -12.443300 9.500000 1.161020
v -12.543000 9.500000 -1.294080
v -12.543000 10.500000 -1.294080
v -12.354900 10.500000 1.016760
v -12.354900 9.500000 1.016760
v -12.443300 9.500000 -1.161020
v -12.443300 10.500000 -1.161020
v -12.278600 10.500000 0.862722
v -12.278600 9.500000 0.862722
v -12.354900 9.500000 -1.016760
v -12.354900 10.500000 -1.016760
v -12.215100 10.500000 0.700353
v -12.215100 9.500000 0.700353
v -12.278600 10.500000 -0.862722
v -12.278600 9.500000 -0.862722
v -12.165100 10.500000 0.531264
v -12.165100 9.500000 0.531264
v -12.215100 10.500000 -0.700353
v -12.215100 9.500000 -0.700353
v -12.129000 10.500000 0.357036
v -12.129000 9.500000 0.357036
v -12.165100 10.500000 -0.531264
v -12.165100 9.500000 -0.531264
v -12.107300 10.500000 0.179381
v -12.107300 9.500000 0.179381
v -12.129000 10.500000 -0.357036
v -12.129000 9.500000 -0.357036
v -12.100000 10.500000 -0.000001
v -12.107300 10.500000 -0.179381
v -12.107300 9.500000 -0.179381
v -12.100000 9.500000 -0.000001
v -15.125000 10.500000 24.432800
v -15.125000 10.500000 1.830130
v -15.125000 9.500000 1.830130
v -15.125000 9.500000 24.432800
v 15.122100 10.500000 -24.754999
v 15.124800 10.500000 -1.830130
v 15.124800 9.500000 -1.830130
v 15.122100 9.500000 -24.754999
v -15.125000 10.500000 -1.830130
v -15.125000 9.500000 -1.830130
v 13.760700 10.500000 1.821320
v 13.760700 9.500000 1.821320
v 15.125000 10.500000 1.830130
v 15.125000 9.500000 1.830130
v 13.760700 10.500000 -1.821320
v 13.760700 9.500000 -1.821320
v 15.125000 10.500000 24.508900
v 15.125000 9.500000 24.508900
v 11.023900 10.500000 26.473000
v 10.985100 10.500000 26.949100
v 10.985100 9.500000 26.949100
v 11.023900 9.500000 26.473000
v 10.985100 10.500000 29.282000
v 10.985100 9.500000 29.282000
v 13.001800 10.500000 24.508900
v 13.001800 9.500000 24.508900
v 11.138600 10.500000 26.015200
v 11.138600 9.500000 26.015200
v 11.325000 10.500000 25.593300
v 11.325000 9.500000 25.593300
v 11.575800 9.500000 25.223700
v 11.575800 10.500000 25.223700
v 11.881400 9.500000 24.920200
v 11.881400 10.500000 24.920200
v 12.230100 9.500000 24.694599
v 12.230100 10.500000 24.694599
v 12.608300 9.500000 24.555700
v 12.608300 10.500000 24.555700
v -11.043300 10.500000 29.282000
v -11.043300 9.500000 29.282000
v -12.666500 9.500000 24.479601
v -12.666500 10.500000 24.479601
v -13.060000 10.500000 24.432800
v -13.060000 9.500000 24.432800
v -11.043300 10.500000 26.872801
v -11.043300 9.500000 26.872801
v -12.288200 9.500000 24.618401
v -12.288200 10.500000 24.618401
v -11.939600 9.500000 24.844000
v -11.939600 10.500000 24.844000
v -11.634000 9.500000 25.147400
v -11.634000 10.500000 25.147400
v -11.383100 9.500000 25.517200
v -11.383100 10.500000 25.517200
v -11.196800 10.500000 25.938999
v -11.196800 9.500000 25.938999
v -11.082000 10.500000 26.396900
v -11.082000 9.500000 26.396900
v 11.334500 10.500000 -29.282000
v 11.334500 9.500000 -29.282000
v -11.225700 10.500000 -29.282000
v -11.225700 9.500000 -29.282000
v 11.334500 10.500000 -27.195200
v 11.373300 10.500000 -26.719101
v 11.373300 9.500000 -26.719101
v 11.334500 9.500000 -27.195200
v 13.351100 9.500000 -24.754999
v 13.351100 10.500000 -24.754999
v 11.488000 10.500000 -26.261400
v 11.488000 9.500000 -26.261400
v 11.674400 10.500000 -25.839399
v 11.674400 9.500000 -25.839399
v 11.925200 10.500000 -25.469801
v 11.925200 9.500000 -25.469801
v 12.230800 10.500000 -25.166300
v 12.230800 9.500000 -25.166300
v 12.579400 10.500000 -24.940800
v 12.579400 9.500000 -24.940800
v 12.957800 10.500000 -24.801901
v 12.957800 9.500000 -24.801901
v -11.225700 10.500000 -27.106701
v -11.264400 10.500000 -26.630600
v -11.379200 10.500000 -26.172800
v -11.565500 10.500000 -25.750999
v -11.816300 10.500000 -25.381201
v -12.121900 10.500000 -25.077700
v -12.470600 10.500000 -24.852200
v -12.848900 10.500000 -24.713400
v -13.242400 10.500000 -24.666599
v -15.125000 10.500000 -24.666599
v -15.125000 9.500000 -24.666599
v -12.848900 9.500000 -24.713400
v -13.242400 9.500000 -24.666599
v -11.225700 9.500000 -27.106701
v -12.470600 9.500000 -24.852200
v -12.121900 9.500000 -25.077700
v -11.816300 9.500000 -25.381201
v -11.565500 9.500000 -25.750999
v -11.379200 9.500000 -26.172800
v -11.264400 9.500000 -26.630600
# UVs
# Normals
vn 0.992623 0.000000 -0.121245
vn 0.999173 0.000000 -0.040658
vn 0.999173 -0.000000 -0.040659
vn 0.999173 0.000000 0.040659
vn 0.999173 0.000000 0.040659
vn 0.979201 0.000000 -0.202892
vn 0.992623 0.000000 0.121245
vn 0.958953 0.000000 -0.283566
vn 0.979201 0.000000 0.202892
vn 0.931313 0.000000 -0.364219
vn 0.958953 0.000000 0.283566
vn 0.896093 0.000000 -0.443867
vn 0.931313 0.000000 0.364219
vn 0.852647 0.000000 -0.522487
vn 0.896093 0.000000 0.443867
vn 0.800274 0.000000 -0.599634
vn 0.852647 -0.000000 0.522487
vn 0.738887 0.000000 -0.673829
vn 0.800274 -0.000000 0.599634
vn 0.667999 0.000000 -0.744162
vn 0.738887 -0.000000 0.673829
vn 0.587384 0.000000 -0.809308
vn 0.667999 -0.000000 0.744162
vn 0.496138 0.000000 -0.868244
vn 0.587384 -0.000000 0.809308
vn 0.397700 0.000000 -0.917515
vn 0.496138 -0.000000 0.868244
vn 0.289969 0.000000 -0.957036
vn 0.397700 -0.000000 0.917515
vn 0.176621 0.000000 -0.984279
vn 0.289969 -0.000000 0.957036
vn 0.059341 0.000000 -0.998238
vn 0.176621 -0.000000 0.984279
vn 0.059341 -0.000000 0.998238
vn -0.059341 -0.000000 -0.998238
vn -0.176621 -0.000000 -0.984279
vn -0.059341 0.000000 0.998238
vn -0.289969 -0.000000 -0.957036
vn -0.176621 0.000000 0.984279
vn -0.397700 -0.000000 -0.917515
vn -0.289969 0.000000 0.957036
vn -0.496138 -0.000000 -0.868244
vn -0.397700 0.000000 0.917515
vn -0.587384 -0.000000 -0.809308
vn -0.496138 0.000000 0.868244
vn -0.667999 -0.000000 -0.744162
vn -0.587384 0.000000 0.809308
vn -0.738887 -0.000000 -0.673829
vn -0.667999 0.000000 0.744162
vn -0.800274 -0.000000 -0.599634
vn -0.738887 0.000000 0.673829
vn -0.852647 -0.000000 -0.522487
vn -0.800274 0.000000 0.599634
vn -0.896093 0.000000 -0.443867
vn -0.852647 0.000000 0.522487
vn -0.931313 0.000000 -0.364219
vn -0.896093 0.000000 0.443867
vn -0.958953 0.000000 -0.283566
vn -0.931313 0.000000 0.364219
vn -0.979201 0.000000 -0.202892
vn -0.958953 0.000000 0.283566
vn -0.992623 0.000000 -0.121245
vn -0.979201 0.000000 0.202892
vn -0.999173 0.000000 0.040659
vn -0.999173 0.000000 0.040659
vn -0.999173 -0.000000 -0.040658
vn -0.999173 -0.000000 -0.040659
vn -0.992623 0.000000 0.121245
vn -1.000000 0.000000 -0.000000
vn 1.000000 0.000000 -0.000118
vn -0.006457 0.000000 0.999979
vn -0.006457 -0.000000 -0.999979
vn 0.006457 0.000000 -0.999979
vn 0.006458 -0.000000 0.999979
vn 1.000000 0.000000 -0.000000
vn 0.996696 0.000000 0.081227
vn 0.000000 -0.000000 1.000000
vn 0.970018 0.000000 0.243035
vn 0.914704 0.000000 0.404125
vn 0.827476 -0.000000 0.561501
vn 0.704664 -0.000000 0.709541
vn 0.543204 -0.000000 0.839601
vn 0.344748 -0.000000 0.938695
vn 0.118102 -0.000000 0.993001
vn -0.118102 0.000000 0.993002
vn -0.344451 0.000000 0.938804
vn -0.543310 0.000000 0.839532
vn -0.704548 0.000000 0.709657
vn -0.827513 0.000000 0.561447
vn -0.914748 0.000000 0.404024
vn -0.969980 0.000000 0.243184
vn -0.996710 0.000000 0.081052
vn -0.000000 -0.000000 -1.000000
vn 0.996696 0.000000 -0.081225
vn 0.970005 0.000000 -0.243084
vn 0.914739 0.000000 -0.404046
vn 0.827475 0.000000 -0.561503
vn 0.704667 0.000000 -0.709538
vn 0.543141 0.000000 -0.839641
vn 0.344588 0.000000 -0.938754
vn 0.118413 0.000000 -0.992964
vn 0.000000 1.000000 0.000000
vn 0.000000 1.000000 0.000000
vn 0.000000 1.000000 0.000000
vn -0.118102 -0.000000 -0.993002
vn 0.000000 -0.000000 -1.000000
vn -0.344451 -0.000000 -0.938804
vn -0.543031 -0.000000 -0.839713
vn -0.704667 -0.000000 -0.709538
vn -0.827616 -0.000000 -0.561295
vn -0.914748 0.000000 -0.404025
vn -0.969968 0.000000 -0.243234
vn -0.996713 0.000000 -0.081016
# Faces
f 1//1 2//1 3//1 
f 1//1 3//1 4//1 
f 5//2 1//2 4//2 
f 5//3 4//3 6//3 
f 7//4 5//4 6//4 
f 7//5 6//5 8//5 
f 2//6 9//6 10//6 
f 2//6 10//6 3//6 
f 11//7 7//7 8//7 
f 11//7 8//7 12//7 
f 9//8 13//8 14//8 
f 9//8 14//8 10//8 
f 15//9 11//9 12//9 
f 15//9 12//9 16//9 
f 13//10 17//10 18//10 
f 13//10 18//10 14//10 
f 19//11 15//11 16//11 
f 19//11 16//11 20//11 
f 17//12 21//12 22//12 
f 17//12 22//12 18//12 
f 23//13 19//13 20//13 
f 23//13 20//13 24//13 
f 25//14 26//14 22//14 
f 25//14 22//14 21//14 
f 27//15 23//15 24//15 
f 27//15 24//15 28//15 
f 29//16 30//16 26//16 
f 29//16 26//16 25//16 
f 31//17 32//17 27//17 
f 31//17 27//17 28//17 
f 33//18 34//18 30//18 
f 33//18 30//18 29//18 
f 35//19 36//19 32//19 
f 35//19 32//19 31//19 
f 37//20 38//20 34//20 
f 37//20 34//20 33//20 
f 39//21 40//21 36//21 
f 39//21 36//21 35//21 
f 41//22 42//22 38//22 
f 41//22 38//22 37//22 
f 43//23 44//23 40//23 
f 43//23 40//23 39//23 
f 45//24 46//24 42//24 
f 45//24 42//24 41//24 
f 47//25 48//25 44//25 
f 47//25 44//25 43//25 
f 49//26 50//26 46//26 
f 49//26 46//26 45//26 
f 51//27 52//27 48//27 
f 51//27 48//27 47//27 
f 53//28 54//28 50//28 
f 53//28 50//28 49//28 
f 55//29 56//29 52//29 
f 55//29 52//29 51//29 
f 57//30 58//30 54//30 
f 57//30 54//30 53//30 
f 59//31 60//31 56//31 
f 59//31 56//31 55//31 
f 61//32 62//32 58//32 
f 61//32 58//32 57//32 
f 63//33 64//33 60//33 
f 63//33 60//33 59//33 
f 65//34 66//34 64//34 
f 65//34 64//34 63//34 
f 67//32 68//32 69//32 
f 67//32 69//32 70//32 
f 71//35 72//35 68//35 
f 71//35 68//35 67//35 
f 73//34 74//34 75//34 
f 73//34 75//34 76//34 
f 77//36 78//36 72//36 
f 77//36 72//36 71//36 
f 79//37 80//37 74//37 
f 79//37 74//37 73//37 
f 81//38 82//38 78//38 
f 81//38 78//38 77//38 
f 83//39 84//39 80//39 
f 83//39 80//39 79//39 
f 85//40 86//40 82//40 
f 85//40 82//40 81//40 
f 87//41 88//41 84//41 
f 87//41 84//41 83//41 
f 89//42 90//42 86//42 
f 89//42 86//42 85//42 
f 91//43 92//43 88//43 
f 91//43 88//43 87//43 
f 93//44 94//44 90//44 
f 93//44 90//44 89//44 
f 95//45 96//45 92//45 
f 95//45 92//45 91//45 
f 97//46 98//46 94//46 
f 97//46 94//46 93//46 
f 99//47 100//47 96//47 
f 99//47 96//47 95//47 
f 101//48 102//48 98//48 
f 101//48 98//48 97//48 
f 103//49 104//49 100//49 
f 103//49 100//49 99//49 
f 105//50 106//50 102//50 
f 105//50 102//50 101//50 
f 107//51 108//51 104//51 
f 107//51 104//51 103//51 
f 109//52 110//52 106//52 
f 109//52 106//52 105//52 
f 111//53 112//53 108//53 
f 111//53 108//53 107//53 
f 109//54 113//54 114//54 
f 109//54 114//54 110//54 
f 115//55 116//55 112//55 
f 115//55 112//55 111//55 
f 113//56 117//56 118//56 
f 113//56 118//56 114//56 
f 119//57 116//57 115//57 
f 119//57 115//57 120//57 
f 117//58 121//58 122//58 
f 117//58 122//58 118//58 
f 123//59 119//59 120//59 
f 123//59 120//59 124//59 
f 121//60 125//60 126//60 
f 121//60 126//60 122//60 
f 127//61 123//61 124//61 
f 127//61 124//61 128//61 
f 125//62 129//62 130//62 
f 125//62 130//62 126//62 
f 131//63 127//63 128//63 
f 131//63 128//63 132//63 
f 133//64 134//64 135//64 
f 133//65 135//65 136//65 
f 129//66 133//66 136//66 
f 129//67 136//67 130//67 
f 134//68 131//68 132//68 
f 134//68 132//68 135//68 
f 137//69 138//69 139//69 
f 137//69 139//69 140//69 
f 141//70 142//70 143//70 
f 141//70 143//70 144//70 
f 76//71 75//71 145//71 
f 76//71 145//71 146//71 
f 70//72 69//72 139//72 
f 70//72 139//72 138//72 
f 147//35 148//35 62//35 
f 147//35 62//35 61//35 
f 149//73 150//73 148//73 
f 149//73 148//73 147//73 
f 143//74 142//74 151//74 
f 143//74 151//74 152//74 
f 152//37 151//37 66//37 
f 152//37 66//37 65//37 
f 149//75 153//75 154//75 
f 149//75 154//75 150//75 
f 155//76 156//76 157//76 
f 155//76 157//76 158//76 
f 156//75 159//75 160//75 
f 156//75 160//75 157//75 
f 154//77 153//77 161//77 
f 154//77 161//77 162//77 
f 163//78 155//78 158//78 
f 163//78 158//78 164//78 
f 165//79 163//79 164//79 
f 165//79 164//79 166//79 
f 167//80 168//80 165//80 
f 167//80 165//80 166//80 
f 169//81 170//81 168//81 
f 169//81 168//81 167//81 
f 171//82 172//82 170//82 
f 171//82 170//82 169//82 
f 173//83 174//83 172//83 
f 173//83 172//83 171//83 
f 162//84 161//84 174//84 
f 162//84 174//84 173//84 
f 160//77 159//77 175//77 
f 160//77 175//77 176//77 
f 177//85 178//85 179//85 
f 177//85 179//85 180//85 
f 180//77 179//77 137//77 
f 180//77 137//77 140//77 
f 175//69 181//69 182//69 
f 175//69 182//69 176//69 
f 183//86 184//86 178//86 
f 183//86 178//86 177//86 
f 185//87 186//87 184//87 
f 185//87 184//87 183//87 
f 187//88 188//88 186//88 
f 187//88 186//88 185//88 
f 189//89 190//89 188//89 
f 189//89 188//89 187//89 
f 191//90 190//90 189//90 
f 191//90 189//90 192//90 
f 193//91 191//91 192//91 
f 193//91 192//91 194//91 
f 181//92 193//92 194//92 
f 181//92 194//92 182//92 
f 195//93 196//93 197//93 
f 197//93 196//93 198//93 
f 199//94 200//94 201//94 
f 199//94 201//94 202//94 
f 195//75 199//75 202//75 
f 195//75 202//75 196//75 
f 141//93 144//93 203//93 
f 141//93 203//93 204//93 
f 200//95 205//95 206//95 
f 200//95 206//95 201//95 
f 205//96 207//96 208//96 
f 205//96 208//96 206//96 
f 209//97 210//97 208//97 
f 209//97 208//97 207//97 
f 211//98 212//98 210//98 
f 211//98 210//98 209//98 
f 213//99 214//99 212//99 
f 213//99 212//99 211//99 
f 215//100 216//100 214//100 
f 215//100 214//100 213//100 
f 204//101 203//101 216//101 
f 204//101 216//101 215//101 
f 199//102 197//102 217//102 
f 199//102 217//102 200//102 
f 200//102 217//102 218//102 
f 200//102 218//102 205//102 
f 205//102 218//102 219//102 
f 205//102 219//102 207//102 
f 207//102 219//102 220//102 
f 207//102 220//102 209//102 
f 209//102 220//102 221//102 
f 209//102 221//102 211//102 
f 211//102 221//102 222//102 
f 211//102 222//102 213//102 
f 213//103 222//103 223//103 
f 213//103 223//103 215//103 
f 215//102 223//102 204//102 
f 204//102 223//102 224//102 
f 141//102 204//102 224//102 
f 141//102 224//102 225//102 
f 225//102 226//102 66//102 
f 141//103 225//103 66//103 
f 141//102 66//102 142//102 
f 142//102 66//102 151//102 
f 226//102 74//102 66//102 
f 66//102 74//102 80//102 
f 66//103 80//103 64//103 
f 64//102 80//102 84//102 
f 64//102 84//102 60//102 
f 60//103 84//103 88//103 
f 60//102 88//102 56//102 
f 56//102 88//102 92//102 
f 56//102 92//102 52//102 
f 52//102 92//102 96//102 
f 52//102 96//102 48//102 
f 48//102 96//102 100//102 
f 48//102 100//102 44//102 
f 44//102 100//102 104//102 
f 44//102 104//102 40//102 
f 40//103 104//103 108//103 
f 40//102 108//102 36//102 
f 36//103 108//103 112//103 
f 36//102 112//102 32//102 
f 32//102 112//102 116//102 
f 32//102 116//102 27//102 
f 27//103 116//103 119//103 
f 27//102 119//102 23//102 
f 23//102 119//102 123//102 
f 23//102 123//102 19//102 
f 19//102 123//102 127//102 
f 19//102 127//102 15//102 
f 15//102 127//102 131//102 
f 15//102 131//102 11//102 
f 11//102 131//102 134//102 
f 11//103 134//103 7//103 
f 7//102 134//102 133//102 
f 7//102 133//102 5//102 
f 5//103 133//103 129//103 
f 5//102 129//102 1//102 
f 1//103 129//103 125//103 
f 1//103 125//103 2//103 
f 2//102 125//102 121//102 
f 2//102 121//102 9//102 
f 9//102 121//102 117//102 
f 9//102 117//102 13//102 
f 13//102 117//102 113//102 
f 13//102 113//102 17//102 
f 17//102 113//102 109//102 
f 17//102 109//102 21//102 
f 21//102 109//102 105//102 
f 21//102 105//102 25//102 
f 25//102 105//102 101//102 
f 25//103 101//103 29//103 
f 29//103 101//103 97//103 
f 29//103 97//103 33//103 
f 33//102 97//102 93//102 
f 33//102 93//102 37//102 
f 37//102 93//102 89//102 
f 37//102 89//102 41//102 
f 41//102 89//102 85//102 
f 41//102 85//102 45//102 
f 45//102 85//102 81//102 
f 45//102 81//102 49//102 
f 49//102 81//102 77//102 
f 49//102 77//102 53//102 
f 53//102 77//102 71//102 
f 53//102 71//102 57//102 
f 57//102 71//102 67//102 
f 57//102 67//102 61//102 
f 61//102 67//102 137//102 
f 226//102 145//102 74//102 
f 74//102 145//102 75//102 
f 70//102 138//102 67//102 
f 67//102 138//102 137//102 
f 147//102 61//102 149//102 
f 149//102 61//102 137//102 
f 149//102 137//102 179//102 
f 149//102 179//102 178//102 
f 149//103 178//103 153//103 
f 153//104 178//104 161//104 
f 161//102 178//102 174//102 
f 174//102 178//102 184//102 
f 174//102 184//102 172//102 
f 172//102 184//102 186//102 
f 172//102 186//102 170//102 
f 170//102 186//102 188//102 
f 170//103 188//103 168//103 
f 168//102 188//102 190//102 
f 168//102 190//102 165//102 
f 165//102 190//102 191//102 
f 165//102 191//102 163//102 
f 163//102 191//102 193//102 
f 163//103 193//103 155//103 
f 155//102 193//102 181//102 
f 155//103 181//103 156//103 
f 156//102 181//102 175//102 
f 156//102 175//102 159//102 
f 145//69 226//69 227//69 
f 145//69 227//69 146//69 
f 224//105 228//105 229//105 
f 224//105 229//105 225//105 
f 225//106 229//106 227//106 
f 225//106 227//106 226//106 
f 217//69 197//69 198//69 
f 217//69 198//69 230//69 
f 223//107 231//107 228//107 
f 223//107 228//107 224//107 
f 222//108 232//108 231//108 
f 222//108 231//108 223//108 
f 221//109 233//109 232//109 
f 221//109 232//109 222//109 
f 220//110 234//110 233//110 
f 220//110 233//110 221//110 
f 220//111 219//111 235//111 
f 220//111 235//111 234//111 
f 219//112 218//112 236//112 
f 219//112 236//112 235//112 
f 218//113 217//113 230//113 
f 218//113 230//113 236//113 
# eof
