# j.c. convert leaf file to obj
# Verts
v 8.235080 6.600010 118.843002
v 8.235080 6.600010 120.144997
v 8.235080 5.400010 120.144997
v 8.235080 5.400010 118.843002
v 12.410100 5.400000 115.843002
v 12.410100 6.600010 115.843002
v 11.341000 6.600010 115.843002
v 11.341000 5.400000 115.843002
v 8.294760 6.600010 118.257004
v 8.294760 5.400000 118.257004
v 8.471510 6.600010 117.695000
v 8.471510 5.400000 117.695000
v 8.758530 5.400000 117.176003
v 8.758530 6.600010 117.176003
v 9.144780 5.400000 116.721001
v 9.144780 6.600010 116.721001
v 9.615440 5.400000 116.348000
v 9.615440 6.600010 116.348000
v 10.152400 5.400000 116.070999
v 10.152400 6.600010 116.070999
v 10.735100 5.400000 115.900002
v 10.735100 6.600010 115.900002
v -15.406100 5.400000 115.594002
v -15.406100 6.600010 115.594002
v -16.578300 6.600010 115.594002
v -16.578300 5.400000 115.594002
v -12.300200 6.600010 120.144997
v -12.300200 6.600010 118.594002
v -12.300200 5.400000 118.594002
v -12.300200 5.400010 120.144997
v -14.800200 5.400000 115.652000
v -14.800200 6.600010 115.652000
v -14.217500 5.400000 115.822998
v -14.217500 6.600010 115.822998
v -13.680600 5.400000 116.099998
v -13.680600 6.600010 116.099998
v -13.209900 5.400000 116.473000
v -13.209900 6.600010 116.473000
v -12.823700 5.400000 116.928001
v -12.823700 6.600010 116.928001
v -12.536600 5.400000 117.445999
v -12.536600 6.600010 117.445999
v -12.359900 6.600010 118.009003
v -12.359900 5.400000 118.009003
v 36.864201 6.600000 90.977699
v 36.864201 6.600000 92.145103
v 36.864201 5.400000 92.145103
v 36.864201 5.400000 90.977699
v 36.923901 6.600000 90.392403
v 36.923901 5.400000 90.392403
v 41.398499 5.400000 87.977699
v 41.398499 6.600000 87.977699
v 39.970100 6.600000 87.977699
v 39.970100 5.400000 87.977699
v 37.100700 6.600000 89.829597
v 37.100700 5.400000 89.829597
v 37.387699 5.400000 89.310997
v 37.387699 6.600000 89.310997
v 37.773899 5.400000 88.856400
v 37.773899 6.600000 88.856400
v 38.244598 5.400000 88.483299
v 38.244598 6.600000 88.483299
v 38.781601 5.400000 88.206001
v 38.781601 6.600000 88.206001
v 39.364201 5.400000 88.035301
v 39.364201 6.600000 88.035301
v 36.792099 6.600000 64.145103
v 36.792099 6.600000 65.407402
v 36.792099 5.400000 65.407402
v 36.792099 5.400000 64.145103
v 41.398499 6.600000 68.407402
v 41.398499 5.400000 68.407402
v 39.897999 5.400000 68.407402
v 39.897999 6.600000 68.407402
v 36.851799 6.600000 65.992699
v 36.851799 5.400000 65.992699
v 37.028500 6.600000 66.555496
v 37.028500 5.400000 66.555496
v 37.315498 6.600000 67.074203
v 37.315498 5.400000 67.074203
v 37.701801 6.600000 67.528801
v 37.701801 5.400000 67.528801
v 38.172501 6.600000 67.901802
v 38.172501 5.400000 67.901802
v 38.709400 6.600000 68.179100
v 38.709400 5.400000 68.179100
v 39.292099 6.600000 68.349800
v 39.292099 5.400000 68.349800
v -44.035198 5.400000 87.994598
v -44.035198 6.600000 87.994598
v -45.566700 6.600000 87.994598
v -45.566700 5.400000 87.994598
v -40.929298 6.600000 92.145103
v -40.929298 6.600000 90.994598
v -40.929298 5.400000 90.994598
v -40.929298 5.400000 92.145103
v -43.429298 5.400000 88.052200
v -43.429298 6.600000 88.052200
v -42.846699 5.400000 88.222900
v -42.846699 6.600000 88.222900
v -42.309700 5.400000 88.500099
v -42.309700 6.600000 88.500099
v -41.839001 5.400000 88.873199
v -41.839001 6.600000 88.873199
v -41.452801 5.400000 89.327797
v -41.452801 6.600000 89.327797
v -41.165798 5.400000 89.846497
v -41.165798 6.600000 89.846497
v -40.988998 6.600000 90.409302
v -40.988998 5.400000 90.409302
v -43.778301 6.600000 68.424103
v -43.778301 5.400000 68.424103
v -45.566700 5.400000 68.424103
v -45.566700 6.600000 68.424103
v -40.672401 6.600000 65.424103
v -40.672401 6.600000 64.145103
v -40.672401 5.400000 64.145103
v -40.672401 5.400000 65.424103
v -43.172401 6.600000 68.366402
v -43.172401 5.400000 68.366402
v -42.589699 6.600000 68.195702
v -42.589699 5.400000 68.195702
v -42.052799 6.600000 67.918503
v -42.052799 5.400000 67.918503
v -41.582100 6.600000 67.545403
v -41.582100 5.400000 67.545403
v -41.195801 6.600000 67.090797
v -41.195801 5.400000 67.090797
v -40.908798 6.600000 66.572098
v -40.908798 5.400000 66.572098
v -40.732101 6.600000 66.009399
v -40.732101 5.400000 66.009399
v 12.410100 6.600000 92.145103
v -16.578300 6.600000 92.145103
# UVs
# Normals
vn 1.000000 0.000000 -0.000000
vn 0.000000 -0.000000 1.000000
vn 0.994854 0.000000 0.101319
vn 0.994854 0.000000 0.101319
vn 0.953935 0.000000 0.300012
vn 0.875095 -0.000000 0.483952
vn 0.762353 -0.000000 0.647161
vn 0.621107 -0.000000 0.783726
vn 0.458460 -0.000000 0.888715
vn 0.281583 -0.000000 0.959537
vn 0.093660 -0.000000 0.995604
vn 0.000000 -0.000000 1.000000
vn -1.000000 0.000000 -0.000000
vn -1.000000 -0.000000 0.000000
vn -0.095288 0.000000 0.995450
vn -0.281583 0.000000 0.959537
vn -0.458500 0.000000 0.888694
vn -0.621075 0.000000 0.783751
vn -0.762395 0.000000 0.647112
vn -0.874642 0.000000 0.484770
vn -0.954112 0.000000 0.299450
vn -0.994833 0.000000 0.101524
vn 0.994838 0.000000 0.101473
vn 0.954033 0.000000 0.299700
vn 0.874953 -0.000000 0.484208
vn 0.762111 -0.000000 0.647446
vn 0.621177 -0.000000 0.783670
vn 0.458820 -0.000000 0.888529
vn 0.281177 -0.000000 0.959656
vn 0.094642 -0.000000 0.995511
vn 1.000000 0.000000 -0.000000
vn 0.000000 -0.000000 -1.000000
vn 0.994838 0.000000 -0.101473
vn 0.954080 0.000000 -0.299551
vn 0.874995 0.000000 -0.484132
vn 0.762026 0.000000 -0.647546
vn 0.621076 0.000000 -0.783751
vn 0.458889 0.000000 -0.888493
vn 0.281132 0.000000 -0.959669
vn 0.094642 0.000000 -0.995511
vn -0.094642 0.000000 0.995511
vn -0.281177 0.000000 0.959656
vn -0.458693 0.000000 0.888595
vn -0.621177 0.000000 0.783670
vn -0.762111 0.000000 0.647446
vn -0.874990 0.000000 0.484142
vn -0.954033 0.000000 0.299700
vn -0.994838 0.000000 0.101473
vn -0.094803 -0.000000 -0.995496
vn -0.281131 -0.000000 -0.959669
vn -0.458760 -0.000000 -0.888560
vn -0.621177 -0.000000 -0.783670
vn -0.762035 -0.000000 -0.647536
vn -0.874990 -0.000000 -0.484142
vn -0.954067 0.000000 -0.299593
vn -0.994838 0.000000 -0.101473
vn 0.000000 1.000000 -0.000000
vn 0.000000 1.000000 0.000000
vn 0.000000 1.000000 -0.000000
vn 0.000000 1.000000 -0.000000
vn 0.000000 1.000000 -0.000000
vn 0.000000 1.000000 -0.000000
vn 0.000000 1.000000 -0.000000
vn 0.000000 1.000000 -0.000000
# Material
mtllib baize-T.mtl
usemtl baize-T
# Faces
f 1//1 2//1 3//1 
f 1//1 3//1 4//1 
f 5//2 6//2 7//2 
f 5//2 7//2 8//2 
f 9//3 1//3 4//3 
f 9//4 4//4 10//4 
f 11//5 9//5 10//5 
f 11//5 10//5 12//5 
f 13//6 14//6 11//6 
f 13//6 11//6 12//6 
f 15//7 16//7 14//7 
f 15//7 14//7 13//7 
f 17//8 18//8 16//8 
f 17//8 16//8 15//8 
f 19//9 20//9 18//9 
f 19//9 18//9 17//9 
f 21//10 22//10 20//10 
f 21//10 20//10 19//10 
f 8//11 7//11 22//11 
f 8//11 22//11 21//11 
f 23//12 24//12 25//12 
f 23//12 25//12 26//12 
f 27//13 28//13 29//13 
f 27//14 29//14 30//14 
f 31//15 32//15 24//15 
f 31//15 24//15 23//15 
f 33//16 34//16 32//16 
f 33//16 32//16 31//16 
f 35//17 36//17 34//17 
f 35//17 34//17 33//17 
f 37//18 38//18 36//18 
f 37//18 36//18 35//18 
f 39//19 40//19 38//19 
f 39//19 38//19 37//19 
f 41//20 42//20 40//20 
f 41//20 40//20 39//20 
f 43//21 42//21 41//21 
f 43//21 41//21 44//21 
f 28//22 43//22 44//22 
f 28//22 44//22 29//22 
f 45//1 46//1 47//1 
f 45//1 47//1 48//1 
f 49//23 45//23 48//23 
f 49//23 48//23 50//23 
f 51//2 52//2 53//2 
f 51//2 53//2 54//2 
f 55//24 49//24 50//24 
f 55//24 50//24 56//24 
f 57//25 58//25 55//25 
f 57//25 55//25 56//25 
f 59//26 60//26 58//26 
f 59//26 58//26 57//26 
f 61//27 62//27 60//27 
f 61//27 60//27 59//27 
f 63//28 64//28 62//28 
f 63//28 62//28 61//28 
f 65//29 66//29 64//29 
f 65//29 64//29 63//29 
f 54//30 53//30 66//30 
f 54//30 66//30 65//30 
f 67//31 68//31 69//31 
f 67//31 69//31 70//31 
f 71//32 72//32 73//32 
f 71//32 73//32 74//32 
f 68//33 75//33 76//33 
f 68//33 76//33 69//33 
f 75//34 77//34 78//34 
f 75//34 78//34 76//34 
f 79//35 80//35 78//35 
f 79//35 78//35 77//35 
f 81//36 82//36 80//36 
f 81//36 80//36 79//36 
f 83//37 84//37 82//37 
f 83//37 82//37 81//37 
f 85//38 86//38 84//38 
f 85//38 84//38 83//38 
f 87//39 88//39 86//39 
f 87//39 86//39 85//39 
f 74//40 73//40 88//40 
f 74//40 88//40 87//40 
f 89//12 90//12 91//12 
f 89//12 91//12 92//12 
f 93//13 94//13 95//13 
f 93//13 95//13 96//13 
f 97//41 98//41 90//41 
f 97//41 90//41 89//41 
f 99//42 100//42 98//42 
f 99//42 98//42 97//42 
f 101//43 102//43 100//43 
f 101//43 100//43 99//43 
f 103//44 104//44 102//44 
f 103//44 102//44 101//44 
f 105//45 106//45 104//45 
f 105//45 104//45 103//45 
f 107//46 108//46 106//46 
f 107//46 106//46 105//46 
f 109//47 108//47 107//47 
f 109//47 107//47 110//47 
f 94//48 109//48 110//48 
f 94//48 110//48 95//48 
f 111//32 112//32 113//32 
f 111//32 113//32 114//32 
f 115//13 116//13 117//13 
f 115//13 117//13 118//13 
f 119//49 120//49 112//49 
f 119//49 112//49 111//49 
f 121//50 122//50 120//50 
f 121//50 120//50 119//50 
f 123//51 124//51 122//51 
f 123//51 122//51 121//51 
f 125//52 126//52 124//52 
f 125//52 124//52 123//52 
f 127//53 128//53 126//53 
f 127//53 126//53 125//53 
f 129//54 130//54 128//54 
f 129//54 128//54 127//54 
f 129//55 131//55 132//55 
f 129//55 132//55 130//55 
f 131//56 115//56 118//56 
f 131//56 118//56 132//56 
f 67//57 116//57 68//57 
f 68//58 116//58 115//58 
f 68//57 115//57 75//57 
f 75//57 115//57 131//57 
f 75//57 131//57 77//57 
f 77//57 131//57 129//57 
f 77//58 129//58 79//58 
f 79//57 129//57 127//57 
f 79//57 127//57 81//57 
f 81//57 127//57 125//57 
f 81//57 125//57 83//57 
f 83//58 125//58 123//58 
f 83//57 123//57 85//57 
f 85//57 123//57 121//57 
f 85//57 121//57 87//57 
f 87//58 121//58 119//58 
f 87//58 119//58 74//58 
f 74//57 119//57 111//57 
f 71//58 74//58 111//58 
f 71//57 111//57 52//57 
f 111//58 114//58 52//58 
f 52//57 114//57 53//57 
f 53//57 114//57 90//57 
f 90//57 114//57 91//57 
f 53//58 90//58 66//58 
f 66//57 90//57 98//57 
f 66//57 98//57 64//57 
f 64//57 98//57 100//57 
f 64//57 100//57 62//57 
f 62//58 100//58 102//58 
f 62//57 102//57 60//57 
f 60//57 102//57 104//57 
f 60//57 104//57 58//57 
f 58//57 104//57 106//57 
f 58//57 106//57 55//57 
f 55//57 106//57 108//57 
f 55//57 108//57 49//57 
f 49//57 108//57 109//57 
f 49//57 109//57 45//57 
f 45//57 109//57 94//57 
f 45//57 94//57 93//57 
f 45//59 93//59 46//59 
f 133//60 134//60 25//60 
f 133//61 25//61 24//61 
f 133//62 24//62 32//62 
f 133//63 32//63 34//63 
f 133//64 34//64 6//64 
f 6//57 34//57 7//57 
f 7//58 34//58 22//58 
f 22//57 34//57 20//57 
f 20//57 34//57 36//57 
f 20//57 36//57 18//57 
f 18//57 36//57 38//57 
f 18//58 38//58 16//58 
f 16//58 38//58 40//58 
f 16//58 40//58 14//58 
f 14//58 40//58 42//58 
f 14//57 42//57 11//57 
f 11//57 42//57 43//57 
f 11//57 43//57 9//57 
f 9//57 43//57 28//57 
f 9//57 28//57 1//57 
f 1//58 28//58 27//58 
f 1//57 27//57 2//57 
# eof
