# j.c. convert leaf file to obj
# Verts
v -29.564199 28.245800 -32.000000
v -29.564199 28.245800 32.000000
v -32.000000 16.000000 32.000000
v -32.000000 16.000000 -32.000000
v -22.627399 38.627499 -32.000000
v -22.627399 38.627499 32.000000
v -12.245800 45.563999 -32.000000
v -12.245800 45.563999 32.000000
v 0.000000 48.000000 -32.000000
v 0.000000 48.000000 32.000000
v 12.245800 45.563999 -32.000000
v 12.245800 45.563999 32.000000
v 22.627399 38.627499 32.000000
v 22.627399 38.627499 -32.000000
v 29.564199 28.245800 -32.000000
v 29.564199 28.245800 32.000000
v 32.000000 16.000000 -32.000000
v 32.000000 16.000000 32.000000
v 32.000000 0.000000 -32.000000
v 32.000000 0.000000 32.000000
v -32.000000 0.000000 32.000000
v -32.000000 0.000000 -32.000000
# UVs
# Normals
vn 0.947174 -0.320720 0.000000
vn 0.896538 -0.442966 0.000000
vn 0.991433 -0.130617 0.000000
vn 0.997865 -0.065309 0.000000
vn 0.752336 -0.658780 0.000000
vn 0.658768 -0.752346 0.000000
vn 0.382681 -0.923880 0.000000
vn 0.382681 -0.923880 0.000000
vn -0.066163 -0.997809 0.000000
vn 0.066163 -0.997809 0.000000
vn -0.442961 -0.896541 0.000000
vn -0.320725 -0.947172 0.000000
vn -0.707101 -0.707112 0.000000
vn -0.707101 -0.707112 0.000000
vn -0.896538 -0.442966 0.000000
vn -0.947174 -0.320720 0.000000
vn -0.991433 -0.130617 0.000000
vn -0.997865 -0.065309 0.000000
vn -1.000000 0.000000 0.000000
vn -1.000000 0.000000 0.000000
vn 1.000000 0.000000 0.000000
vn 1.000000 0.000000 0.000000
# Material
mtllib brid128_64_64_4.mtl
usemtl brid128_64_64_4
# Faces
f 1//1 2//2 3//3 
f 1//1 3//3 4//4 
f 5//5 6//6 2//2 
f 5//5 2//2 1//1 
f 7//7 8//8 6//6 
f 7//7 6//6 5//5 
f 7//7 9//9 10//10 
f 7//7 10//10 8//8 
f 9//9 11//11 12//12 
f 9//9 12//12 10//10 
f 12//12 11//11 13//13 
f 13//13 11//11 14//14 
f 13//13 14//14 15//15 
f 13//13 15//15 16//16 
f 16//16 15//15 17//17 
f 16//16 17//17 18//18 
f 18//18 17//17 19//19 
f 18//18 19//19 20//20 
f 4//4 3//3 21//21 
f 4//4 21//21 22//22 
# eof
