# j.c. convert leaf file to obj
# Verts
v -72.000000 0.000000 -72.000000
v 72.000000 0.000000 -72.000000
v 72.000000 0.000000 72.000000
v -72.000000 0.000000 72.000000
v 72.000000 144.000000 -72.000000
v -72.000000 144.000000 -72.000000
v -72.000000 144.000000 72.000000
v 72.000000 144.000000 72.000000
# UVs
# Normals
vn 0.000000 -1.000000 0.000000
vn 0.000000 1.000000 0.000000
# Material
mtllib cube96_1.mtl
usemtl cube96_1
# Faces
f 1//1 2//1 3//1 
f 1//1 3//1 4//1 
f 5//2 6//2 7//2 
f 5//2 7//2 8//2 
# eof
