# j.c. convert leaf file to obj
# Verts
v 0.176760 20.150000 -0.176761
v 0.249975 20.150000 -0.000001
v 0.249975 20.049999 -0.000001
v 0.176760 20.049999 -0.176761
v 0.000000 20.049999 -0.249976
v 0.000000 20.150000 -0.249976
v -0.176760 20.049999 -0.176761
v -0.176760 20.150000 -0.176761
v -0.249975 20.150000 -0.000001
v -0.249975 20.049999 -0.000001
v -0.176760 20.150000 0.176759
v -0.176760 20.049999 0.176759
v 0.000000 20.049999 0.249974
v 0.000000 20.150000 0.249974
v 0.176760 20.049999 0.176759
v 0.176760 20.150000 0.176759
# UVs
# Normals
vn 0.621875 0.475964 -0.621875
vn 0.567793 0.819430 0.078394
vn 0.675640 -0.731306 -0.093285
vn 0.479841 -0.734511 -0.479841
vn 0.128792 -0.336556 -0.932814
vn -0.128792 0.336556 -0.932814
vn -0.548984 -0.630264 -0.548984
vn -0.370826 0.851456 -0.370826
vn -0.805886 0.581522 -0.111267
vn -0.675640 -0.731306 0.093285
vn -0.548984 0.630264 0.548984
vn -0.479841 -0.734510 0.479841
vn -0.128792 -0.336556 0.932814
vn 0.128792 0.336556 0.932814
vn 0.548984 -0.630264 0.548984
vn 0.479841 0.734510 0.479841
# Material
mtllib cue2.mtl
usemtl cue2
# Faces
f 1//1 2//2 3//3 
f 1//1 3//3 4//4 
f 1//1 4//4 5//5 
f 1//1 5//5 6//6 
f 6//6 5//5 7//7 
f 6//6 7//7 8//8 
f 9//9 8//8 7//7 
f 9//9 7//7 10//10 
f 11//11 9//9 10//10 
f 11//11 10//10 12//12 
f 13//13 14//14 11//11 
f 13//13 11//11 12//12 
f 15//15 16//16 14//14 
f 15//15 14//14 13//13 
f 2//2 16//16 15//15 
f 2//2 15//15 3//3 
f 6//6 8//8 1//1 
f 1//1 8//8 2//2 
f 2//2 8//8 9//9 
f 2//2 9//9 11//11 
f 2//2 11//11 16//16 
f 16//16 11//11 14//14 
f 5//5 4//4 7//7 
f 7//7 4//4 3//3 
f 7//7 3//3 10//10 
f 10//10 3//3 15//15 
f 10//10 15//15 12//12 
f 12//12 15//15 13//13 
# eof
