# j.c. convert leaf file to obj
# Verts
v 0.159100 20.000000 -0.159101
v 0.225000 20.000000 -0.000001
v 0.250000 0.000000 0.000000
v 0.176780 -0.000000 -0.176780
v 0.000000 20.000000 -0.225001
v 0.000000 -0.000000 -0.250000
v -0.159100 20.000000 -0.159101
v -0.176780 -0.000000 -0.176780
v -0.225000 20.000000 -0.000001
v -0.250000 0.000000 0.000000
v -0.159100 20.000000 0.159099
v -0.176780 0.000000 0.176780
v 0.000000 0.000000 0.250000
v 0.000000 20.000000 0.224999
v 0.176780 0.000000 0.176780
v 0.159100 20.000000 0.159099
# UVs
# Normals
vn 0.648149 0.582190 -0.490874
vn 0.567463 0.819663 0.078346
vn 0.676059 -0.730911 -0.093342
vn 0.491452 -0.580858 -0.648906
vn 0.128737 0.337589 -0.932449
vn -0.128842 -0.335520 -0.933180
vn -0.411526 0.731701 -0.543379
vn -0.544048 -0.730916 -0.412037
vn -0.805415 0.582187 -0.111198
vn -0.676059 -0.730911 0.093342
vn -0.548648 0.630850 0.548648
vn -0.480138 -0.734122 0.480138
vn 0.000000 -0.260078 0.965588
vn 0.000000 0.476812 0.879005
vn 0.544048 -0.730916 0.412037
vn 0.490874 0.582190 0.648149
# Material
mtllib cue3.mtl
usemtl cue3
# Faces
f 1//1 2//2 3//3 
f 1//1 3//3 4//4 
f 1//1 4//4 5//5 
f 5//5 4//4 6//6 
f 5//5 6//6 7//7 
f 7//7 6//6 8//8 
f 9//9 7//7 8//8 
f 9//9 8//8 10//10 
f 11//11 9//9 10//10 
f 11//11 10//10 12//12 
f 13//13 14//14 11//11 
f 13//13 11//11 12//12 
f 15//15 16//16 13//13 
f 13//13 16//16 14//14 
f 2//2 16//16 15//15 
f 2//2 15//15 3//3 
f 5//5 7//7 1//1 
f 1//1 7//7 2//2 
f 2//2 7//7 9//9 
f 2//2 9//9 11//11 
f 2//2 11//11 16//16 
f 16//16 11//11 14//14 
f 6//6 4//4 8//8 
f 8//8 4//4 3//3 
f 8//8 3//3 10//10 
f 10//10 3//3 15//15 
f 10//10 15//15 12//12 
f 12//12 15//15 13//13 
# eof
