# j.c. convert leaf file to obj
# Verts
v 0.729000 -0.000000 -1.154250
v 0.729000 0.500000 -1.154250
v 0.695250 0.500000 -1.152000
v 0.695250 -0.000000 -1.152000
v 1.033740 0.500000 -0.450844
v 1.068750 0.500000 -0.517500
v 1.068750 -0.000000 -0.517500
v 1.033740 -0.000000 -0.450844
v 0.991688 0.500000 -0.397125
v 0.991688 -0.000000 -0.397125
v 0.942610 0.500000 -0.356344
v 0.942610 -0.000000 -0.356344
v 0.886500 0.500000 -0.328500
v 0.886500 -0.000000 -0.328500
v 0.802688 0.500000 -0.304875
v 0.802688 -0.000000 -0.304875
v 0.726750 0.500000 -0.297000
v 0.726750 -0.000000 -0.297000
v 0.665227 0.500000 -0.302590
v 0.665227 -0.000000 -0.302590
v 0.611156 0.500000 -0.319359
v 0.611156 -0.000000 -0.319359
v 0.564539 0.500000 -0.347309
v 0.564539 -0.000000 -0.347309
v 0.525375 0.500000 -0.386438
v 0.525375 -0.000000 -0.386438
v 0.493664 0.500000 -0.436746
v 0.493664 -0.000000 -0.436746
v 0.469406 0.500000 -0.498234
v 0.469406 -0.000000 -0.498234
v 0.443250 0.500000 -0.654750
v 0.443250 -0.000000 -0.654750
v 1.303310 0.500000 -0.931500
v 1.323000 0.500000 -0.731250
v 1.323000 -0.000000 -0.731250
v 1.303310 -0.000000 -0.931500
v 1.257750 0.500000 -1.100250
v 1.257750 -0.000000 -1.100250
v 1.218550 0.500000 -1.186740
v 1.218550 -0.000000 -1.186740
v 1.171830 0.500000 -1.261690
v 1.171830 -0.000000 -1.261690
v 1.117580 0.500000 -1.325110
v 1.117580 -0.000000 -1.325110
v 1.055810 0.500000 -1.377000
v 1.055810 -0.000000 -1.377000
v 0.986520 0.500000 -1.417360
v 0.986520 -0.000000 -1.417360
v 0.909704 0.500000 -1.446190
v 0.909703 -0.000000 -1.446190
v 0.825364 0.500000 -1.463490
v 0.825363 -0.000000 -1.463480
v 0.733500 0.500000 -1.469250
v 0.733500 -0.000000 -1.469250
v 0.639000 0.500000 -1.464750
v 0.639000 -0.000000 -1.464750
v 0.517641 0.500000 -1.434800
v 0.517641 -0.000000 -1.434800
v 0.410063 0.500000 -1.371940
v 0.410063 -0.000000 -1.371940
v 0.316266 0.500000 -1.276170
v 0.316266 -0.000000 -1.276170
v 0.236250 0.500000 -1.147500
v 0.236250 -0.000000 -1.147500
v 0.183938 0.500000 -1.015310
v 0.183938 -0.000000 -1.015310
v 0.144000 0.500000 -0.861750
v 0.144000 -0.000000 -0.861750
v 0.128250 0.500000 -0.670500
v 0.128250 -0.000000 -0.670500
v 0.133453 0.500000 -0.558984
v 0.133453 -0.000000 -0.558984
v 0.149063 0.500000 -0.456188
v 0.149063 -0.000000 -0.456188
v 0.175078 0.500000 -0.362109
v 0.175078 -0.000000 -0.362109
v 0.211500 0.500000 -0.276750
v 0.211500 -0.000000 -0.276750
v 0.279281 0.500000 -0.174234
v 0.279281 -0.000000 -0.174234
v 0.365625 -0.000000 -0.093938
v 0.365625 0.500000 -0.093938
v 0.470531 -0.000000 -0.035859
v 0.470531 0.500000 -0.035859
v 0.594000 0.000000 0.000000
v 0.594000 0.500000 -0.000000
v 0.724500 0.000000 0.013500
v 0.724500 0.500000 0.013500
v 0.817313 0.000000 0.007383
v 0.817313 0.500000 0.007383
v 0.905625 -0.000000 -0.010969
v 0.905625 0.500000 -0.010969
v 0.989438 -0.000000 -0.041555
v 0.989438 0.500000 -0.041555
v 1.068750 -0.000000 -0.084375
v 1.068750 0.500000 -0.084375
v 1.143560 -0.000000 -0.139430
v 1.143560 0.500000 -0.139430
v 1.213880 -0.000000 -0.206719
v 1.213880 0.500000 -0.206719
v 1.279690 0.500000 -0.286242
v 1.279690 -0.000000 -0.286242
v 1.341000 0.500000 -0.378000
v 1.341000 -0.000000 -0.378000
v 0.800578 -0.000000 -1.141590
v 0.800578 0.500000 -1.141590
v 0.857813 -0.000000 -1.103630
v 0.857813 0.500000 -1.103630
v 0.900704 0.500000 -1.040340
v 0.900703 -0.000000 -1.040340
v 0.929250 0.500000 -0.951750
v 0.929250 -0.000000 -0.951750
v 0.507516 0.500000 -1.001390
v 0.486000 0.500000 -0.902250
v 0.486000 -0.000000 -0.902250
v 0.507516 -0.000000 -1.001390
v 0.549563 0.500000 -1.076060
v 0.549563 -0.000000 -1.076060
v 0.612141 -0.000000 -1.126270
v 0.612141 0.500000 -1.126270
# UVs
# Normals
vn -0.013798 0.000000 0.999905
vn -0.094550 0.000000 0.995520
vn 0.143800 0.000000 0.989607
vn 0.220673 0.000000 0.975348
vn -0.855781 0.000000 -0.517339
vn -0.885313 0.000000 -0.464996
vn -0.885313 0.000000 -0.464996
vn -0.823033 0.000000 -0.567993
vn -0.741728 0.000000 -0.670700
vn -0.692035 0.000000 -0.721864
vn -0.577708 0.000000 -0.816243
vn -0.512456 0.000000 -0.858714
vn -0.388270 0.000000 -0.921546
vn -0.330311 0.000000 -0.943872
vn -0.215960 0.000000 -0.976402
vn -0.159724 0.000000 -0.987162
vn -0.038766 0.000000 -0.999248
vn 0.026051 0.000000 -0.999661
vn 0.159845 0.000000 -0.987142
vn 0.228758 0.000000 -0.973483
vn 0.371242 0.000000 -0.928536
vn 0.444377 0.000000 -0.895840
vn 0.582284 0.000000 -0.812985
vn 0.646903 0.000000 -0.762572
vn 0.757376 0.000000 -0.652979
vn 0.804025 0.000000 -0.594595
vn 0.877444 0.000000 -0.479679
vn 0.905640 0.000000 -0.424046
vn 0.953600 0.000000 -0.301078
vn 0.972391 0.000000 -0.233359
vn 0.986322 0.000000 -0.164828
vn 0.986322 0.000000 -0.164828
vn 0.988290 0.000000 -0.152586
vn 0.995201 0.000000 -0.097855
vn 0.995201 0.000000 -0.097855
vn 0.978337 0.000000 -0.207018
vn 0.949990 0.000000 -0.312280
vn 0.931731 0.000000 -0.363148
vn 0.891809 0.000000 -0.452411
vn 0.871040 0.000000 -0.491213
vn 0.821112 0.000000 -0.570768
vn 0.791464 0.000000 -0.611216
vn 0.723182 0.000000 -0.690657
vn 0.684167 0.000000 -0.729325
vn 0.598532 0.000000 -0.801099
vn 0.551748 0.000000 -0.834011
vn 0.454103 0.000000 -0.890949
vn 0.403295 -0.000000 -0.915070
vn 0.302056 -0.000000 -0.953290
vn 0.251734 -0.000007 -0.967796
vn 0.155117 -0.000014 -0.987896
vn 0.108933 -0.000013 -0.994049
vn 0.025935 -0.000007 -0.999664
vn -0.010828 0.000000 -0.999941
vn -0.112046 0.000000 -0.993703
vn -0.176328 0.000000 -0.984331
vn -0.330921 0.000000 -0.943658
vn -0.420036 0.000000 -0.907507
vn -0.579058 0.000000 -0.815287
vn -0.649589 0.000000 -0.760286
vn -0.763398 0.000000 -0.645928
vn -0.808559 0.000000 -0.588415
vn -0.879219 0.000000 -0.476418
vn -0.906198 0.000000 -0.422854
vn -0.944064 0.000000 -0.329763
vn -0.956740 0.000000 -0.290945
vn -0.980642 0.000000 -0.195808
vn -0.990282 0.000000 -0.139077
vn -0.999229 0.000000 -0.039254
vn -0.999993 0.000000 0.003719
vn -0.996697 0.000000 0.081213
vn -0.993277 0.000000 0.115763
vn -0.981933 0.000000 0.189227
vn -0.973641 0.000000 0.228084
vn -0.951026 0.000000 0.309112
vn -0.936310 0.000000 0.351174
vn -0.894482 0.000000 0.447104
vn -0.865841 0.000000 0.500320
vn -0.762949 0.000000 0.646459
vn -0.762949 0.000000 0.646459
vn -0.619523 0.000000 0.784979
vn -0.553542 0.000000 0.832821
vn -0.418178 0.000000 0.908365
vn -0.349315 0.000000 0.937005
vn -0.221027 0.000000 0.975268
vn -0.162148 0.000000 0.986766
vn -0.046826 0.000000 0.998903
vn 0.009573 0.000000 0.999954
vn 0.111904 0.000000 0.993719
vn 0.157902 0.000000 0.987455
vn 0.250499 0.000000 0.968117
vn 0.297059 0.000000 0.954859
vn 0.387811 0.000000 0.921739
vn 0.432000 0.000000 0.901874
vn 0.515404 0.000000 0.856947
vn 0.554704 0.000000 0.832048
vn 0.626761 0.000000 0.779212
vn 0.659702 0.000000 0.751527
vn 0.732118 0.000000 0.681178
vn 0.732118 0.000000 0.681178
vn 0.791680 0.000000 0.610936
vn 0.812060 0.000000 0.583574
vn 0.831473 0.000000 0.555565
vn 0.831473 0.000000 0.555565
vn -0.306055 0.000000 0.952014
vn -0.434636 0.000000 0.900607
vn -0.703573 0.000000 0.710623
vn -0.703571 0.000000 0.710625
vn -0.876982 0.000001 0.480523
vn -0.918684 0.000001 0.394994
vn -0.951806 0.000001 0.306702
vn -0.951804 0.000000 0.306707
vn 0.951386 0.000000 0.308001
vn 0.977250 0.000000 0.212089
vn 0.977250 0.000000 0.212089
vn 0.915733 0.000000 0.401788
vn 0.762432 0.000000 0.647069
vn 0.762432 0.000000 0.647069
vn 0.523988 0.000000 0.851726
vn 0.412216 0.000000 0.911086
# Material
mtllib e1.mtl
usemtl e1
# Faces
f 1//1 2//2 3//3 
f 1//1 3//3 4//4 
f 5//5 6//6 7//7 
f 5//5 7//7 8//8 
f 9//9 5//5 8//8 
f 9//9 8//8 10//10 
f 9//9 10//10 11//11 
f 11//11 10//10 12//12 
f 11//11 12//12 13//13 
f 13//13 12//12 14//14 
f 13//13 14//14 15//15 
f 15//15 14//14 16//16 
f 15//15 16//16 17//17 
f 17//17 16//16 18//18 
f 17//17 18//18 19//19 
f 19//19 18//18 20//20 
f 19//19 20//20 21//21 
f 21//21 20//20 22//22 
f 21//21 22//22 23//23 
f 23//23 22//22 24//24 
f 23//23 24//24 25//25 
f 25//25 24//24 26//26 
f 27//27 25//25 26//26 
f 27//27 26//26 28//28 
f 29//29 27//27 28//28 
f 29//29 28//28 30//30 
f 31//31 29//29 30//30 
f 31//31 30//30 32//32 
f 33//33 34//34 35//35 
f 33//33 35//35 36//36 
f 37//37 33//33 36//36 
f 37//37 36//36 38//38 
f 39//39 37//37 38//38 
f 39//39 38//38 40//40 
f 41//41 39//39 40//40 
f 41//41 40//40 42//42 
f 43//43 41//41 42//42 
f 43//43 42//42 44//44 
f 43//43 44//44 45//45 
f 45//45 44//44 46//46 
f 45//45 46//46 47//47 
f 47//47 46//46 48//48 
f 47//47 48//48 49//49 
f 49//49 48//48 50//50 
f 49//49 50//50 51//51 
f 51//51 50//50 52//52 
f 51//51 52//52 53//53 
f 53//53 52//52 54//54 
f 53//53 54//54 55//55 
f 55//55 54//54 56//56 
f 55//55 56//56 57//57 
f 57//57 56//56 58//58 
f 57//57 58//58 59//59 
f 59//59 58//58 60//60 
f 61//61 59//59 60//60 
f 61//61 60//60 62//62 
f 63//63 61//61 62//62 
f 63//63 62//62 64//64 
f 65//65 63//63 64//64 
f 65//65 64//64 66//66 
f 67//67 65//65 66//66 
f 67//67 66//66 68//68 
f 69//69 67//67 68//68 
f 69//69 68//68 70//70 
f 71//71 69//69 70//70 
f 71//71 70//70 72//72 
f 73//73 71//71 72//72 
f 73//73 72//72 74//74 
f 75//75 73//73 74//74 
f 75//75 74//74 76//76 
f 77//77 75//75 76//76 
f 77//77 76//76 78//78 
f 79//79 77//77 78//78 
f 79//79 78//78 80//80 
f 81//81 82//82 79//79 
f 81//81 79//79 80//80 
f 83//83 84//84 82//82 
f 83//83 82//82 81//81 
f 85//85 86//86 84//84 
f 85//85 84//84 83//83 
f 87//87 88//88 86//86 
f 87//87 86//86 85//85 
f 89//89 90//90 88//88 
f 89//89 88//88 87//87 
f 91//91 92//92 90//90 
f 91//91 90//90 89//89 
f 93//93 94//94 92//92 
f 93//93 92//92 91//91 
f 95//95 96//96 94//94 
f 95//95 94//94 93//93 
f 97//97 98//98 96//96 
f 97//97 96//96 95//95 
f 99//99 100//100 98//98 
f 99//99 98//98 97//97 
f 101//101 100//100 99//99 
f 101//101 99//99 102//102 
f 103//103 101//101 102//102 
f 103//103 102//102 104//104 
f 105//105 106//106 2//2 
f 105//105 2//2 1//1 
f 107//107 108//108 106//106 
f 107//107 106//106 105//105 
f 109//109 108//108 107//107 
f 109//109 107//107 110//110 
f 111//111 109//109 110//110 
f 111//111 110//110 112//112 
f 113//113 114//114 115//115 
f 113//113 115//115 116//116 
f 117//117 113//113 116//116 
f 117//117 116//116 118//118 
f 119//119 120//120 117//117 
f 119//119 117//117 118//118 
f 4//4 3//3 120//120 
f 4//4 120//120 119//119 
# eof
