# j.c. convert leaf file to obj
# Verts
v 1.227760 0.500000 -0.878809
v 1.226210 0.500000 -0.681462
v 1.226210 0.000000 -0.681462
v 1.227760 0.000000 -0.878809
v 1.208070 0.500000 -1.047960
v 1.208070 0.000000 -1.047960
v 1.156780 0.500000 -1.214110
v 1.156780 0.000000 -1.214110
v 1.121170 0.500000 -1.281100
v 1.121170 0.000000 -1.281100
v 1.078930 0.500000 -1.337360
v 1.078930 0.000000 -1.337360
v 1.030050 0.000000 -1.382910
v 1.030050 0.500000 -1.382910
v 0.974524 0.000000 -1.417730
v 0.974523 0.500000 -1.417730
v 0.912363 0.000000 -1.441830
v 0.912363 0.500000 -1.441830
v 0.843564 0.000000 -1.455200
v 0.843564 0.500000 -1.455200
v 0.778216 0.000000 -1.457930
v 0.778216 0.500000 -1.457930
v 0.679053 0.000000 -1.448900
v 0.679053 0.500000 -1.448900
v 0.591397 0.000000 -1.425630
v 0.591397 0.500000 -1.425630
v 0.515249 0.000000 -1.388140
v 0.515249 0.500000 -1.388140
v 0.450607 0.000000 -1.336430
v 0.450607 0.500000 -1.336430
v 0.397474 0.500000 -1.270490
v 0.397474 0.000000 -1.270490
v 0.355846 0.500000 -1.190330
v 0.355846 0.000000 -1.190330
v 0.325727 0.500000 -1.095940
v 0.325728 0.000000 -1.095940
v 0.307116 0.500000 -0.987330
v 0.307116 0.000000 -0.987330
v 0.299909 0.500000 -0.861355
v 0.299909 0.000000 -0.861355
v 0.308358 0.500000 0.223966
v 0.308358 0.000000 0.223966
v 0.589441 0.500000 -0.747120
v 0.613231 0.500000 -0.563935
v 0.613232 0.000000 -0.563936
v 0.589441 0.000000 -0.747120
v 0.592111 0.500000 -0.903595
v 0.592111 0.000000 -0.903595
v 0.610716 0.500000 -0.994629
v 0.610716 0.000000 -0.994629
v 0.643421 0.500000 -1.059760
v 0.643421 0.000000 -1.059760
v 0.690226 0.500000 -1.098990
v 0.690226 0.000000 -1.098990
v 0.751133 0.000000 -1.112310
v 0.751133 0.500000 -1.112310
v 0.826528 0.000000 -1.095590
v 0.826528 0.500000 -1.095590
v 0.854524 0.000000 -1.074400
v 0.854524 0.500000 -1.074400
v 0.876051 0.500000 -1.044660
v 0.876051 0.000000 -1.044660
v 0.899703 0.500000 -0.959547
v 0.899704 0.000000 -0.959548
v 0.897482 0.500000 -0.840235
v 0.897482 0.000000 -0.840235
v 0.862945 0.500000 -0.672020
v 0.862945 0.000000 -0.672020
# UVs
# Normals
vn 0.999443 0.000000 -0.033362
vn 0.999969 0.000000 0.007854
vn 0.999969 0.000000 0.007854
vn 0.997214 0.000000 -0.074591
vn 0.984379 0.000000 -0.176062
vn 0.971737 0.000000 -0.236066
vn 0.935053 0.000000 -0.354509
vn 0.910786 0.000000 -0.412879
vn 0.857530 0.000000 -0.514434
vn 0.829687 0.000000 -0.558229
vn 0.743618 0.000000 -0.668604
vn 0.743618 0.000000 -0.668604
vn 0.634132 0.000000 -0.773225
vn 0.583770 0.000000 -0.811919
vn 0.476590 0.000001 -0.879126
vn 0.419767 0.000001 -0.907632
vn 0.305655 0.000000 -0.952142
vn 0.248547 0.000000 -0.968620
vn 0.141444 0.000000 -0.989946
vn 0.091644 0.000000 -0.995792
vn -0.002407 0.000000 -0.999997
vn -0.046636 0.000000 -0.998912
vn -0.146448 0.000000 -0.989218
vn -0.201922 0.000000 -0.979402
vn -0.319680 0.000000 -0.947526
vn -0.381656 0.000000 -0.924305
vn -0.505336 0.000000 -0.862923
vn -0.566646 0.000000 -0.823961
vn -0.705851 0.000000 -0.708360
vn -0.705851 0.000000 -0.708360
vn -0.818543 0.000000 -0.574446
vn -0.854969 0.000000 -0.518679
vn -0.912133 0.000000 -0.409894
vn -0.933940 -0.000001 -0.357429
vn -0.965740 -0.000001 -0.259513
vn -0.976749 -0.000001 -0.214387
vn -0.991273 -0.000001 -0.131824
vn -0.995524 0.000000 -0.094512
vn -0.999370 0.000000 -0.035499
vn -0.999904 0.000000 -0.013856
vn -0.999970 0.000000 0.007785
vn -0.999970 0.000000 0.007785
vn 0.996766 0.000001 -0.080364
vn 0.991672 0.000002 -0.128787
vn 0.991672 0.000001 -0.128790
vn 0.999500 0.000000 -0.031632
vn 0.996921 0.000000 0.078415
vn 0.990193 0.000000 0.139705
vn 0.958446 0.000000 0.285272
vn 0.929527 0.000000 0.368753
vn 0.825074 0.000000 0.565025
vn 0.739739 0.000000 0.672894
vn 0.512620 0.000000 0.858616
vn 0.365948 0.000000 0.930635
vn -0.074673 0.000000 0.997208
vn 0.071753 0.000000 0.997422
vn -0.484396 0.000000 0.874849
vn -0.352706 0.000000 0.935734
vn -0.748495 0.000000 0.663141
vn -0.678970 0.000000 0.734166
vn -0.873423 0.000000 0.486963
vn -0.925291 -0.000001 0.379257
vn -0.984761 -0.000001 0.173914
vn -0.996987 -0.000001 0.077563
vn -0.996815 -0.000001 -0.079750
vn -0.990036 0.000000 -0.140815
vn -0.979567 0.000000 -0.201119
vn -0.979567 0.000000 -0.201119
# Material
mtllib f1.mtl
usemtl f1
# Faces
f 1//1 2//2 3//3 
f 1//1 3//3 4//4 
f 5//5 1//1 4//4 
f 5//5 4//4 6//6 
f 7//7 5//5 6//6 
f 7//7 6//6 8//8 
f 9//9 7//7 8//8 
f 9//9 8//8 10//10 
f 11//11 9//9 10//10 
f 11//11 10//10 12//12 
f 11//11 12//12 13//13 
f 11//11 13//13 14//14 
f 14//14 13//13 15//15 
f 14//14 15//15 16//16 
f 16//16 15//15 17//17 
f 16//16 17//17 18//18 
f 18//18 17//17 19//19 
f 18//18 19//19 20//20 
f 20//20 19//19 21//21 
f 20//20 21//21 22//22 
f 22//22 21//21 23//23 
f 22//22 23//23 24//24 
f 24//24 23//23 25//25 
f 24//24 25//25 26//26 
f 26//26 25//25 27//27 
f 26//26 27//27 28//28 
f 28//28 27//27 29//29 
f 28//28 29//29 30//30 
f 31//31 30//30 29//29 
f 31//31 29//29 32//32 
f 33//33 31//31 32//32 
f 33//33 32//32 34//34 
f 35//35 33//33 34//34 
f 35//35 34//34 36//36 
f 37//37 35//35 36//36 
f 37//37 36//36 38//38 
f 39//39 37//37 38//38 
f 39//39 38//38 40//40 
f 41//41 39//39 40//40 
f 41//41 40//40 42//42 
f 43//43 44//44 45//45 
f 43//43 45//45 46//46 
f 47//47 43//43 46//46 
f 47//47 46//46 48//48 
f 49//49 47//47 48//48 
f 49//49 48//48 50//50 
f 51//51 49//49 50//50 
f 51//51 50//50 52//52 
f 53//53 51//51 52//52 
f 53//53 52//52 54//54 
f 55//55 56//56 54//54 
f 54//54 56//56 53//53 
f 57//57 58//58 55//55 
f 55//55 58//58 56//56 
f 59//59 60//60 57//57 
f 57//57 60//60 58//58 
f 61//61 60//60 59//59 
f 61//61 59//59 62//62 
f 63//63 61//61 62//62 
f 63//63 62//62 64//64 
f 65//65 63//63 64//64 
f 65//65 64//64 66//66 
f 67//67 65//65 66//66 
f 67//67 66//66 68//68 
# eof
