# j.c. convert leaf file to obj
# Verts
v 0.843564 0.500000 -1.455200
v 0.778216 0.500000 -1.457930
v 0.912363 0.500000 -1.441830
v 0.974523 0.500000 -1.417730
v 0.679053 0.500000 -1.448900
v 1.030050 0.500000 -1.382910
v 0.591397 0.500000 -1.425630
v 1.078930 0.500000 -1.337360
v 0.515249 0.500000 -1.388140
v 1.121170 0.500000 -1.281100
v 0.450607 0.500000 -1.336430
v 1.156780 0.500000 -1.214110
v 0.397474 0.500000 -1.270490
v 0.355846 0.500000 -1.190330
v 0.751133 0.500000 -1.112310
v 0.826528 0.500000 -1.095590
v 1.208070 0.500000 -1.047960
v 0.854524 0.500000 -1.074400
v 0.876051 0.500000 -1.044660
v 0.899703 0.500000 -0.959547
v 1.227760 0.500000 -0.878809
v 0.897482 0.500000 -0.840235
v 1.226210 0.500000 -0.681462
v 0.862945 0.500000 -0.672020
v 0.690226 0.500000 -1.098990
v 0.325727 0.500000 -1.095940
v 0.643421 0.500000 -1.059760
v 0.610716 0.500000 -0.994629
v 0.307116 0.500000 -0.987330
v 0.592111 0.500000 -0.903595
v 0.299909 0.500000 -0.861355
v 0.589441 0.500000 -0.747120
v 0.613231 0.500000 -0.563935
v 1.067190 0.500000 -0.269001
v 0.649508 0.500000 -0.279188
v 0.687773 0.500000 0.191416
v 0.308358 0.500000 0.223966
v 1.075880 0.500000 -0.571389
v 0.687773 0.000000 0.191416
v 0.308358 0.000000 0.223966
v 0.649509 0.000000 -0.279187
v 1.067190 0.000000 -0.269001
v 1.075880 0.000000 -0.571389
v 0.613232 0.000000 -0.563936
v 1.226210 0.000000 -0.681462
v 0.862945 0.000000 -0.672020
v 0.778216 0.000000 -1.457930
v 0.843564 0.000000 -1.455200
v 0.912363 0.000000 -1.441830
v 0.974524 0.000000 -1.417730
v 0.679053 0.000000 -1.448900
v 1.030050 0.000000 -1.382910
v 0.591397 0.000000 -1.425630
v 1.078930 0.000000 -1.337360
v 0.515249 0.000000 -1.388140
v 1.121170 0.000000 -1.281100
v 0.450607 0.000000 -1.336430
v 1.156780 0.000000 -1.214110
v 0.397474 0.000000 -1.270490
v 0.355846 0.000000 -1.190330
v 0.751133 0.000000 -1.112310
v 0.826528 0.000000 -1.095590
v 1.208070 0.000000 -1.047960
v 0.854524 0.000000 -1.074400
v 0.876051 0.000000 -1.044660
v 0.899704 0.000000 -0.959548
v 1.227760 0.000000 -0.878809
v 0.897482 0.000000 -0.840235
v 0.690226 0.000000 -1.098990
v 0.325728 0.000000 -1.095940
v 0.643421 0.000000 -1.059760
v 0.610716 0.000000 -0.994629
v 0.307116 0.000000 -0.987330
v 0.592111 0.000000 -0.903595
v 0.299909 0.000000 -0.861355
v 0.589441 0.000000 -0.747120
# UVs
# Normals
vn 0.000000 1.000000 -0.000000
vn 0.000000 1.000000 0.000000
vn 0.085476 -0.000000 0.996340
vn 0.996711 0.000000 -0.081043
vn 0.996711 0.000002 -0.081041
vn -0.024380 0.000000 0.999703
vn -0.024382 0.000002 0.999703
vn 0.999587 0.000000 0.028726
vn -0.016107 -0.000000 -0.999870
vn -0.016110 0.000002 -0.999870
vn 0.025983 -0.000000 0.999662
vn 0.025983 -0.000000 0.999662
vn -0.000000 -1.000000 -0.000000
vn -0.000000 -1.000000 -0.000000
vn -0.000000 -1.000000 -0.000000
vn -0.000000 -1.000000 -0.000000
vn -0.000000 -1.000000 -0.000000
vn -0.000000 -1.000000 -0.000000
vn -0.000000 -1.000000 -0.000000
vn -0.000000 -1.000000 -0.000000
vn -0.000000 -1.000000 -0.000000
vn -0.000000 -1.000000 -0.000000
vn -0.000000 -1.000000 -0.000000
vn -0.000000 -1.000000 -0.000000
vn -0.000000 -1.000000 -0.000000
vn -0.000000 -1.000000 -0.000000
vn -0.000000 -1.000000 -0.000000
vn -0.000000 -1.000000 -0.000000
vn -0.000000 -1.000000 -0.000000
vn -0.000000 -1.000000 -0.000000
vn -0.000000 -1.000000 -0.000000
vn -0.000000 -1.000000 -0.000000
vn -0.000000 -1.000000 -0.000000
vn -0.000000 -1.000000 -0.000000
vn -0.000000 -1.000000 -0.000000
vn -0.000000 -1.000000 -0.000000
vn -0.000000 -1.000000 -0.000000
vn -0.000000 -1.000000 -0.000000
vn -0.000000 -1.000000 -0.000000
vn -0.000000 -1.000000 -0.000000
vn -0.000000 -1.000000 -0.000000
vn -0.000000 -1.000000 -0.000000
vn -0.000000 -1.000000 -0.000000
vn -0.000000 -1.000000 -0.000000
vn -0.000000 -1.000000 -0.000000
vn -0.000000 -1.000000 -0.000000
vn -0.000000 -1.000000 -0.000000
vn -0.000000 -1.000000 -0.000000
# Material
mtllib f2.mtl
usemtl f2
# Faces
f 1//1 2//1 3//1 
f 3//1 2//1 4//1 
f 4//1 2//1 5//1 
f 4//1 5//1 6//1 
f 6//1 5//1 7//1 
f 6//1 7//1 8//1 
f 8//1 7//1 9//1 
f 8//1 9//1 10//1 
f 10//2 9//2 11//2 
f 10//2 11//2 12//2 
f 12//1 11//1 13//1 
f 12//2 13//2 14//2 
f 12//1 14//1 15//1 
f 12//1 15//1 16//1 
f 12//2 16//2 17//2 
f 17//1 16//1 18//1 
f 17//1 18//1 19//1 
f 17//1 19//1 20//1 
f 17//1 20//1 21//1 
f 21//2 20//2 22//2 
f 21//1 22//1 23//1 
f 23//2 22//2 24//2 
f 15//1 14//1 25//1 
f 25//1 14//1 26//1 
f 25//1 26//1 27//1 
f 27//1 26//1 28//1 
f 28//1 26//1 29//1 
f 28//2 29//2 30//2 
f 30//1 29//1 31//1 
f 30//1 31//1 32//1 
f 32//2 31//2 33//2 
f 34//1 33//1 35//1 
f 33//2 31//2 35//2 
f 35//1 31//1 36//1 
f 36//1 31//1 37//1 
f 34//1 38//1 33//1 
f 39//3 36//3 40//3 
f 40//3 36//3 37//3 
f 35//4 36//4 39//4 
f 35//5 39//5 41//5 
f 42//6 34//6 41//6 
f 41//7 34//7 35//7 
f 38//8 34//8 42//8 
f 38//8 42//8 43//8 
f 38//9 43//9 44//9 
f 38//10 44//10 33//10 
f 45//11 23//11 46//11 
f 46//12 23//12 24//12 
f 47//13 48//13 49//13 
f 47//14 49//14 50//14 
f 47//15 50//15 51//15 
f 51//16 50//16 52//16 
f 51//17 52//17 53//17 
f 53//18 52//18 54//18 
f 53//19 54//19 55//19 
f 55//20 54//20 56//20 
f 55//21 56//21 57//21 
f 57//22 56//22 58//22 
f 57//23 58//23 59//23 
f 59//24 58//24 60//24 
f 60//25 58//25 61//25 
f 61//26 58//26 62//26 
f 62//27 58//27 63//27 
f 62//28 63//28 64//28 
f 64//29 63//29 65//29 
f 65//30 63//30 66//30 
f 66//31 63//31 67//31 
f 66//32 67//32 68//32 
f 68//33 67//33 45//33 
f 68//34 45//34 46//34 
f 60//35 61//35 69//35 
f 60//36 69//36 70//36 
f 70//37 69//37 71//37 
f 70//38 71//38 72//38 
f 70//39 72//39 73//39 
f 73//40 72//40 74//40 
f 73//41 74//41 75//41 
f 75//42 74//42 76//42 
f 75//43 76//43 44//43 
f 44//44 42//44 41//44 
f 75//45 44//45 41//45 
f 75//46 41//46 39//46 
f 75//47 39//47 40//47 
f 44//48 43//48 42//48 
# eof
