# j.c. convert leaf file to obj
# Verts
v 1.094730 0.500000 -1.622180
v 1.204980 0.500000 -0.446240
v 1.204980 0.000000 -0.446240
v 1.094730 0.000000 -1.622180
v 0.835979 0.500000 -0.953932
v 0.835979 0.000000 -0.953932
v 0.722213 0.000000 -0.899932
v 0.722213 0.500000 -0.899932
v 0.739229 0.500000 -1.426430
v 0.739229 0.000000 -1.426430
v 0.639666 0.000000 -1.448370
v 0.639666 0.500000 -1.448370
v 0.543479 0.000000 -1.455680
v 0.543479 0.500000 -1.455680
v 0.466522 0.000000 -1.449780
v 0.466522 0.500000 -1.449780
v 0.397651 0.000000 -1.432060
v 0.397651 0.500000 -1.432060
v 0.336865 0.000000 -1.402530
v 0.336865 0.500000 -1.402530
v 0.284166 0.000000 -1.361180
v 0.284166 0.500000 -1.361180
v 0.239553 0.500000 -1.308030
v 0.239553 0.000000 -1.308030
v 0.203026 0.500000 -1.243060
v 0.203026 0.000000 -1.243060
v 0.174584 0.500000 -1.166280
v 0.174584 0.000000 -1.166280
v 0.154229 0.500000 -1.077680
v 0.154229 0.000000 -1.077680
v 0.149729 0.500000 -1.019180
v 0.149729 0.000000 -1.019180
v 0.158026 0.500000 -0.938885
v 0.158026 0.000000 -0.938885
v 0.182916 0.500000 -0.864494
v 0.182916 0.000000 -0.864494
v 0.224401 0.500000 -0.796010
v 0.224401 0.000000 -0.796010
v 0.282479 0.500000 -0.733432
v 0.282479 0.000000 -0.733432
v 0.357432 0.000000 -0.678166
v 0.357432 0.500000 -0.678166
v 0.440541 0.000000 -0.640619
v 0.440541 0.500000 -0.640619
v 0.531807 0.000000 -0.620791
v 0.531807 0.500000 -0.620791
v 0.631229 0.000000 -0.618682
v 0.631229 0.500000 -0.618682
v 0.718135 0.000000 -0.629650
v 0.718135 0.500000 -0.629650
v 0.792104 0.000000 -0.651307
v 0.792104 0.500000 -0.651307
v 0.853135 0.000000 -0.683650
v 0.853135 0.500000 -0.683650
v 0.901229 0.000000 -0.726682
v 0.901229 0.500000 -0.726682
v 0.903479 0.500000 -0.719932
v 0.903479 0.000000 -0.719932
v 0.928791 0.500000 -0.571994
v 0.928791 0.000000 -0.571994
v 0.937229 0.500000 -0.434182
v 0.937229 0.000000 -0.434182
v 0.927666 0.500000 -0.314932
v 0.927666 0.000000 -0.314932
v 0.898979 0.500000 -0.227182
v 0.898979 0.000000 -0.227182
v 0.851166 0.500000 -0.170932
v 0.851166 0.000000 -0.170932
v 0.784229 0.000000 -0.146182
v 0.784229 0.500000 -0.146182
v 0.707448 0.000000 -0.154478
v 0.707448 0.500000 -0.154478
v 0.677284 0.000000 -0.172443
v 0.677284 0.500000 -0.172443
v 0.652604 0.500000 -0.199619
v 0.652604 0.000000 -0.199619
v 0.619698 0.500000 -0.281603
v 0.619698 0.000000 -0.281603
v 0.608729 0.500000 -0.400432
v 0.608729 0.000000 -0.400432
v 0.624479 0.500000 -0.571432
v 0.624479 0.000000 -0.571432
v 0.284729 0.500000 -0.325619
v 0.264479 0.500000 -0.521932
v 0.264479 0.000000 -0.521932
v 0.284729 0.000000 -0.325619
v 0.322979 0.500000 -0.159682
v 0.322979 0.000000 -0.159682
v 0.392307 0.500000 -0.000213
v 0.392307 0.000000 -0.000213
v 0.435092 0.500000 0.062436
v 0.435092 -0.000000 0.062436
v 0.483291 0.500000 0.113693
v 0.483291 -0.000000 0.113693
v 0.536905 -0.000000 0.153561
v 0.536905 0.500000 0.153561
v 0.595932 -0.000000 0.182037
v 0.595932 0.500000 0.182037
v 0.660373 -0.000000 0.199123
v 0.660373 0.500000 0.199123
v 0.730229 -0.000000 0.204818
v 0.730229 0.500000 0.204818
v 0.795479 -0.000000 0.200318
v 0.795479 0.500000 0.200318
v 0.893037 -0.000000 0.180360
v 0.893037 0.500000 0.180360
v 0.977588 -0.000000 0.147518
v 0.977588 0.500000 0.147518
v 1.049130 -0.000000 0.101794
v 1.049130 0.500000 0.101794
v 1.107670 0.500000 0.043188
v 1.107670 -0.000000 0.043188
v 1.153190 0.500000 -0.028302
v 1.153190 0.000000 -0.028302
v 1.185710 0.500000 -0.112673
v 1.185710 0.000000 -0.112673
v 1.205220 0.500000 -0.209928
v 1.205220 0.000000 -0.209928
v 1.211730 0.500000 -0.320064
v 1.211730 0.000000 -0.320064
v 0.620893 0.000000 -0.881932
v 0.620893 0.500000 -0.881932
v 0.572228 0.000000 -0.888260
v 0.572228 0.500000 -0.888260
v 0.532616 0.000000 -0.907244
v 0.532616 0.500000 -0.907244
v 0.502056 0.500000 -0.938885
v 0.502056 0.000000 -0.938885
v 0.480549 0.500000 -0.983182
v 0.480549 0.000000 -0.983182
v 0.471479 0.500000 -1.037180
v 0.471479 0.000000 -1.037180
v 0.490015 0.500000 -1.109320
v 0.490015 0.000000 -1.109320
v 0.545623 0.500000 -1.170490
v 0.545623 0.000000 -1.170490
v 0.638304 0.000000 -1.220700
v 0.638304 0.500000 -1.220700
v 0.768057 0.000000 -1.259930
v 0.768057 0.500000 -1.259930
# UVs
# Normals
vn 0.995634 0.000000 -0.093345
vn 0.997770 0.000000 -0.066741
vn 0.996791 0.000000 -0.080051
vn 0.995634 0.000000 -0.093345
vn -0.428805 0.000000 -0.903397
vn -0.428805 0.000000 -0.903397
vn -0.346925 0.000000 -0.937893
vn -0.261619 0.000000 -0.965171
vn 0.215200 0.000000 -0.976570
vn 0.215200 0.000000 -0.976570
vn 0.169100 0.000000 -0.985599
vn 0.122524 0.000000 -0.992466
vn 0.025104 0.000000 -0.999685
vn -0.025768 0.000000 -0.999668
vn -0.134479 0.000000 -0.990916
vn -0.192255 0.000000 -0.981345
vn -0.313170 0.000000 -0.949697
vn -0.376048 0.000000 -0.926600
vn -0.499597 0.000000 -0.866258
vn -0.560012 0.000000 -0.828484
vn -0.695348 0.000000 -0.718673
vn -0.695348 0.000000 -0.718673
vn -0.804279 0.000000 -0.594251
vn -0.839663 0.000000 -0.543107
vn -0.896163 0.000000 -0.443724
vn -0.918240 0.000000 -0.396025
vn -0.951780 0.000000 -0.306781
vn -0.964097 0.000000 -0.265551
vn -0.984520 0.000000 -0.175269
vn -0.992020 0.000000 -0.126078
vn -0.999857 0.000000 -0.016930
vn -0.999070 0.000000 0.043112
vn -0.984528 0.000000 0.175228
vn -0.968986 0.000000 0.247117
vn -0.922355 0.000000 0.386343
vn -0.891180 0.000000 0.453650
vn -0.818291 0.000000 0.574805
vn -0.777322 0.000000 0.629103
vn -0.666135 0.000000 0.745832
vn -0.666135 0.000000 0.745832
vn -0.535524 0.000000 0.844520
vn -0.474641 0.000000 0.880180
vn -0.346947 0.000000 0.937885
vn -0.280149 0.000000 0.959957
vn -0.149219 0.000000 0.988804
vn -0.085257 0.000000 0.996359
vn 0.027665 0.000000 0.999617
vn 0.076588 0.000000 0.997063
vn 0.177638 0.000000 0.984096
vn 0.229710 0.000000 0.973259
vn 0.344981 0.000000 0.938610
vn 0.407688 0.000000 0.913121
vn 0.537948 0.000000 0.842978
vn 0.604564 0.000000 0.796556
vn -0.256668 0.000000 0.966500
vn -0.256668 0.000000 0.966500
vn -0.963497 0.000000 0.267721
vn -0.975859 0.000000 0.218402
vn -0.991119 0.000000 0.132977
vn -0.995276 0.000000 0.097085
vn -0.999900 0.000000 0.014128
vn -0.999456 0.000000 -0.032992
vn -0.987464 0.000000 -0.157844
vn -0.971934 0.000000 -0.235254
vn -0.902721 0.000000 -0.430226
vn -0.838800 0.000000 -0.544440
vn -0.573055 0.000000 -0.819517
vn -0.573055 0.000000 -0.819517
vn -0.200108 0.000000 -0.979774
vn -0.045047 0.000000 -0.998985
vn 0.247223 0.000000 -0.968959
vn 0.384788 0.000000 -0.923005
vn 0.632927 0.000000 -0.774212
vn 0.632927 0.000000 -0.774212
vn 0.814270 0.000000 -0.580486
vn 0.877743 0.000000 -0.479131
vn 0.959537 0.000000 -0.281583
vn 0.982325 0.000000 -0.187182
vn 0.999525 0.000000 -0.030822
vn 0.999531 0.000000 0.030620
vn 0.995785 0.000000 0.091717
vn 0.995785 0.000000 0.091717
vn -0.989647 0.000000 0.143522
vn -0.994722 0.000000 0.102607
vn -0.994722 0.000000 0.102607
vn -0.982877 0.000000 0.184262
vn -0.958911 0.000000 0.283705
vn -0.939719 -0.000000 0.341949
vn -0.890188 -0.000000 0.455593
vn -0.859639 -0.000000 0.510902
vn -0.795503 -0.000000 0.605949
vn -0.762985 0.000000 0.646417
vn -0.665205 0.000000 0.746660
vn -0.665205 0.000000 0.746660
vn -0.544825 0.000000 0.838550
vn -0.490538 0.000000 0.871420
vn -0.376612 0.000000 0.926371
vn -0.316967 0.000000 0.948437
vn -0.198640 0.000000 0.980072
vn -0.140091 0.000000 0.990139
vn -0.031315 0.000000 0.999510
vn 0.018830 0.000000 0.999823
vn 0.112898 0.000000 0.993607
vn 0.156858 0.000000 0.987621
vn 0.255114 0.000000 0.966911
vn 0.309167 0.000000 0.951008
vn 0.422735 0.000000 0.906253
vn 0.481811 0.000000 0.876275
vn 0.626712 0.000000 0.779251
vn 0.626712 0.000000 0.779251
vn 0.756830 0.000000 0.653612
vn 0.802408 0.000000 0.596776
vn 0.877235 0.000000 0.480060
vn 0.907223 0.000000 0.420650
vn 0.951931 0.000000 0.306311
vn 0.967775 0.000000 0.251816
vn 0.988516 0.000000 0.151118
vn 0.994459 0.000000 0.105125
vn 0.999768 0.000000 0.021561
vn 0.999873 0.000000 -0.015967
vn -0.074396 0.000000 -0.997229
vn 0.027947 0.000000 -0.999609
vn 0.232624 0.000000 -0.972567
vn 0.334845 0.000000 -0.942273
vn 0.584969 0.000000 -0.811056
vn 0.584969 0.000000 -0.811056
vn 0.788105 0.000000 -0.615541
vn 0.848874 0.000000 -0.528595
vn 0.936917 0.000000 -0.349551
vn 0.966050 0.000000 -0.258355
vn 0.999607 0.000000 -0.028020
vn 0.993610 0.000000 0.112871
vn 0.916259 0.000000 0.400586
vn 0.838019 0.000000 0.545641
vn 0.616854 0.000000 0.787078
vn 0.616854 0.000000 0.787078
vn 0.415929 0.000000 0.909397
vn 0.353331 0.000000 0.935498
vn 0.289405 0.000000 0.957207
vn 0.289405 0.000000 0.957207
# Material
mtllib g1.mtl
usemtl g1
# Faces
f 1//1 2//2 3//3 
f 1//1 3//3 4//4 
f 5//5 6//6 7//7 
f 5//5 7//7 8//8 
f 9//9 10//10 11//11 
f 9//9 11//11 12//12 
f 12//12 11//11 13//13 
f 12//12 13//13 14//14 
f 14//14 13//13 15//15 
f 14//14 15//15 16//16 
f 16//16 15//15 17//17 
f 16//16 17//17 18//18 
f 18//18 17//17 19//19 
f 18//18 19//19 20//20 
f 20//20 19//19 21//21 
f 20//20 21//21 22//22 
f 23//23 22//22 21//21 
f 23//23 21//21 24//24 
f 25//25 23//23 24//24 
f 25//25 24//24 26//26 
f 27//27 25//25 26//26 
f 27//27 26//26 28//28 
f 29//29 27//27 28//28 
f 29//29 28//28 30//30 
f 31//31 29//29 30//30 
f 31//31 30//30 32//32 
f 33//33 31//31 32//32 
f 33//33 32//32 34//34 
f 35//35 33//33 34//34 
f 35//35 34//34 36//36 
f 37//37 35//35 36//36 
f 37//37 36//36 38//38 
f 39//39 37//37 38//38 
f 39//39 38//38 40//40 
f 41//41 42//42 39//39 
f 41//41 39//39 40//40 
f 43//43 44//44 42//42 
f 43//43 42//42 41//41 
f 45//45 46//46 44//44 
f 45//45 44//44 43//43 
f 47//47 48//48 46//46 
f 47//47 46//46 45//45 
f 49//49 50//50 48//48 
f 49//49 48//48 47//47 
f 51//51 52//52 50//50 
f 51//51 50//50 49//49 
f 53//53 54//54 52//52 
f 53//53 52//52 51//51 
f 55//55 56//56 54//54 
f 55//55 54//54 53//53 
f 57//57 56//56 55//55 
f 57//57 55//55 58//58 
f 59//59 57//57 58//58 
f 59//59 58//58 60//60 
f 61//61 59//59 60//60 
f 61//61 60//60 62//62 
f 63//63 61//61 62//62 
f 63//63 62//62 64//64 
f 65//65 63//63 64//64 
f 65//65 64//64 66//66 
f 67//67 65//65 66//66 
f 67//67 66//66 68//68 
f 67//67 68//68 69//69 
f 67//67 69//69 70//70 
f 70//70 69//69 71//71 
f 70//70 71//71 72//72 
f 72//72 71//71 73//73 
f 72//72 73//73 74//74 
f 75//75 74//74 73//73 
f 75//75 73//73 76//76 
f 77//77 75//75 76//76 
f 77//77 76//76 78//78 
f 79//79 77//77 78//78 
f 79//79 78//78 80//80 
f 81//81 79//79 80//80 
f 81//81 80//80 82//82 
f 83//83 84//84 85//85 
f 83//83 85//85 86//86 
f 87//87 83//83 86//86 
f 87//87 86//86 88//88 
f 89//89 87//87 88//88 
f 89//89 88//88 90//90 
f 91//91 89//89 90//90 
f 91//91 90//90 92//92 
f 93//93 91//91 92//92 
f 93//93 92//92 94//94 
f 95//95 96//96 93//93 
f 95//95 93//93 94//94 
f 97//97 98//98 96//96 
f 97//97 96//96 95//95 
f 99//99 100//100 98//98 
f 99//99 98//98 97//97 
f 101//101 102//102 100//100 
f 101//101 100//100 99//99 
f 103//103 104//104 102//102 
f 103//103 102//102 101//101 
f 105//105 106//106 104//104 
f 105//105 104//104 103//103 
f 107//107 108//108 106//106 
f 107//107 106//106 105//105 
f 109//109 110//110 108//108 
f 109//109 108//108 107//107 
f 111//111 110//110 109//109 
f 111//111 109//109 112//112 
f 113//113 111//111 112//112 
f 113//113 112//112 114//114 
f 115//115 113//113 114//114 
f 115//115 114//114 116//116 
f 117//117 115//115 116//116 
f 117//117 116//116 118//118 
f 119//119 117//117 118//118 
f 119//119 118//118 120//120 
f 2//2 119//119 120//120 
f 2//2 120//120 3//3 
f 8//8 7//7 121//121 
f 8//8 121//121 122//122 
f 122//122 121//121 123//123 
f 122//122 123//123 124//124 
f 124//124 123//123 125//125 
f 124//124 125//125 126//126 
f 127//127 126//126 125//125 
f 127//127 125//125 128//128 
f 129//129 127//127 128//128 
f 129//129 128//128 130//130 
f 131//131 129//129 130//130 
f 131//131 130//130 132//132 
f 133//133 131//131 132//132 
f 133//133 132//132 134//134 
f 135//135 133//133 134//134 
f 135//135 134//134 136//136 
f 137//137 138//138 135//135 
f 137//137 135//135 136//136 
f 139//139 140//140 138//138 
f 139//139 138//138 137//137 
# eof
