# j.c. convert leaf file to obj
# Verts
v 0.543479 0.500000 -1.455680
v 0.466522 0.500000 -1.449780
v 0.639666 0.500000 -1.448370
v 0.397651 0.500000 -1.432060
v 0.739229 0.500000 -1.426430
v 0.336865 0.500000 -1.402530
v 0.901229 0.500000 -0.726682
v 0.282479 0.500000 -0.733432
v 0.853135 0.500000 -0.683650
v 0.357432 0.500000 -0.678166
v 0.792104 0.500000 -0.651307
v 0.440541 0.500000 -0.640619
v 0.718135 0.500000 -0.629650
v 0.531807 0.500000 -0.620791
v 0.631229 0.500000 -0.618682
v 0.624479 0.500000 -0.571432
v 0.264479 0.500000 -0.521932
v 0.608729 0.500000 -0.400432
v 0.284729 0.500000 -0.325619
v 0.619698 0.500000 -0.281603
v 0.652604 0.500000 -0.199619
v 0.677284 0.500000 -0.172443
v 0.322979 0.500000 -0.159682
v 0.707448 0.500000 -0.154478
v 0.784229 0.500000 -0.146182
v 1.185710 0.500000 -0.112673
v 1.153190 0.500000 -0.028302
v 0.392307 0.500000 -0.000213
v 1.107670 0.500000 0.043188
v 0.435092 0.500000 0.062436
v 1.049130 0.500000 0.101794
v 0.483291 0.500000 0.113693
v 0.977588 0.500000 0.147518
v 0.536905 0.500000 0.153561
v 0.893037 0.500000 0.180360
v 0.595932 0.500000 0.182037
v 0.660373 0.500000 0.199123
v 0.795479 0.500000 0.200318
v 0.730229 0.500000 0.204818
v 1.094730 0.500000 -1.622180
v 0.716729 0.500000 -1.528840
v 0.284166 0.500000 -1.361180
v 0.239553 0.500000 -1.308030
v 0.768057 0.500000 -1.259930
v 0.835979 0.500000 -0.953932
v 0.620893 0.500000 -0.881932
v 0.182916 0.500000 -0.864494
v 0.224401 0.500000 -0.796010
v 0.722213 0.500000 -0.899932
v 0.903479 0.500000 -0.719932
v 0.928791 0.500000 -0.571994
v 1.204980 0.500000 -0.446240
v 0.937229 0.500000 -0.434182
v 1.211730 0.500000 -0.320064
v 0.927666 0.500000 -0.314932
v 0.898979 0.500000 -0.227182
v 1.205220 0.500000 -0.209928
v 0.851166 0.500000 -0.170932
v 0.203026 0.500000 -1.243060
v 0.638304 0.500000 -1.220700
v 0.545623 0.500000 -1.170490
v 0.174584 0.500000 -1.166280
v 0.490015 0.500000 -1.109320
v 0.154229 0.500000 -1.077680
v 0.471479 0.500000 -1.037180
v 0.149729 0.500000 -1.019180
v 0.480549 0.500000 -0.983182
v 0.502056 0.500000 -0.938885
v 0.158026 0.500000 -0.938885
v 0.532616 0.500000 -0.907244
v 0.572228 0.500000 -0.888260
v 1.094730 0.000000 -1.622180
v 0.716729 0.000000 -1.528840
v 0.739229 0.000000 -1.426430
v 0.624479 0.000000 -0.571432
v 0.264479 0.000000 -0.521932
v 0.608729 0.000000 -0.400432
v 0.284729 0.000000 -0.325619
v 0.619698 0.000000 -0.281603
v 0.652604 0.000000 -0.199619
v 0.677284 0.000000 -0.172443
v 0.322979 0.000000 -0.159682
v 0.707448 0.000000 -0.154478
v 0.784229 0.000000 -0.146182
v 1.185710 0.000000 -0.112673
v 1.153190 0.000000 -0.028302
v 0.392307 0.000000 -0.000213
v 1.107670 -0.000000 0.043188
v 0.435092 -0.000000 0.062436
v 1.049130 -0.000000 0.101794
v 0.483291 -0.000000 0.113693
v 0.977588 -0.000000 0.147518
v 0.536905 -0.000000 0.153561
v 0.893037 -0.000000 0.180360
v 0.595932 -0.000000 0.182037
v 0.660373 -0.000000 0.199123
v 0.795479 -0.000000 0.200318
v 0.730229 -0.000000 0.204818
v 0.282479 0.000000 -0.733432
v 0.901229 0.000000 -0.726682
v 0.853135 0.000000 -0.683650
v 0.357432 0.000000 -0.678166
v 0.792104 0.000000 -0.651307
v 0.440541 0.000000 -0.640619
v 0.718135 0.000000 -0.629650
v 0.531807 0.000000 -0.620791
v 0.631229 0.000000 -0.618682
v 0.466522 0.000000 -1.449780
v 0.543479 0.000000 -1.455680
v 0.639666 0.000000 -1.448370
v 0.397651 0.000000 -1.432060
v 0.336865 0.000000 -1.402530
v 0.284166 0.000000 -1.361180
v 0.239553 0.000000 -1.308030
v 0.768057 0.000000 -1.259930
v 0.835979 0.000000 -0.953932
v 0.182916 0.000000 -0.864494
v 0.620893 0.000000 -0.881932
v 0.224401 0.000000 -0.796010
v 0.722213 0.000000 -0.899932
v 0.903479 0.000000 -0.719932
v 0.928791 0.000000 -0.571994
v 1.204980 0.000000 -0.446240
v 0.937229 0.000000 -0.434182
v 1.211730 0.000000 -0.320064
v 0.927666 0.000000 -0.314932
v 0.898979 0.000000 -0.227182
v 1.205220 0.000000 -0.209928
v 0.851166 0.000000 -0.170932
v 0.203026 0.000000 -1.243060
v 0.638304 0.000000 -1.220700
v 0.545623 0.000000 -1.170490
v 0.174584 0.000000 -1.166280
v 0.490015 0.000000 -1.109320
v 0.154229 0.000000 -1.077680
v 0.471479 0.000000 -1.037180
v 0.149729 0.000000 -1.019180
v 0.480549 0.000000 -0.983182
v 0.502056 0.000000 -0.938885
v 0.158026 0.000000 -0.938885
v 0.532616 0.000000 -0.907244
v 0.572228 0.000000 -0.888260
# UVs
# Normals
vn 0.000000 1.000000 -0.000000
vn 0.000000 1.000000 0.000000
vn -0.239730 -0.000000 -0.970840
vn -0.976705 0.000000 0.214587
vn -0.136218 -0.000000 -0.990679
vn -0.000000 -1.000000 -0.000000
vn -0.000000 -1.000000 -0.000000
vn -0.000000 -1.000000 -0.000000
vn 0.000000 -1.000000 -0.000000
vn -0.000000 -1.000000 -0.000000
vn -0.000000 -1.000000 -0.000000
vn 0.000000 -1.000000 -0.000000
vn 0.000000 -1.000000 -0.000000
vn 0.000000 -1.000000 -0.000000
vn 0.000000 -1.000000 -0.000000
vn -0.000000 -1.000000 -0.000000
vn -0.000000 -1.000000 -0.000000
vn -0.000000 -1.000000 -0.000000
vn -0.000000 -1.000000 -0.000000
vn -0.000000 -1.000000 -0.000000
vn -0.000000 -1.000000 -0.000000
vn -0.000000 -1.000000 -0.000000
vn -0.000000 -1.000000 -0.000000
vn -0.000000 -1.000000 -0.000000
vn -0.000000 -1.000000 -0.000000
vn -0.000000 -1.000000 -0.000000
vn -0.000000 -1.000000 -0.000000
vn 0.000000 -1.000000 -0.000000
vn -0.000000 -1.000000 -0.000000
vn -0.000000 -1.000000 -0.000000
vn -0.000000 -1.000000 -0.000000
vn 0.000000 -1.000000 -0.000000
vn 0.000000 -1.000000 -0.000000
vn 0.000000 -1.000000 -0.000000
vn 0.000000 -1.000000 -0.000000
vn 0.000000 -1.000000 -0.000000
vn 0.000000 -1.000000 -0.000000
vn 0.000000 -1.000000 -0.000000
vn -0.000000 -1.000000 -0.000000
vn 0.000000 -1.000000 -0.000000
vn -0.000000 -1.000000 -0.000000
vn 0.000000 -1.000000 -0.000000
vn 0.000000 -1.000000 -0.000000
vn -0.000000 -1.000000 -0.000000
vn 0.000000 -1.000000 -0.000000
vn -0.000000 -1.000000 -0.000000
vn -0.000000 -1.000000 -0.000000
vn 0.000000 -1.000000 -0.000000
vn -0.000000 -1.000000 -0.000000
vn 0.000000 -1.000000 -0.000000
vn -0.000000 -1.000000 -0.000000
vn 0.000000 -1.000000 -0.000000
vn -0.000000 -1.000000 -0.000000
vn 0.000000 -1.000000 -0.000000
vn 0.000000 -1.000000 -0.000000
vn -0.000000 -1.000000 -0.000000
vn -0.000000 -1.000000 -0.000000
vn -0.000000 -1.000000 -0.000000
vn -0.000000 -1.000000 -0.000000
vn 0.000000 -1.000000 -0.000000
vn -0.000000 -1.000000 -0.000000
vn 0.000000 -1.000000 -0.000000
vn 0.000000 -1.000000 -0.000000
vn -0.000000 -1.000000 -0.000000
vn 0.000000 -1.000000 -0.000000
vn 0.000000 -1.000000 -0.000000
vn 0.000000 -1.000000 -0.000000
vn -0.000000 -1.000000 -0.000000
vn -0.000000 -1.000000 -0.000000
vn 0.000000 -1.000000 -0.000000
vn 0.000000 -1.000000 -0.000000
vn 0.000000 -1.000000 -0.000000
vn 0.000000 -1.000000 -0.000000
vn -0.000000 -1.000000 -0.000000
vn -0.000000 -1.000000 -0.000000
vn 0.000000 -1.000000 -0.000000
vn -0.976239 0.000000 0.216695
# Material
mtllib g2.mtl
usemtl g2
# Faces
f 1//1 2//1 3//1 
f 3//1 2//1 4//1 
f 3//1 4//1 5//1 
f 5//2 4//2 6//2 
f 7//1 8//1 9//1 
f 9//1 8//1 10//1 
f 9//1 10//1 11//1 
f 11//1 10//1 12//1 
f 11//1 12//1 13//1 
f 13//1 12//1 14//1 
f 13//1 14//1 15//1 
f 16//2 17//2 18//2 
f 18//1 17//1 19//1 
f 18//1 19//1 20//1 
f 20//1 19//1 21//1 
f 21//1 19//1 22//1 
f 22//1 19//1 23//1 
f 22//1 23//1 24//1 
f 24//1 23//1 25//1 
f 25//1 23//1 26//1 
f 26//1 23//1 27//1 
f 27//1 23//1 28//1 
f 27//1 28//1 29//1 
f 29//1 28//1 30//1 
f 29//1 30//1 31//1 
f 31//1 30//1 32//1 
f 31//1 32//1 33//1 
f 33//1 32//1 34//1 
f 33//1 34//1 35//1 
f 35//1 34//1 36//1 
f 35//1 36//1 37//1 
f 35//2 37//2 38//2 
f 38//1 37//1 39//1 
f 40//1 41//1 5//1 
f 5//1 6//1 42//1 
f 5//1 42//1 43//1 
f 5//1 43//1 44//1 
f 40//1 5//1 44//1 
f 40//1 44//1 45//1 
f 46//2 47//2 48//2 
f 49//1 46//1 48//1 
f 49//1 48//1 8//1 
f 49//1 8//1 7//1 
f 45//1 49//1 7//1 
f 40//1 45//1 7//1 
f 40//1 7//1 50//1 
f 40//1 50//1 51//1 
f 40//1 51//1 52//1 
f 52//1 51//1 53//1 
f 52//1 53//1 54//1 
f 54//1 53//1 55//1 
f 54//1 55//1 56//1 
f 54//1 56//1 57//1 
f 57//1 56//1 58//1 
f 57//1 58//1 25//1 
f 57//1 25//1 26//1 
f 44//2 43//2 59//2 
f 44//1 59//1 60//1 
f 60//1 59//1 61//1 
f 61//1 59//1 62//1 
f 61//1 62//1 63//1 
f 63//2 62//2 64//2 
f 63//1 64//1 65//1 
f 65//1 64//1 66//1 
f 65//2 66//2 67//2 
f 67//1 66//1 68//1 
f 68//1 66//1 69//1 
f 68//1 69//1 70//1 
f 70//1 69//1 71//1 
f 71//2 69//2 46//2 
f 46//1 69//1 47//1 
f 40//3 72//3 73//3 
f 40//3 73//3 41//3 
f 5//4 41//4 73//4 
f 5//4 73//4 74//4 
f 16//5 75//5 76//5 
f 16//5 76//5 17//5 
f 76//6 75//6 77//6 
f 76//7 77//7 78//7 
f 78//8 77//8 79//8 
f 78//9 79//9 80//9 
f 78//10 80//10 81//10 
f 78//11 81//11 82//11 
f 82//12 81//12 83//12 
f 82//13 83//13 84//13 
f 82//14 84//14 85//14 
f 82//15 85//15 86//15 
f 82//16 86//16 87//16 
f 87//17 86//17 88//17 
f 87//18 88//18 89//18 
f 89//19 88//19 90//19 
f 89//20 90//20 91//20 
f 91//21 90//21 92//21 
f 91//22 92//22 93//22 
f 93//23 92//23 94//23 
f 93//24 94//24 95//24 
f 95//25 94//25 96//25 
f 96//26 94//26 97//26 
f 96//27 97//27 98//27 
f 99//28 100//28 101//28 
f 99//29 101//29 102//29 
f 102//30 101//30 103//30 
f 102//31 103//31 104//31 
f 104//32 103//32 105//32 
f 104//33 105//33 106//33 
f 106//34 105//34 107//34 
f 108//35 109//35 110//35 
f 108//36 110//36 111//36 
f 111//37 110//37 74//37 
f 111//38 74//38 112//38 
f 73//39 72//39 74//39 
f 112//40 74//40 113//40 
f 113//41 74//41 114//41 
f 114//42 74//42 115//42 
f 74//43 72//43 115//43 
f 115//44 72//44 116//44 
f 117//45 118//45 119//45 
f 118//46 120//46 119//46 
f 119//47 120//47 99//47 
f 99//48 120//48 100//48 
f 120//49 116//49 100//49 
f 116//50 72//50 100//50 
f 100//51 72//51 121//51 
f 121//52 72//52 122//52 
f 122//53 72//53 123//53 
f 122//54 123//54 124//54 
f 124//55 123//55 125//55 
f 124//56 125//56 126//56 
f 126//57 125//57 127//57 
f 127//58 125//58 128//58 
f 127//59 128//59 129//59 
f 129//60 128//60 84//60 
f 84//61 128//61 85//61 
f 114//62 115//62 130//62 
f 130//63 115//63 131//63 
f 130//64 131//64 132//64 
f 130//65 132//65 133//65 
f 133//66 132//66 134//66 
f 133//67 134//67 135//67 
f 135//68 134//68 136//68 
f 135//69 136//69 137//69 
f 137//70 136//70 138//70 
f 137//71 138//71 139//71 
f 137//72 139//72 140//72 
f 140//73 139//73 141//73 
f 140//74 141//74 142//74 
f 140//75 142//75 118//75 
f 140//76 118//76 117//76 
f 45//77 44//77 115//77 
f 45//77 115//77 116//77 
# eof
