# j.c. convert leaf file to obj
# Verts
v 0.878000 2.131000 1.000000
v 0.601248 2.102880 1.000000
v 1.175000 2.101760 1.000000
v 0.347000 2.018520 1.000000
v 1.454000 2.014000 1.000000
v 0.115248 1.877880 1.000000
v 1.832000 1.782240 1.000000
v -0.094000 1.681000 1.000000
v 1.958000 1.465000 1.000000
v -2.204500 1.627000 1.000000
v -2.272000 1.384000 1.000000
v 1.839880 1.108360 1.000000
v -2.125750 1.022320 1.000000
v 1.485500 0.767480 1.000000
v -1.687000 0.693240 1.000000
v 0.894880 0.442360 1.000000
v -0.955752 0.396800 1.000000
v 0.068000 0.133000 1.000000
v -0.951248 2.018520 1.000000
v -1.246000 2.041000 1.000000
v -1.651000 1.998240 1.000000
v -0.661000 1.951000 1.000000
v -2.002000 1.870000 1.000000
v 0.601248 2.102880 -1.000000
v 0.878000 2.131000 -1.000000
v 1.175000 2.101760 -1.000000
v 0.347000 2.018520 -1.000000
v 1.454000 2.014000 -1.000000
v 0.115248 1.877880 -1.000000
v 1.832000 1.782240 -1.000000
v -0.094000 1.681000 -1.000000
v 1.958000 1.465000 -1.000000
v -2.204500 1.627000 -1.000000
v -2.272000 1.384000 -1.000000
v 1.839880 1.108360 -1.000000
v -2.125750 1.022320 -1.000000
v 1.485500 0.767480 -1.000000
v -1.687000 0.693240 -1.000000
v 0.894872 0.442360 -1.000000
v -0.955752 0.396800 -1.000000
v 0.068000 0.133000 -1.000000
v -1.246000 2.041000 -1.000000
v -0.951248 2.018520 -1.000000
v -1.651000 1.998240 -1.000000
v -0.661000 1.951000 -1.000000
v -2.002000 1.870000 -1.000000
# UVs
# Normals
vn 0.000000 0.000000 1.000000
vn 0.000000 0.000000 1.000000
vn 0.000000 0.000000 1.000000
vn 0.000000 0.000000 -1.000000
vn 0.000000 -0.000000 -1.000000
# Material
mtllib heart11-pocket.mtl
usemtl heart11-pocket
# Faces
f 1//1 2//1 3//1 
f 3//1 2//1 4//1 
f 3//1 4//1 5//1 
f 5//2 4//2 6//2 
f 5//1 6//1 7//1 
f 7//1 6//1 8//1 
f 7//2 8//2 9//2 
f 8//1 10//1 9//1 
f 9//1 10//1 11//1 
f 9//2 11//2 12//2 
f 12//1 11//1 13//1 
f 12//1 13//1 14//1 
f 14//1 13//1 15//1 
f 14//3 15//3 16//3 
f 16//1 15//1 17//1 
f 16//2 17//2 18//2 
f 19//1 20//1 21//1 
f 19//1 21//1 22//1 
f 22//1 21//1 23//1 
f 22//1 23//1 8//1 
f 8//1 23//1 10//1 
f 24//4 25//4 26//4 
f 24//4 26//4 27//4 
f 27//4 26//4 28//4 
f 27//5 28//5 29//5 
f 29//4 28//4 30//4 
f 29//4 30//4 31//4 
f 31//5 30//5 32//5 
f 33//4 31//4 32//4 
f 33//4 32//4 34//4 
f 34//5 32//5 35//5 
f 34//4 35//4 36//4 
f 36//4 35//4 37//4 
f 36//4 37//4 38//4 
f 38//4 37//4 39//4 
f 38//4 39//4 40//4 
f 40//4 39//4 41//4 
f 42//4 43//4 44//4 
f 44//4 43//4 45//4 
f 44//4 45//4 46//4 
f 46//4 45//4 31//4 
f 46//4 31//4 33//4 
# eof
