# j.c. convert leaf file to obj
# Verts
v 0.681750 0.500000 -1.903500
v 0.681750 -0.000000 -1.903500
v 0.646875 0.500000 -1.925440
v 0.646875 -0.000000 -1.925440
v 0.609750 0.500000 -1.932750
v 0.609750 -0.000000 -1.932750
v 0.575156 0.500000 -1.925720
v 0.575156 -0.000000 -1.925720
v 0.543375 0.500000 -1.904630
v 0.543375 -0.000000 -1.904630
v 0.514406 0.500000 -1.869470
v 0.514406 -0.000000 -1.869470
v 0.488250 0.500000 -1.820250
v 0.488250 -0.000000 -1.820250
v 0.417375 0.500000 -1.887750
v 0.417375 -0.000000 -1.887750
v 0.381094 0.500000 -1.904630
v 0.381094 -0.000000 -1.904630
v 0.344250 0.500000 -1.910250
v 0.344250 -0.000000 -1.910250
v 0.293625 0.500000 -1.899560
v 0.293625 -0.000000 -1.899560
v 0.249750 0.500000 -1.867500
v 0.249750 -0.000000 -1.867500
v 0.224438 0.500000 -1.806750
v 0.224438 -0.000000 -1.806750
v 0.216000 0.500000 -1.746000
v 0.216000 -0.000000 -1.746000
v 0.234281 0.500000 -1.655580
v 0.234281 -0.000000 -1.655580
v 0.289125 0.500000 -1.573310
v 0.289125 -0.000000 -1.573310
v 0.380531 -0.000000 -1.499200
v 0.380531 0.500000 -1.499200
v 0.508500 -0.000000 -1.433250
v 0.508500 0.500000 -1.433250
v 0.611859 -0.000000 -1.510590
v 0.611860 0.500000 -1.510590
v 0.685688 0.500000 -1.591870
v 0.685688 -0.000000 -1.591870
v 0.729985 0.500000 -1.677090
v 0.729985 -0.000000 -1.677090
v 0.744750 0.500000 -1.766250
v 0.744750 -0.000000 -1.766250
v 0.729000 0.500000 -1.845560
v 0.729000 -0.000000 -1.845560
# UVs
# Normals
vn 0.702374 0.000000 -0.711808
vn 0.620589 0.000000 -0.784136
vn 0.425746 0.000000 -0.904843
vn 0.310933 0.000000 -0.950432
vn 0.063510 0.000000 -0.997981
vn -0.069565 0.000000 -0.997577
vn -0.322372 0.000000 -0.946613
vn -0.442273 0.000000 -0.896881
vn -0.632011 0.000000 -0.774960
vn -0.705674 0.000000 -0.708536
vn -0.812506 0.000000 -0.582953
vn -0.849764 0.000000 -0.527163
vn -0.543469 0.000000 -0.839429
vn 0.250543 0.000000 -0.968106
vn 0.607514 0.000000 -0.794309
vn 0.517180 0.000000 -0.855877
vn 0.334479 0.000000 -0.942403
vn 0.243316 0.000000 -0.969947
vn 0.032119 0.000000 -0.999484
vn -0.088742 0.000000 -0.996055
vn -0.341145 0.000000 -0.940011
vn -0.471518 0.000000 -0.881857
vn -0.724735 0.000000 -0.689027
vn -0.839523 0.000000 -0.543325
vn -0.952515 0.000000 -0.304492
vn -0.975151 0.000000 -0.221541
vn -0.999662 0.000000 -0.025989
vn -0.996177 0.000000 0.087356
vn -0.946607 0.000000 0.322390
vn -0.896400 0.000000 0.443246
vn -0.739312 0.000000 0.673363
vn -0.739312 0.000000 0.673363
vn -0.575253 0.000000 0.817976
vn -0.517756 0.000000 0.855529
vn -0.122059 0.000000 0.992523
vn 0.284891 -0.000000 0.958560
vn 0.672732 -0.000001 0.739886
vn 0.672732 -0.000001 0.739886
vn 0.795117 -0.000000 0.606456
vn 0.844504 0.000000 0.535549
vn 0.930630 0.000000 0.365962
vn 0.964089 0.000000 0.265579
vn 0.999004 0.000000 0.044630
vn 0.997070 0.000000 -0.076496
vn 0.936856 0.000000 -0.349716
vn 0.866379 0.000000 -0.499386
# Material
mtllib i12.mtl
usemtl i12
# Faces
f 1//1 2//2 3//3 
f 3//3 2//2 4//4 
f 3//3 4//4 5//5 
f 5//5 4//4 6//6 
f 5//5 6//6 7//7 
f 7//7 6//6 8//8 
f 7//7 8//8 9//9 
f 9//9 8//8 10//10 
f 11//11 9//9 10//10 
f 11//11 10//10 12//12 
f 13//13 11//11 12//12 
f 13//13 12//12 14//14 
f 13//13 14//14 15//15 
f 15//15 14//14 16//16 
f 15//15 16//16 17//17 
f 17//17 16//16 18//18 
f 17//17 18//18 19//19 
f 19//19 18//18 20//20 
f 19//19 20//20 21//21 
f 21//21 20//20 22//22 
f 21//21 22//22 23//23 
f 23//23 22//22 24//24 
f 25//25 23//23 24//24 
f 25//25 24//24 26//26 
f 27//27 25//25 26//26 
f 27//27 26//26 28//28 
f 29//29 27//27 28//28 
f 29//29 28//28 30//30 
f 31//31 29//29 30//30 
f 31//31 30//30 32//32 
f 33//33 34//34 31//31 
f 33//33 31//31 32//32 
f 35//35 36//36 34//34 
f 35//35 34//34 33//33 
f 37//37 38//38 36//36 
f 37//37 36//36 35//35 
f 39//39 38//38 37//37 
f 39//39 37//37 40//40 
f 41//41 39//39 40//40 
f 41//41 40//40 42//42 
f 43//43 41//41 42//42 
f 43//43 42//42 44//44 
f 45//45 43//43 44//44 
f 45//45 44//44 46//46 
f 1//1 45//45 46//46 
f 1//1 46//46 2//2 
# eof
