# j.c. convert leaf file to obj
# Verts
v 0.668250 0.500000 -1.491750
v 0.254250 0.500000 -1.464750
v 0.650250 0.500000 -0.895500
v 1.177880 0.500000 -0.842625
v 1.073250 0.500000 -0.740250
v 1.156360 0.500000 -0.676969
v 0.739055 0.500000 -0.605250
v 0.650250 0.500000 -0.589500
v 0.254250 0.500000 -0.000000
v 0.636750 0.500000 -0.000000
v 1.343250 0.500000 -1.298250
v 0.981000 0.500000 -1.399500
v 0.987750 0.500000 -1.287000
v 0.982477 0.500000 -1.197700
v 1.312880 0.500000 -1.121620
v 0.966657 0.500000 -1.119940
v 0.940289 0.500000 -1.053700
v 0.903375 0.500000 -0.999000
v 1.257750 0.500000 -0.969750
v 0.855914 0.500000 -0.955828
v 0.797907 0.500000 -0.924188
v 0.729352 0.500000 -0.904078
v 1.227790 0.500000 -0.604125
v 0.797343 0.500000 -0.596953
v 0.847859 0.500000 -0.572063
v 0.890604 0.500000 -0.530578
v 1.287540 0.500000 -0.521719
v 0.925577 0.500000 -0.472500
v 1.335620 0.500000 -0.429750
v 0.952778 0.500000 -0.397828
v 0.972207 0.500000 -0.306563
v 1.390430 0.500000 -0.263391
v 0.987750 0.500000 -0.074250
v 1.427970 0.500000 -0.061312
v 1.448240 0.500000 0.176484
v 0.975375 0.500000 0.195188
v 1.451250 0.500000 0.450000
v 0.938250 0.500000 0.486000
v 1.343250 -0.000000 -1.298250
v 0.981000 -0.000000 -1.399500
v 0.650250 -0.000000 -0.895500
v 0.668250 -0.000000 -1.491750
v 0.254250 -0.000000 -1.464750
v 0.254250 0.000000 0.000000
v 0.636750 0.000000 0.000000
v 0.650250 -0.000000 -0.589500
v 1.451250 0.000000 0.450000
v 0.938250 0.000000 0.486000
v 1.177880 -0.000000 -0.842625
v 1.073250 -0.000000 -0.740250
v 1.156360 -0.000000 -0.676969
v 0.739055 -0.000000 -0.605250
v 1.227790 -0.000000 -0.604125
v 0.797343 -0.000000 -0.596953
v 0.847859 -0.000000 -0.572063
v 0.890604 -0.000000 -0.530578
v 1.287540 -0.000000 -0.521719
v 0.925576 -0.000000 -0.472500
v 1.335620 -0.000000 -0.429750
v 0.952777 -0.000000 -0.397828
v 0.972207 -0.000000 -0.306563
v 1.390430 -0.000000 -0.263391
v 0.987750 -0.000000 -0.074250
v 1.427970 -0.000000 -0.061312
v 1.448240 0.000000 0.176484
v 0.975375 0.000000 0.195188
v 0.987750 -0.000000 -1.287000
v 0.982477 -0.000000 -1.197700
v 1.312880 -0.000000 -1.121620
v 0.966656 -0.000000 -1.119940
v 0.940289 -0.000000 -1.053700
v 0.903375 -0.000000 -0.999000
v 1.257750 -0.000000 -0.969750
v 0.855914 -0.000000 -0.955828
v 0.797906 -0.000000 -0.924188
v 0.729352 -0.000000 -0.904078
# UVs
# Normals
vn 0.000000 1.000000 0.000000
vn 0.000000 1.000000 0.000000
vn 0.269186 0.000000 -0.963088
vn 0.999545 0.000000 0.030175
vn -0.065079 -0.000000 -0.997880
vn -1.000000 0.000000 -0.000000
vn 0.000000 0.000000 1.000000
vn 0.999738 0.000000 0.022895
vn 0.070003 -0.000000 0.997547
vn 0.000000 -1.000000 0.000000
vn -0.000000 -1.000000 0.000000
vn -0.000000 -1.000000 0.000000
vn -0.000000 -1.000000 0.000000
vn 0.000000 -1.000000 0.000000
vn 0.000000 -1.000000 0.000000
vn -0.000000 -1.000000 0.000000
vn 0.000000 -1.000000 0.000000
vn 0.000000 -1.000000 0.000000
vn 0.000000 -1.000000 0.000000
vn -0.000000 -1.000000 0.000000
vn 0.000000 -1.000000 0.000000
vn -0.000000 -1.000000 0.000000
vn -0.000000 -1.000000 0.000000
vn -0.000000 -1.000000 0.000000
vn -0.000000 -1.000000 0.000000
vn -0.000000 -1.000000 0.000000
vn -0.000000 -1.000000 0.000000
vn -0.000000 -1.000000 0.000000
vn 0.000000 -1.000000 0.000000
vn 0.000000 -1.000000 0.000000
vn -0.000000 -1.000000 0.000000
vn -0.000000 -1.000000 0.000000
vn 0.000000 -1.000000 0.000000
vn 0.000000 -1.000000 0.000000
vn 0.000000 -1.000000 0.000000
vn 0.000000 -1.000000 0.000000
vn -0.000000 -1.000000 0.000000
vn -0.000000 -1.000000 0.000000
vn -0.000000 -1.000000 0.000000
vn -0.000000 -1.000000 0.000000
vn 0.000000 -1.000000 0.000000
vn 0.000000 -1.000000 0.000000
vn -0.000000 -1.000000 0.000000
vn 0.000000 -1.000000 0.000000
vn -0.000000 -1.000000 0.000000
# Material
mtllib k2.mtl
usemtl k2
# Faces
f 1//1 2//1 3//1 
f 4//1 3//1 5//1 
f 5//1 3//1 6//1 
f 6//1 3//1 7//1 
f 3//1 2//1 7//1 
f 7//1 2//1 8//1 
f 8//1 2//1 9//1 
f 8//2 9//2 10//2 
f 11//1 12//1 13//1 
f 11//1 13//1 14//1 
f 11//1 14//1 15//1 
f 15//1 14//1 16//1 
f 15//1 16//1 17//1 
f 15//1 17//1 18//1 
f 15//2 18//2 19//2 
f 19//1 18//1 20//1 
f 19//2 20//2 21//2 
f 19//1 21//1 22//1 
f 19//1 22//1 4//1 
f 22//1 3//1 4//1 
f 6//2 7//2 23//2 
f 23//2 7//2 24//2 
f 23//1 24//1 25//1 
f 23//1 25//1 26//1 
f 23//2 26//2 27//2 
f 27//1 26//1 28//1 
f 27//1 28//1 29//1 
f 29//1 28//1 30//1 
f 29//1 30//1 31//1 
f 29//1 31//1 32//1 
f 32//2 31//2 33//2 
f 32//1 33//1 34//1 
f 34//1 33//1 35//1 
f 35//1 33//1 36//1 
f 35//1 36//1 37//1 
f 37//1 36//1 38//1 
f 11//3 39//3 12//3 
f 12//3 39//3 40//3 
f 1//4 3//4 41//4 
f 1//4 41//4 42//4 
f 1//5 42//5 2//5 
f 2//5 42//5 43//5 
f 9//6 2//6 43//6 
f 9//6 43//6 44//6 
f 45//7 10//7 9//7 
f 45//7 9//7 44//7 
f 8//8 10//8 45//8 
f 8//8 45//8 46//8 
f 47//9 37//9 38//9 
f 47//9 38//9 48//9 
f 43//10 42//10 41//10 
f 41//11 49//11 50//11 
f 41//12 50//12 51//12 
f 41//13 51//13 52//13 
f 43//14 41//14 52//14 
f 43//15 52//15 46//15 
f 43//16 46//16 45//16 
f 43//17 45//17 44//17 
f 52//18 51//18 53//18 
f 52//19 53//19 54//19 
f 54//20 53//20 55//20 
f 55//21 53//21 56//21 
f 56//22 53//22 57//22 
f 56//23 57//23 58//23 
f 58//24 57//24 59//24 
f 58//25 59//25 60//25 
f 60//26 59//26 61//26 
f 61//27 59//27 62//27 
f 61//28 62//28 63//28 
f 63//29 62//29 64//29 
f 63//30 64//30 65//30 
f 63//31 65//31 66//31 
f 66//32 65//32 47//32 
f 66//33 47//33 48//33 
f 40//34 39//34 67//34 
f 67//35 39//35 68//35 
f 68//36 39//36 69//36 
f 68//37 69//37 70//37 
f 70//38 69//38 71//38 
f 71//39 69//39 72//39 
f 72//40 69//40 73//40 
f 72//41 73//41 74//41 
f 74//42 73//42 75//42 
f 75//43 73//43 76//43 
f 76//44 73//44 49//44 
f 41//45 76//45 49//45 
# eof
