# j.c. convert leaf file to obj
# Verts
v 2.090110 0.500000 -1.282150
v 0.954000 0.500000 -1.194750
v 0.995661 0.500000 -1.190040
v 1.678500 0.500000 -1.183500
v 2.141500 0.500000 -1.183150
v 1.717520 0.500000 -1.178570
v 1.751350 0.500000 -1.163780
v 1.779960 0.500000 -1.139120
v 1.803380 0.500000 -1.104610
v 2.176280 0.500000 -1.082180
v 1.834590 0.500000 -1.006000
v 2.194440 0.500000 -0.979242
v 2.196000 0.500000 -0.874336
v 1.845000 0.500000 -0.867938
v 1.838810 0.500000 -0.741700
v 1.820250 0.500000 -0.610981
v 2.182500 0.500000 -0.459738
v 1.754440 0.500000 -0.239054
v 2.198250 0.500000 0.026930
v 1.732500 0.500000 0.065250
v 0.576035 0.500000 -1.478250
v 0.254250 0.500000 -1.464780
v 0.582750 0.500000 -1.392750
v 1.299230 0.500000 -1.363500
v 0.897610 0.500000 -1.186410
v 0.845438 0.500000 -1.163640
v 0.797485 0.500000 -1.126430
v 0.753750 0.500000 -1.074800
v 0.714235 0.500000 -1.008730
v 0.678938 0.500000 -0.928231
v 0.621000 0.500000 -0.723938
v 0.616500 0.500000 -0.616324
v 0.625500 0.500000 -0.459387
v 0.652500 0.500000 -0.262090
v 0.690750 0.500000 0.013676
v 0.294750 0.500000 0.065250
v 1.652980 0.500000 -1.532250
v 1.548070 0.500000 -1.521700
v 1.787610 0.500000 -1.516620
v 1.454150 0.500000 -1.490060
v 1.905350 0.500000 -1.469730
v 1.371200 0.500000 -1.437330
v 2.006180 0.500000 -1.391570
v 0.927493 0.500000 -1.523250
v 0.832434 0.500000 -1.515090
v 1.036060 0.500000 -1.513270
v 0.743291 0.500000 -1.490630
v 1.134210 0.500000 -1.483310
v 0.660063 0.500000 -1.449840
v 1.221940 0.500000 -1.433390
v 1.641450 0.500000 -1.177580
v 1.031770 0.500000 -1.173660
v 1.607910 0.500000 -1.159830
v 1.062320 0.500000 -1.145600
v 1.577880 0.500000 -1.130250
v 1.087310 0.500000 -1.105880
v 1.551380 0.500000 -1.088830
v 1.120640 0.500000 -0.991407
v 1.508910 0.500000 -0.970499
v 1.131750 0.500000 -0.830250
v 1.480500 0.500000 -0.804832
v 1.116000 0.500000 -0.607500
v 1.451810 0.500000 -0.404200
v 0.990000 0.500000 0.049500
v 1.442250 0.500000 0.108000
v 0.582750 -0.000000 -1.392750
v 0.576035 -0.000000 -1.478250
v 0.254250 -0.000000 -1.464780
v 0.294750 0.000000 0.065250
v 0.690750 0.000000 0.013676
v 1.442250 0.000000 0.108000
v 0.990000 0.000000 0.049500
v 2.198250 0.000000 0.026930
v 1.732500 0.000000 0.065250
v 0.954000 -0.000000 -1.194750
v 2.090110 -0.000000 -1.282150
v 0.995660 -0.000000 -1.190040
v 1.678500 -0.000000 -1.183500
v 2.141500 -0.000000 -1.183150
v 1.717520 -0.000000 -1.178570
v 1.751340 -0.000000 -1.163780
v 1.779960 -0.000000 -1.139120
v 1.803380 -0.000000 -1.104610
v 2.176280 -0.000000 -1.082180
v 1.834590 -0.000000 -1.006000
v 2.194440 -0.000000 -0.979242
v 2.196000 -0.000000 -0.874336
v 1.845000 -0.000000 -0.867938
v 1.838810 -0.000000 -0.741700
v 1.820250 -0.000000 -0.610981
v 2.182500 -0.000000 -0.459738
v 1.754440 -0.000000 -0.239054
v 1.641450 -0.000000 -1.177580
v 1.031770 -0.000000 -1.173660
v 1.607910 -0.000000 -1.159830
v 1.062320 -0.000000 -1.145600
v 1.577880 -0.000000 -1.130250
v 1.087310 -0.000000 -1.105880
v 1.551380 -0.000000 -1.088830
v 1.120640 -0.000000 -0.991406
v 1.508910 -0.000000 -0.970499
v 1.131750 -0.000000 -0.830250
v 1.480500 -0.000000 -0.804832
v 1.116000 -0.000000 -0.607500
v 1.451810 -0.000000 -0.404200
v 1.299230 -0.000000 -1.363500
v 0.897610 -0.000000 -1.186410
v 0.845438 -0.000000 -1.163640
v 0.797485 -0.000000 -1.126430
v 0.753750 -0.000000 -1.074800
v 0.714235 -0.000000 -1.008730
v 0.678938 -0.000000 -0.928231
v 0.621000 -0.000000 -0.723938
v 0.616500 -0.000000 -0.616324
v 0.625500 -0.000000 -0.459387
v 0.652500 -0.000000 -0.262090
v 0.832434 -0.000000 -1.515090
v 0.927492 -0.000000 -1.523250
v 1.036060 -0.000000 -1.513270
v 0.743291 -0.000000 -1.490630
v 1.134210 -0.000000 -1.483310
v 0.660063 -0.000000 -1.449840
v 1.221940 -0.000000 -1.433390
v 1.548070 -0.000000 -1.521700
v 1.652980 -0.000000 -1.532250
v 1.787610 -0.000000 -1.516620
v 1.454150 -0.000000 -1.490060
v 1.905350 -0.000000 -1.469730
v 1.371200 -0.000000 -1.437330
v 2.006180 -0.000000 -1.391570
# UVs
# Normals
vn 0.000000 1.000000 0.000000
vn 0.000000 1.000000 0.000000
vn 0.996930 0.000000 -0.078297
vn -0.041824 -0.000000 -0.999125
vn -0.999650 0.000000 0.026461
vn -0.999650 0.000000 0.026461
vn 0.129147 -0.000000 0.991625
vn -0.128284 0.000000 0.991737
vn 0.081999 -0.000000 0.996632
vn 0.000000 -1.000000 0.000000
vn 0.000000 -1.000000 0.000000
vn -0.000000 -1.000000 0.000000
vn -0.000000 -1.000000 0.000000
vn 0.000000 -1.000000 0.000000
vn -0.000000 -1.000000 0.000000
vn 0.000000 -1.000000 0.000000
vn -0.000000 -1.000000 0.000000
vn -0.000000 -1.000000 0.000000
vn -0.000000 -1.000000 0.000000
vn -0.000000 -1.000000 0.000000
vn 0.000000 -1.000000 0.000000
vn 0.000000 -1.000000 0.000000
vn -0.000000 -1.000000 0.000000
vn -0.000000 -1.000000 0.000000
vn -0.000000 -1.000000 0.000000
vn 0.000000 -1.000000 0.000000
vn 0.000000 -1.000000 0.000000
vn 0.000000 -1.000000 0.000000
vn -0.000000 -1.000000 0.000000
vn -0.000000 -1.000000 0.000000
vn -0.000000 -1.000000 0.000000
vn 0.000000 -1.000000 0.000000
vn -0.000000 -1.000000 0.000000
vn -0.000000 -1.000000 0.000000
vn -0.000000 -1.000000 0.000000
vn -0.000000 -1.000000 0.000000
vn -0.000000 -1.000000 0.000000
vn 0.000000 -1.000000 0.000000
vn 0.000000 -1.000000 0.000000
vn 0.000000 -1.000000 0.000000
vn 0.000000 -1.000000 0.000000
vn 0.000000 -1.000000 0.000000
vn 0.000000 -1.000000 0.000000
vn -0.000000 -1.000000 0.000000
vn 0.000000 -1.000000 0.000000
vn 0.000000 -1.000000 0.000000
vn -0.000000 -1.000000 0.000000
vn -0.000000 -1.000000 0.000000
vn 0.000000 -1.000000 0.000000
vn -0.000000 -1.000000 0.000000
vn 0.000000 -1.000000 0.000000
vn 0.000000 -1.000000 0.000000
vn 0.000000 -1.000000 0.000000
vn 0.000000 -1.000000 0.000000
vn -0.000000 -1.000000 0.000000
vn 0.000000 -1.000000 0.000000
vn 0.000000 -1.000000 0.000000
vn 0.000000 -1.000000 0.000000
vn 0.000000 -1.000000 0.000000
vn 0.000000 -1.000000 0.000000
vn -0.000000 -1.000000 0.000000
vn -0.000000 -1.000000 0.000000
vn 0.000000 -1.000000 0.000000
vn 0.000000 -1.000000 0.000000
vn -0.000000 -1.000000 0.000000
vn 0.000000 -1.000000 0.000000
vn 0.000000 -1.000000 0.000000
vn 0.000000 -1.000000 0.000000
vn 0.000000 -1.000000 0.000000
vn 0.000000 -1.000000 0.000000
vn 0.000000 -1.000000 0.000000
vn 0.000000 -1.000000 0.000000
# Material
mtllib m2.mtl
usemtl m2
# Faces
f 1//1 2//1 3//1 
f 1//2 3//2 4//2 
f 1//1 4//1 5//1 
f 5//1 4//1 6//1 
f 5//2 6//2 7//2 
f 5//1 7//1 8//1 
f 5//2 8//2 9//2 
f 5//1 9//1 10//1 
f 10//1 9//1 11//1 
f 10//1 11//1 12//1 
f 12//1 11//1 13//1 
f 13//1 11//1 14//1 
f 13//1 14//1 15//1 
f 13//1 15//1 16//1 
f 13//1 16//1 17//1 
f 17//1 16//1 18//1 
f 17//1 18//1 19//1 
f 19//1 18//1 20//1 
f 21//2 22//2 23//2 
f 24//1 23//1 1//1 
f 1//1 23//1 2//1 
f 23//1 22//1 2//1 
f 2//1 22//1 25//1 
f 25//1 22//1 26//1 
f 26//1 22//1 27//1 
f 27//1 22//1 28//1 
f 28//1 22//1 29//1 
f 29//1 22//1 30//1 
f 30//1 22//1 31//1 
f 31//1 22//1 32//1 
f 32//1 22//1 33//1 
f 33//1 22//1 34//1 
f 34//1 22//1 35//1 
f 35//1 22//1 36//1 
f 37//1 38//1 39//1 
f 39//2 38//2 40//2 
f 39//1 40//1 41//1 
f 41//1 40//1 42//1 
f 41//1 42//1 43//1 
f 43//2 42//2 24//2 
f 43//1 24//1 1//1 
f 44//2 45//2 46//2 
f 46//1 45//1 47//1 
f 46//1 47//1 48//1 
f 48//1 47//1 49//1 
f 48//1 49//1 50//1 
f 50//1 49//1 23//1 
f 50//1 23//1 24//1 
f 4//1 3//1 51//1 
f 51//1 3//1 52//1 
f 51//1 52//1 53//1 
f 53//1 52//1 54//1 
f 53//1 54//1 55//1 
f 55//1 54//1 56//1 
f 55//1 56//1 57//1 
f 57//1 56//1 58//1 
f 57//2 58//2 59//2 
f 59//1 58//1 60//1 
f 59//2 60//2 61//2 
f 61//2 60//2 62//2 
f 61//1 62//1 63//1 
f 63//1 62//1 64//1 
f 63//1 64//1 65//1 
f 21//3 23//3 66//3 
f 21//3 66//3 67//3 
f 21//4 67//4 22//4 
f 22//4 67//4 68//4 
f 36//5 22//5 68//5 
f 36//6 68//6 69//6 
f 70//7 35//7 36//7 
f 70//7 36//7 69//7 
f 71//8 65//8 64//8 
f 71//8 64//8 72//8 
f 73//9 19//9 20//9 
f 73//9 20//9 74//9 
f 75//10 76//10 77//10 
f 77//11 76//11 78//11 
f 78//12 76//12 79//12 
f 78//13 79//13 80//13 
f 80//14 79//14 81//14 
f 81//15 79//15 82//15 
f 82//16 79//16 83//16 
f 83//17 79//17 84//17 
f 83//18 84//18 85//18 
f 85//19 84//19 86//19 
f 85//20 86//20 87//20 
f 85//21 87//21 88//21 
f 88//22 87//22 89//22 
f 89//23 87//23 90//23 
f 90//24 87//24 91//24 
f 90//25 91//25 92//25 
f 92//26 91//26 73//26 
f 92//27 73//27 74//27 
f 77//28 78//28 93//28 
f 77//29 93//29 94//29 
f 94//30 93//30 95//30 
f 94//31 95//31 96//31 
f 96//32 95//32 97//32 
f 96//33 97//33 98//33 
f 98//34 97//34 99//34 
f 98//35 99//35 100//35 
f 100//36 99//36 101//36 
f 100//37 101//37 102//37 
f 102//38 101//38 103//38 
f 102//39 103//39 104//39 
f 104//40 103//40 105//40 
f 104//41 105//41 72//41 
f 72//42 105//42 71//42 
f 68//43 67//43 66//43 
f 66//44 106//44 76//44 
f 66//45 76//45 75//45 
f 68//46 66//46 75//46 
f 68//47 75//47 107//47 
f 68//48 107//48 108//48 
f 68//49 108//49 109//49 
f 68//50 109//50 110//50 
f 68//51 110//51 111//51 
f 68//52 111//52 112//52 
f 68//53 112//53 113//53 
f 68//54 113//54 114//54 
f 68//55 114//55 115//55 
f 68//56 115//56 116//56 
f 68//57 116//57 70//57 
f 68//58 70//58 69//58 
f 117//59 118//59 119//59 
f 117//60 119//60 120//60 
f 120//61 119//61 121//61 
f 120//62 121//62 122//62 
f 122//63 121//63 123//63 
f 122//64 123//64 66//64 
f 66//65 123//65 106//65 
f 124//66 125//66 126//66 
f 124//67 126//67 127//67 
f 127//68 126//68 128//68 
f 127//69 128//69 129//69 
f 129//70 128//70 130//70 
f 129//71 130//71 106//71 
f 106//72 130//72 76//72 
# eof
