# j.c. convert leaf file to obj
# Verts
v 1.363500 0.500000 -1.278000
v 0.951012 0.500000 -1.194750
v 0.989611 0.500000 -1.186560
v 1.413000 0.500000 -1.184480
v 1.022910 0.500000 -1.159730
v 1.050920 0.500000 -1.114280
v 1.449000 0.500000 -1.086190
v 1.073630 0.500000 -1.050190
v 1.471500 0.500000 -0.983110
v 1.480500 0.500000 -0.875250
v 1.103160 0.500000 -0.866110
v 1.111500 0.500000 -0.607500
v 1.507500 0.500000 0.076500
v 1.111500 0.500000 0.117000
v 0.580500 0.500000 -1.514250
v 0.254250 0.500000 -1.464750
v 0.589500 0.500000 -1.397250
v 1.279830 0.500000 -1.385300
v 0.864233 0.500000 -1.180550
v 0.791104 0.500000 -1.142440
v 0.731624 0.500000 -1.080420
v 0.685793 0.500000 -0.994500
v 0.649011 0.500000 -0.863438
v 0.636750 0.500000 -0.708750
v 0.648000 0.500000 -0.414000
v 0.686250 0.500000 0.020250
v 0.319500 0.500000 0.074250
v 0.929250 0.500000 -1.523250
v 0.835453 0.500000 -1.515380
v 1.062700 0.500000 -1.507920
v 0.747563 0.500000 -1.491750
v 1.179560 0.500000 -1.461940
v 0.665578 0.500000 -1.452380
v 0.589500 -0.000000 -1.397250
v 0.580500 -0.000000 -1.514250
v 0.254250 -0.000000 -1.464750
v 0.319500 0.000000 0.074250
v 0.686250 0.000000 0.020250
v 1.507500 0.000000 0.076500
v 1.111500 0.000000 0.117000
v 0.951012 -0.000000 -1.194750
v 1.363500 -0.000000 -1.278000
v 0.989611 -0.000000 -1.186560
v 1.413000 -0.000000 -1.184480
v 1.022910 -0.000000 -1.159730
v 1.050920 -0.000000 -1.114280
v 1.449000 -0.000000 -1.086190
v 1.073630 -0.000000 -1.050190
v 1.471500 -0.000000 -0.983109
v 1.480500 -0.000000 -0.875250
v 1.103160 -0.000000 -0.866109
v 1.111500 -0.000000 -0.607500
v 1.279830 -0.000000 -1.385300
v 0.864233 -0.000000 -1.180550
v 0.791104 -0.000000 -1.142440
v 0.731624 -0.000000 -1.080420
v 0.685793 -0.000000 -0.994500
v 0.649011 -0.000000 -0.863438
v 0.636750 -0.000000 -0.708750
v 0.648000 -0.000000 -0.414000
v 0.835453 -0.000000 -1.515380
v 0.929250 -0.000000 -1.523250
v 1.062700 -0.000000 -1.507920
v 0.747563 -0.000000 -1.491750
v 1.179560 -0.000000 -1.461940
v 0.665578 -0.000000 -1.452380
# UVs
# Normals
vn 0.000000 1.000000 0.000000
vn 0.000000 1.000000 0.000000
vn 0.997055 0.000000 -0.076697
vn -0.150007 -0.000000 -0.988685
vn -0.999102 0.000000 0.042360
vn -0.999102 0.000000 0.042360
vn 0.145669 -0.000000 0.989334
vn 0.101742 -0.000000 0.994811
vn 0.000000 -1.000000 0.000000
vn -0.000000 -1.000000 0.000000
vn -0.000000 -1.000000 0.000000
vn 0.000000 -1.000000 0.000000
vn -0.000000 -1.000000 0.000000
vn -0.000000 -1.000000 0.000000
vn -0.000000 -1.000000 0.000000
vn -0.000000 -1.000000 0.000000
vn -0.000000 -1.000000 0.000000
vn -0.000000 -1.000000 0.000000
vn 0.000000 -1.000000 0.000000
vn 0.000000 -1.000000 0.000000
vn 0.000000 -1.000000 0.000000
vn 0.000000 -1.000000 0.000000
vn -0.000000 -1.000000 0.000000
vn 0.000000 -1.000000 0.000000
vn -0.000000 -1.000000 0.000000
vn 0.000000 -1.000000 0.000000
vn 0.000000 -1.000000 0.000000
vn -0.000000 -1.000000 0.000000
vn 0.000000 -1.000000 0.000000
vn -0.000000 -1.000000 0.000000
vn 0.000000 -1.000000 0.000000
vn 0.000000 -1.000000 0.000000
vn 0.000000 -1.000000 0.000000
vn -0.000000 -1.000000 0.000000
vn -0.000000 -1.000000 0.000000
vn 0.000000 -1.000000 0.000000
vn -0.000000 -1.000000 0.000000
vn -0.000000 -1.000000 0.000000
vn 0.000000 -1.000000 0.000000
# Material
mtllib n2.mtl
usemtl n2
# Faces
f 1//1 2//1 3//1 
f 1//1 3//1 4//1 
f 4//2 3//2 5//2 
f 4//1 5//1 6//1 
f 4//2 6//2 7//2 
f 7//1 6//1 8//1 
f 7//1 8//1 9//1 
f 9//2 8//2 10//2 
f 10//1 8//1 11//1 
f 10//1 11//1 12//1 
f 10//1 12//1 13//1 
f 13//1 12//1 14//1 
f 15//1 16//1 17//1 
f 18//1 17//1 1//1 
f 1//1 17//1 2//1 
f 17//1 16//1 2//1 
f 2//1 16//1 19//1 
f 19//1 16//1 20//1 
f 20//1 16//1 21//1 
f 21//2 16//2 22//2 
f 22//1 16//1 23//1 
f 23//1 16//1 24//1 
f 24//1 16//1 25//1 
f 25//1 16//1 26//1 
f 26//1 16//1 27//1 
f 28//1 29//1 30//1 
f 30//2 29//2 31//2 
f 30//1 31//1 32//1 
f 32//1 31//1 33//1 
f 32//2 33//2 17//2 
f 32//1 17//1 18//1 
f 15//3 17//3 34//3 
f 15//3 34//3 35//3 
f 15//4 35//4 16//4 
f 16//4 35//4 36//4 
f 27//5 16//5 36//5 
f 27//6 36//6 37//6 
f 38//7 26//7 27//7 
f 38//7 27//7 37//7 
f 39//8 13//8 14//8 
f 39//8 14//8 40//8 
f 41//9 42//9 43//9 
f 43//10 42//10 44//10 
f 43//11 44//11 45//11 
f 45//12 44//12 46//12 
f 46//13 44//13 47//13 
f 46//14 47//14 48//14 
f 48//15 47//15 49//15 
f 48//16 49//16 50//16 
f 48//17 50//17 51//17 
f 51//18 50//18 52//18 
f 52//19 50//19 39//19 
f 52//20 39//20 40//20 
f 36//21 35//21 34//21 
f 34//22 53//22 42//22 
f 34//23 42//23 41//23 
f 36//24 34//24 41//24 
f 36//25 41//25 54//25 
f 36//26 54//26 55//26 
f 36//27 55//27 56//27 
f 36//28 56//28 57//28 
f 36//29 57//29 58//29 
f 36//30 58//30 59//30 
f 36//31 59//31 60//31 
f 36//32 60//32 38//32 
f 36//33 38//33 37//33 
f 61//34 62//34 63//34 
f 61//35 63//35 64//35 
f 64//36 63//36 65//36 
f 64//37 65//37 66//37 
f 66//38 65//38 34//38 
f 34//39 65//39 53//39 
# eof
