# j.c. convert leaf file to obj
# Verts
v 0.462971 0.500000 0.406483
v 0.544158 0.500000 0.201545
v 0.544158 -0.000000 0.201545
v 0.462971 -0.000000 0.406483
v 0.375408 0.500000 0.553295
v 0.375408 -0.000000 0.553295
v 0.329237 0.500000 0.604904
v 0.329237 -0.000000 0.604904
v 0.281471 -0.000000 0.641983
v 0.281471 0.500000 0.641983
v 0.232111 -0.000000 0.664529
v 0.232111 0.500000 0.664529
v 0.181159 -0.000000 0.672545
v 0.181159 0.500000 0.672545
v 0.082721 -0.000000 0.662982
v 0.082721 0.500000 0.662982
v -0.002592 -0.000000 0.631295
v -0.002592 0.500000 0.631295
v -0.074779 -0.000000 0.577483
v -0.074779 0.500000 0.577483
v -0.133842 0.500000 0.501545
v -0.133842 -0.000000 0.501545
v -0.174529 0.500000 0.420358
v -0.174529 -0.000000 0.420358
v -0.203592 0.500000 0.326795
v -0.203592 -0.000000 0.326795
v -0.221029 0.500000 0.220858
v -0.221029 -0.000000 0.220858
v -0.226841 0.500000 0.102545
v -0.226841 -0.000000 0.102545
v -0.220279 0.500000 -0.036017
v -0.220279 -0.000000 -0.036017
v -0.200592 0.500000 -0.169705
v -0.200592 -0.000000 -0.169705
v -0.167779 0.500000 -0.298517
v -0.167779 -0.000000 -0.298517
v -0.121841 0.500000 -0.422455
v -0.121841 -0.000000 -0.422455
v -0.065779 0.500000 -0.534955
v -0.065779 0.000000 -0.534955
v -0.005592 0.500000 -0.617455
v -0.005592 0.000000 -0.617455
v 0.058721 0.000000 -0.669955
v 0.058721 0.500000 -0.669955
v 0.127158 0.000000 -0.692455
v 0.127158 0.500000 -0.692455
v 0.180174 0.000000 -0.690767
v 0.180174 0.500000 -0.690767
v 0.226721 0.000000 -0.673705
v 0.226721 0.500000 -0.673705
v 0.266799 0.000000 -0.641267
v 0.266799 0.500000 -0.641267
v 0.300408 0.500000 -0.593455
v 0.300408 0.000000 -0.593455
v 0.327549 0.500000 -0.530267
v 0.327549 0.000000 -0.530267
v 0.348221 0.500000 -0.451705
v 0.348221 -0.000000 -0.451705
v 0.370158 0.500000 -0.248455
v 0.370158 -0.000000 -0.248455
v 0.835158 0.500000 -0.598705
v 0.886158 0.500000 -0.431455
v 0.886158 -0.000000 -0.431455
v 0.835158 0.000000 -0.598705
v 0.754158 0.500000 -0.740455
v 0.754158 0.000000 -0.740455
v 0.693174 0.500000 -0.812877
v 0.693174 0.000000 -0.812877
v 0.624221 0.000000 -0.875642
v 0.624221 0.500000 -0.875642
v 0.547299 0.000000 -0.928752
v 0.547299 0.500000 -0.928752
v 0.462409 0.000000 -0.972205
v 0.462409 0.500000 -0.972205
v 0.369549 0.000000 -1.006000
v 0.369549 0.500000 -1.006000
v 0.268721 0.000000 -1.030140
v 0.268721 0.500000 -1.030140
v 0.159924 0.000000 -1.044630
v 0.159924 0.500000 -1.044630
v 0.043159 0.000000 -1.049450
v 0.043159 0.500000 -1.049450
v -0.072529 0.000000 -1.039660
v -0.072529 0.500000 -1.039660
v -0.178092 0.000000 -1.010270
v -0.178092 0.500000 -1.010270
v -0.273529 0.000000 -0.961283
v -0.273529 0.500000 -0.961283
v -0.358842 0.000000 -0.892705
v -0.358842 0.500000 -0.892705
v -0.434029 0.500000 -0.804533
v -0.434029 0.000000 -0.804533
v -0.499092 0.500000 -0.696767
v -0.499092 0.000000 -0.696767
v -0.554029 0.500000 -0.569408
v -0.554029 0.000000 -0.569408
v -0.598842 0.500000 -0.422455
v -0.598842 -0.000000 -0.422455
v -0.627342 0.500000 -0.285393
v -0.627342 -0.000000 -0.285393
v -0.646842 0.500000 -0.135205
v -0.646842 -0.000000 -0.135205
v -0.658842 0.500000 0.204545
v -0.658842 -0.000000 0.204545
v -0.651154 0.500000 0.334858
v -0.651154 -0.000000 0.334858
v -0.634092 0.500000 0.455795
v -0.634092 -0.000000 0.455795
v -0.607654 0.500000 0.567358
v -0.607654 -0.000000 0.567358
v -0.571842 0.500000 0.669545
v -0.571842 -0.000000 0.669545
v -0.516763 0.500000 0.778529
v -0.516763 -0.000000 0.778529
v -0.450529 0.500000 0.872983
v -0.450529 -0.000000 0.872983
v -0.373138 0.500000 0.952904
v -0.373138 -0.000000 0.952904
v -0.284592 -0.000000 1.018300
v -0.284592 0.500000 1.018300
v -0.184888 -0.000000 1.069150
v -0.184888 0.500000 1.069150
v -0.074029 -0.000000 1.105480
v -0.074029 0.500000 1.105480
v 0.047987 -0.000000 1.127280
v 0.047987 0.500000 1.127280
v 0.181159 -0.000000 1.134550
v 0.181159 0.500000 1.134550
v 0.264924 -0.000000 1.128830
v 0.264924 0.500000 1.128830
v 0.346721 -0.000000 1.111670
v 0.346721 0.500000 1.111670
v 0.426549 -0.000000 1.083080
v 0.426549 0.500000 1.083080
v 0.504408 -0.000000 1.043050
v 0.504408 0.500000 1.043050
v 0.580299 -0.000000 0.991576
v 0.580299 0.500000 0.991576
v 0.654221 -0.000000 0.928670
v 0.654221 0.500000 0.928670
v 0.796158 0.500000 0.768545
v 0.796158 -0.000000 0.768545
v 0.904908 0.500000 0.600545
v 0.904908 -0.000000 0.600545
v 1.003160 0.500000 0.402545
v 1.003160 -0.000000 0.402545
# UVs
# Normals
vn -0.908686 0.000000 -0.417479
vn -0.929705 0.000000 -0.368306
vn -0.929705 0.000000 -0.368306
vn -0.884998 0.000000 -0.465595
vn -0.824364 0.000000 -0.566060
vn -0.786354 0.000000 -0.617776
vn -0.682024 0.000000 -0.731330
vn -0.682024 0.000000 -0.731330
vn -0.550566 0.000000 -0.834791
vn -0.484266 0.000000 -0.874921
vn -0.331517 0.000000 -0.943449
vn -0.244110 0.000000 -0.969748
vn -0.071888 0.000000 -0.997413
vn 0.012748 0.000000 -0.999919
vn 0.181872 0.000000 -0.983322
vn 0.266328 0.000000 -0.963882
vn 0.435259 0.000000 -0.900305
vn 0.519177 0.000000 -0.854667
vn 0.699837 0.000000 -0.714303
vn 0.699837 0.000000 -0.714303
vn 0.827786 0.000000 -0.561044
vn 0.862824 0.000000 -0.505504
vn 0.917058 0.000000 -0.398754
vn 0.937443 0.000000 -0.348140
vn 0.967614 0.000000 -0.252434
vn 0.978215 0.000000 -0.207595
vn 0.992181 0.000000 -0.124810
vn 0.996211 0.000000 -0.086973
vn 0.999856 0.000000 -0.016959
vn 0.999884 0.000000 0.015197
vn 0.996780 0.000000 0.080187
vn 0.993593 0.000000 0.113017
vn 0.983736 0.000000 0.179623
vn 0.976968 0.000000 0.213384
vn 0.959777 0.000000 0.280765
vn 0.949300 0.000000 0.314371
vn 0.924634 0.000000 0.380858
vn 0.910403 0.000000 0.413723
vn 0.868692 0.000000 0.495352
vn 0.839548 0.000000 0.543286
vn 0.726054 0.000000 0.687638
vn 0.726054 0.000000 0.687638
vn 0.533644 0.000000 0.845709
vn 0.425347 0.000000 0.905030
vn 0.200317 0.000000 0.979731
vn 0.084029 0.000000 0.996463
vn -0.137491 0.000000 0.990503
vn -0.242795 0.000000 0.970078
vn -0.444482 0.000000 0.895788
vn -0.540624 0.000000 0.841264
vn -0.730644 0.000000 0.682759
vn -0.730644 0.000000 0.682759
vn -0.855745 0.000000 0.517398
vn -0.889481 0.000000 0.456973
vn -0.937203 0.000000 0.348783
vn -0.953328 0.000000 0.301937
vn -0.978567 0.000000 0.205927
vn -0.987638 0.000000 0.156752
vn -0.994226 0.000000 0.107308
vn -0.994226 0.000000 0.107308
vn 0.932245 0.000000 -0.361828
vn 0.956518 0.000000 -0.291674
vn 0.956518 0.000000 -0.291674
vn 0.902656 0.000000 -0.430362
vn 0.836838 0.000000 -0.547450
vn 0.802274 0.000000 -0.596956
vn 0.720616 0.000000 -0.693334
vn 0.720616 0.000000 -0.693334
vn 0.639432 0.000000 -0.768848
vn 0.604370 0.000000 -0.796704
vn 0.531679 0.000000 -0.846946
vn 0.494101 0.000000 -0.869405
vn 0.418479 0.000000 -0.908227
vn 0.380528 0.000000 -0.924769
vn 0.306049 0.000000 -0.952016
vn 0.269612 0.000000 -0.962969
vn 0.199464 0.000000 -0.979905
vn 0.165818 0.000000 -0.986156
vn 0.101854 0.000000 -0.994799
vn 0.071568 0.000000 -0.997436
vn -0.000613 0.000000 -1.000000
vn -0.042542 0.000000 -0.999095
vn -0.146187 0.000000 -0.989257
vn -0.207722 0.000000 -0.978188
vn -0.332540 0.000000 -0.943089
vn -0.395640 0.000000 -0.918406
vn -0.515626 0.000000 -0.856813
vn -0.572510 0.000000 -0.819898
vn -0.696780 0.000000 -0.717285
vn -0.696780 0.000000 -0.717285
vn -0.794976 0.000000 -0.606640
vn -0.826791 0.000000 -0.562509
vn -0.878592 0.000000 -0.477573
vn -0.899349 0.000000 -0.437232
vn -0.932264 0.000000 -0.361778
vn -0.945047 0.000000 -0.326933
vn -0.964916 0.000000 -0.262560
vn -0.972438 0.000000 -0.233164
vn -0.983894 0.000000 -0.178753
vn -0.988103 0.000000 -0.153796
vn -0.995216 0.000000 -0.097699
vn -0.997785 0.000000 -0.066516
vn -0.999992 0.000000 -0.003904
vn -0.999621 0.000000 0.027524
vn -0.996304 0.000000 0.085892
vn -0.993612 0.000000 0.112846
vn -0.985417 0.000000 0.170158
vn -0.979697 0.000000 0.200485
vn -0.964443 0.000000 0.264292
vn -0.954655 0.000000 0.297713
vn -0.928414 0.000000 0.371547
vn -0.911305 0.000000 0.411731
vn -0.869909 0.000000 0.493212
vn -0.845273 0.000000 0.534334
vn -0.787477 0.000000 0.616344
vn -0.753927 0.000000 0.656958
vn -0.658488 0.000000 0.752591
vn -0.658488 0.000000 0.752591
vn -0.549155 0.000000 0.835720
vn -0.502428 0.000000 0.864619
vn -0.407781 0.000000 0.913080
vn -0.360015 0.000000 0.932947
vn -0.266818 0.000000 0.963747
vn -0.221541 0.000000 0.975151
vn -0.135649 0.000000 0.990757
vn -0.095125 0.000000 0.995465
vn -0.013653 0.000000 0.999907
vn 0.027294 0.000000 0.999627
vn 0.114101 0.000000 0.993469
vn 0.159929 0.000000 0.987129
vn 0.249791 0.000000 0.968300
vn 0.293834 0.000000 0.955856
vn 0.377916 0.000000 0.925840
vn 0.418015 0.000000 0.908440
vn 0.492739 0.000000 0.870177
vn 0.527491 0.000000 0.849561
vn 0.591026 0.000000 0.806653
vn 0.619982 0.000000 0.784616
vn 0.699930 0.000000 0.714211
vn 0.699930 0.000000 0.714211
vn 0.780679 0.000000 0.624932
vn 0.811137 0.000000 0.584857
vn 0.859476 0.000000 0.511175
vn 0.878273 0.000000 0.478160
vn 0.895777 0.000000 0.444504
vn 0.895777 0.000000 0.444504
# Material
mtllib pool-c1.mtl
usemtl pool-c1
# Faces
f 1//1 2//2 3//3 
f 1//1 3//3 4//4 
f 5//5 1//1 4//4 
f 5//5 4//4 6//6 
f 7//7 5//5 6//6 
f 7//7 6//6 8//8 
f 7//7 8//8 9//9 
f 7//7 9//9 10//10 
f 10//10 9//9 11//11 
f 10//10 11//11 12//12 
f 12//12 11//11 13//13 
f 12//12 13//13 14//14 
f 14//14 13//13 15//15 
f 14//14 15//15 16//16 
f 16//16 15//15 17//17 
f 16//16 17//17 18//18 
f 18//18 17//17 19//19 
f 18//18 19//19 20//20 
f 21//21 20//20 19//19 
f 21//21 19//19 22//22 
f 23//23 21//21 22//22 
f 23//23 22//22 24//24 
f 25//25 23//23 24//24 
f 25//25 24//24 26//26 
f 27//27 25//25 26//26 
f 27//27 26//26 28//28 
f 29//29 27//27 28//28 
f 29//29 28//28 30//30 
f 31//31 29//29 30//30 
f 31//31 30//30 32//32 
f 33//33 31//31 32//32 
f 33//33 32//32 34//34 
f 35//35 33//33 34//34 
f 35//35 34//34 36//36 
f 37//37 35//35 36//36 
f 37//37 36//36 38//38 
f 39//39 37//37 38//38 
f 39//39 38//38 40//40 
f 41//41 39//39 40//40 
f 41//41 40//40 42//42 
f 43//43 44//44 41//41 
f 43//43 41//41 42//42 
f 45//45 46//46 44//44 
f 45//45 44//44 43//43 
f 47//47 48//48 46//46 
f 47//47 46//46 45//45 
f 49//49 50//50 48//48 
f 49//49 48//48 47//47 
f 51//51 52//52 50//50 
f 51//51 50//50 49//49 
f 53//53 52//52 51//51 
f 53//53 51//51 54//54 
f 55//55 53//53 54//54 
f 55//55 54//54 56//56 
f 57//57 55//55 56//56 
f 57//57 56//56 58//58 
f 59//59 57//57 58//58 
f 59//59 58//58 60//60 
f 61//61 62//62 63//63 
f 61//61 63//63 64//64 
f 65//65 61//61 64//64 
f 65//65 64//64 66//66 
f 67//67 65//65 66//66 
f 67//67 66//66 68//68 
f 67//67 68//68 69//69 
f 67//67 69//69 70//70 
f 70//70 69//69 71//71 
f 70//70 71//71 72//72 
f 72//72 71//71 73//73 
f 72//72 73//73 74//74 
f 74//74 73//73 75//75 
f 74//74 75//75 76//76 
f 76//76 75//75 77//77 
f 76//76 77//77 78//78 
f 78//78 77//77 79//79 
f 78//78 79//79 80//80 
f 80//80 79//79 81//81 
f 80//80 81//81 82//82 
f 82//82 81//81 83//83 
f 82//82 83//83 84//84 
f 84//84 83//83 85//85 
f 84//84 85//85 86//86 
f 86//86 85//85 87//87 
f 86//86 87//87 88//88 
f 88//88 87//87 89//89 
f 88//88 89//89 90//90 
f 91//91 90//90 89//89 
f 91//91 89//89 92//92 
f 93//93 91//91 92//92 
f 93//93 92//92 94//94 
f 95//95 93//93 94//94 
f 95//95 94//94 96//96 
f 97//97 95//95 96//96 
f 97//97 96//96 98//98 
f 99//99 97//97 98//98 
f 99//99 98//98 100//100 
f 101//101 99//99 100//100 
f 101//101 100//100 102//102 
f 103//103 101//101 102//102 
f 103//103 102//102 104//104 
f 105//105 103//103 104//104 
f 105//105 104//104 106//106 
f 107//107 105//105 106//106 
f 107//107 106//106 108//108 
f 109//109 107//107 108//108 
f 109//109 108//108 110//110 
f 111//111 109//109 110//110 
f 111//111 110//110 112//112 
f 113//113 111//111 112//112 
f 113//113 112//112 114//114 
f 115//115 113//113 114//114 
f 115//115 114//114 116//116 
f 117//117 115//115 116//116 
f 117//117 116//116 118//118 
f 119//119 120//120 117//117 
f 119//119 117//117 118//118 
f 121//121 122//122 120//120 
f 121//121 120//120 119//119 
f 123//123 124//124 122//122 
f 123//123 122//122 121//121 
f 125//125 126//126 124//124 
f 125//125 124//124 123//123 
f 127//127 128//128 126//126 
f 127//127 126//126 125//125 
f 129//129 130//130 128//128 
f 129//129 128//128 127//127 
f 131//131 132//132 130//130 
f 131//131 130//130 129//129 
f 133//133 134//134 132//132 
f 133//133 132//132 131//131 
f 135//135 136//136 134//134 
f 135//135 134//134 133//133 
f 137//137 138//138 136//136 
f 137//137 136//136 135//135 
f 139//139 140//140 138//138 
f 139//139 138//138 137//137 
f 141//141 140//140 139//139 
f 141//141 139//139 142//142 
f 143//143 141//141 142//142 
f 143//143 142//142 144//144 
f 145//145 143//143 144//144 
f 145//145 144//144 146//146 
# eof
