# j.c. convert leaf file to obj
# Verts
v 1.232720 0.500000 -1.339160
v 0.855286 0.500000 -1.196990
v 0.881337 0.500000 -1.189220
v 1.314290 0.500000 -1.176740
v 0.905489 0.500000 -1.165910
v 0.948099 0.500000 -1.072680
v 1.371660 0.500000 -1.006300
v 0.983114 0.500000 -0.917288
v 1.417790 0.500000 -0.805491
v 1.010540 0.500000 -0.699741
v 0.603286 0.500000 -1.536740
v 0.263536 0.500000 -1.475990
v 0.616786 0.500000 -1.421990
v 0.765849 0.500000 -1.183770
v 0.704536 0.500000 -1.144120
v 0.669099 0.500000 -1.072960
v 0.657286 0.500000 -0.965241
v 0.279286 0.500000 -0.011241
v 0.691036 0.500000 -0.011241
v 0.984521 0.500000 -1.542190
v 0.927286 0.500000 -1.547990
v 0.837286 0.500000 -1.534490
v 1.039220 0.500000 -1.524790
v 1.091400 0.500000 -1.495780
v 0.719161 0.500000 -1.488370
v 1.141040 0.500000 -1.455180
v 0.616786 0.000000 -1.421990
v 0.603286 0.000000 -1.536740
v 0.263536 0.000000 -1.475990
v 0.279286 -0.000000 -0.011241
v 0.691036 -0.000000 -0.011241
v 1.417790 0.000000 -0.805491
v 1.010540 0.000000 -0.699741
v 0.855286 0.000000 -1.196990
v 1.232720 0.000000 -1.339160
v 0.881337 0.000000 -1.189220
v 1.314290 0.000000 -1.176740
v 0.905489 0.000000 -1.165910
v 0.948099 0.000000 -1.072680
v 1.371660 0.000000 -1.006300
v 0.983114 0.000000 -0.917288
v 0.765849 0.000000 -1.183770
v 0.704536 0.000000 -1.144120
v 0.669099 0.000000 -1.072960
v 0.657286 0.000000 -0.965241
v 0.927286 0.000000 -1.547990
v 0.984521 0.000000 -1.542190
v 0.837286 0.000000 -1.534490
v 1.039220 0.000000 -1.524790
v 1.091400 0.000000 -1.495780
v 0.719161 0.000000 -1.488370
v 1.141040 0.000000 -1.455180
# UVs
# Normals
vn 0.000000 1.000000 0.000000
vn 0.000000 1.000000 -0.000000
vn 0.993151 0.000000 -0.116841
vn -0.176016 -0.000000 -0.984387
vn -0.176016 0.000000 -0.984387
vn -0.999942 0.000000 0.010752
vn -0.999942 -0.000000 0.010752
vn 0.000000 -0.000000 1.000000
vn 0.000000 -0.000000 1.000000
vn 0.251333 -0.000000 0.967901
vn 0.000000 -1.000000 -0.000000
vn 0.000000 -1.000000 -0.000000
vn -0.000000 -1.000000 -0.000000
vn -0.000000 -1.000000 -0.000000
vn 0.000000 -1.000000 -0.000000
vn 0.000000 -1.000000 -0.000000
vn 0.000000 -1.000000 -0.000000
vn -0.000000 -1.000000 -0.000000
vn 0.000000 -1.000000 -0.000000
vn 0.000000 -1.000000 -0.000000
vn 0.000000 -1.000000 -0.000000
vn -0.000000 -1.000000 -0.000000
vn 0.000000 -1.000000 -0.000000
vn -0.000000 -1.000000 -0.000000
vn 0.000000 -1.000000 -0.000000
vn -0.000000 -1.000000 -0.000000
vn 0.000000 -1.000000 -0.000000
vn 0.000000 -1.000000 -0.000000
vn -0.000000 -1.000000 -0.000000
vn -0.000000 -1.000000 -0.000000
vn 0.000000 -1.000000 -0.000000
vn 0.000000 -1.000000 -0.000000
vn 0.000000 -1.000000 -0.000000
vn -0.000000 -1.000000 -0.000000
# Material
mtllib r2.mtl
usemtl r2
# Faces
f 1//1 2//1 3//1 
f 1//1 3//1 4//1 
f 4//1 3//1 5//1 
f 4//1 5//1 6//1 
f 4//2 6//2 7//2 
f 7//1 6//1 8//1 
f 7//1 8//1 9//1 
f 9//1 8//1 10//1 
f 11//1 12//1 13//1 
f 1//1 13//1 2//1 
f 13//1 12//1 2//1 
f 2//1 12//1 14//1 
f 14//1 12//1 15//1 
f 15//1 12//1 16//1 
f 16//1 12//1 17//1 
f 17//1 12//1 18//1 
f 17//2 18//2 19//2 
f 20//1 21//1 22//1 
f 20//1 22//1 23//1 
f 23//1 22//1 24//1 
f 24//1 22//1 25//1 
f 24//2 25//2 26//2 
f 26//2 25//2 13//2 
f 26//1 13//1 1//1 
f 11//3 13//3 27//3 
f 11//3 27//3 28//3 
f 11//4 28//4 29//4 
f 11//5 29//5 12//5 
f 18//6 12//6 29//6 
f 18//7 29//7 30//7 
f 31//8 19//8 18//8 
f 31//9 18//9 30//9 
f 32//10 9//10 10//10 
f 32//10 10//10 33//10 
f 34//11 35//11 36//11 
f 36//12 35//12 37//12 
f 36//13 37//13 38//13 
f 38//14 37//14 39//14 
f 39//15 37//15 40//15 
f 39//16 40//16 41//16 
f 41//17 40//17 32//17 
f 41//18 32//18 33//18 
f 29//19 28//19 27//19 
f 27//20 35//20 34//20 
f 29//21 27//21 34//21 
f 29//22 34//22 42//22 
f 29//23 42//23 43//23 
f 29//24 43//24 44//24 
f 29//25 44//25 45//25 
f 29//26 45//26 31//26 
f 29//27 31//27 30//27 
f 46//28 47//28 48//28 
f 48//29 47//29 49//29 
f 48//30 49//30 50//30 
f 48//31 50//31 51//31 
f 51//32 50//32 52//32 
f 51//33 52//33 27//33 
f 27//34 52//34 35//34 
# eof
