# j.c. convert leaf file to obj
# Verts
v 0.256500 0.500000 -0.279000
v 0.220500 0.500000 -0.441000
v 0.220500 -0.000000 -0.441000
v 0.256500 -0.000000 -0.279000
v 0.319500 0.500000 -0.144000
v 0.319500 -0.000000 -0.144000
v 0.409500 0.500000 -0.036000
v 0.409500 -0.000000 -0.036000
v 0.526500 0.000000 0.045000
v 0.526500 0.500000 0.045000
v 0.645188 0.000000 0.087750
v 0.645188 0.500000 0.087750
v 0.780750 0.000000 0.108000
v 0.780750 0.500000 0.108000
v 0.860203 0.000000 0.097594
v 0.860203 0.500000 0.097594
v 0.932063 0.000000 0.066375
v 0.932063 0.500000 0.066375
v 0.996328 0.000000 0.014344
v 0.996329 0.500000 0.014344
v 1.053000 0.500000 -0.058500
v 1.053000 -0.000000 -0.058500
v 1.095330 0.500000 -0.137109
v 1.095330 -0.000000 -0.137109
v 1.125560 0.500000 -0.222188
v 1.125560 -0.000000 -0.222188
v 1.143700 0.500000 -0.313734
v 1.143700 -0.000000 -0.313734
v 1.149750 0.500000 -0.411750
v 1.149750 -0.000000 -0.411750
v 1.135690 0.500000 -0.550688
v 1.135690 -0.000000 -0.550688
v 1.093500 0.500000 -0.670500
v 1.093500 -0.000000 -0.670500
v 1.058910 0.500000 -0.725203
v 1.058910 -0.000000 -0.725203
v 1.018130 0.500000 -0.770063
v 1.018130 -0.000000 -0.770063
v 0.971157 0.500000 -0.805078
v 0.971156 -0.000000 -0.805078
v 0.918000 0.500000 -0.830250
v 0.918000 -0.000000 -0.830250
v 0.775125 0.500000 -0.891000
v 0.775125 -0.000000 -0.891000
v 0.670500 0.500000 -0.965250
v 0.670500 -0.000000 -0.965250
v 0.614813 0.500000 -1.036690
v 0.614813 -0.000000 -1.036690
v 0.596250 0.500000 -1.107000
v 0.596250 -0.000000 -1.107000
v 0.609750 0.500000 -1.161280
v 0.609750 -0.000000 -1.161280
v 0.650250 0.500000 -1.202630
v 0.650250 -0.000000 -1.202630
v 0.713250 -0.000000 -1.226530
v 0.713250 0.500000 -1.226530
v 0.794250 -0.000000 -1.228500
v 0.794250 0.500000 -1.228500
v 0.847266 -0.000000 -1.216900
v 0.847266 0.500000 -1.216900
v 0.896063 -0.000000 -1.195590
v 0.896063 0.500000 -1.195590
v 0.940641 -0.000000 -1.164590
v 0.940641 0.500000 -1.164590
v 0.981000 0.500000 -1.123880
v 0.981000 -0.000000 -1.123880
v 1.049060 0.500000 -1.013340
v 1.049060 -0.000000 -1.013340
v 1.100250 0.500000 -0.864000
v 1.100250 -0.000000 -0.864000
v 1.232440 0.500000 -1.323420
v 1.388250 0.500000 -1.149750
v 1.388250 -0.000000 -1.149750
v 1.232440 -0.000000 -1.323420
v 1.086750 0.500000 -1.450690
v 1.086750 -0.000000 -1.450690
v 0.951188 0.500000 -1.531550
v 0.951188 -0.000000 -1.531550
v 0.887204 0.500000 -1.554570
v 0.887203 -0.000000 -1.554570
v 0.825750 0.500000 -1.566000
v 0.825750 -0.000000 -1.566000
v 0.726610 0.500000 -1.566140
v 0.726610 -0.000000 -1.566140
v 0.631688 0.500000 -1.546310
v 0.631688 -0.000000 -1.546310
v 0.540985 0.500000 -1.506520
v 0.540984 -0.000000 -1.506520
v 0.454500 0.500000 -1.446750
v 0.454500 -0.000000 -1.446750
v 0.385594 0.500000 -1.381080
v 0.385594 -0.000000 -1.381080
v 0.334125 0.500000 -1.312310
v 0.334125 -0.000000 -1.312310
v 0.300094 0.500000 -1.240450
v 0.300094 -0.000000 -1.240450
v 0.283500 0.500000 -1.165500
v 0.283500 -0.000000 -1.165500
v 0.279000 0.500000 -1.091250
v 0.279000 -0.000000 -1.091250
v 0.284203 0.500000 -1.003390
v 0.284203 -0.000000 -1.003390
v 0.299813 0.500000 -0.923203
v 0.299813 -0.000000 -0.923203
v 0.325828 0.500000 -0.850676
v 0.325828 -0.000000 -0.850676
v 0.362250 0.500000 -0.785813
v 0.362250 -0.000000 -0.785813
v 0.409078 0.500000 -0.728613
v 0.409078 -0.000000 -0.728613
v 0.466313 -0.000000 -0.679078
v 0.466313 0.500000 -0.679078
v 0.533953 -0.000000 -0.637207
v 0.533953 0.500000 -0.637207
v 0.612000 -0.000000 -0.603000
v 0.612000 0.500000 -0.603000
v 0.717188 -0.000000 -0.550688
v 0.717188 0.500000 -0.550688
v 0.794250 -0.000000 -0.479250
v 0.794250 0.500000 -0.479250
v 0.834750 0.500000 -0.405563
v 0.834750 -0.000000 -0.405563
v 0.848250 0.500000 -0.328500
v 0.848250 -0.000000 -0.328500
v 0.840094 0.500000 -0.274500
v 0.840094 -0.000000 -0.274500
v 0.815625 0.500000 -0.229500
v 0.815625 -0.000000 -0.229500
v 0.777094 0.500000 -0.199125
v 0.777094 -0.000000 -0.199125
v 0.726750 0.500000 -0.189000
v 0.726750 -0.000000 -0.189000
v 0.669657 0.500000 -0.206719
v 0.669656 -0.000000 -0.206719
v 0.628875 0.500000 -0.246375
v 0.628875 -0.000000 -0.246375
v 0.604406 0.500000 -0.307969
v 0.604406 -0.000000 -0.307969
v 0.596250 0.500000 -0.391500
v 0.596250 -0.000000 -0.391500
v 0.605250 0.500000 -0.481500
v 0.605250 -0.000000 -0.481500
# UVs
# Normals
vn -0.957902 0.000000 0.287096
vn -0.976187 0.000000 0.216930
vn -0.976187 0.000000 0.216930
vn -0.934444 0.000000 0.356111
vn -0.866599 0.000000 0.499005
vn -0.820269 0.000000 0.571978
vn -0.674879 0.000000 0.737928
vn -0.674879 0.000000 0.737928
vn -0.496147 0.000000 0.868239
vn -0.418790 0.000000 0.908083
vn -0.276359 0.000000 0.961054
vn -0.212370 0.000000 0.977189
vn -0.055684 0.000000 0.998448
vn 0.037652 0.000000 0.999291
vn 0.221314 0.000000 0.975203
vn 0.311631 0.000000 0.950203
vn 0.479288 0.000000 0.877658
vn 0.556844 -0.000000 0.830617
vn 0.713936 -0.000001 0.700211
vn 0.713936 -0.000001 0.700211
vn 0.822222 -0.000001 0.569167
vn 0.852711 0.000000 0.522382
vn 0.903404 0.000000 0.428790
vn 0.924066 0.000000 0.382234
vn 0.957426 0.000000 0.288679
vn 0.970337 0.000000 0.241755
vn 0.988623 0.000000 0.150417
vn 0.994358 0.000000 0.106074
vn 0.999972 0.000000 0.007533
vn 0.998908 0.000000 -0.046723
vn 0.983857 0.000000 -0.178958
vn 0.966518 0.000000 -0.256599
vn 0.915710 0.000000 -0.401839
vn 0.882850 0.000000 -0.469654
vn 0.812852 0.000000 -0.582471
vn 0.777650 0.000000 -0.628697
vn 0.695379 0.000000 -0.718643
vn 0.647746 -0.000000 -0.761856
vn 0.543464 -0.000001 -0.839432
vn 0.486661 -0.000001 -0.873591
vn 0.415828 -0.000000 -0.909443
vn 0.403597 0.000000 -0.914937
vn 0.456121 0.000000 -0.889918
vn 0.518928 0.000000 -0.854818
vn 0.654898 0.000000 -0.755717
vn 0.725547 0.000000 -0.688173
vn 0.863678 0.000000 -0.504044
vn 0.924161 0.000000 -0.382003
vn 0.995732 0.000000 -0.092293
vn 0.996955 0.000000 0.077982
vn 0.913516 0.000000 0.406803
vn 0.825434 0.000000 0.564499
vn 0.547343 0.000000 0.836908
vn 0.547343 0.000000 0.836908
vn 0.247710 0.000000 0.968834
vn 0.136168 0.000000 0.990686
vn -0.055392 0.000000 0.998465
vn -0.135254 0.000000 0.990811
vn -0.277085 0.000000 0.960845
vn -0.339507 0.000000 0.940604
vn -0.459071 0.000000 0.888399
vn -0.516222 0.000000 0.856455
vn -0.643210 0.000000 0.765690
vn -0.643210 0.000000 0.765690
vn -0.761725 0.000000 0.647900
vn -0.809127 0.000000 0.587634
vn -0.887855 0.000000 0.460123
vn -0.919505 0.000000 0.393078
vn -0.945970 0.000000 0.324255
vn -0.945970 0.000000 0.324255
vn 0.716703 0.000000 -0.697379
vn 0.744344 0.000000 -0.667796
vn 0.744344 0.000000 -0.667796
vn 0.687839 0.000000 -0.725864
vn 0.611557 0.000000 -0.791200
vn 0.562841 0.000000 -0.826566
vn 0.456234 0.000000 -0.889860
vn 0.398081 -0.000000 -0.917350
vn 0.287471 -0.000000 -0.957789
vn 0.235430 -0.000000 -0.971891
vn 0.122831 -0.000000 -0.992428
vn 0.062125 0.000000 -0.998068
vn -0.067545 0.000000 -0.997716
vn -0.136510 0.000000 -0.990639
vn -0.271536 0.000000 -0.962428
vn -0.337595 0.000000 -0.941292
vn -0.459197 0.000001 -0.888335
vn -0.515029 0.000001 -0.857173
vn -0.610659 0.000000 -0.791893
vn -0.651225 0.000000 -0.758885
vn -0.729061 0.000000 -0.684449
vn -0.766076 0.000000 -0.642750
vn -0.838727 0.000000 -0.544551
vn -0.873271 0.000000 -0.487235
vn -0.933184 0.000000 -0.359400
vn -0.957513 0.000000 -0.288391
vn -0.986339 0.000000 -0.164729
vn -0.993630 0.000000 -0.112695
vn -0.999787 0.000000 -0.020657
vn -0.999814 0.000000 0.019276
vn -0.994649 0.000000 0.103308
vn -0.989079 0.000000 0.147384
vn -0.970637 0.000000 0.240551
vn -0.957170 0.000000 0.289526
vn -0.921026 0.000000 0.389501
vn -0.897841 0.000000 0.440320
vn -0.842059 0.000000 0.539385
vn -0.809226 0.000000 0.587498
vn -0.716721 0.000000 0.697360
vn -0.716721 0.000000 0.697360
vn -0.613447 0.000000 0.789736
vn -0.570636 0.000000 0.821203
vn -0.485779 0.000000 0.874082
vn -0.444047 0.000000 0.896004
vn -0.416155 0.000000 0.909294
vn -0.430781 0.000000 0.902456
vn -0.528266 0.000000 0.849079
vn -0.607165 0.000000 0.794576
vn -0.788209 0.000000 0.615407
vn -0.788209 0.000000 0.615407
vn -0.923655 0.000000 0.383226
vn -0.960309 0.000000 0.278938
vn -0.997818 0.000000 0.066019
vn -0.999095 0.000000 -0.042537
vn -0.964982 0.000000 -0.262316
vn -0.927728 0.000000 -0.373258
vn -0.806692 0.000000 -0.590971
vn -0.718615 0.000000 -0.695408
vn -0.490366 0.000000 -0.871517
vn -0.346223 0.000000 -0.938152
vn -0.033567 0.000000 -0.999436
vn 0.135612 -0.000000 -0.990762
vn 0.440756 -0.000001 -0.897627
vn 0.577684 -0.000001 -0.816260
vn 0.790047 -0.000000 -0.613047
vn 0.868999 0.000000 -0.494814
vn 0.959714 0.000000 -0.280980
vn 0.981879 0.000000 -0.189508
vn 0.999496 0.000000 -0.031754
vn 0.999419 0.000000 0.034090
vn 0.995037 0.000000 0.099504
vn 0.995037 0.000000 0.099504
# Material
mtllib s1.mtl
usemtl s1
# Faces
f 1//1 2//2 3//3 
f 1//1 3//3 4//4 
f 5//5 1//1 4//4 
f 5//5 4//4 6//6 
f 7//7 5//5 6//6 
f 7//7 6//6 8//8 
f 9//9 10//10 7//7 
f 9//9 7//7 8//8 
f 11//11 12//12 10//10 
f 11//11 10//10 9//9 
f 13//13 14//14 12//12 
f 13//13 12//12 11//11 
f 15//15 16//16 14//14 
f 15//15 14//14 13//13 
f 17//17 18//18 16//16 
f 17//17 16//16 15//15 
f 19//19 20//20 18//18 
f 19//19 18//18 17//17 
f 21//21 20//20 19//19 
f 21//21 19//19 22//22 
f 23//23 21//21 22//22 
f 23//23 22//22 24//24 
f 25//25 23//23 24//24 
f 25//25 24//24 26//26 
f 27//27 25//25 26//26 
f 27//27 26//26 28//28 
f 29//29 27//27 28//28 
f 29//29 28//28 30//30 
f 31//31 29//29 30//30 
f 31//31 30//30 32//32 
f 33//33 31//31 32//32 
f 33//33 32//32 34//34 
f 35//35 33//33 34//34 
f 35//35 34//34 36//36 
f 37//37 35//35 36//36 
f 37//37 36//36 38//38 
f 37//37 38//38 39//39 
f 39//39 38//38 40//40 
f 39//39 40//40 41//41 
f 41//41 40//40 42//42 
f 41//41 42//42 43//43 
f 43//43 42//42 44//44 
f 43//43 44//44 45//45 
f 45//45 44//44 46//46 
f 47//47 45//45 46//46 
f 47//47 46//46 48//48 
f 49//49 47//47 48//48 
f 49//49 48//48 50//50 
f 51//51 49//49 50//50 
f 51//51 50//50 52//52 
f 53//53 51//51 52//52 
f 53//53 52//52 54//54 
f 55//55 56//56 53//53 
f 55//55 53//53 54//54 
f 57//57 58//58 56//56 
f 57//57 56//56 55//55 
f 59//59 60//60 58//58 
f 59//59 58//58 57//57 
f 61//61 62//62 60//60 
f 61//61 60//60 59//59 
f 63//63 64//64 62//62 
f 63//63 62//62 61//61 
f 65//65 64//64 63//63 
f 65//65 63//63 66//66 
f 67//67 65//65 66//66 
f 67//67 66//66 68//68 
f 69//69 67//67 68//68 
f 69//69 68//68 70//70 
f 71//71 72//72 73//73 
f 71//71 73//73 74//74 
f 71//71 74//74 75//75 
f 75//75 74//74 76//76 
f 75//75 76//76 77//77 
f 77//77 76//76 78//78 
f 77//77 78//78 79//79 
f 79//79 78//78 80//80 
f 79//79 80//80 81//81 
f 81//81 80//80 82//82 
f 81//81 82//82 83//83 
f 83//83 82//82 84//84 
f 83//83 84//84 85//85 
f 85//85 84//84 86//86 
f 85//85 86//86 87//87 
f 87//87 86//86 88//88 
f 87//87 88//88 89//89 
f 89//89 88//88 90//90 
f 89//89 90//90 91//91 
f 91//91 90//90 92//92 
f 93//93 91//91 92//92 
f 93//93 92//92 94//94 
f 95//95 93//93 94//94 
f 95//95 94//94 96//96 
f 97//97 95//95 96//96 
f 97//97 96//96 98//98 
f 99//99 97//97 98//98 
f 99//99 98//98 100//100 
f 101//101 99//99 100//100 
f 101//101 100//100 102//102 
f 103//103 101//101 102//102 
f 103//103 102//102 104//104 
f 105//105 103//103 104//104 
f 105//105 104//104 106//106 
f 107//107 105//105 106//106 
f 107//107 106//106 108//108 
f 109//109 107//107 108//108 
f 109//109 108//108 110//110 
f 111//111 112//112 109//109 
f 111//111 109//109 110//110 
f 113//113 114//114 112//112 
f 113//113 112//112 111//111 
f 115//115 116//116 114//114 
f 115//115 114//114 113//113 
f 117//117 118//118 116//116 
f 117//117 116//116 115//115 
f 119//119 120//120 118//118 
f 119//119 118//118 117//117 
f 121//121 120//120 119//119 
f 121//121 119//119 122//122 
f 123//123 121//121 122//122 
f 123//123 122//122 124//124 
f 125//125 123//123 124//124 
f 125//125 124//124 126//126 
f 127//127 125//125 126//126 
f 127//127 126//126 128//128 
f 127//127 128//128 129//129 
f 129//129 128//128 130//130 
f 129//129 130//130 131//131 
f 131//131 130//130 132//132 
f 131//131 132//132 133//133 
f 133//133 132//132 134//134 
f 133//133 134//134 135//135 
f 135//135 134//134 136//136 
f 137//137 135//135 136//136 
f 137//137 136//136 138//138 
f 139//139 137//137 138//138 
f 139//139 138//138 140//140 
f 141//141 139//139 140//140 
f 141//141 140//140 142//142 
# eof
