# j.c. convert leaf file to obj
# Verts
v 14.127900 48.687302 -20.000000
v 8.268750 -0.000001 -18.952000
v 8.268750 20.000000 -19.395800
v -0.658215 59.940800 -20.000000
v -8.268750 20.000000 -19.426300
v -13.202500 50.393501 -20.000000
v 22.049999 33.277802 -20.000000
v 20.676100 -0.058661 -18.768299
v -8.268750 -0.000001 -18.982500
v -20.741600 -0.059341 -19.002899
v -22.049999 33.184101 -20.000000
v 8.268750 20.000000 -15.132000
v 8.268750 -0.000001 -15.132000
v -8.268750 20.000000 -15.132000
v -8.268750 -0.000001 -15.132000
v 14.127900 48.687302 -15.132000
v -0.658215 59.940800 -15.132000
v -13.202500 50.393501 -15.132000
v 20.809401 -0.052961 -15.132000
v 22.049999 33.277802 -15.132000
v -20.874201 -0.053321 -15.132000
v -22.049999 33.184101 -15.132000
# UVs
# Normals
vn 0.005523 -0.022184 -0.999739
vn -0.013870 -0.018223 -0.999738
vn 0.001844 -0.014714 -0.999890
vn 0.012784 -0.016796 -0.999777
vn -0.066349 -0.034110 -0.997213
vn 0.014690 -0.023285 -0.999621
vn -0.020408 -0.022180 -0.999546
vn 0.001730 -0.020018 -0.999798
vn 0.054092 -0.027809 -0.998149
vn -1.000000 0.000000 -0.000000
vn 1.000000 0.000000 -0.000000
vn 0.000000 -1.000000 0.000000
vn 0.000000 -0.000000 1.000000
vn 0.000000 0.000000 1.000000
# Material
mtllib Shed2_5.mtl
usemtl Shed2_5
# Faces
f 1//1 2//1 3//1 
f 1//2 3//2 4//2 
f 4//3 3//3 5//3 
f 4//4 5//4 6//4 
f 7//5 8//5 1//5 
f 1//6 8//6 2//6 
f 5//7 9//7 6//7 
f 6//8 9//8 10//8 
f 6//9 10//9 11//9 
f 12//10 3//10 2//10 
f 12//10 2//10 13//10 
f 5//11 14//11 15//11 
f 5//11 15//11 9//11 
f 5//12 3//12 12//12 
f 5//12 12//12 14//12 
f 12//13 16//13 17//13 
f 12//14 17//14 14//14 
f 14//13 17//13 18//13 
f 15//13 14//13 18//13 
f 19//13 20//13 16//13 
f 19//13 16//13 12//13 
f 19//13 12//13 13//13 
f 15//13 18//13 21//13 
f 21//14 18//14 22//14 
# eof
