# j.c. convert leaf file to obj
# Verts
v 20.000000 0.000000 20.000000
v 20.000000 2.000000 20.000000
v -20.000000 2.000000 20.000000
v -20.000000 0.000000 20.000000
v -20.000000 0.000000 -20.000000
v 20.000000 0.000000 -20.000000
v 20.000000 2.000000 -20.000000
v -20.000000 2.000000 -20.000000
# UVs
# Normals
vn 0.000000 -0.000000 1.000000
vn 0.000000 -1.000000 0.000000
vn 1.000000 0.000000 -0.000000
vn 0.000000 1.000000 0.000000
vn 0.000000 -0.000000 -1.000000
vn -1.000000 0.000000 -0.000000
# Material
mtllib shedbase.mtl
usemtl shedbase
# Faces
f 1//1 2//1 3//1 
f 1//1 3//1 4//1 
f 5//2 6//2 1//2 
f 5//2 1//2 4//2 
f 7//3 2//3 1//3 
f 7//3 1//3 6//3 
f 7//4 8//4 3//4 
f 7//4 3//4 2//4 
f 7//5 6//5 5//5 
f 7//5 5//5 8//5 
f 3//6 8//6 5//6 
f 3//6 5//6 4//6 
# eof
