# j.c. convert leaf file to obj
# Verts
v 12.978600 49.222801 -22.000000
v 22.109800 31.461800 -22.000000
v 22.109800 31.461800 22.000000
v 12.978600 49.222801 22.000000
v 24.108101 32.306999 -22.000000
v 24.108101 32.306999 22.000000
v -0.349955 61.978001 22.000000
v -0.349955 61.978001 -22.000000
v -0.404265 61.919201 -22.000000
v -0.404265 61.919201 22.000000
v 14.820100 50.373199 -22.000000
v 14.820100 50.373199 22.000000
v 14.852100 50.407799 -22.000000
v 14.852100 50.407799 22.000000
v -0.454032 61.973000 22.000000
v -0.454032 61.973000 -22.000000
v -15.350800 50.635399 -22.000000
v -15.350800 50.635399 22.000000
v -0.398752 59.404400 22.000000
v -0.398752 59.404400 -22.000000
v -14.006200 49.047798 22.000000
v -14.006200 49.047798 -22.000000
v -15.574400 50.729801 -22.000000
v -15.574400 50.729801 22.000000
v -24.893101 32.603802 -22.000000
v -24.893101 32.603802 22.000000
v -22.894699 31.758400 22.000000
v -22.894699 31.758400 -22.000000
# UVs
# Normals
vn -0.889349 -0.457228 0.000000
vn 0.389548 -0.921006 0.000000
vn -0.734596 0.678505 0.000000
vn 0.889352 0.457224 0.000000
vn 0.734140 -0.678998 0.000000
vn 0.605635 0.795742 0.000000
vn -0.605627 0.795749 0.000000
vn -0.605642 -0.795738 0.000000
vn 0.734077 0.679066 0.000000
vn 0.605637 -0.795741 0.000000
vn 0.388949 0.921260 0.000000
vn -0.889353 0.457222 0.000000
vn 0.889355 -0.457218 0.000000
vn -0.389610 -0.920980 0.000000
vn 0.000000 0.000000 -1.000000
vn -0.000000 0.000000 -1.000000
vn -0.000000 0.000000 1.000000
vn -0.000000 0.000000 1.000000
# Material
mtllib Shed2_1.mtl
usemtl Shed2_1
# Faces
f 1//1 2//1 3//1 
f 1//1 3//1 4//1 
f 5//2 6//2 3//2 
f 5//2 3//2 2//2 
f 7//3 8//3 9//3 
f 7//3 9//3 10//3 
f 5//4 11//4 12//4 
f 5//4 12//4 6//4 
f 13//5 14//5 12//5 
f 13//5 12//5 11//5 
f 14//6 13//6 8//6 
f 14//6 8//6 7//6 
f 15//7 16//7 17//7 
f 15//7 17//7 18//7 
f 1//8 4//8 19//8 
f 1//8 19//8 20//8 
f 10//9 9//9 16//9 
f 10//9 16//9 15//9 
f 20//10 19//10 21//10 
f 20//10 21//10 22//10 
f 18//11 17//11 23//11 
f 18//11 23//11 24//11 
f 24//12 23//12 25//12 
f 24//12 25//12 26//12 
f 22//13 21//13 27//13 
f 22//13 27//13 28//13 
f 28//14 27//14 26//14 
f 28//14 26//14 25//14 
f 28//15 25//15 22//15 
f 22//15 25//15 17//15 
f 17//16 25//16 23//16 
f 22//15 17//15 20//15 
f 20//15 17//15 9//15 
f 9//15 17//15 16//15 
f 5//15 2//15 1//15 
f 5//15 1//15 11//15 
f 11//16 1//16 13//16 
f 13//15 1//15 20//15 
f 13//15 20//15 9//15 
f 13//16 9//16 8//16 
f 26//17 27//17 21//17 
f 26//17 21//17 18//17 
f 26//17 18//17 24//17 
f 18//17 21//17 19//17 
f 18//17 19//17 10//17 
f 18//17 10//17 15//17 
f 3//17 6//17 4//17 
f 4//17 6//17 12//17 
f 4//17 12//17 14//17 
f 4//17 14//17 19//17 
f 19//17 14//17 10//17 
f 10//18 14//18 7//18 
# eof
