# j.c. convert leaf file to obj
# Verts
v 14.883600 8.899090 22.390200
v 14.883600 12.574100 22.390200
v 14.636000 12.574100 22.224701
v 14.636000 8.899090 22.224701
v 13.326000 12.574100 24.721399
v 13.326000 8.899090 24.721399
v 12.862300 8.899090 24.411501
v 12.862300 12.574100 24.411501
v 12.733200 12.574100 24.218300
v 12.733200 8.899090 24.218300
v 13.873000 12.574100 24.830200
v 13.873000 8.899090 24.830200
v 14.420100 12.574100 24.721399
v 14.420100 8.899090 24.721399
v 14.883600 12.574100 24.411501
v 14.883600 8.899090 24.411501
v 15.193500 12.574100 23.947800
v 15.193500 8.899090 23.947800
v 15.302300 12.574100 23.400801
v 15.193500 12.574100 22.853901
v 15.193500 8.899090 22.853901
v 15.302300 8.899090 23.400801
# UVs
# Normals
vn -0.555703 0.000000 0.831381
vn 0.555649 0.000000 -0.831417
vn 0.831456 0.000000 -0.555591
vn 0.195083 0.000000 -0.980787
vn -0.195049 -0.000000 -0.980794
vn -0.555815 -0.000000 -0.831306
vn -0.831417 0.000000 -0.555650
vn -0.980780 0.000000 0.195117
vn -0.980787 0.000000 -0.195083
vn -0.831417 0.000000 0.555650
# Material
mtllib table6-2.mtl
usemtl table6-2
# Faces
f 1//1 2//1 3//1 
f 1//1 3//1 4//1 
f 5//2 6//2 7//2 
f 5//2 7//2 8//2 
f 9//3 8//3 7//3 
f 9//3 7//3 10//3 
f 11//4 12//4 6//4 
f 11//4 6//4 5//4 
f 13//5 14//5 12//5 
f 13//5 12//5 11//5 
f 15//6 16//6 14//6 
f 15//6 14//6 13//6 
f 15//7 17//7 18//7 
f 15//7 18//7 16//7 
f 19//8 20//8 21//8 
f 19//8 21//8 22//8 
f 17//9 19//9 22//9 
f 17//9 22//9 18//9 
f 20//10 2//10 1//10 
f 20//10 1//10 21//10 
# eof
