# j.c. convert leaf file to obj
# Verts
v 14.009500 12.574100 25.305901
v 12.733200 12.574100 25.559799
v 14.172200 12.504100 25.698900
v 12.733200 12.504100 25.985100
v 15.392300 12.504100 24.883801
v 15.091500 12.574100 24.583099
v 16.207500 12.504100 23.663900
v 15.814500 12.574100 23.500999
v 16.493799 12.504100 22.224701
v 16.068300 12.574100 22.224701
v 14.310300 12.304900 26.032200
v 12.733200 12.304900 26.345800
v 15.647400 12.304900 25.138800
v 16.540600 12.304900 23.801800
v 16.854300 12.304900 22.224701
v 14.402500 12.007000 26.254700
v 12.733200 12.007000 26.586800
v 15.817700 12.007000 25.309200
v 16.763300 12.007000 23.893999
v 17.095400 12.007000 22.224701
v 14.434900 11.655300 26.333000
v 12.733200 11.655300 26.671400
v 15.877600 11.655300 25.369101
v 16.841499 11.655300 23.926399
v 17.179899 11.655300 22.224701
v 14.434900 8.899090 26.333000
v 12.733200 8.899090 26.671400
v 15.877600 8.899090 25.369101
v 16.841499 8.899090 23.926399
v 17.179899 8.899090 22.224701
v 14.636000 12.574100 22.224701
v 14.883600 12.574100 22.390200
v 15.193500 12.574100 22.853901
v 15.302300 12.574100 23.400801
v 15.193500 12.574100 23.947800
v 14.883600 12.574100 24.411501
v 14.420100 12.574100 24.721399
v 13.873000 12.574100 24.830200
v 13.326000 12.574100 24.721399
v 12.862300 12.574100 24.411501
v 12.733200 12.574100 24.218300
# UVs
# Normals
vn 0.027108 0.998125 0.054871
vn 0.016198 0.996547 0.081435
vn 0.135180 0.944858 0.298278
vn 0.075560 0.921917 0.379948
vn 0.239084 0.944836 0.223882
vn 0.061400 0.996664 0.053771
vn 0.306612 0.944818 0.115361
vn 0.066242 0.997551 0.022429
vn 0.272275 0.960694 0.054160
vn 0.032521 0.999450 0.006467
vn 0.206119 0.766110 0.608761
vn 0.126598 0.760678 0.636665
vn 0.423414 0.766096 0.483547
vn 0.576232 0.766098 0.284694
vn 0.636689 0.760648 0.126653
vn 0.337141 0.442920 0.830757
vn 0.168785 0.501508 0.848529
vn 0.629363 0.443022 0.638462
vn 0.825770 0.443056 0.349006
vn 0.911911 0.368124 0.181393
vn 0.439847 0.117737 0.890321
vn 0.193751 0.115679 0.974207
vn 0.726989 0.141365 0.671939
vn 0.917116 0.117815 0.380811
vn 0.977890 0.076912 0.194463
vn 0.320678 0.000000 0.947188
vn 0.195041 0.000000 0.980795
vn 0.707107 0.000000 0.707107
vn 0.947188 0.000000 0.320678
vn 0.980795 0.000000 0.195041
vn 0.000000 1.000000 0.000000
vn 0.000000 1.000000 0.000000
vn 0.000000 1.000000 0.000000
vn 0.000000 1.000000 0.000000
vn 0.000000 1.000000 0.000000
vn 0.000000 1.000000 0.000000
vn 0.000000 1.000000 0.000000
vn 0.000000 1.000000 0.000000
vn 0.000000 1.000000 0.000000
vn 0.000000 1.000000 0.000000
vn 0.000000 1.000000 0.000000
# Material
mtllib table6-1.mtl
usemtl table6-1
# Faces
f 1//1 2//2 3//3 
f 3//3 2//2 4//4 
f 5//5 6//6 1//1 
f 5//5 1//1 3//3 
f 7//7 8//8 6//6 
f 7//7 6//6 5//5 
f 9//9 10//10 8//8 
f 9//9 8//8 7//7 
f 3//3 4//4 11//11 
f 11//11 4//4 12//12 
f 13//13 5//5 3//3 
f 13//13 3//3 11//11 
f 14//14 7//7 5//5 
f 14//14 5//5 13//13 
f 15//15 9//9 7//7 
f 15//15 7//7 14//14 
f 16//16 11//11 17//17 
f 17//17 11//11 12//12 
f 18//18 13//13 16//16 
f 16//16 13//13 11//11 
f 14//14 13//13 18//18 
f 14//14 18//18 19//19 
f 15//15 14//14 19//19 
f 15//15 19//19 20//20 
f 21//21 16//16 22//22 
f 22//22 16//16 17//17 
f 23//23 18//18 21//21 
f 21//21 18//18 16//16 
f 19//19 18//18 23//23 
f 19//19 23//23 24//24 
f 20//20 19//19 24//24 
f 20//20 24//24 25//25 
f 26//26 21//21 22//22 
f 26//26 22//22 27//27 
f 28//28 23//23 21//21 
f 28//28 21//21 26//26 
f 24//24 23//23 28//28 
f 24//24 28//28 29//29 
f 25//25 24//24 29//29 
f 25//25 29//29 30//30 
f 10//10 31//31 32//32 
f 10//10 32//32 33//33 
f 10//10 33//33 34//34 
f 10//10 34//34 8//8 
f 8//8 34//34 35//35 
f 8//8 35//35 36//36 
f 8//8 36//36 6//6 
f 6//6 36//36 37//37 
f 6//6 37//37 1//1 
f 37//37 38//38 1//1 
f 38//38 39//39 1//1 
f 39//39 40//40 1//1 
f 40//40 41//41 2//2 
f 1//1 40//40 2//2 
# eof
