# j.c. convert leaf file to obj
# Verts
v 12.733200 12.574100 25.559799
v 12.733200 12.574100 24.218300
v 12.733200 12.504100 25.985100
v 12.733200 12.304900 26.345800
v 12.733200 12.007000 26.586800
v 12.733200 11.655300 26.671400
v 12.733200 8.899090 24.218300
v 12.733200 8.899090 26.671400
v 17.179899 11.655300 22.224701
v 17.179899 8.899090 22.224701
v 17.095400 12.007000 22.224701
v 16.854300 12.304900 22.224701
v 16.493799 12.504100 22.224701
v 16.068300 12.574100 22.224701
v 14.636000 8.899090 22.224701
v 14.636000 12.574100 22.224701
# UVs
# Normals
vn -1.000000 0.000000 0.000000
vn -1.000000 0.000000 0.000000
vn -1.000000 0.000000 0.000000
vn -1.000000 0.000000 0.000000
vn -1.000000 0.000000 0.000000
vn -1.000000 0.000000 0.000000
vn -1.000000 0.000000 0.000000
vn -1.000000 0.000000 0.000000
vn 0.000000 0.000000 -1.000000
vn 0.000000 0.000000 -1.000000
vn 0.000000 0.000000 -1.000000
vn 0.000000 0.000000 -1.000000
vn 0.000000 0.000000 -1.000000
vn 0.000000 0.000000 -1.000000
vn 0.000000 0.000000 -1.000000
vn 0.000000 0.000000 -1.000000
# Material
mtllib table6-3.mtl
usemtl table6-3
# Faces
f 1//1 2//2 3//3 
f 3//3 2//2 4//4 
f 4//4 2//2 5//5 
f 5//5 2//2 6//6 
f 6//6 2//2 7//7 
f 6//6 7//7 8//8 
f 9//9 10//10 11//11 
f 11//11 10//10 12//12 
f 12//12 10//10 13//13 
f 13//13 10//10 14//14 
f 14//14 10//10 15//15 
f 14//14 15//15 16//16 
# eof
