# j.c. convert leaf file to obj
# Verts
v 12.100000 8.500000 25.410000
v 12.100000 11.000000 25.410000
v -12.100000 11.000000 25.410000
v -12.100000 8.500000 25.410000
v 12.100000 11.195100 25.386801
v -12.100000 11.195100 25.386801
v 12.100000 11.382700 25.317900
v -12.100000 11.382700 25.317900
v 12.100000 11.555600 25.206100
v -12.100000 11.555600 25.206100
v 12.100000 11.707100 25.055599
v -12.100000 11.707100 25.055599
v 12.100000 11.831500 24.872299
v -12.100000 11.831500 24.872299
v 12.100000 11.923900 24.663099
v -12.100000 11.923900 24.663099
# UVs
# Normals
vn 0.000000 0.000000 1.000000
vn 0.000000 0.078841 0.996887
vn 0.000000 0.039420 0.999223
vn 0.000000 0.000000 1.000000
vn 0.000000 0.270838 0.962625
vn 0.000000 0.194817 0.980840
vn 0.000000 0.446621 0.894723
vn 0.000000 0.446621 0.894723
vn 0.000000 0.599795 0.800154
vn 0.000000 0.653982 0.756510
vn 0.000000 0.748734 0.662871
vn 0.000000 0.789793 0.613373
vn 0.000000 0.827438 0.561557
vn 0.000000 0.874646 0.484761
vn 0.000000 0.914747 0.404026
vn 0.000000 0.914747 0.404026
# Material
mtllib table2-1.mtl
usemtl table2-1
# Faces
f 1//1 2//2 3//3 
f 1//1 3//3 4//4 
f 2//2 5//5 6//6 
f 2//2 6//6 3//3 
f 5//5 7//7 8//8 
f 5//5 8//8 6//6 
f 9//9 10//10 8//8 
f 9//9 8//8 7//7 
f 11//11 12//12 10//10 
f 11//11 10//10 9//9 
f 13//13 14//14 12//12 
f 13//13 12//12 11//11 
f 15//15 16//16 14//14 
# eof
