# j.c. convert leaf file to obj
# Verts
v 8.409500 11.923900 49.326199
v -8.409500 11.831500 49.744598
v 8.409500 11.831500 49.744598
v 8.409500 11.980800 48.872200
v -8.409500 11.980800 48.872200
v -8.409500 11.923900 49.326199
v 8.409500 12.000000 48.400002
v -8.409500 12.000000 48.400002
v 8.409500 12.000000 45.980000
v -8.409500 12.000000 45.980000
v 8.409500 10.000000 45.980000
v 8.409500 8.500000 45.980000
v -8.409500 8.500000 45.980000
v -8.409500 10.000000 45.980000
# UVs
# Normals
vn 0.000000 0.985412 0.170184
vn 0.000000 0.976472 0.215644
vn 0.000000 0.976472 0.215644
vn 0.000000 0.995331 0.096524
vn 0.000000 0.997645 0.068592
vn 0.000000 0.992237 0.124358
vn 0.000000 0.999633 0.027090
vn 0.000000 0.999908 0.013545
vn 0.000000 0.707107 -0.707107
vn 0.000000 0.707107 -0.707107
vn 0.000000 0.000000 -1.000000
vn 0.000000 0.000000 -1.000000
vn 0.000000 0.000000 -1.000000
vn 0.000000 0.000000 -1.000000
# Material
mtllib table2-2-bigpockets.mtl
usemtl table2-2-bigpockets
# Faces
f 1//1 2//2 3//3 
f 4//4 5//5 6//6 
f 4//4 6//6 1//1 
f 7//7 8//8 5//5 
f 7//7 5//5 4//4 
f 9//9 10//10 8//8 
f 9//9 8//8 7//7 
f 11//11 12//12 13//13 
f 11//11 13//13 14//14 
f 9//9 11//11 14//14 
f 9//9 14//14 10//10 
# eof
