# j.c. convert leaf file to obj
# Verts
v 28.018999 12.574100 50.611801
v 25.466400 12.574100 51.119598
v 28.344400 12.504100 51.397800
v 25.466400 12.504100 51.970200
v 30.784599 12.504100 49.767601
v 30.183001 12.574100 49.166199
v 32.415001 12.504100 47.327801
v 31.629000 12.574100 47.001999
v 32.987598 12.504100 44.449402
v 32.136600 12.574100 44.449402
v 28.620600 12.304900 52.064400
v 25.466400 12.304900 52.691601
v 31.294800 12.304900 50.277599
v 33.081200 12.304900 47.603600
v 33.708599 12.304900 44.449402
v 28.805000 12.007000 52.509399
v 25.466400 12.007000 53.173599
v 31.635401 12.007000 50.618401
v 33.526600 12.007000 47.787998
v 34.190800 12.007000 44.449402
v 28.869801 11.655300 52.666000
v 25.466400 11.655300 53.342800
v 31.755199 11.655300 50.738201
v 33.682999 11.655300 47.852798
v 34.359798 11.655300 44.449402
v 28.869801 8.899090 52.666000
v 25.466400 8.899090 53.342800
v 31.755199 8.899090 50.738201
v 33.682999 8.899090 47.852798
v 34.359798 8.899090 44.449402
v 29.271999 12.574100 44.449402
v 29.767200 12.574100 44.780399
v 30.386999 12.574100 45.707802
v 30.604601 12.574100 46.801601
v 30.386999 12.574100 47.895599
v 29.767200 12.574100 48.823002
v 28.840200 12.574100 49.442799
v 27.746000 12.574100 49.660400
v 26.652000 12.574100 49.442799
v 25.724600 12.574100 48.823002
v 25.466400 12.574100 48.436600
# UVs
# Normals
vn 0.013661 0.999524 0.027653
vn 0.008162 0.999124 0.041036
vn 0.072538 0.984589 0.159134
vn 0.040837 0.977837 0.205347
vn 0.127945 0.984582 0.119287
vn 0.030937 0.999154 0.027093
vn 0.163889 0.984575 0.061255
vn 0.033380 0.999379 0.011302
vn 0.143878 0.989182 0.028619
vn 0.016403 0.999860 0.003262
vn 0.128453 0.916286 0.379369
vn 0.079233 0.913755 0.398465
vn 0.263867 0.916279 0.301341
vn 0.359076 0.916292 0.177408
vn 0.398464 0.913752 0.079264
vn 0.272263 0.670099 0.690535
vn 0.132883 0.732174 0.668029
vn 0.515738 0.670199 0.533712
vn 0.680736 0.670183 0.295725
vn 0.793808 0.587313 0.157899
vn 0.431820 0.222558 0.874070
vn 0.190333 0.218816 0.957023
vn 0.706940 0.266961 0.654957
vn 0.899441 0.222722 0.376033
vn 0.970398 0.145219 0.192973
vn 0.320678 0.000000 0.947188
vn 0.195041 0.000000 0.980795
vn 0.707107 0.000000 0.707107
vn 0.947188 0.000000 0.320678
vn 0.980795 0.000000 0.195041
vn 0.000000 1.000000 0.000000
vn 0.000000 1.000000 0.000000
vn 0.000000 1.000000 0.000000
vn 0.000000 1.000000 0.000000
vn 0.000000 1.000000 0.000000
vn 0.000000 1.000000 0.000000
vn 0.000000 1.000000 0.000000
vn 0.000000 1.000000 0.000000
vn 0.000000 1.000000 0.000000
vn 0.000000 1.000000 0.000000
vn 0.000000 1.000000 0.000000
# Material
mtllib table6-1-bigpockets.mtl
usemtl table6-1-bigpockets
# Faces
f 1//1 2//2 3//3 
f 3//3 2//2 4//4 
f 5//5 6//6 1//1 
f 5//5 1//1 3//3 
f 7//7 8//8 6//6 
f 7//7 6//6 5//5 
f 9//9 10//10 8//8 
f 9//9 8//8 7//7 
f 3//3 4//4 11//11 
f 11//11 4//4 12//12 
f 13//13 5//5 3//3 
f 13//13 3//3 11//11 
f 14//14 7//7 5//5 
f 14//14 5//5 13//13 
f 15//15 9//9 7//7 
f 15//15 7//7 14//14 
f 16//16 11//11 17//17 
f 17//17 11//11 12//12 
f 18//18 13//13 16//16 
f 16//16 13//13 11//11 
f 14//14 13//13 18//18 
f 14//14 18//18 19//19 
f 15//15 14//14 19//19 
f 15//15 19//19 20//20 
f 21//21 16//16 22//22 
f 22//22 16//16 17//17 
f 23//23 18//18 21//21 
f 21//21 18//18 16//16 
f 19//19 18//18 23//23 
f 19//19 23//23 24//24 
f 20//20 19//19 24//24 
f 20//20 24//24 25//25 
f 26//26 21//21 22//22 
f 26//26 22//22 27//27 
f 28//28 23//23 21//21 
f 28//28 21//21 26//26 
f 24//24 23//23 28//28 
f 24//24 28//28 29//29 
f 25//25 24//24 29//29 
f 25//25 29//29 30//30 
f 10//10 31//31 32//32 
f 10//10 32//32 33//33 
f 10//10 33//33 34//34 
f 10//10 34//34 8//8 
f 8//8 34//34 35//35 
f 8//8 35//35 36//36 
f 8//8 36//36 6//6 
f 6//6 36//36 37//37 
f 6//6 37//37 1//1 
f 37//37 38//38 1//1 
f 38//38 39//39 1//1 
f 39//39 40//40 1//1 
f 40//40 41//41 2//2 
f 1//1 40//40 2//2 
# eof
