# j.c. convert leaf file to obj
# Verts
v 12.100000 11.923900 24.663099
v -12.100000 11.831500 24.872299
v 12.100000 11.831500 24.872299
v 12.100000 11.980800 24.436100
v -12.100000 11.980800 24.436100
v -12.100000 11.923900 24.663099
v 12.100000 12.000000 24.200001
v -12.100000 12.000000 24.200001
v 12.100000 12.000000 22.990000
v -12.100000 12.000000 22.990000
v 12.100000 10.000000 22.990000
v 12.100000 8.500000 22.990000
v -12.100000 8.500000 22.990000
v -12.100000 10.000000 22.990000
# UVs
# Normals
vn 0.000000 0.945796 0.324760
vn 0.000000 0.914747 0.404026
vn 0.000000 0.914747 0.404026
vn 0.000000 0.981846 0.189681
vn 0.000000 0.990779 0.135490
vn 0.000000 0.969991 0.243140
vn 0.000000 0.998537 0.054077
vn 0.000000 0.999634 0.027038
vn 0.000000 0.707107 -0.707107
vn 0.000000 0.707107 -0.707107
vn 0.000000 0.000000 -1.000000
vn 0.000000 0.000000 -1.000000
vn 0.000000 0.000000 -1.000000
vn 0.000000 0.000000 -1.000000
# Material
mtllib table2-2.mtl
usemtl table2-2
# Faces
f 1//1 2//2 3//3 
f 4//4 5//5 6//6 
f 4//4 6//6 1//1 
f 7//7 8//8 5//5 
f 7//7 5//5 4//4 
f 9//9 10//10 8//8 
f 9//9 8//8 7//7 
f 11//11 12//12 13//13 
f 11//11 13//13 14//14 
f 9//9 11//11 14//14 
f 9//9 14//14 10//10 
# eof
