# j.c. convert leaf file to obj
# Verts
v 31.176201 11.923900 1.086280
v 31.176201 11.923900 16.777000
v 31.594601 11.831500 16.777000
v 31.594601 11.831500 1.086280
v 30.722200 11.980800 1.086280
v 30.722200 11.980800 16.777000
v 30.250000 12.000000 1.086280
v 30.250000 12.000000 16.777000
v 27.830000 12.000000 1.086280
v 27.830000 12.000000 16.777000
v 27.830000 10.000000 1.086280
v 27.830000 8.500000 1.086280
v 27.830000 8.500000 16.777000
v 27.830000 10.000000 16.777000
# UVs
# Normals
vn 0.185392 0.982665 0.000000
vn 0.154934 0.987925 0.000000
vn 0.215644 0.976472 0.000000
vn 0.215644 0.976472 0.000000
vn 0.096523 0.995331 0.000000
vn 0.068592 0.997645 0.000000
vn 0.027090 0.999633 0.000000
vn 0.013545 0.999908 0.000000
vn -0.707107 0.707107 0.000000
vn -0.707107 0.707107 0.000000
vn -1.000000 0.000000 0.000000
vn -1.000000 0.000000 0.000000
vn -1.000000 0.000000 0.000000
vn -1.000000 0.000000 0.000000
# Material
mtllib table3-2-bigpockets.mtl
usemtl table3-2-bigpockets
# Faces
f 1//1 2//2 3//3 
f 1//1 3//3 4//4 
f 5//5 6//6 2//2 
f 5//5 2//2 1//1 
f 7//7 8//8 6//6 
f 7//7 6//6 5//5 
f 9//9 10//10 8//8 
f 9//9 8//8 7//7 
f 11//11 12//12 13//13 
f 11//11 13//13 14//14 
f 9//9 11//11 14//14 
f 9//9 14//14 10//10 
# eof
