# j.c. convert leaf file to obj
# Verts
v 39.950500 8.500000 38.115002
v 39.950500 11.000000 38.115002
v -39.950500 11.000000 38.115002
v -39.950500 8.500000 38.115002
v 39.950500 11.195100 38.080200
v -39.950500 11.195100 38.080200
v 39.950500 11.382700 37.976799
v -39.950500 11.382700 37.976799
v 39.950500 11.555600 37.809200
v -39.950500 11.555600 37.809200
v 39.950500 11.707100 37.583401
v -39.950500 11.707100 37.583401
v 39.950500 11.831500 37.308399
v -39.950500 11.831500 37.308399
v 39.950500 11.923900 36.994598
v -39.950500 11.923900 36.994598
# UVs
# Normals
vn 0.000000 0.000000 1.000000
vn 0.000000 0.117477 0.993076
vn 0.000000 0.058738 0.998273
vn 0.000000 0.000000 1.000000
vn 0.000000 0.384908 0.922955
vn 0.000000 0.281311 0.959617
vn 0.000000 0.594617 0.804009
vn 0.000000 0.594617 0.804009
vn 0.000000 0.744454 0.667674
vn 0.000000 0.789472 0.613787
vn 0.000000 0.859944 0.510388
vn 0.000000 0.886930 0.461904
vn 0.000000 0.911115 0.412153
vn 0.000000 0.937442 0.348142
vn 0.000000 0.959278 0.282462
vn 0.000000 0.959278 0.282462
# Material
mtllib table2-1-regular-XL.mtl
usemtl table2-1-regular-XL
# Faces
f 1//1 2//2 3//3 
f 1//1 3//3 4//4 
f 2//2 5//5 6//6 
f 2//2 6//6 3//3 
f 5//5 7//7 8//8 
f 5//5 8//8 6//6 
f 9//9 10//10 8//8 
f 9//9 8//8 7//7 
f 11//11 12//12 10//10 
f 11//11 10//10 9//9 
f 13//13 14//14 12//12 
f 13//13 12//12 11//11 
f 15//15 16//16 14//14 
# eof
