# j.c. convert leaf file to obj
# Verts
v 25.816200 8.925000 -2.826280
v 25.816200 11.550000 -2.826280
v 25.816200 11.550000 2.890960
v 25.816200 8.925000 2.890960
v 25.779800 11.754900 -2.826280
v 25.779800 11.754900 2.890960
v 25.671200 11.951800 -2.826280
v 25.671200 11.951800 2.890960
v 25.495100 12.133400 -2.826280
v 25.495100 12.133400 2.890960
v 25.257999 12.292500 -2.826280
v 25.257999 12.292500 2.890960
v 24.969299 12.423100 -2.826280
v 24.969299 12.423100 2.890960
v 24.639900 12.520100 -2.826280
v 24.639900 12.520100 2.890960
v 24.282301 12.579800 -2.826280
v 24.282301 12.579800 2.890960
v 23.910400 12.600000 -2.826280
v 23.910400 12.600000 2.890960
v 22.004700 12.600000 2.890960
v 22.004700 12.600000 2.054460
v 22.004700 8.925000 2.054460
v 22.004700 8.925000 2.890960
v 22.004700 12.600000 -2.826280
v 22.004700 8.925000 -2.826280
v 22.004700 8.925000 -1.989750
v 22.004700 12.600000 -1.989750
v 22.434000 12.600000 1.969090
v 23.113800 12.600000 1.514670
v 23.568300 12.600000 0.834582
v 23.727900 12.600000 0.032340
v 22.434000 12.600000 -1.904390
v 23.113800 12.600000 -1.449970
v 23.568300 12.600000 -0.769887
# UVs
# Normals
vn 1.000000 0.000000 0.000000
vn 0.993131 0.117007 0.000000
vn 0.998287 0.058504 0.000000
vn 1.000000 0.000000 0.000000
vn 0.922971 0.384870 0.000000
vn 0.959724 0.280946 0.000000
vn 0.803867 0.594809 0.000000
vn 0.803867 0.594809 0.000000
vn 0.667590 0.744529 0.000000
vn 0.613762 0.789491 0.000000
vn 0.510421 0.859925 0.000000
vn 0.461926 0.886918 0.000000
vn 0.369723 0.929142 0.000000
vn 0.326403 0.945231 0.000000
vn 0.243605 0.969875 0.000000
vn 0.204270 0.978915 0.000000
vn 0.128033 0.991770 0.000000
vn 0.086482 0.944602 0.316619
vn 0.018085 0.999836 0.000000
vn 0.010639 0.980514 0.196161
vn -0.301511 0.904534 0.301511
vn -0.894427 0.447214 0.000000
vn -1.000000 0.000000 0.000000
vn -1.000000 0.000000 0.000000
vn -0.554700 0.832050 0.000000
vn -1.000000 0.000000 0.000000
vn -1.000000 0.000000 0.000000
vn -0.707107 0.707107 0.000000
vn 0.000000 1.000000 0.000000
vn 0.000000 1.000000 0.000000
vn 0.000000 1.000000 0.000000
vn 0.000000 1.000000 0.000000
vn 0.000000 1.000000 0.000000
vn 0.000000 1.000000 0.000000
vn 0.000000 1.000000 0.000000
# Material
mtllib table7-1-regular.mtl
usemtl table7-1-regular
# Faces
f 1//1 2//2 3//3 
f 1//1 3//3 4//4 
f 2//2 5//5 6//6 
f 2//2 6//6 3//3 
f 5//5 7//7 8//8 
f 5//5 8//8 6//6 
f 9//9 10//10 8//8 
f 9//9 8//8 7//7 
f 11//11 12//12 10//10 
f 11//11 10//10 9//9 
f 13//13 14//14 12//12 
f 13//13 12//12 11//11 
f 15//15 16//16 14//14 
f 15//15 14//14 13//13 
f 17//17 18//18 16//16 
f 17//17 16//16 15//15 
f 19//19 20//20 18//18 
f 19//19 18//18 17//17 
f 20//20 21//21 18//18 
f 22//22 23//23 24//24 
f 22//22 24//24 21//21 
f 25//25 26//26 27//27 
f 25//25 27//27 28//28 
f 22//22 21//21 29//29 
f 29//29 21//21 30//30 
f 30//30 21//21 20//20 
f 31//31 30//30 20//20 
f 32//32 31//31 20//20 
f 25//25 28//28 33//33 
f 25//25 33//33 34//34 
f 25//25 34//34 19//19 
f 34//34 35//35 19//19 
f 35//35 32//32 19//19 
f 32//32 20//20 19//19 
# eof
