# j.c. convert leaf file to obj
# Verts
v 24.502501 8.500000 1.506900
v 24.502501 11.000000 1.506900
v 24.502501 11.000000 23.273300
v 24.502501 8.500000 23.273300
v 24.467699 11.195100 1.506900
v 24.467699 11.195100 23.273300
v 24.364401 11.382700 1.506900
v 24.364401 11.382700 23.273300
v 24.196600 11.555600 1.506900
v 24.196600 11.555600 23.273300
v 23.970900 11.707100 1.506900
v 23.970900 11.707100 23.273300
v 23.695900 11.831500 1.506900
v 23.695900 11.831500 23.273300
v 23.382200 11.923900 1.506900
v 23.382200 11.923900 23.273300
# UVs
# Normals
vn 1.000000 0.000000 0.000000
vn 0.993076 0.117477 0.000000
vn 0.998273 0.058738 0.000000
vn 1.000000 0.000000 0.000000
vn 0.923063 0.384648 0.000000
vn 0.959656 0.281178 0.000000
vn 0.803955 0.594689 0.000000
vn 0.803955 0.594689 0.000000
vn 0.667424 0.744678 0.000000
vn 0.613736 0.789511 0.000000
vn 0.510505 0.859874 0.000000
vn 0.461966 0.886898 0.000000
vn 0.412156 0.911113 0.000000
vn 0.348184 0.937426 0.000000
vn 0.282546 0.959254 0.000000
vn 0.282546 0.959254 0.000000
# Material
mtllib table3-1-regular.mtl
usemtl table3-1-regular
# Faces
f 1//1 2//2 3//3 
f 1//1 3//3 4//4 
f 2//2 5//5 6//6 
f 2//2 6//6 3//3 
f 5//5 7//7 8//8 
f 5//5 8//8 6//6 
f 9//9 10//10 8//8 
f 9//9 8//8 7//7 
f 11//11 12//12 10//10 
f 11//11 10//10 9//9 
f 13//13 14//14 12//12 
f 13//13 12//12 11//11 
f 15//15 16//16 14//14 
# eof
