# j.c. convert leaf file to obj
# Verts
v 25.466400 12.574100 51.119598
v 25.466400 12.574100 48.436600
v 25.466400 12.504100 51.970200
v 25.466400 12.304900 52.691601
v 25.466400 12.007000 53.173599
v 25.466400 11.655300 53.342800
v 25.466400 8.899090 48.436600
v 25.466400 8.899090 53.342800
v 34.359798 11.655300 44.449402
v 34.359798 8.899090 44.449402
v 34.190800 12.007000 44.449402
v 33.708599 12.304900 44.449402
v 32.987598 12.504100 44.449402
v 32.136600 12.574100 44.449402
v 29.271999 8.899090 44.449402
v 29.271999 12.574100 44.449402
# UVs
# Normals
vn -1.000000 0.000000 0.000000
vn -1.000000 0.000000 0.000000
vn -1.000000 0.000000 0.000000
vn -1.000000 0.000000 0.000000
vn -1.000000 0.000000 0.000000
vn -1.000000 0.000000 0.000000
vn -1.000000 0.000000 0.000000
vn -1.000000 0.000000 0.000000
vn 0.000000 0.000000 -1.000000
vn 0.000000 0.000000 -1.000000
vn 0.000000 0.000000 -1.000000
vn 0.000000 0.000000 -1.000000
vn 0.000000 0.000000 -1.000000
vn 0.000000 0.000000 -1.000000
vn 0.000000 0.000000 -1.000000
vn 0.000000 0.000000 -1.000000
# Material
mtllib table6-3-bigpockets.mtl
usemtl table6-3-bigpockets
# Faces
f 1//1 2//2 3//3 
f 3//3 2//2 4//4 
f 4//4 2//2 5//5 
f 5//5 2//2 6//6 
f 6//6 2//2 7//7 
f 6//6 7//7 8//8 
f 9//9 10//10 11//11 
f 11//11 10//10 12//12 
f 12//12 10//10 13//13 
f 13//13 10//10 14//14 
f 14//14 10//10 15//15 
f 14//14 15//15 16//16 
# eof
