# j.c. convert leaf file to obj
# Verts
v 0.141953 12.000000 -3.478390
v 0.605000 12.000000 -3.616010
v 0.605000 10.000000 -3.616010
v 0.141953 10.000000 -3.478390
v -0.250600 12.000000 -3.086460
v -0.250600 10.000000 -3.086460
v -0.512895 10.000000 -2.499900
v -0.512895 12.000000 -2.499900
v -0.605000 10.000000 -1.808010
v -0.605000 12.000000 -1.808010
v -0.604999 10.000000 10.848000
v -0.604999 12.000000 10.848000
v -0.512894 10.000000 11.539900
v -0.512894 12.000000 11.539900
v -0.250599 10.000000 12.126500
v -0.250599 12.000000 12.126500
v 0.141954 12.000000 12.518400
v 0.141954 10.000000 12.518400
v 0.605001 12.000000 12.656100
v 0.605001 10.000000 12.656100
# UVs
# Normals
vn -0.360732 0.565267 -0.741853
vn 0.306877 0.858265 -0.411349
vn 0.458723 -0.641471 -0.614889
vn -0.479906 -0.565267 -0.670943
vn -0.654735 0.606450 -0.451153
vn -0.451451 -0.836315 -0.311078
vn -0.667042 -0.710369 -0.224570
vn -0.685599 0.710369 -0.159154
vn -0.828315 -0.555448 -0.073295
vn -0.830743 0.555448 -0.036648
vn -0.947577 -0.316782 0.041801
vn -0.944807 0.316782 0.083602
vn -0.685601 -0.710368 0.159147
vn -0.667046 0.710368 0.224558
vn -0.654731 -0.606453 0.451157
vn -0.451447 0.836316 0.311079
vn -0.342931 0.807811 0.479416
vn -0.257813 -0.807811 0.530070
vn 0.551616 0.385768 0.739529
vn 0.458654 -0.641511 0.614898
# Material
mtllib table-r2-bigpockets.mtl
usemtl table-r2-bigpockets
# Faces
f 1//1 2//2 3//3 
f 1//1 3//3 4//4 
f 5//5 1//1 4//4 
f 5//5 4//4 6//6 
f 5//5 6//6 7//7 
f 5//5 7//7 8//8 
f 8//8 7//7 9//9 
f 8//8 9//9 10//10 
f 10//10 9//9 11//11 
f 10//10 11//11 12//12 
f 12//12 11//11 13//13 
f 12//12 13//13 14//14 
f 14//14 13//13 15//15 
f 14//14 15//15 16//16 
f 17//17 16//16 15//15 
f 17//17 15//15 18//18 
f 19//19 17//17 18//18 
f 19//19 18//18 20//20 
f 10//10 12//12 14//14 
f 10//10 14//14 8//8 
f 8//8 14//14 16//16 
f 8//8 16//16 5//5 
f 5//5 16//16 17//17 
f 5//5 17//17 1//1 
f 1//1 17//17 2//2 
f 2//2 17//17 19//19 
f 3//3 2//2 19//19 
f 3//3 19//19 20//20 
f 11//11 9//9 13//13 
f 13//13 9//9 7//7 
f 13//13 7//7 15//15 
f 15//15 7//7 6//6 
f 15//15 6//6 18//18 
f 18//18 6//6 4//4 
f 18//18 4//4 3//3 
f 18//18 3//3 20//20 
# eof
