# j.c. convert leaf file to obj
# Verts
v 16.334999 8.500000 1.361250
v 16.334999 11.000000 1.361250
v 16.334999 11.000000 21.023800
v 16.334999 8.500000 21.023800
v 16.311800 11.195100 1.361250
v 16.311800 11.195100 21.023800
v 16.242901 11.382700 1.361250
v 16.242901 11.382700 21.023800
v 16.131100 11.555600 1.361250
v 16.131100 11.555600 21.023800
v 15.980600 11.707100 1.361250
v 15.980600 11.707100 21.023800
v 15.797300 11.831500 1.361250
v 15.797300 11.831500 21.023800
v 15.588100 11.923900 1.361250
v 15.588100 11.923900 21.023800
# UVs
# Normals
vn 1.000000 0.000000 0.000000
vn 0.996887 0.078841 0.000000
vn 0.999223 0.039420 0.000000
vn 1.000000 0.000000 0.000000
vn 0.962626 0.270833 0.000000
vn 0.980840 0.194814 0.000000
vn 0.894723 0.446621 0.000000
vn 0.894723 0.446621 0.000000
vn 0.800152 0.599798 0.000000
vn 0.756511 0.653981 0.000000
vn 0.662874 0.748731 0.000000
vn 0.613375 0.789792 0.000000
vn 0.561557 0.827438 0.000000
vn 0.484761 0.874646 0.000000
vn 0.404026 0.914747 0.000000
vn 0.404026 0.914747 0.000000
# Material
mtllib table3-1.mtl
usemtl table3-1
# Faces
f 1//1 2//2 3//3 
f 1//1 3//3 4//4 
f 2//2 5//5 6//6 
f 2//2 6//6 3//3 
f 5//5 7//7 8//8 
f 5//5 8//8 6//6 
f 9//9 10//10 8//8 
f 9//9 8//8 7//7 
f 11//11 12//12 10//10 
f 11//11 10//10 9//9 
f 13//13 14//14 12//12 
f 13//13 12//12 11//11 
f 15//15 16//16 14//14 
# eof
