# j.c. convert leaf file to obj
# Verts
v -32.685799 -3.000000 22.000000
v -32.685799 -1.000000 22.000000
v -33.506302 -1.000000 21.847799
v -33.506302 -3.000000 21.847799
v -34.201900 -1.000000 21.414200
v -34.201900 -3.000000 21.414200
v -34.666599 -3.000000 20.765400
v -34.666599 -1.000000 20.765400
v -34.829899 -3.000000 20.000000
v -34.829899 -1.000000 20.000000
v 16.408400 -1.000000 20.000000
v 16.408400 -3.000000 20.000000
v 14.264400 -1.000000 22.000000
v 15.085000 -1.000000 21.847799
v 15.780500 -1.000000 21.414200
v 16.245300 -1.000000 20.765400
v 14.264400 -3.000000 22.000000
v 15.085000 -3.000000 21.847799
v 15.780500 -3.000000 21.414200
v 16.245300 -3.000000 20.765400
# UVs
# Normals
vn -0.101431 -0.556137 0.824878
vn -0.050716 0.556137 0.829542
vn -0.212298 0.712601 0.668677
vn -0.294629 -0.712601 0.636705
vn -0.543418 0.607411 0.579438
vn -0.374385 -0.836944 0.399200
vn -0.619526 -0.713753 0.326718
vn -0.658784 0.713753 0.237823
vn -0.722420 -0.369339 -0.584549
vn -0.608552 0.622249 -0.492413
vn 0.608527 0.622190 -0.492519
vn 0.413920 -0.846426 -0.335011
vn 0.115726 0.317294 0.941240
vn 0.294650 0.712604 0.636692
vn 0.374381 0.836940 0.399212
vn 0.619519 0.713765 0.326705
vn 0.057863 -0.317294 0.946560
vn 0.212302 -0.712604 0.668673
vn 0.543410 -0.607405 0.579452
vn 0.658805 -0.713765 0.237731
# Material
mtllib table-rail-long.mtl
usemtl table-rail-long
# Faces
f 1//1 2//2 3//3 
f 1//1 3//3 4//4 
f 4//4 3//3 5//5 
f 4//4 5//5 6//6 
f 7//7 6//6 5//5 
f 7//7 5//5 8//8 
f 9//9 7//7 8//8 
f 9//9 8//8 10//10 
f 11//11 12//12 9//9 
f 11//11 9//9 10//10 
f 2//2 13//13 14//14 
f 2//2 14//14 3//3 
f 3//3 14//14 15//15 
f 3//3 15//15 5//5 
f 5//5 15//15 16//16 
f 5//5 16//16 8//8 
f 8//8 16//16 11//11 
f 8//8 11//11 10//10 
f 17//17 1//1 18//18 
f 18//18 1//1 4//4 
f 18//18 4//4 19//19 
f 19//19 4//4 6//6 
f 19//19 6//6 20//20 
f 20//20 6//6 7//7 
f 20//20 7//7 12//12 
f 12//12 7//7 9//9 
f 20//20 12//12 11//11 
f 20//20 11//11 16//16 
f 19//19 20//20 16//16 
f 19//19 16//16 15//15 
f 19//19 15//15 14//14 
f 19//19 14//14 18//18 
f 18//18 14//14 13//13 
f 18//18 13//13 17//17 
f 17//17 13//13 2//2 
f 17//17 2//2 1//1 
# eof
