# j.c. convert leaf file to obj
# Verts
v 8.409500 8.500000 50.820000
v 8.409500 11.000000 50.820000
v -8.409500 11.000000 50.820000
v -8.409500 8.500000 50.820000
v 8.409500 11.195100 50.773602
v -8.409500 11.195100 50.773602
v 8.409500 11.382700 50.635799
v -8.409500 11.382700 50.635799
v 8.409500 11.555600 50.412201
v -8.409500 11.555600 50.412201
v 8.409500 11.707100 50.111198
v -8.409500 11.707100 50.111198
v 8.409500 11.831500 49.744598
v -8.409500 11.831500 49.744598
v 8.409500 11.923900 49.326199
v -8.409500 11.923900 49.326199
# UVs
# Normals
vn 0.000000 0.000000 1.000000
vn 0.000000 0.155182 0.987886
vn 0.000000 0.077591 0.996985
vn 0.000000 0.000000 1.000000
vn 0.000000 0.480293 0.877108
vn 0.000000 0.357914 0.933755
vn 0.000000 0.698327 0.715779
vn 0.000000 0.698327 0.715779
vn 0.000000 0.828521 0.559959
vn 0.000000 0.862713 0.505693
vn 0.000000 0.913111 0.407711
vn 0.000000 0.931058 0.364871
vn 0.000000 0.946965 0.321338
vn 0.000000 0.963169 0.268896
vn 0.000000 0.976472 0.215644
vn 0.000000 0.976472 0.215644
# Material
mtllib table2-1-bigpockets.mtl
usemtl table2-1-bigpockets
# Faces
f 1//1 2//2 3//3 
f 1//1 3//3 4//4 
f 2//2 5//5 6//6 
f 2//2 6//6 3//3 
f 5//5 7//7 8//8 
f 5//5 8//8 6//6 
f 9//9 10//10 8//8 
f 9//9 8//8 7//7 
f 11//11 12//12 10//10 
f 11//11 10//10 9//9 
f 13//13 14//14 12//12 
f 13//13 12//12 11//11 
f 15//15 16//16 14//14 
# eof
