# j.c. convert leaf file to obj
# Verts
v 14.669800 12.600000 1.369640
v 14.956000 12.600000 1.312730
v 14.956000 8.925000 1.312730
v 14.669800 8.925000 1.369640
v 14.956000 12.600000 -1.269590
v 14.669800 12.600000 -1.326500
v 14.669800 8.925000 -1.326500
v 14.956000 8.925000 -1.269590
v 15.409200 12.600000 1.009780
v 15.409200 8.925000 1.009780
v 15.712200 12.600000 0.556388
v 15.712200 8.925000 0.556389
v 15.818600 12.600000 0.021560
v 15.818600 8.925000 0.021560
v 15.712200 12.600000 -0.513258
v 15.712200 8.925000 -0.513257
v 15.409200 12.600000 -0.966649
v 15.409200 8.925000 -0.966647
# UVs
# Normals
vn -0.195028 0.000000 -0.980798
vn -0.195028 0.000000 0.980798
vn -0.555737 0.000000 -0.831358
vn -0.831424 -0.000000 -0.555638
vn -0.831424 -0.000000 -0.555639
vn -0.980780 -0.000000 -0.195118
vn -0.980780 -0.000000 -0.195118
vn -0.980779 0.000000 0.195122
vn -0.980779 0.000000 0.195121
vn -0.831424 0.000000 0.555639
vn -0.831423 0.000000 0.555640
vn -0.555726 0.000000 0.831365
vn -0.555729 0.000000 0.831364
# Material
mtllib table7-2.mtl
usemtl table7-2
# Faces
f 1//1 2//1 3//1 
f 1//1 3//1 4//1 
f 5//2 6//2 7//2 
f 5//2 7//2 8//2 
f 2//3 9//3 10//3 
f 2//3 10//3 3//3 
f 9//4 11//4 12//4 
f 9//5 12//5 10//5 
f 13//6 14//6 12//6 
f 13//7 12//7 11//7 
f 15//8 16//8 14//8 
f 15//9 14//9 13//9 
f 15//10 17//10 18//10 
f 15//11 18//11 16//11 
f 17//12 5//12 8//12 
f 17//13 8//13 18//13 
# eof
