# j.c. convert leaf file to obj
# Verts
v 4.738560 12.000000 0.141953
v 4.926050 12.000000 0.605000
v 4.926050 10.000000 0.605000
v 4.738560 10.000000 0.141954
v 4.204640 12.000000 -0.250600
v 4.204640 10.000000 -0.250599
v 3.405580 10.000000 -0.512895
v 3.405580 12.000000 -0.512895
v 2.463020 10.000000 -0.605000
v 2.463020 12.000000 -0.605000
v -14.778100 10.000000 -0.605000
v -14.778100 12.000000 -0.605000
v -15.720700 10.000000 -0.512895
v -15.720700 12.000000 -0.512895
v -16.519800 10.000000 -0.250599
v -16.519800 12.000000 -0.250600
v -17.053600 12.000000 0.141953
v -17.053600 10.000000 0.141954
v -17.241100 12.000000 0.605000
v -17.241100 10.000000 0.605000
# UVs
# Normals
vn 0.694502 0.567831 -0.441855
vn 0.404556 0.872923 0.272654
vn 0.618018 -0.666758 0.416519
vn 0.599519 -0.567831 -0.564043
vn 0.364610 0.604835 -0.707979
vn 0.251756 -0.835254 -0.488845
vn 0.170402 -0.709004 -0.684307
vn 0.119678 0.709004 -0.694975
vn 0.053987 -0.555105 -0.830026
vn 0.026993 0.555105 -0.831342
vn -0.030783 -0.316528 -0.948084
vn -0.061565 0.316528 -0.946583
vn -0.119673 -0.709004 -0.694976
vn -0.170394 0.709004 -0.684309
vn -0.364641 -0.604839 -0.707959
vn -0.251777 0.835256 -0.488831
vn -0.427465 0.809677 -0.402116
vn -0.495164 -0.809677 -0.315017
vn -0.756969 0.408336 0.510156
vn -0.618018 -0.666763 0.416510
# Material
mtllib table-r1-crazy.mtl
usemtl table-r1-crazy
# Faces
f 1//1 2//2 3//3 
f 1//1 3//3 4//4 
f 5//5 1//1 4//4 
f 5//5 4//4 6//6 
f 5//5 6//6 7//7 
f 5//5 7//7 8//8 
f 8//8 7//7 9//9 
f 8//8 9//9 10//10 
f 10//10 9//9 11//11 
f 10//10 11//11 12//12 
f 12//12 11//11 13//13 
f 12//12 13//13 14//14 
f 14//14 13//13 15//15 
f 14//14 15//15 16//16 
f 17//17 16//16 15//15 
f 17//17 15//15 18//18 
f 19//19 17//17 18//18 
f 19//19 18//18 20//20 
f 10//10 12//12 14//14 
f 10//10 14//14 8//8 
f 8//8 14//14 16//16 
f 8//8 16//16 5//5 
f 5//5 16//16 17//17 
f 5//5 17//17 1//1 
f 1//1 17//17 2//2 
f 2//2 17//17 19//19 
f 3//3 2//2 19//19 
f 3//3 19//19 20//20 
f 11//11 9//9 13//13 
f 13//13 9//9 7//7 
f 13//13 7//7 15//15 
f 15//15 7//7 6//6 
f 15//15 6//6 18//18 
f 18//18 6//6 4//4 
f 18//18 4//4 3//3 
f 18//18 3//3 20//20 
# eof
