# j.c. convert leaf file to obj
# Verts
v 0.382180 0.000000 0.053394
v 0.382180 0.250000 0.053394
v 0.330718 0.250000 0.048577
v 0.330718 0.000000 0.048577
v 0.431030 0.000000 0.044796
v 0.431030 0.250000 0.044796
v 0.477266 0.000000 0.022785
v 0.477266 0.250000 0.022785
v 0.520890 0.250000 -0.012640
v 0.520890 0.000000 -0.012639
v 0.561900 0.250000 -0.061478
v 0.561900 0.000000 -0.061478
v 0.600300 0.250000 -0.123729
v 0.600300 0.000000 -0.123729
v 0.636085 0.250000 -0.199394
v 0.636085 0.000000 -0.199394
v 0.669260 0.250000 -0.288473
v 0.669260 0.000000 -0.288473
v 0.716715 0.250000 -0.466006
v 0.716715 0.000000 -0.466006
v 0.753490 0.250000 -0.679815
v 0.753490 0.000000 -0.679815
v 0.524900 0.250000 -0.580985
v 0.528250 0.250000 -0.710500
v 0.528250 0.000000 -0.710500
v 0.524900 0.000000 -0.580985
v 0.515580 0.250000 -0.464018
v 0.515580 0.000000 -0.464018
v 0.492332 0.250000 -0.324191
v 0.492332 0.000000 -0.324191
v 0.476690 0.250000 -0.270164
v 0.476690 0.000000 -0.270164
v 0.458369 0.250000 -0.226728
v 0.458369 0.000000 -0.226728
v 0.437370 0.250000 -0.193883
v 0.437369 0.000000 -0.193883
v 0.413691 0.250000 -0.171630
v 0.413691 0.000000 -0.171630
v 0.387334 0.000000 -0.159967
v 0.387334 0.250000 -0.159967
v 0.358297 0.000000 -0.158895
v 0.358297 0.250000 -0.158895
v 0.339489 0.000000 -0.163921
v 0.339489 0.250000 -0.163922
v 0.323752 0.000000 -0.173346
v 0.323752 0.250000 -0.173346
v 0.311087 0.000000 -0.187168
v 0.311087 0.250000 -0.187168
v 0.301491 0.250000 -0.205391
v 0.301491 0.000000 -0.205391
v 0.291513 0.250000 -0.255031
v 0.291514 0.000000 -0.255031
v 0.293819 0.250000 -0.322265
v 0.293819 0.000000 -0.322265
v 0.307431 0.250000 -0.402746
v 0.307431 0.000000 -0.402746
v 0.331742 0.250000 -0.495481
v 0.331742 0.000000 -0.495481
v 0.366753 0.250000 -0.600465
v 0.366753 0.000000 -0.600465
v 0.412464 0.250000 -0.717705
v 0.412464 0.000000 -0.717705
v 0.177023 0.250000 -0.663570
v 0.209712 0.250000 -0.757215
v 0.209712 0.000000 -0.757215
v 0.177023 0.000000 -0.663570
v 0.150887 0.250000 -0.571605
v 0.150886 0.000000 -0.571605
v 0.131304 0.250000 -0.481317
v 0.131304 0.000000 -0.481317
v 0.118275 0.250000 -0.392707
v 0.118275 0.000000 -0.392707
v 0.112246 0.250000 -0.301673
v 0.112246 0.000000 -0.301673
v 0.115526 0.250000 -0.220889
v 0.115526 0.000000 -0.220889
v 0.128117 0.250000 -0.150354
v 0.128117 0.000000 -0.150354
v 0.150017 0.250000 -0.090069
v 0.150017 0.000000 -0.090069
v 0.181227 0.250000 -0.040034
v 0.181227 0.000000 -0.040033
v 0.221747 0.000000 -0.000247
v 0.221747 0.250000 -0.000247
v 0.271578 0.000000 0.029290
v 0.271578 0.250000 0.029290
# UVs
# Normals
vn -0.004376 0.000000 0.999990
vn 0.085169 0.000000 0.996367
vn -0.166379 0.000000 0.986062
vn -0.239070 0.000000 0.971002
vn 0.260943 0.000000 0.965354
vn 0.347144 0.000000 0.937812
vn 0.533875 0.000000 0.845563
vn 0.533876 0.000000 0.845563
vn 0.678248 0.000001 0.734833
vn 0.723575 0.000001 0.690246
vn 0.796121 0.000000 0.605138
vn 0.824617 0.000000 0.565691
vn 0.869922 0.000000 0.493189
vn 0.887579 0.000000 0.460655
vn 0.915779 0.000000 0.401684
vn 0.926828 0.000000 0.375485
vn 0.947731 0.000000 0.319071
vn 0.957394 0.000000 0.288784
vn 0.973457 0.000000 0.228870
vn 0.979945 0.000000 0.199268
vn 0.985528 0.000000 0.169510
vn 0.985528 0.000000 0.169510
vn -0.999043 0.000000 -0.043728
vn -0.999666 0.000000 -0.025857
vn -0.999666 0.000000 -0.025857
vn -0.998101 0.000000 -0.061591
vn -0.994182 0.000000 -0.107710
vn -0.990719 0.000000 -0.135927
vn -0.979313 0.000000 -0.202349
vn -0.970665 0.000000 -0.240437
vn -0.948949 0.000000 -0.315429
vn -0.935876 0.000000 -0.352330
vn -0.897973 0.000000 -0.440050
vn -0.871597 0.000001 -0.490223
vn -0.795362 0.000002 -0.606134
vn -0.742440 0.000002 -0.669913
vn -0.552605 0.000001 -0.833443
vn -0.552609 0.000000 -0.833440
vn -0.286640 0.000000 -0.958038
vn -0.162066 0.000000 -0.986780
vn 0.062071 0.000000 -0.998072
vn 0.161419 -0.000001 -0.986886
vn 0.346374 -0.000002 -0.938096
vn 0.432311 -0.000002 -0.901725
vn 0.593803 -0.000001 -0.804610
vn 0.668998 0.000000 -0.743264
vn 0.817801 0.000000 -0.575501
vn 0.817801 0.000000 -0.575501
vn 0.925084 0.000000 -0.379763
vn 0.957235 0.000001 -0.289312
vn 0.992693 0.000003 -0.120669
vn 0.999071 0.000003 -0.043094
vn 0.996907 0.000001 0.078590
vn 0.992427 0.000000 0.122840
vn 0.980628 0.000000 0.195877
vn 0.974395 0.000000 0.224843
vn 0.961547 0.000000 0.274642
vn 0.955319 0.000000 0.295577
vn 0.943250 0.000000 0.332085
vn 0.937598 0.000000 0.347722
vn 0.931688 0.000000 0.363258
vn 0.931688 0.000000 0.363258
vn -0.950424 0.000000 -0.310957
vn -0.944131 0.000000 -0.329571
vn -0.944131 0.000000 -0.329571
vn -0.956351 0.000001 -0.292220
vn -0.967462 0.000003 -0.253018
vn -0.972587 0.000003 -0.232538
vn -0.981804 0.000001 -0.189895
vn -0.985835 0.000000 -0.167719
vn -0.992883 0.000000 -0.119094
vn -0.995702 0.000000 -0.092612
vn -0.999533 0.000000 -0.030571
vn -0.999987 0.000000 0.005024
vn -0.996312 0.000000 0.085799
vn -0.991390 0.000000 0.130945
vn -0.972781 0.000000 0.231726
vn -0.957887 0.000000 0.287146
vn -0.913866 0.000000 0.406015
vn -0.883241 0.000000 0.468919
vn -0.780008 0.000000 0.625769
vn -0.780008 0.000001 0.625769
vn -0.641184 0.000000 0.767387
vn -0.577197 0.000000 0.816605
vn -0.445674 0.000000 0.895196
vn -0.378701 0.000000 0.925519
# Material
mtllib u1_chrome.mtl
usemtl u1_chrome
# Faces
f 1//1 2//2 3//3 
f 1//1 3//3 4//4 
f 5//5 6//6 2//2 
f 5//5 2//2 1//1 
f 7//7 8//8 6//6 
f 7//7 6//6 5//5 
f 9//9 8//8 7//7 
f 9//9 7//7 10//10 
f 11//11 9//9 10//10 
f 11//11 10//10 12//12 
f 13//13 11//11 12//12 
f 13//13 12//12 14//14 
f 15//15 13//13 14//14 
f 15//15 14//14 16//16 
f 17//17 15//15 16//16 
f 17//17 16//16 18//18 
f 19//19 17//17 18//18 
f 19//19 18//18 20//20 
f 21//21 19//19 20//20 
f 21//21 20//20 22//22 
f 23//23 24//24 25//25 
f 23//23 25//25 26//26 
f 27//27 23//23 26//26 
f 27//27 26//26 28//28 
f 29//29 27//27 28//28 
f 29//29 28//28 30//30 
f 31//31 29//29 30//30 
f 31//31 30//30 32//32 
f 33//33 31//31 32//32 
f 33//33 32//32 34//34 
f 35//35 33//33 34//34 
f 35//35 34//34 36//36 
f 37//37 35//35 36//36 
f 37//37 36//36 38//38 
f 37//37 38//38 39//39 
f 37//37 39//39 40//40 
f 40//40 39//39 41//41 
f 40//40 41//41 42//42 
f 42//42 41//41 43//43 
f 42//42 43//43 44//44 
f 44//44 43//43 45//45 
f 44//44 45//45 46//46 
f 46//46 45//45 47//47 
f 46//46 47//47 48//48 
f 49//49 48//48 47//47 
f 49//49 47//47 50//50 
f 51//51 49//49 50//50 
f 51//51 50//50 52//52 
f 53//53 51//51 52//52 
f 53//53 52//52 54//54 
f 55//55 53//53 54//54 
f 55//55 54//54 56//56 
f 57//57 55//55 56//56 
f 57//57 56//56 58//58 
f 59//59 57//57 58//58 
f 59//59 58//58 60//60 
f 61//61 59//59 60//60 
f 61//61 60//60 62//62 
f 63//63 64//64 65//65 
f 63//63 65//65 66//66 
f 67//67 63//63 66//66 
f 67//67 66//66 68//68 
f 69//69 67//67 68//68 
f 69//69 68//68 70//70 
f 71//71 69//69 70//70 
f 71//71 70//70 72//72 
f 73//73 71//71 72//72 
f 73//73 72//72 74//74 
f 75//75 73//73 74//74 
f 75//75 74//74 76//76 
f 77//77 75//75 76//76 
f 77//77 76//76 78//78 
f 79//79 77//77 78//78 
f 79//79 78//78 80//80 
f 81//81 79//79 80//80 
f 81//81 80//80 82//82 
f 83//83 84//84 81//81 
f 83//83 81//81 82//82 
f 85//85 86//86 84//84 
f 85//85 84//84 83//83 
f 4//4 3//3 86//86 
f 4//4 86//86 85//85 
# eof
