# j.c. convert leaf file to obj
# Verts
v 0.824928 0.500000 -1.435410
v 0.419424 0.500000 -1.514430
v 0.354045 0.500000 -1.327140
v 0.733507 0.500000 -1.200930
v 0.301773 0.500000 -1.143210
v 0.663485 0.500000 -0.990961
v 0.262608 0.500000 -0.962635
v 0.614863 0.500000 -0.805493
v 0.236550 0.500000 -0.785413
v 0.587639 0.500000 -0.644530
v 0.224491 0.500000 -0.603346
v 0.583026 0.500000 -0.510062
v 0.602982 0.500000 -0.410782
v 0.231052 0.500000 -0.441778
v 0.622173 0.500000 -0.374337
v 0.647505 0.500000 -0.346692
v 0.678979 0.500000 -0.327843
v 0.716595 0.500000 -0.317791
v 0.256233 0.500000 -0.300708
v 1.200600 0.500000 -0.247458
v 1.123800 0.500000 -0.122955
v 0.300034 0.500000 -0.180138
v 1.041780 0.500000 -0.025279
v 0.362454 0.500000 -0.080067
v 0.954533 0.500000 0.045570
v 0.443494 0.500000 -0.000494
v 0.862060 0.500000 0.089593
v 0.543155 0.500000 0.058580
v 0.764360 0.500000 0.106787
v 0.661435 0.500000 0.097155
v 1.506980 0.500000 -1.359630
v 1.056500 0.500000 -1.421000
v 1.049800 0.500000 -1.161970
v 1.433430 0.500000 -0.932011
v 1.031160 0.500000 -0.928035
v 0.984664 0.500000 -0.648382
v 1.338520 0.500000 -0.576946
v 0.953380 0.500000 -0.540328
v 0.916738 0.500000 -0.453456
v 1.272170 0.500000 -0.398788
v 0.874740 0.500000 -0.387767
v 0.827383 0.500000 -0.343259
v 0.774667 0.500000 -0.319934
v 1.506980 0.000000 -1.359630
v 1.056500 0.000000 -1.421000
v 0.824928 0.000000 -1.435410
v 0.419424 0.000000 -1.514430
v 0.354045 0.000000 -1.327140
v 0.733507 0.000000 -1.200930
v 0.301772 0.000000 -1.143210
v 0.663485 0.000000 -0.990961
v 0.262608 0.000000 -0.962635
v 0.614863 0.000000 -0.805493
v 0.236550 0.000000 -0.785413
v 0.587639 0.000000 -0.644530
v 0.224491 0.000000 -0.603346
v 0.583027 0.000000 -0.510061
v 0.602982 0.000000 -0.410782
v 0.231052 0.000000 -0.441778
v 0.622173 0.000000 -0.374337
v 0.647505 0.000000 -0.346692
v 0.678979 0.000000 -0.327842
v 0.716595 0.000000 -0.317791
v 0.256233 0.000000 -0.300708
v 1.200600 0.000000 -0.247458
v 1.123800 0.000000 -0.122955
v 0.300034 0.000000 -0.180138
v 1.041780 0.000000 -0.025278
v 0.362453 0.000000 -0.080066
v 0.954533 0.000000 0.045570
v 0.443494 0.000000 -0.000494
v 0.862060 0.000000 0.089593
v 0.543155 0.000000 0.058580
v 0.764360 0.000000 0.106787
v 0.661435 0.000000 0.097155
v 1.049800 0.000000 -1.161970
v 1.433430 0.000000 -0.932011
v 1.031160 0.000000 -0.928035
v 0.984664 0.000000 -0.648382
v 1.338520 0.000000 -0.576946
v 0.953380 0.000000 -0.540328
v 0.916738 0.000000 -0.453456
v 1.272170 0.000000 -0.398788
v 0.874739 0.000000 -0.387766
v 0.827383 0.000000 -0.343259
v 0.774667 0.000000 -0.319934
# UVs
# Normals
vn 0.085539 0.894427 -0.438957
vn 0.171078 0.447214 -0.877914
vn 0.000000 1.000000 0.000000
vn 0.000000 1.000000 0.000000
vn 0.000000 1.000000 0.000000
vn 0.000000 1.000000 0.000000
vn 0.000000 1.000000 0.000000
vn 0.000000 1.000000 0.000000
vn 0.000000 1.000000 0.000000
vn 0.000000 1.000000 0.000000
vn 0.000000 1.000000 0.000000
vn 0.000000 1.000000 0.000000
vn 0.000000 1.000000 0.000000
vn 0.000000 1.000000 0.000000
vn 0.000000 1.000000 0.000000
vn 0.000000 1.000000 0.000000
vn 0.000000 1.000000 0.000000
vn 0.000000 1.000000 0.000000
vn 0.000000 1.000000 0.000000
vn 0.000000 1.000000 0.000000
vn 0.000000 1.000000 0.000000
vn 0.000000 1.000000 0.000000
vn 0.000000 1.000000 0.000000
vn 0.000000 1.000000 0.000000
vn 0.000000 1.000000 0.000000
vn 0.000000 1.000000 0.000000
vn 0.000000 1.000000 0.000000
vn 0.000000 1.000000 0.000000
vn 0.000000 1.000000 0.000000
vn 0.000000 1.000000 0.000000
vn 0.060367 0.894427 -0.443120
vn 0.120735 0.447214 -0.886241
vn 0.000000 1.000000 0.000000
vn 0.000000 1.000000 0.000000
vn 0.000000 1.000000 0.000000
vn 0.000000 1.000000 0.000000
vn 0.000000 1.000000 0.000000
vn 0.000000 1.000000 0.000000
vn 0.000000 1.000000 0.000000
vn 0.000000 1.000000 0.000000
vn 0.000000 1.000000 0.000000
vn 0.000000 1.000000 0.000000
vn 0.000000 1.000000 0.000000
vn 0.095449 -0.707107 -0.700635
vn 0.095449 -0.707107 -0.700635
vn 0.135249 -0.707107 -0.694052
vn 0.135249 -0.707107 -0.694052
vn -0.000000 -1.000000 -0.000000
vn -0.000000 -1.000000 -0.000000
vn -0.000000 -1.000000 -0.000000
vn -0.000000 -1.000000 -0.000000
vn -0.000000 -1.000000 -0.000000
vn -0.000000 -1.000000 -0.000000
vn -0.000000 -1.000000 -0.000000
vn -0.000000 -1.000000 -0.000000
vn -0.000000 -1.000000 -0.000000
vn -0.000000 -1.000000 -0.000000
vn -0.000000 -1.000000 -0.000000
vn -0.000000 -1.000000 -0.000000
vn -0.000000 -1.000000 -0.000000
vn -0.000000 -1.000000 -0.000000
vn -0.000000 -1.000000 -0.000000
vn -0.000000 -1.000000 -0.000000
vn -0.000000 -1.000000 -0.000000
vn -0.000000 -1.000000 -0.000000
vn -0.000000 -1.000000 -0.000000
vn -0.000000 -1.000000 -0.000000
vn -0.000000 -1.000000 -0.000000
vn -0.000000 -1.000000 -0.000000
vn -0.000000 -1.000000 -0.000000
vn -0.000000 -1.000000 -0.000000
vn -0.000000 -1.000000 -0.000000
vn -0.000000 -1.000000 -0.000000
vn -0.000000 -1.000000 -0.000000
vn -0.000000 -1.000000 -0.000000
vn -0.000000 -1.000000 -0.000000
vn -0.000000 -1.000000 -0.000000
vn -0.000000 -1.000000 -0.000000
vn -0.000000 -1.000000 -0.000000
vn -0.000000 -1.000000 -0.000000
vn -0.000000 -1.000000 -0.000000
vn -0.000000 -1.000000 -0.000000
vn -0.000000 -1.000000 -0.000000
vn -0.000000 -1.000000 -0.000000
vn -0.000000 -1.000000 -0.000000
vn -0.000000 -1.000000 -0.000000
# Material
mtllib u2.mtl
usemtl u2
# Faces
f 1//1 2//2 3//3 
f 1//1 3//3 4//4 
f 4//4 3//3 5//5 
f 4//4 5//5 6//6 
f 6//6 5//5 7//7 
f 6//6 7//7 8//8 
f 8//8 7//7 9//9 
f 8//8 9//9 10//10 
f 10//10 9//9 11//11 
f 10//10 11//11 12//12 
f 12//12 11//11 13//13 
f 13//13 11//11 14//14 
f 13//13 14//14 15//15 
f 15//15 14//14 16//16 
f 16//16 14//14 17//17 
f 17//17 14//14 18//18 
f 18//18 14//14 19//19 
f 20//20 18//18 19//19 
f 20//20 19//19 21//21 
f 21//21 19//19 22//22 
f 21//21 22//22 23//23 
f 23//23 22//22 24//24 
f 23//23 24//24 25//25 
f 25//25 24//24 26//26 
f 25//25 26//26 27//27 
f 27//27 26//26 28//28 
f 27//27 28//28 29//29 
f 29//29 28//28 30//30 
f 31//31 32//32 33//33 
f 31//31 33//33 34//34 
f 34//34 33//33 35//35 
f 34//34 35//35 36//36 
f 34//34 36//36 37//37 
f 37//37 36//36 38//38 
f 37//37 38//38 39//39 
f 37//37 39//39 40//40 
f 40//40 39//39 41//41 
f 40//40 41//41 42//42 
f 40//40 42//42 43//43 
f 40//40 43//43 20//20 
f 43//43 18//18 20//20 
f 31//31 44//44 32//32 
f 32//32 44//44 45//45 
f 1//1 46//46 2//2 
f 2//2 46//46 47//47 
f 47//47 46//46 48//48 
f 48//48 46//46 49//49 
f 48//48 49//49 50//50 
f 50//50 49//49 51//51 
f 50//50 51//51 52//52 
f 52//52 51//51 53//53 
f 52//52 53//53 54//54 
f 54//54 53//53 55//55 
f 54//54 55//55 56//56 
f 56//56 55//55 57//57 
f 56//56 57//57 58//58 
f 56//56 58//58 59//59 
f 59//59 58//58 60//60 
f 59//59 60//60 61//61 
f 59//59 61//61 62//62 
f 59//59 62//62 63//63 
f 59//59 63//63 64//64 
f 63//63 65//65 64//64 
f 64//64 65//65 66//66 
f 64//64 66//66 67//67 
f 67//67 66//66 68//68 
f 67//67 68//68 69//69 
f 69//69 68//68 70//70 
f 69//69 70//70 71//71 
f 71//71 70//70 72//72 
f 71//71 72//72 73//73 
f 73//73 72//72 74//74 
f 73//73 74//74 75//75 
f 45//45 44//44 76//76 
f 76//76 44//44 77//77 
f 76//76 77//77 78//78 
f 78//78 77//77 79//79 
f 79//79 77//77 80//80 
f 79//79 80//80 81//81 
f 81//81 80//80 82//82 
f 82//82 80//80 83//83 
f 82//82 83//83 84//84 
f 84//84 83//83 85//85 
f 85//85 83//83 86//86 
f 86//86 83//83 65//65 
f 63//63 86//86 65//65 
# eof
