# j.c. convert leaf file to obj
# Verts
v 1.380340 0.500000 -1.051290
v 1.262710 0.500000 -0.440915
v 1.262710 -0.000000 -0.440915
v 1.380340 -0.000000 -1.051290
v 1.443260 0.500000 -1.434210
v 1.443260 -0.000000 -1.434210
v 1.003740 0.500000 -0.942234
v 1.003740 -0.000000 -0.942233
v 0.879048 0.500000 -0.910059
v 0.879048 -0.000000 -0.910059
v 0.759962 0.500000 -0.907948
v 0.759962 -0.000000 -0.907948
v 0.706510 0.500000 -0.919688
v 0.706510 -0.000000 -0.919688
v 0.666910 0.500000 -0.941492
v 0.666909 -0.000000 -0.941491
v 0.641161 0.500000 -0.973357
v 0.641161 -0.000000 -0.973357
v 0.629266 0.500000 -1.015290
v 0.629266 -0.000000 -1.015290
v 0.630508 0.500000 -1.128340
v 0.630508 -0.000000 -1.128340
v 0.665605 0.500000 -1.301590
v 0.665605 -0.000000 -1.301590
v 0.734618 0.500000 -1.494840
v 0.734617 -0.000000 -1.494840
v 0.327063 0.500000 -1.387310
v 0.374335 0.500000 -1.552980
v 0.374334 -0.000000 -1.552980
v 0.327063 -0.000000 -1.387310
v 0.299048 0.500000 -1.221770
v 0.299048 -0.000000 -1.221770
v 0.291513 0.500000 -1.094730
v 0.291512 -0.000000 -1.094730
v 0.298846 0.500000 -0.983095
v 0.298846 -0.000000 -0.983095
v 0.321050 0.500000 -0.886855
v 0.321050 -0.000000 -0.886855
v 0.358123 0.500000 -0.806012
v 0.358123 -0.000000 -0.806012
v 0.410065 0.500000 -0.740567
v 0.410065 -0.000000 -0.740567
v 0.476875 -0.000000 -0.690520
v 0.476876 0.500000 -0.690520
v 0.558556 -0.000000 -0.655870
v 0.558556 0.500000 -0.655870
v 0.655106 -0.000000 -0.636617
v 0.655107 0.500000 -0.636618
v 0.801022 -0.000000 -0.635686
v 0.801022 0.500000 -0.635686
v 0.970416 -0.000000 -0.662706
v 0.970416 0.500000 -0.662706
v 0.924760 0.500000 -0.474646
v 0.924760 -0.000000 -0.474646
v 0.896108 0.500000 -0.403652
v 0.896108 -0.000000 -0.403653
v 0.863574 0.500000 -0.348019
v 0.863573 -0.000000 -0.348019
v 0.827157 0.500000 -0.307744
v 0.827157 -0.000000 -0.307743
v 0.786859 0.500000 -0.282826
v 0.786859 -0.000000 -0.282826
v 0.742678 0.500000 -0.273268
v 0.742678 -0.000000 -0.273267
v 0.694615 0.500000 -0.279068
v 0.694613 -0.000000 -0.279068
v 0.636270 0.500000 -0.306632
v 0.636269 -0.000000 -0.306633
v 0.597649 0.500000 -0.353795
v 0.597649 -0.000000 -0.353795
v 0.578749 0.500000 -0.420556
v 0.578749 -0.000000 -0.420556
v 0.579572 0.500000 -0.506915
v 0.579571 -0.000000 -0.506916
v 0.588020 0.500000 -0.562573
v 0.588020 -0.000000 -0.562574
v 0.235839 0.500000 -0.428450
v 0.241154 0.500000 -0.558100
v 0.241154 -0.000000 -0.558100
v 0.235839 -0.000000 -0.428450
v 0.244618 0.500000 -0.312937
v 0.244617 -0.000000 -0.312937
v 0.267489 0.500000 -0.211565
v 0.267489 -0.000000 -0.211565
v 0.304453 0.500000 -0.124333
v 0.304452 -0.000000 -0.124332
v 0.355510 0.500000 -0.051240
v 0.355509 -0.000000 -0.051239
v 0.420659 -0.000000 0.007714
v 0.420659 0.500000 0.007714
v 0.499901 -0.000000 0.052529
v 0.499902 0.500000 0.052528
v 0.593238 -0.000000 0.083203
v 0.593238 0.500000 0.083203
v 0.659828 -0.000000 0.095129
v 0.659828 0.500000 0.095129
v 0.778506 -0.000000 0.094148
v 0.778507 0.500000 0.094147
v 0.888555 -0.000000 0.063868
v 0.888555 0.500000 0.063868
v 0.989973 -0.000000 0.004292
v 0.989973 0.500000 0.004292
v 1.082760 0.500000 -0.084581
v 1.082760 -0.000000 -0.084581
v 1.141910 0.500000 -0.163596
v 1.141910 -0.000000 -0.163595
v 1.191620 0.500000 -0.249322
v 1.191620 -0.000000 -0.249322
v 1.231890 0.500000 -0.341763
v 1.231890 -0.000000 -0.341763
# UVs
# Normals
vn 0.983626 0.000000 0.180219
vn 0.965252 0.000000 0.261321
vn 0.974264 0.000000 0.225408
vn 0.985238 0.000000 0.171188
vn 0.986767 0.000000 0.162142
vn 0.986767 0.000000 0.162142
vn -0.249852 -0.000002 -0.968284
vn -0.249849 -0.000001 -0.968285
vn -0.173535 -0.000001 -0.984828
vn -0.095683 0.000000 -0.995412
vn 0.060056 0.000000 -0.998195
vn 0.137945 0.000000 -0.990440
vn 0.306592 0.000000 -0.951841
vn 0.396674 -0.000001 -0.917959
vn 0.590640 -0.000002 -0.806935
vn 0.690808 -0.000002 -0.723038
vn 0.854589 -0.000001 -0.519304
vn 0.917127 0.000000 -0.398595
vn 0.983681 0.000000 -0.179919
vn 0.996431 0.000000 -0.084416
vn 0.997273 0.000000 0.073798
vn 0.990631 0.000000 0.136567
vn 0.969516 0.000000 0.245027
vn 0.956707 -0.000001 0.291053
vn 0.941750 -0.000001 0.336313
vn 0.941751 -0.000002 0.336311
vn -0.971053 0.000001 -0.238866
vn -0.961619 0.000002 -0.274387
vn -0.961620 0.000001 -0.274384
vn -0.979184 0.000000 -0.202976
vn -0.991363 0.000000 -0.131148
vn -0.995456 0.000001 -0.095219
vn -0.999844 0.000001 -0.017656
vn -0.999712 0.000001 0.024003
vn -0.992897 0.000001 0.118980
vn -0.985058 0.000000 0.172221
vn -0.956981 0.000000 0.290149
vn -0.935073 0.000000 0.354454
vn -0.872698 0.000000 0.488260
vn -0.830527 0.000000 0.556979
vn -0.697155 0.000000 0.716921
vn -0.697156 0.000000 0.716919
vn -0.533321 0.000001 0.845913
vn -0.463197 0.000001 0.886255
vn -0.327054 0.000000 0.945006
vn -0.261759 0.000001 0.965133
vn -0.133031 0.000001 0.991112
vn -0.069719 0.000001 0.997567
vn 0.048396 0.000001 0.998828
vn 0.103194 0.000000 0.994661
vn -0.734814 0.000000 0.678269
vn -0.734814 0.000000 0.678269
vn -0.959210 0.000000 -0.282696
vn -0.944359 0.000000 -0.328917
vn -0.908097 0.000001 -0.418760
vn -0.886680 0.000001 -0.462384
vn -0.826623 0.000001 -0.562755
vn -0.785941 0.000001 -0.618302
vn -0.675759 -0.000001 -0.737123
vn -0.603175 -0.000001 -0.797609
vn -0.426576 -0.000001 -0.904452
vn -0.320392 -0.000001 -0.947285
vn -0.102294 -0.000001 -0.994754
vn 0.009503 -0.000002 -0.999955
vn 0.224833 -0.000001 -0.974397
vn 0.328476 -0.000000 -0.944512
vn 0.554722 -0.000000 -0.832035
vn 0.672796 0.000000 -0.739828
vn 0.852390 -0.000000 -0.522906
vn 0.916413 0.000000 -0.400233
vn 0.983658 0.000000 -0.180045
vn 0.996362 -0.000001 -0.085218
vn 0.998403 -0.000001 0.056496
vn 0.994635 -0.000002 0.103451
vn 0.988675 -0.000001 0.150074
vn 0.988673 -0.000000 0.150083
vn -0.999998 0.000000 -0.002050
vn -0.999161 0.000000 -0.040961
vn -0.999161 0.000000 -0.040961
vn -0.999318 0.000001 0.036921
vn -0.992261 0.000001 0.124173
vn -0.985029 0.000001 0.172391
vn -0.960649 0.000001 0.277765
vn -0.942341 0.000001 0.334656
vn -0.891419 0.000002 0.453181
vn -0.857607 0.000003 0.514306
vn -0.750150 0.000002 0.661268
vn -0.750146 0.000002 0.661272
vn -0.614729 0.000000 0.788739
vn -0.554837 0.000000 0.831959
vn -0.434121 0.000001 0.900854
vn -0.373844 0.000001 0.927491
vn -0.267494 0.000001 0.963560
vn -0.222087 0.000000 0.975027
vn -0.115211 0.000000 0.993341
vn -0.053453 0.000000 0.998570
vn 0.094655 0.000001 0.995510
vn 0.180975 0.000001 0.983488
vn 0.348357 0.000000 0.937362
vn 0.429382 0.000000 0.903123
vn 0.603187 0.000000 0.797600
vn 0.603188 0.000000 0.797599
vn 0.730177 0.000001 0.683258
vn 0.766561 0.000001 0.642171
vn 0.823307 0.000001 0.567597
vn 0.844854 0.000001 0.534997
vn 0.883606 0.000000 0.468231
vn 0.900867 0.000000 0.434096
vn 0.930740 0.000000 0.365681
vn 0.943472 0.000000 0.331452
# Material
mtllib y1.mtl
usemtl y1
# Faces
f 1//1 2//2 3//3 
f 1//1 3//3 4//4 
f 5//5 1//1 4//4 
f 5//5 4//4 6//6 
f 7//7 8//8 9//9 
f 9//9 8//8 10//10 
f 9//9 10//10 11//11 
f 11//11 10//10 12//12 
f 11//11 12//12 13//13 
f 13//13 12//12 14//14 
f 13//13 14//14 15//15 
f 15//15 14//14 16//16 
f 15//15 16//16 17//17 
f 17//17 16//16 18//18 
f 19//19 17//17 18//18 
f 19//19 18//18 20//20 
f 21//21 19//19 20//20 
f 21//21 20//20 22//22 
f 23//23 21//21 22//22 
f 23//23 22//22 24//24 
f 25//25 23//23 24//24 
f 25//25 24//24 26//26 
f 27//27 28//28 29//29 
f 27//27 29//29 30//30 
f 31//31 27//27 30//30 
f 31//31 30//30 32//32 
f 33//33 31//31 32//32 
f 33//33 32//32 34//34 
f 35//35 33//33 34//34 
f 35//35 34//34 36//36 
f 37//37 35//35 36//36 
f 37//37 36//36 38//38 
f 39//39 37//37 38//38 
f 39//39 38//38 40//40 
f 41//41 39//39 40//40 
f 41//41 40//40 42//42 
f 43//43 44//44 41//41 
f 43//43 41//41 42//42 
f 45//45 46//46 44//44 
f 45//45 44//44 43//43 
f 47//47 48//48 46//46 
f 47//47 46//46 45//45 
f 49//49 50//50 48//48 
f 49//49 48//48 47//47 
f 51//51 52//52 50//50 
f 51//51 50//50 49//49 
f 53//53 52//52 51//51 
f 53//53 51//51 54//54 
f 55//55 53//53 54//54 
f 55//55 54//54 56//56 
f 57//57 55//55 56//56 
f 57//57 56//56 58//58 
f 59//59 57//57 58//58 
f 59//59 58//58 60//60 
f 59//59 60//60 61//61 
f 61//61 60//60 62//62 
f 61//61 62//62 63//63 
f 63//63 62//62 64//64 
f 63//63 64//64 65//65 
f 65//65 64//64 66//66 
f 65//65 66//66 67//67 
f 67//67 66//66 68//68 
f 67//67 68//68 69//69 
f 69//69 68//68 70//70 
f 71//71 69//69 70//70 
f 71//71 70//70 72//72 
f 73//73 71//71 72//72 
f 73//73 72//72 74//74 
f 75//75 73//73 74//74 
f 75//75 74//74 76//76 
f 77//77 78//78 79//79 
f 77//77 79//79 80//80 
f 81//81 77//77 80//80 
f 81//81 80//80 82//82 
f 83//83 81//81 82//82 
f 83//83 82//82 84//84 
f 85//85 83//83 84//84 
f 85//85 84//84 86//86 
f 87//87 85//85 86//86 
f 87//87 86//86 88//88 
f 89//89 90//90 87//87 
f 89//89 87//87 88//88 
f 91//91 92//92 90//90 
f 91//91 90//90 89//89 
f 93//93 94//94 92//92 
f 93//93 92//92 91//91 
f 95//95 96//96 94//94 
f 95//95 94//94 93//93 
f 97//97 98//98 96//96 
f 97//97 96//96 95//95 
f 99//99 100//100 98//98 
f 99//99 98//98 97//97 
f 101//101 102//102 100//100 
f 101//101 100//100 99//99 
f 103//103 102//102 101//101 
f 103//103 101//101 104//104 
f 105//105 103//103 104//104 
f 105//105 104//104 106//106 
f 107//107 105//105 106//106 
f 107//107 106//106 108//108 
f 109//109 107//107 108//108 
f 109//109 108//108 110//110 
f 2//2 109//109 110//110 
f 2//2 110//110 3//3 
# eof
